<svg width="2323" height="873" viewBox="0 0 2323 873" fill="none" xmlns="http://www.w3.org/2000/svg">
<rect width="2323" height="873" fill="#E1E1DC"/>
<rect x="90" y="373" width="300" height="150" fill="#4E4E4E"/>
<rect x="540" y="373" width="300" height="150" fill="#4E4E4E"/>
<rect x="1440" y="373" width="300" height="150" fill="#4E4E4E"/>
<rect x="990" y="373" width="300" height="150" fill="#4E4E4E"/>
<path d="M175.639 440V416.727H184.366C186.154 416.727 187.654 417.061 188.866 417.727C190.086 418.394 191.007 419.311 191.628 420.477C192.257 421.636 192.571 422.955 192.571 424.432C192.571 425.924 192.257 427.25 191.628 428.409C190.999 429.568 190.071 430.481 188.844 431.148C187.616 431.807 186.105 432.136 184.31 432.136H178.526V428.67H183.741C184.787 428.67 185.643 428.489 186.31 428.125C186.976 427.761 187.469 427.261 187.787 426.625C188.113 425.989 188.276 425.258 188.276 424.432C188.276 423.606 188.113 422.879 187.787 422.25C187.469 421.621 186.973 421.133 186.298 420.784C185.632 420.428 184.772 420.25 183.719 420.25H179.855V440H175.639ZM196.051 440V422.545H200.04V425.455H200.222C200.54 424.447 201.085 423.67 201.858 423.125C202.638 422.572 203.528 422.295 204.528 422.295C204.756 422.295 205.009 422.307 205.29 422.33C205.578 422.345 205.816 422.371 206.006 422.409V426.193C205.831 426.133 205.555 426.08 205.176 426.034C204.805 425.981 204.445 425.955 204.097 425.955C203.347 425.955 202.672 426.117 202.074 426.443C201.483 426.761 201.017 427.205 200.676 427.773C200.335 428.341 200.165 428.996 200.165 429.739V440H196.051ZM215.747 440.341C213.997 440.341 212.486 439.977 211.213 439.25C209.948 438.515 208.974 437.477 208.293 436.136C207.611 434.788 207.27 433.201 207.27 431.375C207.27 429.58 207.611 428.004 208.293 426.648C208.982 425.284 209.944 424.223 211.179 423.466C212.414 422.701 213.865 422.318 215.531 422.318C216.607 422.318 217.622 422.492 218.577 422.841C219.539 423.182 220.387 423.712 221.122 424.432C221.865 425.152 222.448 426.068 222.872 427.182C223.296 428.288 223.509 429.606 223.509 431.136V432.398H209.202V429.625H219.565C219.558 428.837 219.387 428.136 219.054 427.523C218.721 426.902 218.255 426.413 217.656 426.057C217.065 425.701 216.376 425.523 215.588 425.523C214.747 425.523 214.009 425.727 213.372 426.136C212.736 426.538 212.24 427.068 211.884 427.727C211.535 428.379 211.357 429.095 211.349 429.875V432.295C211.349 433.311 211.535 434.182 211.906 434.909C212.277 435.629 212.796 436.182 213.463 436.568C214.13 436.947 214.91 437.136 215.804 437.136C216.402 437.136 216.944 437.053 217.429 436.886C217.914 436.712 218.334 436.458 218.69 436.125C219.046 435.792 219.315 435.379 219.497 434.886L223.338 435.318C223.096 436.333 222.634 437.22 221.952 437.977C221.277 438.727 220.414 439.311 219.361 439.727C218.308 440.136 217.103 440.341 215.747 440.341ZM242.08 422.545L235.864 440H231.318L225.102 422.545H229.489L233.5 435.511H233.682L237.705 422.545H242.08ZM244.926 440V422.545H249.04V440H244.926ZM246.994 420.068C246.343 420.068 245.782 419.852 245.312 419.42C244.843 418.981 244.608 418.455 244.608 417.841C244.608 417.22 244.843 416.693 245.312 416.261C245.782 415.822 246.343 415.602 246.994 415.602C247.653 415.602 248.214 415.822 248.676 416.261C249.146 416.693 249.381 417.22 249.381 417.841C249.381 418.455 249.146 418.981 248.676 419.42C248.214 419.852 247.653 420.068 246.994 420.068ZM260.884 440.341C259.179 440.341 257.702 439.966 256.452 439.216C255.202 438.466 254.232 437.417 253.543 436.068C252.861 434.72 252.52 433.144 252.52 431.341C252.52 429.538 252.861 427.958 253.543 426.602C254.232 425.246 255.202 424.193 256.452 423.443C257.702 422.693 259.179 422.318 260.884 422.318C262.588 422.318 264.065 422.693 265.315 423.443C266.565 424.193 267.531 425.246 268.213 426.602C268.902 427.958 269.247 429.538 269.247 431.341C269.247 433.144 268.902 434.72 268.213 436.068C267.531 437.417 266.565 438.466 265.315 439.216C264.065 439.966 262.588 440.341 260.884 440.341ZM260.906 437.045C261.83 437.045 262.603 436.792 263.224 436.284C263.846 435.769 264.308 435.08 264.611 434.216C264.921 433.352 265.077 432.39 265.077 431.33C265.077 430.261 264.921 429.295 264.611 428.432C264.308 427.561 263.846 426.867 263.224 426.352C262.603 425.837 261.83 425.58 260.906 425.58C259.959 425.58 259.171 425.837 258.543 426.352C257.921 426.867 257.455 427.561 257.145 428.432C256.842 429.295 256.69 430.261 256.69 431.33C256.69 432.39 256.842 433.352 257.145 434.216C257.455 435.08 257.921 435.769 258.543 436.284C259.171 436.792 259.959 437.045 260.906 437.045ZM283.864 432.659V422.545H287.977V440H283.989V436.898H283.807C283.413 437.875 282.765 438.674 281.864 439.295C280.97 439.917 279.867 440.227 278.557 440.227C277.413 440.227 276.402 439.973 275.523 439.466C274.652 438.951 273.97 438.205 273.477 437.227C272.985 436.242 272.739 435.053 272.739 433.659V422.545H276.852V433.023C276.852 434.129 277.155 435.008 277.761 435.659C278.367 436.311 279.163 436.636 280.148 436.636C280.754 436.636 281.341 436.489 281.909 436.193C282.477 435.898 282.943 435.458 283.307 434.875C283.678 434.284 283.864 433.545 283.864 432.659ZM306.003 427.159L302.253 427.568C302.147 427.189 301.961 426.833 301.696 426.5C301.438 426.167 301.09 425.898 300.651 425.693C300.211 425.489 299.673 425.386 299.037 425.386C298.181 425.386 297.461 425.572 296.878 425.943C296.302 426.314 296.018 426.795 296.026 427.386C296.018 427.894 296.204 428.307 296.582 428.625C296.969 428.943 297.605 429.205 298.491 429.409L301.469 430.045C303.12 430.402 304.348 430.966 305.151 431.739C305.961 432.511 306.37 433.523 306.378 434.773C306.37 435.871 306.048 436.841 305.412 437.682C304.783 438.515 303.908 439.167 302.787 439.636C301.666 440.106 300.378 440.341 298.923 440.341C296.787 440.341 295.067 439.894 293.764 439C292.461 438.098 291.685 436.845 291.435 435.239L295.446 434.852C295.628 435.64 296.014 436.235 296.605 436.636C297.196 437.038 297.965 437.239 298.912 437.239C299.889 437.239 300.673 437.038 301.264 436.636C301.863 436.235 302.162 435.739 302.162 435.148C302.162 434.648 301.969 434.235 301.582 433.909C301.204 433.583 300.613 433.333 299.81 433.159L296.832 432.534C295.158 432.186 293.92 431.598 293.116 430.773C292.313 429.939 291.916 428.886 291.923 427.614C291.916 426.538 292.207 425.606 292.798 424.818C293.397 424.023 294.226 423.409 295.287 422.977C296.355 422.538 297.586 422.318 298.98 422.318C301.026 422.318 302.635 422.754 303.81 423.625C304.991 424.496 305.723 425.674 306.003 427.159ZM157.983 479V455.727H162.097V464.432H162.267C162.479 464.008 162.778 463.557 163.165 463.08C163.551 462.595 164.074 462.182 164.733 461.841C165.392 461.492 166.233 461.318 167.256 461.318C168.604 461.318 169.82 461.663 170.903 462.352C171.994 463.034 172.858 464.045 173.494 465.386C174.138 466.72 174.46 468.356 174.46 470.295C174.46 472.212 174.146 473.841 173.517 475.182C172.888 476.523 172.032 477.545 170.949 478.25C169.866 478.955 168.638 479.307 167.267 479.307C166.267 479.307 165.438 479.14 164.778 478.807C164.119 478.473 163.589 478.072 163.188 477.602C162.794 477.125 162.487 476.674 162.267 476.25H162.028V479H157.983ZM162.017 470.273C162.017 471.402 162.176 472.39 162.494 473.239C162.82 474.087 163.286 474.75 163.892 475.227C164.506 475.697 165.248 475.932 166.119 475.932C167.028 475.932 167.79 475.689 168.403 475.205C169.017 474.712 169.479 474.042 169.79 473.193C170.108 472.337 170.267 471.364 170.267 470.273C170.267 469.189 170.112 468.227 169.801 467.386C169.491 466.545 169.028 465.886 168.415 465.409C167.801 464.932 167.036 464.693 166.119 464.693C165.241 464.693 164.494 464.924 163.881 465.386C163.267 465.848 162.801 466.496 162.483 467.33C162.172 468.163 162.017 469.144 162.017 470.273ZM185.571 479.341C183.866 479.341 182.389 478.966 181.139 478.216C179.889 477.466 178.92 476.417 178.23 475.068C177.548 473.72 177.207 472.144 177.207 470.341C177.207 468.538 177.548 466.958 178.23 465.602C178.92 464.246 179.889 463.193 181.139 462.443C182.389 461.693 183.866 461.318 185.571 461.318C187.276 461.318 188.753 461.693 190.003 462.443C191.253 463.193 192.219 464.246 192.901 465.602C193.59 466.958 193.935 468.538 193.935 470.341C193.935 472.144 193.59 473.72 192.901 475.068C192.219 476.417 191.253 477.466 190.003 478.216C188.753 478.966 187.276 479.341 185.571 479.341ZM185.594 476.045C186.518 476.045 187.291 475.792 187.912 475.284C188.533 474.769 188.995 474.08 189.298 473.216C189.609 472.352 189.764 471.39 189.764 470.33C189.764 469.261 189.609 468.295 189.298 467.432C188.995 466.561 188.533 465.867 187.912 465.352C187.291 464.837 186.518 464.58 185.594 464.58C184.647 464.58 183.859 464.837 183.23 465.352C182.609 465.867 182.143 466.561 181.832 467.432C181.529 468.295 181.378 469.261 181.378 470.33C181.378 471.39 181.529 472.352 181.832 473.216C182.143 474.08 182.609 474.769 183.23 475.284C183.859 475.792 184.647 476.045 185.594 476.045ZM205.04 479.341C203.335 479.341 201.858 478.966 200.608 478.216C199.358 477.466 198.388 476.417 197.699 475.068C197.017 473.72 196.676 472.144 196.676 470.341C196.676 468.538 197.017 466.958 197.699 465.602C198.388 464.246 199.358 463.193 200.608 462.443C201.858 461.693 203.335 461.318 205.04 461.318C206.744 461.318 208.222 461.693 209.472 462.443C210.722 463.193 211.688 464.246 212.369 465.602C213.059 466.958 213.403 468.538 213.403 470.341C213.403 472.144 213.059 473.72 212.369 475.068C211.688 476.417 210.722 477.466 209.472 478.216C208.222 478.966 206.744 479.341 205.04 479.341ZM205.062 476.045C205.987 476.045 206.759 475.792 207.381 475.284C208.002 474.769 208.464 474.08 208.767 473.216C209.078 472.352 209.233 471.39 209.233 470.33C209.233 469.261 209.078 468.295 208.767 467.432C208.464 466.561 208.002 465.867 207.381 465.352C206.759 464.837 205.987 464.58 205.062 464.58C204.116 464.58 203.328 464.837 202.699 465.352C202.078 465.867 201.612 466.561 201.301 467.432C200.998 468.295 200.847 469.261 200.847 470.33C200.847 471.39 200.998 472.352 201.301 473.216C201.612 474.08 202.078 474.769 202.699 475.284C203.328 475.792 204.116 476.045 205.062 476.045ZM225.611 461.545V464.727H215.577V461.545H225.611ZM218.054 457.364H222.168V473.75C222.168 474.303 222.251 474.727 222.418 475.023C222.592 475.311 222.819 475.508 223.099 475.614C223.38 475.72 223.69 475.773 224.031 475.773C224.289 475.773 224.524 475.754 224.736 475.716C224.955 475.678 225.122 475.644 225.236 475.614L225.929 478.83C225.709 478.905 225.395 478.989 224.986 479.08C224.584 479.17 224.092 479.223 223.509 479.239C222.478 479.269 221.55 479.114 220.724 478.773C219.899 478.424 219.243 477.886 218.759 477.159C218.281 476.432 218.046 475.523 218.054 474.432V457.364ZM233.54 455.727V479H229.426V455.727H233.54ZM245.384 479.341C243.679 479.341 242.202 478.966 240.952 478.216C239.702 477.466 238.732 476.417 238.043 475.068C237.361 473.72 237.02 472.144 237.02 470.341C237.02 468.538 237.361 466.958 238.043 465.602C238.732 464.246 239.702 463.193 240.952 462.443C242.202 461.693 243.679 461.318 245.384 461.318C247.088 461.318 248.565 461.693 249.815 462.443C251.065 463.193 252.031 464.246 252.713 465.602C253.402 466.958 253.747 468.538 253.747 470.341C253.747 472.144 253.402 473.72 252.713 475.068C252.031 476.417 251.065 477.466 249.815 478.216C248.565 478.966 247.088 479.341 245.384 479.341ZM245.406 476.045C246.33 476.045 247.103 475.792 247.724 475.284C248.346 474.769 248.808 474.08 249.111 473.216C249.421 472.352 249.577 471.39 249.577 470.33C249.577 469.261 249.421 468.295 249.111 467.432C248.808 466.561 248.346 465.867 247.724 465.352C247.103 464.837 246.33 464.58 245.406 464.58C244.459 464.58 243.671 464.837 243.043 465.352C242.421 465.867 241.955 466.561 241.645 467.432C241.342 468.295 241.19 469.261 241.19 470.33C241.19 471.39 241.342 472.352 241.645 473.216C241.955 474.08 242.421 474.769 243.043 475.284C243.671 475.792 244.459 476.045 245.406 476.045ZM262.261 479.352C261.155 479.352 260.159 479.155 259.273 478.761C258.394 478.36 257.697 477.769 257.182 476.989C256.674 476.208 256.42 475.246 256.42 474.102C256.42 473.117 256.602 472.303 256.966 471.659C257.33 471.015 257.826 470.5 258.455 470.114C259.083 469.727 259.792 469.436 260.58 469.239C261.375 469.034 262.197 468.886 263.045 468.795C264.068 468.689 264.898 468.595 265.534 468.511C266.17 468.42 266.633 468.284 266.92 468.102C267.216 467.913 267.364 467.621 267.364 467.227V467.159C267.364 466.303 267.11 465.64 266.602 465.17C266.095 464.701 265.364 464.466 264.409 464.466C263.402 464.466 262.602 464.686 262.011 465.125C261.428 465.564 261.034 466.083 260.83 466.682L256.989 466.136C257.292 465.076 257.792 464.189 258.489 463.477C259.186 462.758 260.038 462.22 261.045 461.864C262.053 461.5 263.167 461.318 264.386 461.318C265.227 461.318 266.064 461.417 266.898 461.614C267.731 461.811 268.492 462.136 269.182 462.591C269.871 463.038 270.424 463.648 270.841 464.42C271.265 465.193 271.477 466.159 271.477 467.318V479H267.523V476.602H267.386C267.136 477.087 266.784 477.542 266.33 477.966C265.883 478.383 265.318 478.72 264.636 478.977C263.962 479.227 263.17 479.352 262.261 479.352ZM263.33 476.33C264.155 476.33 264.871 476.167 265.477 475.841C266.083 475.508 266.549 475.068 266.875 474.523C267.208 473.977 267.375 473.383 267.375 472.739V470.682C267.246 470.788 267.027 470.886 266.716 470.977C266.413 471.068 266.072 471.148 265.693 471.216C265.314 471.284 264.939 471.345 264.568 471.398C264.197 471.451 263.875 471.496 263.602 471.534C262.989 471.617 262.439 471.754 261.955 471.943C261.47 472.133 261.087 472.398 260.807 472.739C260.527 473.072 260.386 473.504 260.386 474.034C260.386 474.792 260.663 475.364 261.216 475.75C261.769 476.136 262.473 476.33 263.33 476.33ZM282.091 479.307C280.72 479.307 279.492 478.955 278.409 478.25C277.326 477.545 276.47 476.523 275.841 475.182C275.212 473.841 274.898 472.212 274.898 470.295C274.898 468.356 275.216 466.72 275.852 465.386C276.496 464.045 277.364 463.034 278.455 462.352C279.545 461.663 280.761 461.318 282.102 461.318C283.125 461.318 283.966 461.492 284.625 461.841C285.284 462.182 285.807 462.595 286.193 463.08C286.58 463.557 286.879 464.008 287.091 464.432H287.261V455.727H291.386V479H287.341V476.25H287.091C286.879 476.674 286.572 477.125 286.17 477.602C285.769 478.072 285.239 478.473 284.58 478.807C283.92 479.14 283.091 479.307 282.091 479.307ZM283.239 475.932C284.11 475.932 284.852 475.697 285.466 475.227C286.08 474.75 286.545 474.087 286.864 473.239C287.182 472.39 287.341 471.402 287.341 470.273C287.341 469.144 287.182 468.163 286.864 467.33C286.553 466.496 286.091 465.848 285.477 465.386C284.871 464.924 284.125 464.693 283.239 464.693C282.322 464.693 281.557 464.932 280.943 465.409C280.33 465.886 279.867 466.545 279.557 467.386C279.246 468.227 279.091 469.189 279.091 470.273C279.091 471.364 279.246 472.337 279.557 473.193C279.875 474.042 280.341 474.712 280.955 475.205C281.576 475.689 282.337 475.932 283.239 475.932ZM303.497 479.341C301.747 479.341 300.236 478.977 298.963 478.25C297.698 477.515 296.724 476.477 296.043 475.136C295.361 473.788 295.02 472.201 295.02 470.375C295.02 468.58 295.361 467.004 296.043 465.648C296.732 464.284 297.694 463.223 298.929 462.466C300.164 461.701 301.615 461.318 303.281 461.318C304.357 461.318 305.372 461.492 306.327 461.841C307.289 462.182 308.137 462.712 308.872 463.432C309.615 464.152 310.198 465.068 310.622 466.182C311.046 467.288 311.259 468.606 311.259 470.136V471.398H296.952V468.625H307.315C307.308 467.837 307.137 467.136 306.804 466.523C306.471 465.902 306.005 465.413 305.406 465.057C304.815 464.701 304.126 464.523 303.338 464.523C302.497 464.523 301.759 464.727 301.122 465.136C300.486 465.538 299.99 466.068 299.634 466.727C299.285 467.379 299.107 468.095 299.099 468.875V471.295C299.099 472.311 299.285 473.182 299.656 473.909C300.027 474.629 300.546 475.182 301.213 475.568C301.88 475.947 302.66 476.136 303.554 476.136C304.152 476.136 304.694 476.053 305.179 475.886C305.664 475.712 306.084 475.458 306.44 475.125C306.796 474.792 307.065 474.379 307.247 473.886L311.088 474.318C310.846 475.333 310.384 476.22 309.702 476.977C309.027 477.727 308.164 478.311 307.111 478.727C306.058 479.136 304.853 479.341 303.497 479.341ZM314.739 479V461.545H318.727V464.455H318.909C319.227 463.447 319.773 462.67 320.545 462.125C321.326 461.572 322.216 461.295 323.216 461.295C323.443 461.295 323.697 461.307 323.977 461.33C324.265 461.345 324.504 461.371 324.693 461.409V465.193C324.519 465.133 324.242 465.08 323.864 465.034C323.492 464.981 323.133 464.955 322.784 464.955C322.034 464.955 321.36 465.117 320.761 465.443C320.17 465.761 319.705 466.205 319.364 466.773C319.023 467.341 318.852 467.996 318.852 468.739V479H314.739Z" fill="white"/>
<path d="M645.237 427.159L641.487 427.568C641.381 427.189 641.196 426.833 640.93 426.5C640.673 426.167 640.324 425.898 639.885 425.693C639.446 425.489 638.908 425.386 638.271 425.386C637.415 425.386 636.696 425.572 636.112 425.943C635.536 426.314 635.252 426.795 635.26 427.386C635.252 427.894 635.438 428.307 635.817 428.625C636.203 428.943 636.839 429.205 637.726 429.409L640.703 430.045C642.355 430.402 643.582 430.966 644.385 431.739C645.196 432.511 645.605 433.523 645.612 434.773C645.605 435.871 645.283 436.841 644.646 437.682C644.018 438.515 643.143 439.167 642.021 439.636C640.9 440.106 639.612 440.341 638.158 440.341C636.021 440.341 634.302 439.894 632.999 439C631.696 438.098 630.919 436.845 630.669 435.239L634.68 434.852C634.862 435.64 635.249 436.235 635.839 436.636C636.43 437.038 637.199 437.239 638.146 437.239C639.124 437.239 639.908 437.038 640.499 436.636C641.097 436.235 641.396 435.739 641.396 435.148C641.396 434.648 641.203 434.235 640.817 433.909C640.438 433.583 639.847 433.333 639.044 433.159L636.067 432.534C634.393 432.186 633.154 431.598 632.351 430.773C631.548 429.939 631.15 428.886 631.158 427.614C631.15 426.538 631.442 425.606 632.033 424.818C632.631 424.023 633.461 423.409 634.521 422.977C635.589 422.538 636.821 422.318 638.214 422.318C640.26 422.318 641.87 422.754 643.044 423.625C644.226 424.496 644.957 425.674 645.237 427.159ZM656.732 440.341C654.982 440.341 653.47 439.977 652.197 439.25C650.932 438.515 649.959 437.477 649.277 436.136C648.595 434.788 648.254 433.201 648.254 431.375C648.254 429.58 648.595 428.004 649.277 426.648C649.966 425.284 650.929 424.223 652.163 423.466C653.398 422.701 654.849 422.318 656.516 422.318C657.591 422.318 658.607 422.492 659.561 422.841C660.523 423.182 661.372 423.712 662.107 424.432C662.849 425.152 663.432 426.068 663.857 427.182C664.281 428.288 664.493 429.606 664.493 431.136V432.398H650.186V429.625H660.55C660.542 428.837 660.372 428.136 660.038 427.523C659.705 426.902 659.239 426.413 658.641 426.057C658.05 425.701 657.36 425.523 656.572 425.523C655.732 425.523 654.993 425.727 654.357 426.136C653.72 426.538 653.224 427.068 652.868 427.727C652.519 428.379 652.341 429.095 652.334 429.875V432.295C652.334 433.311 652.519 434.182 652.891 434.909C653.262 435.629 653.781 436.182 654.447 436.568C655.114 436.947 655.894 437.136 656.788 437.136C657.387 437.136 657.929 437.053 658.413 436.886C658.898 436.712 659.319 436.458 659.675 436.125C660.031 435.792 660.3 435.379 660.482 434.886L664.322 435.318C664.08 436.333 663.618 437.22 662.936 437.977C662.262 438.727 661.398 439.311 660.345 439.727C659.292 440.136 658.088 440.341 656.732 440.341ZM668.155 440V416.727H672.371V436.466H682.621V440H668.155ZM685.632 435.682V432.33L695.507 416.727H698.303V421.5H696.598L689.95 432.034V432.216H703.734V435.682H685.632ZM696.734 440V434.659L696.78 433.159V416.727H700.757V440H696.734ZM727.513 424.58H723.263C723.142 423.883 722.918 423.265 722.592 422.727C722.267 422.182 721.861 421.72 721.376 421.341C720.892 420.962 720.339 420.678 719.717 420.489C719.104 420.292 718.441 420.193 717.729 420.193C716.464 420.193 715.342 420.511 714.365 421.148C713.388 421.777 712.623 422.701 712.07 423.92C711.517 425.133 711.24 426.614 711.24 428.364C711.24 430.144 711.517 431.644 712.07 432.864C712.63 434.076 713.395 434.992 714.365 435.614C715.342 436.227 716.46 436.534 717.717 436.534C718.414 436.534 719.066 436.443 719.672 436.261C720.286 436.072 720.835 435.795 721.32 435.432C721.812 435.068 722.225 434.621 722.558 434.091C722.899 433.561 723.134 432.955 723.263 432.273L727.513 432.295C727.354 433.402 727.009 434.439 726.479 435.409C725.956 436.379 725.27 437.235 724.422 437.977C723.573 438.712 722.581 439.288 721.445 439.705C720.308 440.114 719.047 440.318 717.661 440.318C715.615 440.318 713.789 439.845 712.183 438.898C710.577 437.951 709.312 436.583 708.388 434.795C707.464 433.008 707.001 430.864 707.001 428.364C707.001 425.856 707.467 423.712 708.399 421.932C709.331 420.144 710.6 418.777 712.206 417.83C713.812 416.883 715.63 416.409 717.661 416.409C718.956 416.409 720.161 416.591 721.274 416.955C722.388 417.318 723.38 417.852 724.251 418.557C725.123 419.254 725.839 420.11 726.399 421.125C726.967 422.133 727.339 423.284 727.513 424.58ZM731.374 440V416.727H740.101C741.889 416.727 743.389 417.061 744.601 417.727C745.821 418.394 746.741 419.311 747.362 420.477C747.991 421.636 748.305 422.955 748.305 424.432C748.305 425.924 747.991 427.25 747.362 428.409C746.733 429.568 745.805 430.481 744.578 431.148C743.351 431.807 741.839 432.136 740.044 432.136H734.26V428.67H739.476C740.521 428.67 741.377 428.489 742.044 428.125C742.711 427.761 743.203 427.261 743.521 426.625C743.847 425.989 744.01 425.258 744.01 424.432C744.01 423.606 743.847 422.879 743.521 422.25C743.203 421.621 742.707 421.133 742.033 420.784C741.366 420.428 740.506 420.25 739.453 420.25H735.589V440H731.374ZM637.905 479V455.727H642.121V475.466H652.371V479H637.905ZM663.462 479.341C661.757 479.341 660.28 478.966 659.03 478.216C657.78 477.466 656.81 476.417 656.121 475.068C655.439 473.72 655.098 472.144 655.098 470.341C655.098 468.538 655.439 466.958 656.121 465.602C656.81 464.246 657.78 463.193 659.03 462.443C660.28 461.693 661.757 461.318 663.462 461.318C665.166 461.318 666.643 461.693 667.893 462.443C669.143 463.193 670.109 464.246 670.791 465.602C671.481 466.958 671.825 468.538 671.825 470.341C671.825 472.144 671.481 473.72 670.791 475.068C670.109 476.417 669.143 477.466 667.893 478.216C666.643 478.966 665.166 479.341 663.462 479.341ZM663.484 476.045C664.409 476.045 665.181 475.792 665.803 475.284C666.424 474.769 666.886 474.08 667.189 473.216C667.5 472.352 667.655 471.39 667.655 470.33C667.655 469.261 667.5 468.295 667.189 467.432C666.886 466.561 666.424 465.867 665.803 465.352C665.181 464.837 664.409 464.58 663.484 464.58C662.537 464.58 661.75 464.837 661.121 465.352C660.5 465.867 660.034 466.561 659.723 467.432C659.42 468.295 659.268 469.261 659.268 470.33C659.268 471.39 659.42 472.352 659.723 473.216C660.034 474.08 660.5 474.769 661.121 475.284C661.75 475.792 662.537 476.045 663.484 476.045ZM680.339 479.352C679.233 479.352 678.237 479.155 677.351 478.761C676.472 478.36 675.775 477.769 675.26 476.989C674.752 476.208 674.499 475.246 674.499 474.102C674.499 473.117 674.68 472.303 675.044 471.659C675.408 471.015 675.904 470.5 676.533 470.114C677.161 469.727 677.87 469.436 678.658 469.239C679.453 469.034 680.275 468.886 681.124 468.795C682.146 468.689 682.976 468.595 683.612 468.511C684.249 468.42 684.711 468.284 684.999 468.102C685.294 467.913 685.442 467.621 685.442 467.227V467.159C685.442 466.303 685.188 465.64 684.68 465.17C684.173 464.701 683.442 464.466 682.487 464.466C681.48 464.466 680.68 464.686 680.089 465.125C679.506 465.564 679.112 466.083 678.908 466.682L675.067 466.136C675.37 465.076 675.87 464.189 676.567 463.477C677.264 462.758 678.116 462.22 679.124 461.864C680.131 461.5 681.245 461.318 682.464 461.318C683.305 461.318 684.143 461.417 684.976 461.614C685.809 461.811 686.571 462.136 687.26 462.591C687.949 463.038 688.502 463.648 688.919 464.42C689.343 465.193 689.555 466.159 689.555 467.318V479H685.601V476.602H685.464C685.214 477.087 684.862 477.542 684.408 477.966C683.961 478.383 683.396 478.72 682.714 478.977C682.04 479.227 681.249 479.352 680.339 479.352ZM681.408 476.33C682.233 476.33 682.949 476.167 683.555 475.841C684.161 475.508 684.627 475.068 684.953 474.523C685.286 473.977 685.453 473.383 685.453 472.739V470.682C685.324 470.788 685.105 470.886 684.794 470.977C684.491 471.068 684.15 471.148 683.771 471.216C683.393 471.284 683.018 471.345 682.646 471.398C682.275 471.451 681.953 471.496 681.68 471.534C681.067 471.617 680.518 471.754 680.033 471.943C679.548 472.133 679.165 472.398 678.885 472.739C678.605 473.072 678.464 473.504 678.464 474.034C678.464 474.792 678.741 475.364 679.294 475.75C679.847 476.136 680.552 476.33 681.408 476.33ZM700.169 479.307C698.798 479.307 697.571 478.955 696.487 478.25C695.404 477.545 694.548 476.523 693.919 475.182C693.29 473.841 692.976 472.212 692.976 470.295C692.976 468.356 693.294 466.72 693.93 465.386C694.574 464.045 695.442 463.034 696.533 462.352C697.624 461.663 698.839 461.318 700.18 461.318C701.203 461.318 702.044 461.492 702.703 461.841C703.362 462.182 703.885 462.595 704.271 463.08C704.658 463.557 704.957 464.008 705.169 464.432H705.339V455.727H709.464V479H705.419V476.25H705.169C704.957 476.674 704.65 477.125 704.249 477.602C703.847 478.072 703.317 478.473 702.658 478.807C701.999 479.14 701.169 479.307 700.169 479.307ZM701.317 475.932C702.188 475.932 702.93 475.697 703.544 475.227C704.158 474.75 704.624 474.087 704.942 473.239C705.26 472.39 705.419 471.402 705.419 470.273C705.419 469.144 705.26 468.163 704.942 467.33C704.631 466.496 704.169 465.848 703.555 465.386C702.949 464.924 702.203 464.693 701.317 464.693C700.4 464.693 699.635 464.932 699.021 465.409C698.408 465.886 697.946 466.545 697.635 467.386C697.324 468.227 697.169 469.189 697.169 470.273C697.169 471.364 697.324 472.337 697.635 473.193C697.953 474.042 698.419 474.712 699.033 475.205C699.654 475.689 700.415 475.932 701.317 475.932ZM721.575 479.341C719.825 479.341 718.314 478.977 717.041 478.25C715.776 477.515 714.803 476.477 714.121 475.136C713.439 473.788 713.098 472.201 713.098 470.375C713.098 468.58 713.439 467.004 714.121 465.648C714.81 464.284 715.772 463.223 717.007 462.466C718.242 461.701 719.693 461.318 721.359 461.318C722.435 461.318 723.45 461.492 724.405 461.841C725.367 462.182 726.215 462.712 726.95 463.432C727.693 464.152 728.276 465.068 728.7 466.182C729.125 467.288 729.337 468.606 729.337 470.136V471.398H715.03V468.625H725.393C725.386 467.837 725.215 467.136 724.882 466.523C724.549 465.902 724.083 465.413 723.484 465.057C722.893 464.701 722.204 464.523 721.416 464.523C720.575 464.523 719.837 464.727 719.2 465.136C718.564 465.538 718.068 466.068 717.712 466.727C717.363 467.379 717.185 468.095 717.178 468.875V471.295C717.178 472.311 717.363 473.182 717.734 473.909C718.106 474.629 718.625 475.182 719.291 475.568C719.958 475.947 720.738 476.136 721.632 476.136C722.231 476.136 722.772 476.053 723.257 475.886C723.742 475.712 724.162 475.458 724.518 475.125C724.875 474.792 725.143 474.379 725.325 473.886L729.166 474.318C728.924 475.333 728.462 476.22 727.78 476.977C727.106 477.727 726.242 478.311 725.189 478.727C724.136 479.136 722.931 479.341 721.575 479.341ZM732.817 479V461.545H736.805V464.455H736.987C737.305 463.447 737.851 462.67 738.624 462.125C739.404 461.572 740.294 461.295 741.294 461.295C741.521 461.295 741.775 461.307 742.055 461.33C742.343 461.345 742.582 461.371 742.771 461.409V465.193C742.597 465.133 742.321 465.08 741.942 465.034C741.571 464.981 741.211 464.955 740.862 464.955C740.112 464.955 739.438 465.117 738.839 465.443C738.249 465.761 737.783 466.205 737.442 466.773C737.101 467.341 736.93 467.996 736.93 468.739V479H732.817Z" fill="white"/>
<path d="M1545.24 427.159L1541.49 427.568C1541.38 427.189 1541.2 426.833 1540.93 426.5C1540.67 426.167 1540.32 425.898 1539.88 425.693C1539.45 425.489 1538.91 425.386 1538.27 425.386C1537.42 425.386 1536.7 425.572 1536.11 425.943C1535.54 426.314 1535.25 426.795 1535.26 427.386C1535.25 427.894 1535.44 428.307 1535.82 428.625C1536.2 428.943 1536.84 429.205 1537.73 429.409L1540.7 430.045C1542.35 430.402 1543.58 430.966 1544.38 431.739C1545.2 432.511 1545.6 433.523 1545.61 434.773C1545.6 435.871 1545.28 436.841 1544.65 437.682C1544.02 438.515 1543.14 439.167 1542.02 439.636C1540.9 440.106 1539.61 440.341 1538.16 440.341C1536.02 440.341 1534.3 439.894 1533 439C1531.7 438.098 1530.92 436.845 1530.67 435.239L1534.68 434.852C1534.86 435.64 1535.25 436.235 1535.84 436.636C1536.43 437.038 1537.2 437.239 1538.15 437.239C1539.12 437.239 1539.91 437.038 1540.5 436.636C1541.1 436.235 1541.4 435.739 1541.4 435.148C1541.4 434.648 1541.2 434.235 1540.82 433.909C1540.44 433.583 1539.85 433.333 1539.04 433.159L1536.07 432.534C1534.39 432.186 1533.15 431.598 1532.35 430.773C1531.55 429.939 1531.15 428.886 1531.16 427.614C1531.15 426.538 1531.44 425.606 1532.03 424.818C1532.63 424.023 1533.46 423.409 1534.52 422.977C1535.59 422.538 1536.82 422.318 1538.21 422.318C1540.26 422.318 1541.87 422.754 1543.04 423.625C1544.23 424.496 1544.96 425.674 1545.24 427.159ZM1556.73 440.341C1554.98 440.341 1553.47 439.977 1552.2 439.25C1550.93 438.515 1549.96 437.477 1549.28 436.136C1548.6 434.788 1548.25 433.201 1548.25 431.375C1548.25 429.58 1548.6 428.004 1549.28 426.648C1549.97 425.284 1550.93 424.223 1552.16 423.466C1553.4 422.701 1554.85 422.318 1556.52 422.318C1557.59 422.318 1558.61 422.492 1559.56 422.841C1560.52 423.182 1561.37 423.712 1562.11 424.432C1562.85 425.152 1563.43 426.068 1563.86 427.182C1564.28 428.288 1564.49 429.606 1564.49 431.136V432.398H1550.19V429.625H1560.55C1560.54 428.837 1560.37 428.136 1560.04 427.523C1559.71 426.902 1559.24 426.413 1558.64 426.057C1558.05 425.701 1557.36 425.523 1556.57 425.523C1555.73 425.523 1554.99 425.727 1554.36 426.136C1553.72 426.538 1553.22 427.068 1552.87 427.727C1552.52 428.379 1552.34 429.095 1552.33 429.875V432.295C1552.33 433.311 1552.52 434.182 1552.89 434.909C1553.26 435.629 1553.78 436.182 1554.45 436.568C1555.11 436.947 1555.89 437.136 1556.79 437.136C1557.39 437.136 1557.93 437.053 1558.41 436.886C1558.9 436.712 1559.32 436.458 1559.67 436.125C1560.03 435.792 1560.3 435.379 1560.48 434.886L1564.32 435.318C1564.08 436.333 1563.62 437.22 1562.94 437.977C1562.26 438.727 1561.4 439.311 1560.35 439.727C1559.29 440.136 1558.09 440.341 1556.73 440.341ZM1568.15 440V416.727H1572.37V436.466H1582.62V440H1568.15ZM1585.63 435.682V432.33L1595.51 416.727H1598.3V421.5H1596.6L1589.95 432.034V432.216H1603.73V435.682H1585.63ZM1596.73 440V434.659L1596.78 433.159V416.727H1600.76V440H1596.73ZM1627.51 424.58H1623.26C1623.14 423.883 1622.92 423.265 1622.59 422.727C1622.27 422.182 1621.86 421.72 1621.38 421.341C1620.89 420.962 1620.34 420.678 1619.72 420.489C1619.1 420.292 1618.44 420.193 1617.73 420.193C1616.46 420.193 1615.34 420.511 1614.37 421.148C1613.39 421.777 1612.62 422.701 1612.07 423.92C1611.52 425.133 1611.24 426.614 1611.24 428.364C1611.24 430.144 1611.52 431.644 1612.07 432.864C1612.63 434.076 1613.4 434.992 1614.37 435.614C1615.34 436.227 1616.46 436.534 1617.72 436.534C1618.41 436.534 1619.07 436.443 1619.67 436.261C1620.29 436.072 1620.83 435.795 1621.32 435.432C1621.81 435.068 1622.22 434.621 1622.56 434.091C1622.9 433.561 1623.13 432.955 1623.26 432.273L1627.51 432.295C1627.35 433.402 1627.01 434.439 1626.48 435.409C1625.96 436.379 1625.27 437.235 1624.42 437.977C1623.57 438.712 1622.58 439.288 1621.44 439.705C1620.31 440.114 1619.05 440.318 1617.66 440.318C1615.62 440.318 1613.79 439.845 1612.18 438.898C1610.58 437.951 1609.31 436.583 1608.39 434.795C1607.46 433.008 1607 430.864 1607 428.364C1607 425.856 1607.47 423.712 1608.4 421.932C1609.33 420.144 1610.6 418.777 1612.21 417.83C1613.81 416.883 1615.63 416.409 1617.66 416.409C1618.96 416.409 1620.16 416.591 1621.27 416.955C1622.39 417.318 1623.38 417.852 1624.25 418.557C1625.12 419.254 1625.84 420.11 1626.4 421.125C1626.97 422.133 1627.34 423.284 1627.51 424.58ZM1631.37 440V416.727H1640.1C1641.89 416.727 1643.39 417.061 1644.6 417.727C1645.82 418.394 1646.74 419.311 1647.36 420.477C1647.99 421.636 1648.31 422.955 1648.31 424.432C1648.31 425.924 1647.99 427.25 1647.36 428.409C1646.73 429.568 1645.81 430.481 1644.58 431.148C1643.35 431.807 1641.84 432.136 1640.04 432.136H1634.26V428.67H1639.48C1640.52 428.67 1641.38 428.489 1642.04 428.125C1642.71 427.761 1643.2 427.261 1643.52 426.625C1643.85 425.989 1644.01 425.258 1644.01 424.432C1644.01 423.606 1643.85 422.879 1643.52 422.25C1643.2 421.621 1642.71 421.133 1642.03 420.784C1641.37 420.428 1640.51 420.25 1639.45 420.25H1635.59V440H1631.37ZM1531.58 455.727H1536.74L1543.64 472.591H1543.92L1550.83 455.727H1555.99V479H1551.94V463.011H1551.72L1545.29 478.932H1542.27L1535.84 462.977H1535.62V479H1531.58V455.727ZM1568.01 479.341C1566.3 479.341 1564.83 478.966 1563.58 478.216C1562.33 477.466 1561.36 476.417 1560.67 475.068C1559.99 473.72 1559.64 472.144 1559.64 470.341C1559.64 468.538 1559.99 466.958 1560.67 465.602C1561.36 464.246 1562.33 463.193 1563.58 462.443C1564.83 461.693 1566.3 461.318 1568.01 461.318C1569.71 461.318 1571.19 461.693 1572.44 462.443C1573.69 463.193 1574.66 464.246 1575.34 465.602C1576.03 466.958 1576.37 468.538 1576.37 470.341C1576.37 472.144 1576.03 473.72 1575.34 475.068C1574.66 476.417 1573.69 477.466 1572.44 478.216C1571.19 478.966 1569.71 479.341 1568.01 479.341ZM1568.03 476.045C1568.96 476.045 1569.73 475.792 1570.35 475.284C1570.97 474.769 1571.43 474.08 1571.74 473.216C1572.05 472.352 1572.2 471.39 1572.2 470.33C1572.2 469.261 1572.05 468.295 1571.74 467.432C1571.43 466.561 1570.97 465.867 1570.35 465.352C1569.73 464.837 1568.96 464.58 1568.03 464.58C1567.08 464.58 1566.3 464.837 1565.67 465.352C1565.05 465.867 1564.58 466.561 1564.27 467.432C1563.97 468.295 1563.82 469.261 1563.82 470.33C1563.82 471.39 1563.97 472.352 1564.27 473.216C1564.58 474.08 1565.05 474.769 1565.67 475.284C1566.3 475.792 1567.08 476.045 1568.03 476.045ZM1583.98 468.773V479H1579.86V461.545H1583.8V464.511H1584C1584.4 463.534 1585.04 462.758 1585.92 462.182C1586.81 461.606 1587.9 461.318 1589.2 461.318C1590.41 461.318 1591.46 461.576 1592.35 462.091C1593.25 462.606 1593.95 463.352 1594.44 464.33C1594.94 465.307 1595.19 466.492 1595.18 467.886V479H1591.07V468.523C1591.07 467.356 1590.77 466.443 1590.16 465.784C1589.56 465.125 1588.73 464.795 1587.67 464.795C1586.95 464.795 1586.31 464.955 1585.75 465.273C1585.2 465.583 1584.76 466.034 1584.44 466.625C1584.13 467.216 1583.98 467.932 1583.98 468.773ZM1599.36 479V461.545H1603.48V479H1599.36ZM1601.43 459.068C1600.78 459.068 1600.22 458.852 1599.75 458.42C1599.28 457.981 1599.05 457.455 1599.05 456.841C1599.05 456.22 1599.28 455.693 1599.75 455.261C1600.22 454.822 1600.78 454.602 1601.43 454.602C1602.09 454.602 1602.65 454.822 1603.11 455.261C1603.58 455.693 1603.82 456.22 1603.82 456.841C1603.82 457.455 1603.58 457.981 1603.11 458.42C1602.65 458.852 1602.09 459.068 1601.43 459.068ZM1616.42 461.545V464.727H1606.39V461.545H1616.42ZM1608.87 457.364H1612.98V473.75C1612.98 474.303 1613.06 474.727 1613.23 475.023C1613.4 475.311 1613.63 475.508 1613.91 475.614C1614.19 475.72 1614.5 475.773 1614.84 475.773C1615.1 475.773 1615.34 475.754 1615.55 475.716C1615.77 475.678 1615.93 475.644 1616.05 475.614L1616.74 478.83C1616.52 478.905 1616.21 478.989 1615.8 479.08C1615.4 479.17 1614.9 479.223 1614.32 479.239C1613.29 479.269 1612.36 479.114 1611.54 478.773C1610.71 478.424 1610.06 477.886 1609.57 477.159C1609.09 476.432 1608.86 475.523 1608.87 474.432V457.364ZM1627.29 479.341C1625.59 479.341 1624.11 478.966 1622.86 478.216C1621.61 477.466 1620.64 476.417 1619.95 475.068C1619.27 473.72 1618.93 472.144 1618.93 470.341C1618.93 468.538 1619.27 466.958 1619.95 465.602C1620.64 464.246 1621.61 463.193 1622.86 462.443C1624.11 461.693 1625.59 461.318 1627.29 461.318C1628.99 461.318 1630.47 461.693 1631.72 462.443C1632.97 463.193 1633.94 464.246 1634.62 465.602C1635.31 466.958 1635.65 468.538 1635.65 470.341C1635.65 472.144 1635.31 473.72 1634.62 475.068C1633.94 476.417 1632.97 477.466 1631.72 478.216C1630.47 478.966 1628.99 479.341 1627.29 479.341ZM1627.31 476.045C1628.24 476.045 1629.01 475.792 1629.63 475.284C1630.25 474.769 1630.71 474.08 1631.02 473.216C1631.33 472.352 1631.48 471.39 1631.48 470.33C1631.48 469.261 1631.33 468.295 1631.02 467.432C1630.71 466.561 1630.25 465.867 1629.63 465.352C1629.01 464.837 1628.24 464.58 1627.31 464.58C1626.37 464.58 1625.58 464.837 1624.95 465.352C1624.33 465.867 1623.86 466.561 1623.55 467.432C1623.25 468.295 1623.1 469.261 1623.1 470.33C1623.1 471.39 1623.25 472.352 1623.55 473.216C1623.86 474.08 1624.33 474.769 1624.95 475.284C1625.58 475.792 1626.37 476.045 1627.31 476.045ZM1639.14 479V461.545H1643.13V464.455H1643.32C1643.63 463.447 1644.18 462.67 1644.95 462.125C1645.73 461.572 1646.62 461.295 1647.62 461.295C1647.85 461.295 1648.1 461.307 1648.38 461.33C1648.67 461.345 1648.91 461.371 1649.1 461.409V465.193C1648.93 465.133 1648.65 465.08 1648.27 465.034C1647.9 464.981 1647.54 464.955 1647.19 464.955C1646.44 464.955 1645.77 465.117 1645.17 465.443C1644.58 465.761 1644.11 466.205 1643.77 466.773C1643.43 467.341 1643.26 467.996 1643.26 468.739V479H1639.14Z" fill="white"/>
<rect x="1896" y="242" width="200" height="100" fill="#4E4E4E"/>
<path d="M1964.75 304V280.727H1973.48C1975.26 280.727 1976.76 281.061 1977.98 281.727C1979.2 282.394 1980.12 283.311 1980.74 284.477C1981.37 285.636 1981.68 286.955 1981.68 288.432C1981.68 289.924 1981.37 291.25 1980.74 292.409C1980.11 293.568 1979.18 294.481 1977.95 295.148C1976.73 295.807 1975.21 296.136 1973.42 296.136H1967.63V292.67H1972.85C1973.9 292.67 1974.75 292.489 1975.42 292.125C1976.09 291.761 1976.58 291.261 1976.9 290.625C1977.22 289.989 1977.38 289.258 1977.38 288.432C1977.38 287.606 1977.22 286.879 1976.9 286.25C1976.58 285.621 1976.08 285.133 1975.41 284.784C1974.74 284.428 1973.88 284.25 1972.83 284.25H1968.96V304H1964.75ZM1993.23 304H1985.34V280.727H1993.39C1995.7 280.727 1997.68 281.193 1999.34 282.125C2001.01 283.049 2002.29 284.379 2003.18 286.114C2004.08 287.848 2004.52 289.924 2004.52 292.341C2004.52 294.765 2004.07 296.848 2003.17 298.591C2002.28 300.333 2000.99 301.67 1999.3 302.602C1997.62 303.534 1995.59 304 1993.23 304ZM1989.56 300.352H1993.02C1994.65 300.352 1996 300.057 1997.08 299.466C1998.16 298.867 1998.98 297.977 1999.52 296.795C2000.07 295.606 2000.34 294.121 2000.34 292.341C2000.34 290.561 2000.07 289.083 1999.52 287.909C1998.98 286.727 1998.17 285.845 1997.1 285.261C1996.04 284.67 1994.72 284.375 1993.15 284.375H1989.56V300.352ZM2025.71 280.727V304H2021.49V284.83H2021.35L2015.91 288.307V284.443L2021.69 280.727H2025.71Z" fill="white"/>
<rect x="1896" y="398" width="200" height="100" fill="#4E4E4E"/>
<path d="M1962.5 460V436.727H1971.23C1973.01 436.727 1974.51 437.061 1975.73 437.727C1976.95 438.394 1977.87 439.311 1978.49 440.477C1979.12 441.636 1979.43 442.955 1979.43 444.432C1979.43 445.924 1979.12 447.25 1978.49 448.409C1977.86 449.568 1976.93 450.481 1975.7 451.148C1974.48 451.807 1972.96 452.136 1971.17 452.136H1965.38V448.67H1970.6C1971.65 448.67 1972.5 448.489 1973.17 448.125C1973.84 447.761 1974.33 447.261 1974.65 446.625C1974.97 445.989 1975.13 445.258 1975.13 444.432C1975.13 443.606 1974.97 442.879 1974.65 442.25C1974.33 441.621 1973.83 441.133 1973.16 440.784C1972.49 440.428 1971.63 440.25 1970.58 440.25H1966.71V460H1962.5ZM1990.98 460H1983.09V436.727H1991.14C1993.45 436.727 1995.43 437.193 1997.09 438.125C1998.76 439.049 2000.04 440.379 2000.93 442.114C2001.83 443.848 2002.27 445.924 2002.27 448.341C2002.27 450.765 2001.82 452.848 2000.92 454.591C2000.03 456.333 1998.74 457.67 1997.05 458.602C1995.37 459.534 1993.34 460 1990.98 460ZM1987.31 456.352H1990.77C1992.4 456.352 1993.75 456.057 1994.83 455.466C1995.91 454.867 1996.73 453.977 1997.27 452.795C1997.82 451.606 1998.09 450.121 1998.09 448.341C1998.09 446.561 1997.82 445.083 1997.27 443.909C1996.73 442.727 1995.92 441.845 1994.85 441.261C1993.79 440.67 1992.47 440.375 1990.9 440.375H1987.31V456.352ZM2013.99 460V456.955L2022.07 449.034C2022.84 448.254 2023.49 447.561 2024 446.955C2024.52 446.348 2024.9 445.761 2025.16 445.193C2025.42 444.625 2025.55 444.019 2025.55 443.375C2025.55 442.64 2025.38 442.011 2025.05 441.489C2024.71 440.958 2024.26 440.549 2023.67 440.261C2023.09 439.973 2022.43 439.83 2021.68 439.83C2020.92 439.83 2020.25 439.989 2019.67 440.307C2019.1 440.617 2018.65 441.061 2018.33 441.636C2018.02 442.212 2017.87 442.898 2017.87 443.693H2013.85C2013.85 442.216 2014.19 440.932 2014.87 439.841C2015.54 438.75 2016.47 437.905 2017.65 437.307C2018.84 436.708 2020.2 436.409 2021.74 436.409C2023.3 436.409 2024.67 436.701 2025.85 437.284C2027.04 437.867 2027.95 438.667 2028.6 439.682C2029.26 440.697 2029.59 441.856 2029.59 443.159C2029.59 444.03 2029.43 444.886 2029.09 445.727C2028.76 446.568 2028.17 447.5 2027.33 448.523C2026.5 449.545 2025.33 450.784 2023.82 452.239L2019.81 456.318V456.477H2029.94V460H2013.99Z" fill="white"/>
<path d="M2008.73 616.25C2008.04 616.25 2007.45 616.008 2006.95 615.523C2006.46 615.038 2006.22 614.447 2006.23 613.75C2006.22 613.068 2006.46 612.485 2006.95 612C2007.45 611.515 2008.04 611.273 2008.73 611.273C2009.39 611.273 2009.97 611.515 2010.46 612C2010.96 612.485 2011.22 613.068 2011.23 613.75C2011.22 614.212 2011.1 614.633 2010.86 615.011C2010.63 615.39 2010.33 615.693 2009.95 615.92C2009.58 616.14 2009.17 616.25 2008.73 616.25ZM2018.01 616.25C2017.32 616.25 2016.73 616.008 2016.23 615.523C2015.74 615.038 2015.5 614.447 2015.51 613.75C2015.5 613.068 2015.74 612.485 2016.23 612C2016.73 611.515 2017.32 611.273 2018.01 611.273C2018.67 611.273 2019.25 611.515 2019.75 612C2020.25 612.485 2020.5 613.068 2020.51 613.75C2020.5 614.212 2020.38 614.633 2020.14 615.011C2019.92 615.39 2019.61 615.693 2019.23 615.92C2018.86 616.14 2018.45 616.25 2018.01 616.25ZM2027.29 616.25C2026.6 616.25 2026.01 616.008 2025.52 615.523C2025.02 615.038 2024.78 614.447 2024.79 613.75C2024.78 613.068 2025.02 612.485 2025.52 612C2026.01 611.515 2026.6 611.273 2027.29 611.273C2027.96 611.273 2028.53 611.515 2029.03 612C2029.53 612.485 2029.78 613.068 2029.79 613.75C2029.78 614.212 2029.66 614.633 2029.42 615.011C2029.2 615.39 2028.89 615.693 2028.52 615.92C2028.14 616.14 2027.74 616.25 2027.29 616.25Z" fill="black"/>
<path d="M1117.92 446.159L1114.17 446.568C1114.07 446.189 1113.88 445.833 1113.62 445.5C1113.36 445.167 1113.01 444.898 1112.57 444.693C1112.13 444.489 1111.6 444.386 1110.96 444.386C1110.1 444.386 1109.38 444.572 1108.8 444.943C1108.22 445.314 1107.94 445.795 1107.95 446.386C1107.94 446.894 1108.13 447.307 1108.5 447.625C1108.89 447.943 1109.53 448.205 1110.41 448.409L1113.39 449.045C1115.04 449.402 1116.27 449.966 1117.07 450.739C1117.88 451.511 1118.29 452.523 1118.3 453.773C1118.29 454.871 1117.97 455.841 1117.33 456.682C1116.71 457.515 1115.83 458.167 1114.71 458.636C1113.59 459.106 1112.3 459.341 1110.85 459.341C1108.71 459.341 1106.99 458.894 1105.69 458C1104.38 457.098 1103.61 455.845 1103.36 454.239L1107.37 453.852C1107.55 454.64 1107.94 455.235 1108.53 455.636C1109.12 456.038 1109.89 456.239 1110.83 456.239C1111.81 456.239 1112.6 456.038 1113.19 455.636C1113.78 455.235 1114.08 454.739 1114.08 454.148C1114.08 453.648 1113.89 453.235 1113.5 452.909C1113.13 452.583 1112.53 452.333 1111.73 452.159L1108.75 451.534C1107.08 451.186 1105.84 450.598 1105.04 449.773C1104.24 448.939 1103.84 447.886 1103.85 446.614C1103.84 445.538 1104.13 444.606 1104.72 443.818C1105.32 443.023 1106.15 442.409 1107.21 441.977C1108.28 441.538 1109.51 441.318 1110.9 441.318C1112.95 441.318 1114.56 441.754 1115.73 442.625C1116.91 443.496 1117.64 444.674 1117.92 446.159ZM1129.42 459.341C1127.67 459.341 1126.16 458.977 1124.88 458.25C1123.62 457.515 1122.65 456.477 1121.96 455.136C1121.28 453.788 1120.94 452.201 1120.94 450.375C1120.94 448.58 1121.28 447.004 1121.96 445.648C1122.65 444.284 1123.62 443.223 1124.85 442.466C1126.09 441.701 1127.54 441.318 1129.2 441.318C1130.28 441.318 1131.29 441.492 1132.25 441.841C1133.21 442.182 1134.06 442.712 1134.79 443.432C1135.54 444.152 1136.12 445.068 1136.54 446.182C1136.97 447.288 1137.18 448.606 1137.18 450.136V451.398H1122.87V448.625H1133.24C1133.23 447.837 1133.06 447.136 1132.73 446.523C1132.39 445.902 1131.93 445.413 1131.33 445.057C1130.74 444.701 1130.05 444.523 1129.26 444.523C1128.42 444.523 1127.68 444.727 1127.04 445.136C1126.41 445.538 1125.91 446.068 1125.56 446.727C1125.21 447.379 1125.03 448.095 1125.02 448.875V451.295C1125.02 452.311 1125.21 453.182 1125.58 453.909C1125.95 454.629 1126.47 455.182 1127.13 455.568C1127.8 455.947 1128.58 456.136 1129.48 456.136C1130.07 456.136 1130.62 456.053 1131.1 455.886C1131.59 455.712 1132.01 455.458 1132.36 455.125C1132.72 454.792 1132.99 454.379 1133.17 453.886L1137.01 454.318C1136.77 455.333 1136.31 456.22 1135.62 456.977C1134.95 457.727 1134.09 458.311 1133.03 458.727C1131.98 459.136 1130.78 459.341 1129.42 459.341ZM1140.84 459V435.727H1145.06V455.466H1155.31V459H1140.84ZM1158.32 454.682V451.33L1168.19 435.727H1170.99V440.5H1169.29L1162.64 451.034V451.216H1176.42V454.682H1158.32ZM1169.42 459V453.659L1169.47 452.159V435.727H1173.44V459H1169.42Z" fill="white"/>
<path d="M540 448L525 439.34V456.66L540 448ZM390 449.5H526.5V446.5H390V449.5Z" fill="#4E4E4E"/>
<path d="M1440 448L1425 439.34V456.66L1440 448ZM1290 449.5H1426.5V446.5H1290V449.5Z" fill="#4E4E4E"/>
<path d="M1896 292L1879.27 296.483L1891.52 308.73L1896 292ZM1741.06 449.061L1887.51 302.607L1885.39 300.485L1738.94 446.939L1741.06 449.061Z" fill="#4E4E4E"/>
<path d="M1896 449L1881 440.34V457.66L1896 449ZM1740 450.5H1882.5V447.5H1740V450.5Z" fill="#4E4E4E"/>
<path d="M1896 605L1891.52 588.27L1879.27 600.517L1896 605ZM1738.94 450.061L1885.39 596.515L1887.51 594.393L1741.06 447.939L1738.94 450.061Z" fill="#4E4E4E"/>
<path d="M990 448L975 439.34V456.66L990 448ZM840 449.5H976.5V446.5H840V449.5Z" fill="#4E4E4E"/>
<rect x="453.5" y="112.5" width="1777" height="673" stroke="#686868" stroke-width="3" stroke-dasharray="20 20"/>
<rect x="1233" y="85" width="263" height="52" fill="white"/>
<path d="M1283.52 122V119.094H1278.19V98.2812H1269.14V101.188H1274.56V119.094H1268.95V122H1283.52ZM1295.77 122.344C1300.48 122.344 1303.47 119.406 1303.47 114.75V112.141C1303.47 107.484 1300.48 104.547 1295.77 104.547C1291.05 104.547 1288.06 107.484 1288.06 112.141V114.75C1288.06 119.406 1291.05 122.344 1295.77 122.344ZM1295.77 107.562C1298.3 107.562 1299.88 109.391 1299.88 112.344V114.547C1299.88 117.5 1298.3 119.328 1295.77 119.328C1293.23 119.328 1291.66 117.5 1291.66 114.547V112.344C1291.66 109.391 1293.23 107.562 1295.77 107.562ZM1313.47 122.281C1315.8 122.281 1317.62 121.312 1318.45 119.609H1318.78V122H1322.23V110.344C1322.23 106.688 1319.83 104.609 1315.59 104.609C1311.75 104.609 1308.98 106.562 1308.67 109.516H1312.23C1312.61 108.266 1313.83 107.547 1315.5 107.547C1317.5 107.547 1318.64 108.547 1318.64 110.312V111.75L1314.36 112C1310.27 112.25 1308.05 114.062 1308.05 117.125C1308.05 120.219 1310.22 122.281 1313.47 122.281ZM1314.64 119.312C1312.81 119.312 1311.66 118.391 1311.66 116.906C1311.66 115.391 1312.77 114.531 1314.91 114.406L1318.64 114.203V115.766C1318.64 117.828 1316.95 119.312 1314.64 119.312ZM1331.09 112.062C1331.09 109.375 1332.61 107.688 1335.06 107.688C1337.5 107.688 1339.02 109.359 1339.02 112.062V114.734C1339.02 117.422 1337.5 119.094 1335.06 119.094C1332.61 119.094 1331.09 117.422 1331.09 114.734V112.062ZM1339 119.188V122H1342.69V98.2812H1338.94V107.688H1338.62C1337.98 105.703 1336.22 104.594 1333.75 104.594C1329.83 104.594 1327.39 107.359 1327.39 111.906V114.953C1327.39 119.516 1329.83 122.266 1333.75 122.266C1336.23 122.266 1337.97 121.188 1338.69 119.188H1339ZM1355.3 107.422C1357.69 107.422 1359.12 109.109 1359.12 111.891H1351.38C1351.38 109.094 1352.84 107.422 1355.3 107.422ZM1359.17 117.359C1358.81 118.625 1357.36 119.453 1355.47 119.453C1352.98 119.453 1351.38 117.766 1351.38 115.156V114.328H1362.66V112.25C1362.66 107.5 1359.86 104.547 1355.36 104.547C1350.81 104.547 1347.8 107.516 1347.8 112V114.672C1347.8 119.547 1350.61 122.344 1355.48 122.344C1359.31 122.344 1362.22 120.297 1362.62 117.359H1359.17ZM1374.44 109.266V104.891H1367.27V107.609H1370.92V119.281H1367.59V122H1379.52V119.281H1374.42V114.375C1374.42 110.422 1376.5 108.266 1380.45 108.266C1381.39 108.266 1382.52 108.453 1383.28 108.75V104.797C1382.69 104.562 1381.8 104.438 1380.83 104.438C1377.58 104.438 1375.67 105.969 1374.97 109.266H1374.44ZM1394.67 122.219C1396.42 122.219 1397.86 120.734 1397.86 118.953C1397.86 117.172 1396.42 115.703 1394.67 115.703C1392.92 115.703 1391.48 117.172 1391.48 118.953C1391.48 120.734 1392.92 122.219 1394.67 122.219ZM1414.72 101.094C1416.28 101.094 1417.38 100.078 1417.38 98.6094C1417.38 97.1406 1416.28 96.125 1414.72 96.125C1413.17 96.125 1412.08 97.1406 1412.08 98.6094C1412.08 100.078 1413.17 101.094 1414.72 101.094ZM1421.98 122V119.094H1416.61V104.891H1407.61V107.797H1413.06V119.094H1407.42V122H1421.98ZM1442.72 109C1442.72 106.094 1441.55 104.547 1439.33 104.547C1437.66 104.547 1436.39 105.609 1436 107.359H1435.61C1435.25 105.562 1434.16 104.547 1432.56 104.547C1430.92 104.547 1429.72 105.594 1429.33 107.453H1428.94V104.891H1425.75V122H1428.88V110.328C1428.88 108.719 1429.66 107.703 1430.88 107.703C1432.05 107.703 1432.7 108.578 1432.7 110.156V122H1435.81V110.328C1435.81 108.719 1436.56 107.703 1437.77 107.703C1438.92 107.703 1439.59 108.594 1439.59 110.156V122H1442.72V109ZM1449.59 114.469V112.062C1449.59 109.391 1451.17 107.688 1453.64 107.688C1456.09 107.688 1457.67 109.391 1457.67 112.062V114.469C1457.67 117.141 1456.09 118.844 1453.64 118.844C1451.17 118.844 1449.59 117.141 1449.59 114.469ZM1453.53 128.438C1458.39 128.438 1461.34 126 1461.34 121.984V104.891H1457.77V107.688H1457.45C1456.83 105.781 1454.92 104.594 1452.44 104.594C1448.38 104.594 1445.89 107.359 1445.89 111.906V114.703C1445.89 119.219 1448.34 122.016 1452.3 122.016C1454.81 122.016 1456.78 120.812 1457.39 118.922H1457.7V122.016C1457.7 124.406 1456.25 125.688 1453.58 125.688C1451.55 125.688 1450.03 124.891 1449.72 123.656H1446.16C1446.47 126.609 1449.28 128.438 1453.53 128.438Z" fill="black"/>
</svg>
