<svg width="1892" height="1080" viewBox="0 0 1892 1080" fill="none" xmlns="http://www.w3.org/2000/svg">
<rect x="793" y="465" width="300" height="150" fill="#4E4E4E"/>
<path d="M878.977 528.727V552H874.864V528.727H878.977ZM883.207 552V534.545H887.321V552H883.207ZM885.276 532.068C884.624 532.068 884.063 531.852 883.594 531.42C883.124 530.981 882.889 530.455 882.889 529.841C882.889 529.22 883.124 528.693 883.594 528.261C884.063 527.822 884.624 527.602 885.276 527.602C885.935 527.602 886.495 527.822 886.957 528.261C887.427 528.693 887.662 529.22 887.662 529.841C887.662 530.455 887.427 530.981 886.957 531.42C886.495 531.852 885.935 532.068 885.276 532.068ZM891.733 552V528.727H895.847V537.432H896.017C896.229 537.008 896.528 536.557 896.915 536.08C897.301 535.595 897.824 535.182 898.483 534.841C899.142 534.492 899.983 534.318 901.006 534.318C902.354 534.318 903.57 534.663 904.653 535.352C905.744 536.034 906.608 537.045 907.244 538.386C907.888 539.72 908.21 541.356 908.21 543.295C908.21 545.212 907.896 546.841 907.267 548.182C906.638 549.523 905.782 550.545 904.699 551.25C903.616 551.955 902.388 552.307 901.017 552.307C900.017 552.307 899.188 552.14 898.528 551.807C897.869 551.473 897.339 551.072 896.938 550.602C896.544 550.125 896.237 549.674 896.017 549.25H895.778V552H891.733ZM895.767 543.273C895.767 544.402 895.926 545.39 896.244 546.239C896.57 547.087 897.036 547.75 897.642 548.227C898.256 548.697 898.998 548.932 899.869 548.932C900.778 548.932 901.54 548.689 902.153 548.205C902.767 547.712 903.229 547.042 903.54 546.193C903.858 545.337 904.017 544.364 904.017 543.273C904.017 542.189 903.862 541.227 903.551 540.386C903.241 539.545 902.778 538.886 902.165 538.409C901.551 537.932 900.786 537.693 899.869 537.693C898.991 537.693 898.244 537.924 897.631 538.386C897.017 538.848 896.551 539.496 896.233 540.33C895.922 541.163 895.767 542.144 895.767 543.273ZM925.503 539.159L921.753 539.568C921.647 539.189 921.461 538.833 921.196 538.5C920.938 538.167 920.59 537.898 920.151 537.693C919.711 537.489 919.173 537.386 918.537 537.386C917.681 537.386 916.961 537.572 916.378 537.943C915.802 538.314 915.518 538.795 915.526 539.386C915.518 539.894 915.704 540.307 916.082 540.625C916.469 540.943 917.105 541.205 917.991 541.409L920.969 542.045C922.62 542.402 923.848 542.966 924.651 543.739C925.461 544.511 925.87 545.523 925.878 546.773C925.87 547.871 925.548 548.841 924.912 549.682C924.283 550.515 923.408 551.167 922.287 551.636C921.166 552.106 919.878 552.341 918.423 552.341C916.287 552.341 914.567 551.894 913.264 551C911.961 550.098 911.185 548.845 910.935 547.239L914.946 546.852C915.128 547.64 915.514 548.235 916.105 548.636C916.696 549.038 917.465 549.239 918.412 549.239C919.389 549.239 920.173 549.038 920.764 548.636C921.363 548.235 921.662 547.739 921.662 547.148C921.662 546.648 921.469 546.235 921.082 545.909C920.704 545.583 920.113 545.333 919.31 545.159L916.332 544.534C914.658 544.186 913.42 543.598 912.616 542.773C911.813 541.939 911.416 540.886 911.423 539.614C911.416 538.538 911.707 537.606 912.298 536.818C912.897 536.023 913.726 535.409 914.787 534.977C915.855 534.538 917.086 534.318 918.48 534.318C920.526 534.318 922.135 534.754 923.31 535.625C924.491 536.496 925.223 537.674 925.503 539.159ZM936.997 552.341C935.247 552.341 933.736 551.977 932.463 551.25C931.198 550.515 930.224 549.477 929.543 548.136C928.861 546.788 928.52 545.201 928.52 543.375C928.52 541.58 928.861 540.004 929.543 538.648C930.232 537.284 931.194 536.223 932.429 535.466C933.664 534.701 935.115 534.318 936.781 534.318C937.857 534.318 938.872 534.492 939.827 534.841C940.789 535.182 941.637 535.712 942.372 536.432C943.115 537.152 943.698 538.068 944.122 539.182C944.546 540.288 944.759 541.606 944.759 543.136V544.398H930.452V541.625H940.815C940.808 540.837 940.637 540.136 940.304 539.523C939.971 538.902 939.505 538.413 938.906 538.057C938.315 537.701 937.626 537.523 936.838 537.523C935.997 537.523 935.259 537.727 934.622 538.136C933.986 538.538 933.49 539.068 933.134 539.727C932.785 540.379 932.607 541.095 932.599 541.875V544.295C932.599 545.311 932.785 546.182 933.156 546.909C933.527 547.629 934.046 548.182 934.713 548.568C935.38 548.947 936.16 549.136 937.054 549.136C937.652 549.136 938.194 549.053 938.679 548.886C939.164 548.712 939.584 548.458 939.94 548.125C940.296 547.792 940.565 547.379 940.747 546.886L944.588 547.318C944.346 548.333 943.884 549.22 943.202 549.977C942.527 550.727 941.664 551.311 940.611 551.727C939.558 552.136 938.353 552.341 936.997 552.341ZM952.352 528.727V552H948.239V528.727H952.352ZM956.116 547.682V544.33L965.991 528.727H968.787V533.5H967.082L960.435 544.034V544.216H974.219V547.682H956.116ZM967.219 552V546.659L967.264 545.159V528.727H971.241V552H967.219ZM985.509 552.341C983.766 552.341 982.27 551.958 981.02 551.193C979.777 550.428 978.819 549.371 978.145 548.023C977.478 546.667 977.145 545.106 977.145 543.341C977.145 541.568 977.486 540.004 978.168 538.648C978.849 537.284 979.812 536.223 981.054 535.466C982.304 534.701 983.781 534.318 985.486 534.318C986.902 534.318 988.156 534.58 989.247 535.102C990.346 535.617 991.221 536.348 991.872 537.295C992.524 538.235 992.895 539.333 992.986 540.591H989.054C988.895 539.75 988.516 539.049 987.918 538.489C987.327 537.92 986.535 537.636 985.543 537.636C984.702 537.636 983.963 537.864 983.327 538.318C982.69 538.765 982.194 539.409 981.838 540.25C981.49 541.091 981.315 542.098 981.315 543.273C981.315 544.462 981.49 545.485 981.838 546.341C982.187 547.189 982.675 547.845 983.304 548.307C983.94 548.761 984.687 548.989 985.543 548.989C986.149 548.989 986.69 548.875 987.168 548.648C987.652 548.413 988.058 548.076 988.384 547.636C988.709 547.197 988.933 546.663 989.054 546.034H992.986C992.887 547.269 992.524 548.364 991.895 549.318C991.266 550.265 990.41 551.008 989.327 551.545C988.243 552.076 986.971 552.341 985.509 552.341ZM996.364 558.545V534.545H1000.41V537.432H1000.65C1000.86 537.008 1001.16 536.557 1001.55 536.08C1001.93 535.595 1002.45 535.182 1003.11 534.841C1003.77 534.492 1004.61 534.318 1005.64 534.318C1006.98 534.318 1008.2 534.663 1009.28 535.352C1010.38 536.034 1011.24 537.045 1011.88 538.386C1012.52 539.72 1012.84 541.356 1012.84 543.295C1012.84 545.212 1012.53 546.841 1011.9 548.182C1011.27 549.523 1010.41 550.545 1009.33 551.25C1008.25 551.955 1007.02 552.307 1005.65 552.307C1004.65 552.307 1003.82 552.14 1003.16 551.807C1002.5 551.473 1001.97 551.072 1001.57 550.602C1001.17 550.125 1000.87 549.674 1000.65 549.25H1000.48V558.545H996.364ZM1000.4 543.273C1000.4 544.402 1000.56 545.39 1000.88 546.239C1001.2 547.087 1001.67 547.75 1002.27 548.227C1002.89 548.697 1003.63 548.932 1004.5 548.932C1005.41 548.932 1006.17 548.689 1006.78 548.205C1007.4 547.712 1007.86 547.042 1008.17 546.193C1008.49 545.337 1008.65 544.364 1008.65 543.273C1008.65 542.189 1008.49 541.227 1008.18 540.386C1007.87 539.545 1007.41 538.886 1006.8 538.409C1006.18 537.932 1005.42 537.693 1004.5 537.693C1003.62 537.693 1002.88 537.924 1002.26 538.386C1001.65 538.848 1001.18 539.496 1000.86 540.33C1000.55 541.163 1000.4 542.144 1000.4 543.273Z" fill="white"/>
<rect x="1249" y="334" width="300" height="100" fill="#4E4E4E"/>
<path d="M1350.08 374.094C1351.64 374.094 1352.74 373.078 1352.74 371.609C1352.74 370.141 1351.64 369.125 1350.08 369.125C1348.53 369.125 1347.44 370.141 1347.44 371.609C1347.44 373.078 1348.53 374.094 1350.08 374.094ZM1357.35 395V392.094H1351.97V377.891H1342.97V380.797H1348.42V392.094H1342.78V395H1357.35ZM1362.2 395H1365.85V385.031C1365.85 382.438 1367.44 380.734 1369.88 380.734C1372.22 380.734 1373.35 382.047 1373.35 384.797V395H1376.99V383.906C1376.99 379.766 1374.97 377.547 1371.25 377.547C1368.74 377.547 1366.85 378.719 1365.97 380.812H1365.72V377.891H1362.2V395ZM1389.64 374.094C1391.2 374.094 1392.3 373.078 1392.3 371.609C1392.3 370.141 1391.2 369.125 1389.64 369.125C1388.1 369.125 1387 370.141 1387 371.609C1387 373.078 1388.1 374.094 1389.64 374.094ZM1396.91 395V392.094H1391.53V377.891H1382.53V380.797H1387.99V392.094H1382.35V395H1396.91ZM1405.86 373.109V378H1401.36V380.938H1405.86V389.719C1405.86 393.516 1407.72 395.047 1412.22 395.047C1412.74 395.047 1415.61 395 1415.89 394.953V392.047C1415.6 392.078 1413.13 392.094 1412.5 392.094C1410.56 392.094 1409.49 391.25 1409.49 389.734V380.938H1416.03V378H1409.42V373.109H1405.86ZM1424.91 383.734C1424.91 389.312 1426.61 394.188 1429.83 397.797H1433.55C1430.22 392.906 1428.86 388.859 1428.86 383.734C1428.86 378.594 1430.22 374.531 1433.55 369.641H1429.83C1426.61 373.25 1424.91 378.125 1424.91 383.734ZM1444.11 369.641C1447.44 374.531 1448.8 378.594 1448.8 383.734C1448.8 388.859 1447.44 392.906 1444.11 397.797H1447.83C1451.05 394.188 1452.75 389.312 1452.75 383.734C1452.75 378.125 1451.05 373.25 1447.83 369.641H1444.11Z" fill="white"/>
<rect x="1249" y="490" width="300" height="100" fill="#4E4E4E"/>
<path d="M1302.59 551H1306.23V541.031C1306.23 538.438 1307.83 536.734 1310.27 536.734C1312.61 536.734 1313.73 538.047 1313.73 540.797V551H1317.38V539.906C1317.38 535.766 1315.36 533.547 1311.64 533.547C1309.12 533.547 1307.23 534.719 1306.36 536.812H1306.11V533.891H1302.59V551ZM1329.77 551.344C1334.48 551.344 1337.47 548.406 1337.47 543.75V541.141C1337.47 536.484 1334.48 533.547 1329.77 533.547C1325.05 533.547 1322.06 536.484 1322.06 541.141V543.75C1322.06 548.406 1325.05 551.344 1329.77 551.344ZM1329.77 536.562C1332.3 536.562 1333.88 538.391 1333.88 541.344V543.547C1333.88 546.5 1332.3 548.328 1329.77 548.328C1327.23 548.328 1325.66 546.5 1325.66 543.547V541.344C1325.66 538.391 1327.23 536.562 1329.77 536.562ZM1346.25 529.109V534H1341.75V536.938H1346.25V545.719C1346.25 549.516 1348.11 551.047 1352.61 551.047C1353.12 551.047 1356 551 1356.28 550.953V548.047C1355.98 548.078 1353.52 548.094 1352.89 548.094C1350.95 548.094 1349.88 547.25 1349.88 545.734V536.938H1356.42V534H1349.81V529.109H1346.25ZM1369.59 530.094C1371.16 530.094 1372.25 529.078 1372.25 527.609C1372.25 526.141 1371.16 525.125 1369.59 525.125C1368.05 525.125 1366.95 526.141 1366.95 527.609C1366.95 529.078 1368.05 530.094 1369.59 530.094ZM1376.86 551V548.094H1371.48V533.891H1362.48V536.797H1367.94V548.094H1362.3V551H1376.86ZM1386.34 551H1389.97V536.938H1397.06V534H1389.91V532.391C1389.91 530.938 1390.89 530.188 1392.8 530.188C1393.42 530.188 1396.58 530.234 1397.06 530.281V527.547C1396.7 527.5 1393.36 527.438 1392.72 527.438C1388.25 527.438 1386.34 528.938 1386.34 532.578V534H1381.77V536.938H1386.34V551ZM1409.16 530.094C1410.72 530.094 1411.81 529.078 1411.81 527.609C1411.81 526.141 1410.72 525.125 1409.16 525.125C1407.61 525.125 1406.52 526.141 1406.52 527.609C1406.52 529.078 1407.61 530.094 1409.16 530.094ZM1416.42 551V548.094H1411.05V533.891H1402.05V536.797H1407.5V548.094H1401.86V551H1416.42ZM1428.86 536.422C1431.25 536.422 1432.69 538.109 1432.69 540.891H1424.94C1424.94 538.094 1426.41 536.422 1428.86 536.422ZM1432.73 546.359C1432.38 547.625 1430.92 548.453 1429.03 548.453C1426.55 548.453 1424.94 546.766 1424.94 544.156V543.328H1436.22V541.25C1436.22 536.5 1433.42 533.547 1428.92 533.547C1424.38 533.547 1421.36 536.516 1421.36 541V543.672C1421.36 548.547 1424.17 551.344 1429.05 551.344C1432.88 551.344 1435.78 549.297 1436.19 546.359H1432.73ZM1444.22 541.062C1444.22 538.375 1445.73 536.688 1448.19 536.688C1450.62 536.688 1452.14 538.359 1452.14 541.062V543.734C1452.14 546.422 1450.62 548.094 1448.19 548.094C1445.73 548.094 1444.22 546.422 1444.22 543.734V541.062ZM1452.12 548.188V551H1455.81V527.281H1452.06V536.688H1451.75C1451.11 534.703 1449.34 533.594 1446.88 533.594C1442.95 533.594 1440.52 536.359 1440.52 540.906V543.953C1440.52 548.516 1442.95 551.266 1446.88 551.266C1449.36 551.266 1451.09 550.188 1451.81 548.188H1452.12ZM1464.2 539.734C1464.2 545.312 1465.91 550.188 1469.12 553.797H1472.84C1469.52 548.906 1468.16 544.859 1468.16 539.734C1468.16 534.594 1469.52 530.531 1472.84 525.641H1469.12C1465.91 529.25 1464.2 534.125 1464.2 539.734ZM1483.41 525.641C1486.73 530.531 1488.09 534.594 1488.09 539.734C1488.09 544.859 1486.73 548.906 1483.41 553.797H1487.12C1490.34 550.188 1492.05 545.312 1492.05 539.734C1492.05 534.125 1490.34 529.25 1487.12 525.641H1483.41Z" fill="white"/>
<rect x="1249" y="647" width="300" height="100" fill="#4E4E4E"/>
<path d="M1301.67 690.609C1299.2 690.609 1297.47 691.703 1296.75 693.703H1296.44V690.891H1292.75V713.734H1296.5V705.203H1296.81C1297.45 707.172 1299.2 708.297 1301.67 708.297C1305.61 708.297 1308.05 705.531 1308.05 700.969V697.922C1308.05 693.375 1305.61 690.609 1301.67 690.609ZM1300.38 693.797C1302.83 693.797 1304.34 695.469 1304.34 698.156V700.844C1304.34 703.516 1302.83 705.203 1300.38 705.203C1297.94 705.203 1296.42 703.531 1296.42 700.844V698.156C1296.42 695.469 1297.94 693.797 1300.38 693.797ZM1319.42 695.266V690.891H1312.25V693.609H1315.91V705.281H1312.58V708H1324.5V705.281H1319.41V700.375C1319.41 696.422 1321.48 694.266 1325.44 694.266C1326.38 694.266 1327.5 694.453 1328.27 694.75V690.797C1327.67 690.562 1326.78 690.438 1325.81 690.438C1322.56 690.438 1320.66 691.969 1319.95 695.266H1319.42ZM1339.66 708.344C1344.38 708.344 1347.36 705.406 1347.36 700.75V698.141C1347.36 693.484 1344.38 690.547 1339.66 690.547C1334.94 690.547 1331.95 693.484 1331.95 698.141V700.75C1331.95 705.406 1334.94 708.344 1339.66 708.344ZM1339.66 693.562C1342.19 693.562 1343.77 695.391 1343.77 698.344V700.547C1343.77 703.5 1342.19 705.328 1339.66 705.328C1337.12 705.328 1335.55 703.5 1335.55 700.547V698.344C1335.55 695.391 1337.12 693.562 1339.66 693.562ZM1356.14 686.109V691H1351.64V693.938H1356.14V702.719C1356.14 706.516 1358 708.047 1362.5 708.047C1363.02 708.047 1365.89 708 1366.17 707.953V705.047C1365.88 705.078 1363.41 705.094 1362.78 705.094C1360.84 705.094 1359.77 704.25 1359.77 702.734V693.938H1366.31V691H1359.7V686.109H1356.14ZM1379.41 693.422C1381.8 693.422 1383.23 695.109 1383.23 697.891H1375.48C1375.48 695.094 1376.95 693.422 1379.41 693.422ZM1383.28 703.359C1382.92 704.625 1381.47 705.453 1379.58 705.453C1377.09 705.453 1375.48 703.766 1375.48 701.156V700.328H1386.77V698.25C1386.77 693.5 1383.97 690.547 1379.47 690.547C1374.92 690.547 1371.91 693.516 1371.91 698V700.672C1371.91 705.547 1374.72 708.344 1379.59 708.344C1383.42 708.344 1386.33 706.297 1386.73 703.359H1383.28ZM1406.5 696.594C1406.09 692.672 1403.52 690.5 1399.33 690.5C1394.44 690.5 1391.67 693.359 1391.67 698.438V700.406C1391.67 705.5 1394.44 708.344 1399.33 708.344C1403.5 708.344 1406.11 706.188 1406.5 702.359H1402.94C1402.62 704.25 1401.3 705.281 1399.3 705.281C1396.73 705.281 1395.33 703.438 1395.33 700.078V698.766C1395.33 695.406 1396.73 693.562 1399.3 693.562C1401.28 693.562 1402.64 694.641 1402.94 696.594H1406.5ZM1415.48 686.109V691H1410.98V693.938H1415.48V702.719C1415.48 706.516 1417.34 708.047 1421.84 708.047C1422.36 708.047 1425.23 708 1425.52 707.953V705.047C1425.22 705.078 1422.75 705.094 1422.12 705.094C1420.19 705.094 1419.11 704.25 1419.11 702.734V693.938H1425.66V691H1419.05V686.109H1415.48ZM1438.75 693.422C1441.14 693.422 1442.58 695.109 1442.58 697.891H1434.83C1434.83 695.094 1436.3 693.422 1438.75 693.422ZM1442.62 703.359C1442.27 704.625 1440.81 705.453 1438.92 705.453C1436.44 705.453 1434.83 703.766 1434.83 701.156V700.328H1446.11V698.25C1446.11 693.5 1443.31 690.547 1438.81 690.547C1434.27 690.547 1431.25 693.516 1431.25 698V700.672C1431.25 705.547 1434.06 708.344 1438.94 708.344C1442.77 708.344 1445.67 706.297 1446.08 703.359H1442.62ZM1454.11 698.062C1454.11 695.375 1455.62 693.688 1458.08 693.688C1460.52 693.688 1462.03 695.359 1462.03 698.062V700.734C1462.03 703.422 1460.52 705.094 1458.08 705.094C1455.62 705.094 1454.11 703.422 1454.11 700.734V698.062ZM1462.02 705.188V708H1465.7V684.281H1461.95V693.688H1461.64C1461 691.703 1459.23 690.594 1456.77 690.594C1452.84 690.594 1450.41 693.359 1450.41 697.906V700.953C1450.41 705.516 1452.84 708.266 1456.77 708.266C1459.25 708.266 1460.98 707.188 1461.7 705.188H1462.02ZM1474.09 696.734C1474.09 702.312 1475.8 707.188 1479.02 710.797H1482.73C1479.41 705.906 1478.05 701.859 1478.05 696.734C1478.05 691.594 1479.41 687.531 1482.73 682.641H1479.02C1475.8 686.25 1474.09 691.125 1474.09 696.734ZM1493.3 682.641C1496.62 687.531 1497.98 691.594 1497.98 696.734C1497.98 701.859 1496.62 705.906 1493.3 710.797H1497.02C1500.23 707.188 1501.94 702.312 1501.94 696.734C1501.94 691.125 1500.23 686.25 1497.02 682.641H1493.3Z" fill="white"/>
<rect x="343" y="465" width="300" height="150" fill="#4E4E4E"/>
<path d="M469.93 552.341C468.188 552.341 466.692 551.958 465.442 551.193C464.199 550.428 463.241 549.371 462.567 548.023C461.9 546.667 461.567 545.106 461.567 543.341C461.567 541.568 461.908 540.004 462.589 538.648C463.271 537.284 464.233 536.223 465.476 535.466C466.726 534.701 468.203 534.318 469.908 534.318C471.324 534.318 472.578 534.58 473.669 535.102C474.768 535.617 475.643 536.348 476.294 537.295C476.946 538.235 477.317 539.333 477.408 540.591H473.476C473.317 539.75 472.938 539.049 472.339 538.489C471.749 537.92 470.957 537.636 469.964 537.636C469.124 537.636 468.385 537.864 467.749 538.318C467.112 538.765 466.616 539.409 466.26 540.25C465.911 541.091 465.737 542.098 465.737 543.273C465.737 544.462 465.911 545.485 466.26 546.341C466.608 547.189 467.097 547.845 467.726 548.307C468.362 548.761 469.108 548.989 469.964 548.989C470.571 548.989 471.112 548.875 471.589 548.648C472.074 548.413 472.48 548.076 472.805 547.636C473.131 547.197 473.355 546.663 473.476 546.034H477.408C477.309 547.269 476.946 548.364 476.317 549.318C475.688 550.265 474.832 551.008 473.749 551.545C472.665 552.076 471.393 552.341 469.93 552.341ZM480.786 552V534.545H484.774V537.455H484.956C485.274 536.447 485.82 535.67 486.592 535.125C487.373 534.572 488.263 534.295 489.263 534.295C489.49 534.295 489.744 534.307 490.024 534.33C490.312 534.345 490.551 534.371 490.74 534.409V538.193C490.566 538.133 490.289 538.08 489.911 538.034C489.539 537.981 489.179 537.955 488.831 537.955C488.081 537.955 487.407 538.117 486.808 538.443C486.217 538.761 485.751 539.205 485.411 539.773C485.07 540.341 484.899 540.996 484.899 541.739V552H480.786ZM503.126 534.545V537.727H493.092V534.545H503.126ZM495.57 530.364H499.683V546.75C499.683 547.303 499.767 547.727 499.933 548.023C500.107 548.311 500.335 548.508 500.615 548.614C500.895 548.72 501.206 548.773 501.547 548.773C501.804 548.773 502.039 548.754 502.251 548.716C502.471 548.678 502.638 548.644 502.751 548.614L503.445 551.83C503.225 551.905 502.911 551.989 502.501 552.08C502.1 552.17 501.607 552.223 501.024 552.239C499.994 552.269 499.066 552.114 498.24 551.773C497.414 551.424 496.759 550.886 496.274 550.159C495.797 549.432 495.562 548.523 495.57 547.432V530.364ZM515.124 552.443C513.252 552.443 511.646 551.97 510.305 551.023C508.972 550.068 507.946 548.693 507.226 546.898C506.514 545.095 506.158 542.924 506.158 540.386C506.165 537.848 506.525 535.689 507.237 533.909C507.957 532.121 508.983 530.758 510.317 529.818C511.658 528.879 513.26 528.409 515.124 528.409C516.987 528.409 518.589 528.879 519.93 529.818C521.271 530.758 522.298 532.121 523.01 533.909C523.73 535.697 524.089 537.856 524.089 540.386C524.089 542.932 523.73 545.106 523.01 546.909C522.298 548.705 521.271 550.076 519.93 551.023C518.597 551.97 516.995 552.443 515.124 552.443ZM515.124 548.886C516.578 548.886 517.726 548.17 518.567 546.739C519.415 545.299 519.839 543.182 519.839 540.386C519.839 538.538 519.646 536.985 519.26 535.727C518.874 534.47 518.328 533.523 517.624 532.886C516.919 532.242 516.086 531.92 515.124 531.92C513.677 531.92 512.533 532.64 511.692 534.08C510.851 535.511 510.427 537.614 510.419 540.386C510.411 542.242 510.597 543.803 510.976 545.068C511.362 546.333 511.908 547.288 512.612 547.932C513.317 548.568 514.154 548.886 515.124 548.886Z" fill="white"/>
<path d="M793 540L778 531.34V548.66L793 540ZM643 541.5H779.5V538.5H643V541.5Z" fill="#4E4E4E"/>
<path d="M1249 384L1232.27 388.483L1244.52 400.73L1249 384ZM1094.06 541.061L1240.51 394.607L1238.39 392.485L1091.94 538.939L1094.06 541.061Z" fill="#4E4E4E"/>
<path d="M1249 541L1234 532.34V549.66L1249 541ZM1093 542.5H1235.5V539.5H1093V542.5Z" fill="#4E4E4E"/>
<path d="M1249 697L1244.52 680.27L1232.27 692.517L1249 697ZM1091.94 542.061L1238.39 688.515L1240.51 686.393L1094.06 539.939L1091.94 542.061Z" fill="#4E4E4E"/>
<rect x="1150.5" y="204.5" width="497" height="673" stroke="#686868" stroke-width="3" stroke-dasharray="20 20"/>
<rect x="1267" y="177" width="263" height="52" fill="white"/>
<path d="M1321.75 191.727H1326.51L1332.21 202.023H1332.43L1338.13 191.727H1342.89L1334.42 206.318V215H1330.22V206.318L1321.75 191.727ZM1350.06 215.341C1348.35 215.341 1346.87 214.966 1345.62 214.216C1344.37 213.466 1343.4 212.417 1342.71 211.068C1342.03 209.72 1341.69 208.144 1341.69 206.341C1341.69 204.538 1342.03 202.958 1342.71 201.602C1343.4 200.246 1344.37 199.193 1345.62 198.443C1346.87 197.693 1348.35 197.318 1350.06 197.318C1351.76 197.318 1353.24 197.693 1354.49 198.443C1355.74 199.193 1356.7 200.246 1357.38 201.602C1358.07 202.958 1358.42 204.538 1358.42 206.341C1358.42 208.144 1358.07 209.72 1357.38 211.068C1356.7 212.417 1355.74 213.466 1354.49 214.216C1353.24 214.966 1351.76 215.341 1350.06 215.341ZM1350.08 212.045C1351 212.045 1351.78 211.792 1352.4 211.284C1353.02 210.769 1353.48 210.08 1353.78 209.216C1354.09 208.352 1354.25 207.39 1354.25 206.33C1354.25 205.261 1354.09 204.295 1353.78 203.432C1353.48 202.561 1353.02 201.867 1352.4 201.352C1351.78 200.837 1351 200.58 1350.08 200.58C1349.13 200.58 1348.34 200.837 1347.71 201.352C1347.09 201.867 1346.63 202.561 1346.32 203.432C1346.01 204.295 1345.86 205.261 1345.86 206.33C1345.86 207.39 1346.01 208.352 1346.32 209.216C1346.63 210.08 1347.09 210.769 1347.71 211.284C1348.34 211.792 1349.13 212.045 1350.08 212.045ZM1373.04 207.659V197.545H1377.15V215H1373.16V211.898H1372.98C1372.58 212.875 1371.94 213.674 1371.04 214.295C1370.14 214.917 1369.04 215.227 1367.73 215.227C1366.58 215.227 1365.57 214.973 1364.69 214.466C1363.82 213.951 1363.14 213.205 1362.65 212.227C1362.16 211.242 1361.91 210.053 1361.91 208.659V197.545H1366.02V208.023C1366.02 209.129 1366.33 210.008 1366.93 210.659C1367.54 211.311 1368.33 211.636 1369.32 211.636C1369.93 211.636 1370.51 211.489 1371.08 211.193C1371.65 210.898 1372.12 210.458 1372.48 209.875C1372.85 209.284 1373.04 208.545 1373.04 207.659ZM1381.38 215V197.545H1385.37V200.455H1385.55C1385.87 199.447 1386.41 198.67 1387.19 198.125C1387.97 197.572 1388.86 197.295 1389.86 197.295C1390.08 197.295 1390.34 197.307 1390.62 197.33C1390.91 197.345 1391.14 197.371 1391.33 197.409V201.193C1391.16 201.133 1390.88 201.08 1390.5 201.034C1390.13 200.981 1389.77 200.955 1389.42 200.955C1388.67 200.955 1388 201.117 1387.4 201.443C1386.81 201.761 1386.35 202.205 1386 202.773C1385.66 203.341 1385.49 203.996 1385.49 204.739V215H1381.38ZM1409.62 215.341C1407.88 215.341 1406.38 214.958 1405.13 214.193C1403.89 213.428 1402.93 212.371 1402.25 211.023C1401.59 209.667 1401.25 208.106 1401.25 206.341C1401.25 204.568 1401.6 203.004 1402.28 201.648C1402.96 200.284 1403.92 199.223 1405.16 198.466C1406.41 197.701 1407.89 197.318 1409.6 197.318C1411.01 197.318 1412.27 197.58 1413.36 198.102C1414.46 198.617 1415.33 199.348 1415.98 200.295C1416.63 201.235 1417 202.333 1417.1 203.591H1413.16C1413 202.75 1412.63 202.049 1412.03 201.489C1411.44 200.92 1410.64 200.636 1409.65 200.636C1408.81 200.636 1408.07 200.864 1407.44 201.318C1406.8 201.765 1406.3 202.409 1405.95 203.25C1405.6 204.091 1405.42 205.098 1405.42 206.273C1405.42 207.462 1405.6 208.485 1405.95 209.341C1406.3 210.189 1406.78 210.845 1407.41 211.307C1408.05 211.761 1408.8 211.989 1409.65 211.989C1410.26 211.989 1410.8 211.875 1411.28 211.648C1411.76 211.413 1412.17 211.076 1412.49 210.636C1412.82 210.197 1413.04 209.663 1413.16 209.034H1417.1C1417 210.269 1416.63 211.364 1416 212.318C1415.38 213.265 1414.52 214.008 1413.44 214.545C1412.35 215.076 1411.08 215.341 1409.62 215.341ZM1428.09 215.341C1426.38 215.341 1424.9 214.966 1423.65 214.216C1422.4 213.466 1421.44 212.417 1420.75 211.068C1420.06 209.72 1419.72 208.144 1419.72 206.341C1419.72 204.538 1420.06 202.958 1420.75 201.602C1421.44 200.246 1422.4 199.193 1423.65 198.443C1424.9 197.693 1426.38 197.318 1428.09 197.318C1429.79 197.318 1431.27 197.693 1432.52 198.443C1433.77 199.193 1434.73 200.246 1435.42 201.602C1436.11 202.958 1436.45 204.538 1436.45 206.341C1436.45 208.144 1436.11 209.72 1435.42 211.068C1434.73 212.417 1433.77 213.466 1432.52 214.216C1431.27 214.966 1429.79 215.341 1428.09 215.341ZM1428.11 212.045C1429.03 212.045 1429.81 211.792 1430.43 211.284C1431.05 210.769 1431.51 210.08 1431.81 209.216C1432.12 208.352 1432.28 207.39 1432.28 206.33C1432.28 205.261 1432.12 204.295 1431.81 203.432C1431.51 202.561 1431.05 201.867 1430.43 201.352C1429.81 200.837 1429.03 200.58 1428.11 200.58C1427.16 200.58 1426.37 200.837 1425.75 201.352C1425.12 201.867 1424.66 202.561 1424.35 203.432C1424.04 204.295 1423.89 205.261 1423.89 206.33C1423.89 207.39 1424.04 208.352 1424.35 209.216C1424.66 210.08 1425.12 210.769 1425.75 211.284C1426.37 211.792 1427.16 212.045 1428.11 212.045ZM1446.42 215.307C1445.05 215.307 1443.82 214.955 1442.74 214.25C1441.65 213.545 1440.8 212.523 1440.17 211.182C1439.54 209.841 1439.23 208.212 1439.23 206.295C1439.23 204.356 1439.54 202.72 1440.18 201.386C1440.82 200.045 1441.69 199.034 1442.78 198.352C1443.87 197.663 1445.09 197.318 1446.43 197.318C1447.45 197.318 1448.29 197.492 1448.95 197.841C1449.61 198.182 1450.13 198.595 1450.52 199.08C1450.91 199.557 1451.21 200.008 1451.42 200.432H1451.59V191.727H1455.71V215H1451.67V212.25H1451.42C1451.21 212.674 1450.9 213.125 1450.5 213.602C1450.1 214.072 1449.57 214.473 1448.91 214.807C1448.25 215.14 1447.42 215.307 1446.42 215.307ZM1447.57 211.932C1448.44 211.932 1449.18 211.697 1449.79 211.227C1450.41 210.75 1450.87 210.087 1451.19 209.239C1451.51 208.39 1451.67 207.402 1451.67 206.273C1451.67 205.144 1451.51 204.163 1451.19 203.33C1450.88 202.496 1450.42 201.848 1449.81 201.386C1449.2 200.924 1448.45 200.693 1447.57 200.693C1446.65 200.693 1445.88 200.932 1445.27 201.409C1444.66 201.886 1444.2 202.545 1443.88 203.386C1443.57 204.227 1443.42 205.189 1443.42 206.273C1443.42 207.364 1443.57 208.337 1443.88 209.193C1444.2 210.042 1444.67 210.712 1445.28 211.205C1445.9 211.689 1446.67 211.932 1447.57 211.932ZM1467.83 215.341C1466.08 215.341 1464.56 214.977 1463.29 214.25C1462.03 213.515 1461.05 212.477 1460.37 211.136C1459.69 209.788 1459.35 208.201 1459.35 206.375C1459.35 204.58 1459.69 203.004 1460.37 201.648C1461.06 200.284 1462.02 199.223 1463.26 198.466C1464.49 197.701 1465.94 197.318 1467.61 197.318C1468.69 197.318 1469.7 197.492 1470.65 197.841C1471.62 198.182 1472.47 198.712 1473.2 199.432C1473.94 200.152 1474.53 201.068 1474.95 202.182C1475.37 203.288 1475.59 204.606 1475.59 206.136V207.398H1461.28V204.625H1471.64C1471.64 203.837 1471.47 203.136 1471.13 202.523C1470.8 201.902 1470.33 201.413 1469.73 201.057C1469.14 200.701 1468.45 200.523 1467.67 200.523C1466.83 200.523 1466.09 200.727 1465.45 201.136C1464.81 201.538 1464.32 202.068 1463.96 202.727C1463.61 203.379 1463.44 204.095 1463.43 204.875V207.295C1463.43 208.311 1463.61 209.182 1463.98 209.909C1464.36 210.629 1464.87 211.182 1465.54 211.568C1466.21 211.947 1466.99 212.136 1467.88 212.136C1468.48 212.136 1469.02 212.053 1469.51 211.886C1469.99 211.712 1470.41 211.458 1470.77 211.125C1471.12 210.792 1471.39 210.379 1471.58 209.886L1475.42 210.318C1475.17 211.333 1474.71 212.22 1474.03 212.977C1473.36 213.727 1472.49 214.311 1471.44 214.727C1470.39 215.136 1469.18 215.341 1467.83 215.341Z" fill="black"/>
</svg>
