<svg width="1667" height="928" viewBox="0 0 1667 928" fill="none" xmlns="http://www.w3.org/2000/svg">
<rect x="630" y="401" width="300" height="150" fill="#4E4E4E"/>
<path d="M715.977 464.727V488H711.864V464.727H715.977ZM720.207 488V470.545H724.321V488H720.207ZM722.276 468.068C721.624 468.068 721.063 467.852 720.594 467.42C720.124 466.981 719.889 466.455 719.889 465.841C719.889 465.22 720.124 464.693 720.594 464.261C721.063 463.822 721.624 463.602 722.276 463.602C722.935 463.602 723.495 463.822 723.957 464.261C724.427 464.693 724.662 465.22 724.662 465.841C724.662 466.455 724.427 466.981 723.957 467.42C723.495 467.852 722.935 468.068 722.276 468.068ZM728.733 488V464.727H732.847V473.432H733.017C733.229 473.008 733.528 472.557 733.915 472.08C734.301 471.595 734.824 471.182 735.483 470.841C736.142 470.492 736.983 470.318 738.006 470.318C739.354 470.318 740.57 470.663 741.653 471.352C742.744 472.034 743.608 473.045 744.244 474.386C744.888 475.72 745.21 477.356 745.21 479.295C745.21 481.212 744.896 482.841 744.267 484.182C743.638 485.523 742.782 486.545 741.699 487.25C740.616 487.955 739.388 488.307 738.017 488.307C737.017 488.307 736.188 488.14 735.528 487.807C734.869 487.473 734.339 487.072 733.938 486.602C733.544 486.125 733.237 485.674 733.017 485.25H732.778V488H728.733ZM732.767 479.273C732.767 480.402 732.926 481.39 733.244 482.239C733.57 483.087 734.036 483.75 734.642 484.227C735.256 484.697 735.998 484.932 736.869 484.932C737.778 484.932 738.54 484.689 739.153 484.205C739.767 483.712 740.229 483.042 740.54 482.193C740.858 481.337 741.017 480.364 741.017 479.273C741.017 478.189 740.862 477.227 740.551 476.386C740.241 475.545 739.778 474.886 739.165 474.409C738.551 473.932 737.786 473.693 736.869 473.693C735.991 473.693 735.244 473.924 734.631 474.386C734.017 474.848 733.551 475.496 733.233 476.33C732.922 477.163 732.767 478.144 732.767 479.273ZM762.503 475.159L758.753 475.568C758.647 475.189 758.461 474.833 758.196 474.5C757.938 474.167 757.59 473.898 757.151 473.693C756.711 473.489 756.173 473.386 755.537 473.386C754.681 473.386 753.961 473.572 753.378 473.943C752.802 474.314 752.518 474.795 752.526 475.386C752.518 475.894 752.704 476.307 753.082 476.625C753.469 476.943 754.105 477.205 754.991 477.409L757.969 478.045C759.62 478.402 760.848 478.966 761.651 479.739C762.461 480.511 762.87 481.523 762.878 482.773C762.87 483.871 762.548 484.841 761.912 485.682C761.283 486.515 760.408 487.167 759.287 487.636C758.166 488.106 756.878 488.341 755.423 488.341C753.287 488.341 751.567 487.894 750.264 487C748.961 486.098 748.185 484.845 747.935 483.239L751.946 482.852C752.128 483.64 752.514 484.235 753.105 484.636C753.696 485.038 754.465 485.239 755.412 485.239C756.389 485.239 757.173 485.038 757.764 484.636C758.363 484.235 758.662 483.739 758.662 483.148C758.662 482.648 758.469 482.235 758.082 481.909C757.704 481.583 757.113 481.333 756.31 481.159L753.332 480.534C751.658 480.186 750.42 479.598 749.616 478.773C748.813 477.939 748.416 476.886 748.423 475.614C748.416 474.538 748.707 473.606 749.298 472.818C749.897 472.023 750.726 471.409 751.787 470.977C752.855 470.538 754.086 470.318 755.48 470.318C757.526 470.318 759.135 470.754 760.31 471.625C761.491 472.496 762.223 473.674 762.503 475.159ZM773.997 488.341C772.247 488.341 770.736 487.977 769.463 487.25C768.198 486.515 767.224 485.477 766.543 484.136C765.861 482.788 765.52 481.201 765.52 479.375C765.52 477.58 765.861 476.004 766.543 474.648C767.232 473.284 768.194 472.223 769.429 471.466C770.664 470.701 772.115 470.318 773.781 470.318C774.857 470.318 775.872 470.492 776.827 470.841C777.789 471.182 778.637 471.712 779.372 472.432C780.115 473.152 780.698 474.068 781.122 475.182C781.546 476.288 781.759 477.606 781.759 479.136V480.398H767.452V477.625H777.815C777.808 476.837 777.637 476.136 777.304 475.523C776.971 474.902 776.505 474.413 775.906 474.057C775.315 473.701 774.626 473.523 773.838 473.523C772.997 473.523 772.259 473.727 771.622 474.136C770.986 474.538 770.49 475.068 770.134 475.727C769.785 476.379 769.607 477.095 769.599 477.875V480.295C769.599 481.311 769.785 482.182 770.156 482.909C770.527 483.629 771.046 484.182 771.713 484.568C772.38 484.947 773.16 485.136 774.054 485.136C774.652 485.136 775.194 485.053 775.679 484.886C776.164 484.712 776.584 484.458 776.94 484.125C777.296 483.792 777.565 483.379 777.747 482.886L781.588 483.318C781.346 484.333 780.884 485.22 780.202 485.977C779.527 486.727 778.664 487.311 777.611 487.727C776.558 488.136 775.353 488.341 773.997 488.341ZM789.352 464.727V488H785.239V464.727H789.352ZM793.116 483.682V480.33L802.991 464.727H805.787V469.5H804.082L797.435 480.034V480.216H811.219V483.682H793.116ZM804.219 488V482.659L804.264 481.159V464.727H808.241V488H804.219ZM822.509 488.341C820.766 488.341 819.27 487.958 818.02 487.193C816.777 486.428 815.819 485.371 815.145 484.023C814.478 482.667 814.145 481.106 814.145 479.341C814.145 477.568 814.486 476.004 815.168 474.648C815.849 473.284 816.812 472.223 818.054 471.466C819.304 470.701 820.781 470.318 822.486 470.318C823.902 470.318 825.156 470.58 826.247 471.102C827.346 471.617 828.221 472.348 828.872 473.295C829.524 474.235 829.895 475.333 829.986 476.591H826.054C825.895 475.75 825.516 475.049 824.918 474.489C824.327 473.92 823.535 473.636 822.543 473.636C821.702 473.636 820.963 473.864 820.327 474.318C819.69 474.765 819.194 475.409 818.838 476.25C818.49 477.091 818.315 478.098 818.315 479.273C818.315 480.462 818.49 481.485 818.838 482.341C819.187 483.189 819.675 483.845 820.304 484.307C820.94 484.761 821.687 484.989 822.543 484.989C823.149 484.989 823.69 484.875 824.168 484.648C824.652 484.413 825.058 484.076 825.384 483.636C825.709 483.197 825.933 482.663 826.054 482.034H829.986C829.887 483.269 829.524 484.364 828.895 485.318C828.266 486.265 827.41 487.008 826.327 487.545C825.243 488.076 823.971 488.341 822.509 488.341ZM833.364 494.545V470.545H837.409V473.432H837.648C837.86 473.008 838.159 472.557 838.545 472.08C838.932 471.595 839.455 471.182 840.114 470.841C840.773 470.492 841.614 470.318 842.636 470.318C843.985 470.318 845.201 470.663 846.284 471.352C847.375 472.034 848.239 473.045 848.875 474.386C849.519 475.72 849.841 477.356 849.841 479.295C849.841 481.212 849.527 482.841 848.898 484.182C848.269 485.523 847.413 486.545 846.33 487.25C845.246 487.955 844.019 488.307 842.648 488.307C841.648 488.307 840.818 488.14 840.159 487.807C839.5 487.473 838.97 487.072 838.568 486.602C838.174 486.125 837.867 485.674 837.648 485.25H837.477V494.545H833.364ZM837.398 479.273C837.398 480.402 837.557 481.39 837.875 482.239C838.201 483.087 838.667 483.75 839.273 484.227C839.886 484.697 840.629 484.932 841.5 484.932C842.409 484.932 843.17 484.689 843.784 484.205C844.398 483.712 844.86 483.042 845.17 482.193C845.489 481.337 845.648 480.364 845.648 479.273C845.648 478.189 845.492 477.227 845.182 476.386C844.871 475.545 844.409 474.886 843.795 474.409C843.182 473.932 842.417 473.693 841.5 473.693C840.621 473.693 839.875 473.924 839.261 474.386C838.648 474.848 838.182 475.496 837.864 476.33C837.553 477.163 837.398 478.144 837.398 479.273Z" fill="white"/>
<rect x="1086" y="270" width="300" height="100" fill="#4E4E4E"/>
<path d="M1187.08 310.094C1188.64 310.094 1189.74 309.078 1189.74 307.609C1189.74 306.141 1188.64 305.125 1187.08 305.125C1185.53 305.125 1184.44 306.141 1184.44 307.609C1184.44 309.078 1185.53 310.094 1187.08 310.094ZM1194.35 331V328.094H1188.97V313.891H1179.97V316.797H1185.42V328.094H1179.78V331H1194.35ZM1199.2 331H1202.85V321.031C1202.85 318.438 1204.44 316.734 1206.88 316.734C1209.22 316.734 1210.35 318.047 1210.35 320.797V331H1213.99V319.906C1213.99 315.766 1211.97 313.547 1208.25 313.547C1205.74 313.547 1203.85 314.719 1202.97 316.812H1202.72V313.891H1199.2V331ZM1226.64 310.094C1228.2 310.094 1229.3 309.078 1229.3 307.609C1229.3 306.141 1228.2 305.125 1226.64 305.125C1225.1 305.125 1224 306.141 1224 307.609C1224 309.078 1225.1 310.094 1226.64 310.094ZM1233.91 331V328.094H1228.53V313.891H1219.53V316.797H1224.99V328.094H1219.35V331H1233.91ZM1242.86 309.109V314H1238.36V316.938H1242.86V325.719C1242.86 329.516 1244.72 331.047 1249.22 331.047C1249.74 331.047 1252.61 331 1252.89 330.953V328.047C1252.6 328.078 1250.13 328.094 1249.5 328.094C1247.56 328.094 1246.49 327.25 1246.49 325.734V316.938H1253.03V314H1246.42V309.109H1242.86ZM1261.91 319.734C1261.91 325.312 1263.61 330.188 1266.83 333.797H1270.55C1267.22 328.906 1265.86 324.859 1265.86 319.734C1265.86 314.594 1267.22 310.531 1270.55 305.641H1266.83C1263.61 309.25 1261.91 314.125 1261.91 319.734ZM1281.11 305.641C1284.44 310.531 1285.8 314.594 1285.8 319.734C1285.8 324.859 1284.44 328.906 1281.11 333.797H1284.83C1288.05 330.188 1289.75 325.312 1289.75 319.734C1289.75 314.125 1288.05 309.25 1284.83 305.641H1281.11Z" fill="white"/>
<rect x="1086" y="426" width="300" height="100" fill="#4E4E4E"/>
<path d="M1139.59 487H1143.23V477.031C1143.23 474.438 1144.83 472.734 1147.27 472.734C1149.61 472.734 1150.73 474.047 1150.73 476.797V487H1154.38V475.906C1154.38 471.766 1152.36 469.547 1148.64 469.547C1146.12 469.547 1144.23 470.719 1143.36 472.812H1143.11V469.891H1139.59V487ZM1166.77 487.344C1171.48 487.344 1174.47 484.406 1174.47 479.75V477.141C1174.47 472.484 1171.48 469.547 1166.77 469.547C1162.05 469.547 1159.06 472.484 1159.06 477.141V479.75C1159.06 484.406 1162.05 487.344 1166.77 487.344ZM1166.77 472.562C1169.3 472.562 1170.88 474.391 1170.88 477.344V479.547C1170.88 482.5 1169.3 484.328 1166.77 484.328C1164.23 484.328 1162.66 482.5 1162.66 479.547V477.344C1162.66 474.391 1164.23 472.562 1166.77 472.562ZM1183.25 465.109V470H1178.75V472.938H1183.25V481.719C1183.25 485.516 1185.11 487.047 1189.61 487.047C1190.12 487.047 1193 487 1193.28 486.953V484.047C1192.98 484.078 1190.52 484.094 1189.89 484.094C1187.95 484.094 1186.88 483.25 1186.88 481.734V472.938H1193.42V470H1186.81V465.109H1183.25ZM1206.59 466.094C1208.16 466.094 1209.25 465.078 1209.25 463.609C1209.25 462.141 1208.16 461.125 1206.59 461.125C1205.05 461.125 1203.95 462.141 1203.95 463.609C1203.95 465.078 1205.05 466.094 1206.59 466.094ZM1213.86 487V484.094H1208.48V469.891H1199.48V472.797H1204.94V484.094H1199.3V487H1213.86ZM1223.34 487H1226.97V472.938H1234.06V470H1226.91V468.391C1226.91 466.938 1227.89 466.188 1229.8 466.188C1230.42 466.188 1233.58 466.234 1234.06 466.281V463.547C1233.7 463.5 1230.36 463.438 1229.72 463.438C1225.25 463.438 1223.34 464.938 1223.34 468.578V470H1218.77V472.938H1223.34V487ZM1246.16 466.094C1247.72 466.094 1248.81 465.078 1248.81 463.609C1248.81 462.141 1247.72 461.125 1246.16 461.125C1244.61 461.125 1243.52 462.141 1243.52 463.609C1243.52 465.078 1244.61 466.094 1246.16 466.094ZM1253.42 487V484.094H1248.05V469.891H1239.05V472.797H1244.5V484.094H1238.86V487H1253.42ZM1265.86 472.422C1268.25 472.422 1269.69 474.109 1269.69 476.891H1261.94C1261.94 474.094 1263.41 472.422 1265.86 472.422ZM1269.73 482.359C1269.38 483.625 1267.92 484.453 1266.03 484.453C1263.55 484.453 1261.94 482.766 1261.94 480.156V479.328H1273.22V477.25C1273.22 472.5 1270.42 469.547 1265.92 469.547C1261.38 469.547 1258.36 472.516 1258.36 477V479.672C1258.36 484.547 1261.17 487.344 1266.05 487.344C1269.88 487.344 1272.78 485.297 1273.19 482.359H1269.73ZM1281.22 477.062C1281.22 474.375 1282.73 472.688 1285.19 472.688C1287.62 472.688 1289.14 474.359 1289.14 477.062V479.734C1289.14 482.422 1287.62 484.094 1285.19 484.094C1282.73 484.094 1281.22 482.422 1281.22 479.734V477.062ZM1289.12 484.188V487H1292.81V463.281H1289.06V472.688H1288.75C1288.11 470.703 1286.34 469.594 1283.88 469.594C1279.95 469.594 1277.52 472.359 1277.52 476.906V479.953C1277.52 484.516 1279.95 487.266 1283.88 487.266C1286.36 487.266 1288.09 486.188 1288.81 484.188H1289.12ZM1301.2 475.734C1301.2 481.312 1302.91 486.188 1306.12 489.797H1309.84C1306.52 484.906 1305.16 480.859 1305.16 475.734C1305.16 470.594 1306.52 466.531 1309.84 461.641H1306.12C1302.91 465.25 1301.2 470.125 1301.2 475.734ZM1320.41 461.641C1323.73 466.531 1325.09 470.594 1325.09 475.734C1325.09 480.859 1323.73 484.906 1320.41 489.797H1324.12C1327.34 486.188 1329.05 481.312 1329.05 475.734C1329.05 470.125 1327.34 465.25 1324.12 461.641H1320.41Z" fill="white"/>
<rect x="1086" y="583" width="300" height="100" fill="#4E4E4E"/>
<path d="M1138.67 626.609C1136.2 626.609 1134.47 627.703 1133.75 629.703H1133.44V626.891H1129.75V649.734H1133.5V641.203H1133.81C1134.45 643.172 1136.2 644.297 1138.67 644.297C1142.61 644.297 1145.05 641.531 1145.05 636.969V633.922C1145.05 629.375 1142.61 626.609 1138.67 626.609ZM1137.38 629.797C1139.83 629.797 1141.34 631.469 1141.34 634.156V636.844C1141.34 639.516 1139.83 641.203 1137.38 641.203C1134.94 641.203 1133.42 639.531 1133.42 636.844V634.156C1133.42 631.469 1134.94 629.797 1137.38 629.797ZM1156.42 631.266V626.891H1149.25V629.609H1152.91V641.281H1149.58V644H1161.5V641.281H1156.41V636.375C1156.41 632.422 1158.48 630.266 1162.44 630.266C1163.38 630.266 1164.5 630.453 1165.27 630.75V626.797C1164.67 626.562 1163.78 626.438 1162.81 626.438C1159.56 626.438 1157.66 627.969 1156.95 631.266H1156.42ZM1176.66 644.344C1181.38 644.344 1184.36 641.406 1184.36 636.75V634.141C1184.36 629.484 1181.38 626.547 1176.66 626.547C1171.94 626.547 1168.95 629.484 1168.95 634.141V636.75C1168.95 641.406 1171.94 644.344 1176.66 644.344ZM1176.66 629.562C1179.19 629.562 1180.77 631.391 1180.77 634.344V636.547C1180.77 639.5 1179.19 641.328 1176.66 641.328C1174.12 641.328 1172.55 639.5 1172.55 636.547V634.344C1172.55 631.391 1174.12 629.562 1176.66 629.562ZM1193.14 622.109V627H1188.64V629.938H1193.14V638.719C1193.14 642.516 1195 644.047 1199.5 644.047C1200.02 644.047 1202.89 644 1203.17 643.953V641.047C1202.88 641.078 1200.41 641.094 1199.78 641.094C1197.84 641.094 1196.77 640.25 1196.77 638.734V629.938H1203.31V627H1196.7V622.109H1193.14ZM1216.41 629.422C1218.8 629.422 1220.23 631.109 1220.23 633.891H1212.48C1212.48 631.094 1213.95 629.422 1216.41 629.422ZM1220.28 639.359C1219.92 640.625 1218.47 641.453 1216.58 641.453C1214.09 641.453 1212.48 639.766 1212.48 637.156V636.328H1223.77V634.25C1223.77 629.5 1220.97 626.547 1216.47 626.547C1211.92 626.547 1208.91 629.516 1208.91 634V636.672C1208.91 641.547 1211.72 644.344 1216.59 644.344C1220.42 644.344 1223.33 642.297 1223.73 639.359H1220.28ZM1243.5 632.594C1243.09 628.672 1240.52 626.5 1236.33 626.5C1231.44 626.5 1228.67 629.359 1228.67 634.438V636.406C1228.67 641.5 1231.44 644.344 1236.33 644.344C1240.5 644.344 1243.11 642.188 1243.5 638.359H1239.94C1239.62 640.25 1238.3 641.281 1236.3 641.281C1233.73 641.281 1232.33 639.438 1232.33 636.078V634.766C1232.33 631.406 1233.73 629.562 1236.3 629.562C1238.28 629.562 1239.64 630.641 1239.94 632.594H1243.5ZM1252.48 622.109V627H1247.98V629.938H1252.48V638.719C1252.48 642.516 1254.34 644.047 1258.84 644.047C1259.36 644.047 1262.23 644 1262.52 643.953V641.047C1262.22 641.078 1259.75 641.094 1259.12 641.094C1257.19 641.094 1256.11 640.25 1256.11 638.734V629.938H1262.66V627H1256.05V622.109H1252.48ZM1275.75 629.422C1278.14 629.422 1279.58 631.109 1279.58 633.891H1271.83C1271.83 631.094 1273.3 629.422 1275.75 629.422ZM1279.62 639.359C1279.27 640.625 1277.81 641.453 1275.92 641.453C1273.44 641.453 1271.83 639.766 1271.83 637.156V636.328H1283.11V634.25C1283.11 629.5 1280.31 626.547 1275.81 626.547C1271.27 626.547 1268.25 629.516 1268.25 634V636.672C1268.25 641.547 1271.06 644.344 1275.94 644.344C1279.77 644.344 1282.67 642.297 1283.08 639.359H1279.62ZM1291.11 634.062C1291.11 631.375 1292.62 629.688 1295.08 629.688C1297.52 629.688 1299.03 631.359 1299.03 634.062V636.734C1299.03 639.422 1297.52 641.094 1295.08 641.094C1292.62 641.094 1291.11 639.422 1291.11 636.734V634.062ZM1299.02 641.188V644H1302.7V620.281H1298.95V629.688H1298.64C1298 627.703 1296.23 626.594 1293.77 626.594C1289.84 626.594 1287.41 629.359 1287.41 633.906V636.953C1287.41 641.516 1289.84 644.266 1293.77 644.266C1296.25 644.266 1297.98 643.188 1298.7 641.188H1299.02ZM1311.09 632.734C1311.09 638.312 1312.8 643.188 1316.02 646.797H1319.73C1316.41 641.906 1315.05 637.859 1315.05 632.734C1315.05 627.594 1316.41 623.531 1319.73 618.641H1316.02C1312.8 622.25 1311.09 627.125 1311.09 632.734ZM1330.3 618.641C1333.62 623.531 1334.98 627.594 1334.98 632.734C1334.98 637.859 1333.62 641.906 1330.3 646.797H1334.02C1337.23 643.188 1338.94 638.312 1338.94 632.734C1338.94 627.125 1337.23 622.25 1334.02 618.641H1330.3Z" fill="white"/>
<rect x="180" y="401" width="300" height="150" fill="#4E4E4E"/>
<path d="M306.93 488.341C305.188 488.341 303.692 487.958 302.442 487.193C301.199 486.428 300.241 485.371 299.567 484.023C298.9 482.667 298.567 481.106 298.567 479.341C298.567 477.568 298.908 476.004 299.589 474.648C300.271 473.284 301.233 472.223 302.476 471.466C303.726 470.701 305.203 470.318 306.908 470.318C308.324 470.318 309.578 470.58 310.669 471.102C311.768 471.617 312.643 472.348 313.294 473.295C313.946 474.235 314.317 475.333 314.408 476.591H310.476C310.317 475.75 309.938 475.049 309.339 474.489C308.749 473.92 307.957 473.636 306.964 473.636C306.124 473.636 305.385 473.864 304.749 474.318C304.112 474.765 303.616 475.409 303.26 476.25C302.911 477.091 302.737 478.098 302.737 479.273C302.737 480.462 302.911 481.485 303.26 482.341C303.608 483.189 304.097 483.845 304.726 484.307C305.362 484.761 306.108 484.989 306.964 484.989C307.571 484.989 308.112 484.875 308.589 484.648C309.074 484.413 309.48 484.076 309.805 483.636C310.131 483.197 310.355 482.663 310.476 482.034H314.408C314.309 483.269 313.946 484.364 313.317 485.318C312.688 486.265 311.832 487.008 310.749 487.545C309.665 488.076 308.393 488.341 306.93 488.341ZM317.786 488V470.545H321.774V473.455H321.956C322.274 472.447 322.82 471.67 323.592 471.125C324.373 470.572 325.263 470.295 326.263 470.295C326.49 470.295 326.744 470.307 327.024 470.33C327.312 470.345 327.551 470.371 327.74 470.409V474.193C327.566 474.133 327.289 474.08 326.911 474.034C326.539 473.981 326.179 473.955 325.831 473.955C325.081 473.955 324.407 474.117 323.808 474.443C323.217 474.761 322.751 475.205 322.411 475.773C322.07 476.341 321.899 476.996 321.899 477.739V488H317.786ZM340.126 470.545V473.727H330.092V470.545H340.126ZM332.57 466.364H336.683V482.75C336.683 483.303 336.767 483.727 336.933 484.023C337.107 484.311 337.335 484.508 337.615 484.614C337.895 484.72 338.206 484.773 338.547 484.773C338.804 484.773 339.039 484.754 339.251 484.716C339.471 484.678 339.638 484.644 339.751 484.614L340.445 487.83C340.225 487.905 339.911 487.989 339.501 488.08C339.1 488.17 338.607 488.223 338.024 488.239C336.994 488.269 336.066 488.114 335.24 487.773C334.414 487.424 333.759 486.886 333.274 486.159C332.797 485.432 332.562 484.523 332.57 483.432V466.364ZM352.124 488.443C350.252 488.443 348.646 487.97 347.305 487.023C345.972 486.068 344.946 484.693 344.226 482.898C343.514 481.095 343.158 478.924 343.158 476.386C343.165 473.848 343.525 471.689 344.237 469.909C344.957 468.121 345.983 466.758 347.317 465.818C348.658 464.879 350.26 464.409 352.124 464.409C353.987 464.409 355.589 464.879 356.93 465.818C358.271 466.758 359.298 468.121 360.01 469.909C360.73 471.697 361.089 473.856 361.089 476.386C361.089 478.932 360.73 481.106 360.01 482.909C359.298 484.705 358.271 486.076 356.93 487.023C355.597 487.97 353.995 488.443 352.124 488.443ZM352.124 484.886C353.578 484.886 354.726 484.17 355.567 482.739C356.415 481.299 356.839 479.182 356.839 476.386C356.839 474.538 356.646 472.985 356.26 471.727C355.874 470.47 355.328 469.523 354.624 468.886C353.919 468.242 353.086 467.92 352.124 467.92C350.677 467.92 349.533 468.64 348.692 470.08C347.851 471.511 347.427 473.614 347.419 476.386C347.411 478.242 347.597 479.803 347.976 481.068C348.362 482.333 348.908 483.288 349.612 483.932C350.317 484.568 351.154 484.886 352.124 484.886Z" fill="white"/>
<path d="M630 476L615 467.34V484.66L630 476ZM480 477.5H616.5V474.5H480V477.5Z" fill="#4E4E4E"/>
<path d="M1086 320L1069.27 324.483L1081.52 336.73L1086 320ZM931.061 477.061L1077.51 330.607L1075.39 328.485L928.939 474.939L931.061 477.061Z" fill="#4E4E4E"/>
<path d="M1086 477L1071 468.34V485.66L1086 477ZM930 478.5H1072.5V475.5H930V478.5Z" fill="#4E4E4E"/>
<path d="M1086 633L1081.52 616.27L1069.27 628.517L1086 633ZM928.939 478.061L1075.39 624.515L1077.51 622.393L931.061 475.939L928.939 478.061Z" fill="#4E4E4E"/>
<rect x="987.5" y="140.5" width="497" height="673" stroke="#686868" stroke-width="3" stroke-dasharray="20 20"/>
<rect x="1104" y="113" width="263" height="52" fill="white"/>
<path d="M1158.75 127.727H1163.51L1169.21 138.023H1169.43L1175.13 127.727H1179.89L1171.42 142.318V151H1167.22V142.318L1158.75 127.727ZM1187.06 151.341C1185.35 151.341 1183.87 150.966 1182.62 150.216C1181.37 149.466 1180.4 148.417 1179.71 147.068C1179.03 145.72 1178.69 144.144 1178.69 142.341C1178.69 140.538 1179.03 138.958 1179.71 137.602C1180.4 136.246 1181.37 135.193 1182.62 134.443C1183.87 133.693 1185.35 133.318 1187.06 133.318C1188.76 133.318 1190.24 133.693 1191.49 134.443C1192.74 135.193 1193.7 136.246 1194.38 137.602C1195.07 138.958 1195.42 140.538 1195.42 142.341C1195.42 144.144 1195.07 145.72 1194.38 147.068C1193.7 148.417 1192.74 149.466 1191.49 150.216C1190.24 150.966 1188.76 151.341 1187.06 151.341ZM1187.08 148.045C1188 148.045 1188.78 147.792 1189.4 147.284C1190.02 146.769 1190.48 146.08 1190.78 145.216C1191.09 144.352 1191.25 143.39 1191.25 142.33C1191.25 141.261 1191.09 140.295 1190.78 139.432C1190.48 138.561 1190.02 137.867 1189.4 137.352C1188.78 136.837 1188 136.58 1187.08 136.58C1186.13 136.58 1185.34 136.837 1184.71 137.352C1184.09 137.867 1183.63 138.561 1183.32 139.432C1183.01 140.295 1182.86 141.261 1182.86 142.33C1182.86 143.39 1183.01 144.352 1183.32 145.216C1183.63 146.08 1184.09 146.769 1184.71 147.284C1185.34 147.792 1186.13 148.045 1187.08 148.045ZM1210.04 143.659V133.545H1214.15V151H1210.16V147.898H1209.98C1209.58 148.875 1208.94 149.674 1208.04 150.295C1207.14 150.917 1206.04 151.227 1204.73 151.227C1203.58 151.227 1202.57 150.973 1201.69 150.466C1200.82 149.951 1200.14 149.205 1199.65 148.227C1199.16 147.242 1198.91 146.053 1198.91 144.659V133.545H1203.02V144.023C1203.02 145.129 1203.33 146.008 1203.93 146.659C1204.54 147.311 1205.33 147.636 1206.32 147.636C1206.93 147.636 1207.51 147.489 1208.08 147.193C1208.65 146.898 1209.12 146.458 1209.48 145.875C1209.85 145.284 1210.04 144.545 1210.04 143.659ZM1218.38 151V133.545H1222.37V136.455H1222.55C1222.87 135.447 1223.41 134.67 1224.19 134.125C1224.97 133.572 1225.86 133.295 1226.86 133.295C1227.08 133.295 1227.34 133.307 1227.62 133.33C1227.91 133.345 1228.14 133.371 1228.33 133.409V137.193C1228.16 137.133 1227.88 137.08 1227.5 137.034C1227.13 136.981 1226.77 136.955 1226.42 136.955C1225.67 136.955 1225 137.117 1224.4 137.443C1223.81 137.761 1223.35 138.205 1223 138.773C1222.66 139.341 1222.49 139.996 1222.49 140.739V151H1218.38ZM1246.62 151.341C1244.88 151.341 1243.38 150.958 1242.13 150.193C1240.89 149.428 1239.93 148.371 1239.25 147.023C1238.59 145.667 1238.25 144.106 1238.25 142.341C1238.25 140.568 1238.6 139.004 1239.28 137.648C1239.96 136.284 1240.92 135.223 1242.16 134.466C1243.41 133.701 1244.89 133.318 1246.6 133.318C1248.01 133.318 1249.27 133.58 1250.36 134.102C1251.46 134.617 1252.33 135.348 1252.98 136.295C1253.63 137.235 1254 138.333 1254.1 139.591H1250.16C1250 138.75 1249.63 138.049 1249.03 137.489C1248.44 136.92 1247.64 136.636 1246.65 136.636C1245.81 136.636 1245.07 136.864 1244.44 137.318C1243.8 137.765 1243.3 138.409 1242.95 139.25C1242.6 140.091 1242.42 141.098 1242.42 142.273C1242.42 143.462 1242.6 144.485 1242.95 145.341C1243.3 146.189 1243.78 146.845 1244.41 147.307C1245.05 147.761 1245.8 147.989 1246.65 147.989C1247.26 147.989 1247.8 147.875 1248.28 147.648C1248.76 147.413 1249.17 147.076 1249.49 146.636C1249.82 146.197 1250.04 145.663 1250.16 145.034H1254.1C1254 146.269 1253.63 147.364 1253 148.318C1252.38 149.265 1251.52 150.008 1250.44 150.545C1249.35 151.076 1248.08 151.341 1246.62 151.341ZM1265.09 151.341C1263.38 151.341 1261.9 150.966 1260.65 150.216C1259.4 149.466 1258.44 148.417 1257.75 147.068C1257.06 145.72 1256.72 144.144 1256.72 142.341C1256.72 140.538 1257.06 138.958 1257.75 137.602C1258.44 136.246 1259.4 135.193 1260.65 134.443C1261.9 133.693 1263.38 133.318 1265.09 133.318C1266.79 133.318 1268.27 133.693 1269.52 134.443C1270.77 135.193 1271.73 136.246 1272.42 137.602C1273.11 138.958 1273.45 140.538 1273.45 142.341C1273.45 144.144 1273.11 145.72 1272.42 147.068C1271.73 148.417 1270.77 149.466 1269.52 150.216C1268.27 150.966 1266.79 151.341 1265.09 151.341ZM1265.11 148.045C1266.03 148.045 1266.81 147.792 1267.43 147.284C1268.05 146.769 1268.51 146.08 1268.81 145.216C1269.12 144.352 1269.28 143.39 1269.28 142.33C1269.28 141.261 1269.12 140.295 1268.81 139.432C1268.51 138.561 1268.05 137.867 1267.43 137.352C1266.81 136.837 1266.03 136.58 1265.11 136.58C1264.16 136.58 1263.37 136.837 1262.75 137.352C1262.12 137.867 1261.66 138.561 1261.35 139.432C1261.04 140.295 1260.89 141.261 1260.89 142.33C1260.89 143.39 1261.04 144.352 1261.35 145.216C1261.66 146.08 1262.12 146.769 1262.75 147.284C1263.37 147.792 1264.16 148.045 1265.11 148.045ZM1283.42 151.307C1282.05 151.307 1280.82 150.955 1279.74 150.25C1278.65 149.545 1277.8 148.523 1277.17 147.182C1276.54 145.841 1276.23 144.212 1276.23 142.295C1276.23 140.356 1276.54 138.72 1277.18 137.386C1277.82 136.045 1278.69 135.034 1279.78 134.352C1280.87 133.663 1282.09 133.318 1283.43 133.318C1284.45 133.318 1285.29 133.492 1285.95 133.841C1286.61 134.182 1287.13 134.595 1287.52 135.08C1287.91 135.557 1288.21 136.008 1288.42 136.432H1288.59V127.727H1292.71V151H1288.67V148.25H1288.42C1288.21 148.674 1287.9 149.125 1287.5 149.602C1287.1 150.072 1286.57 150.473 1285.91 150.807C1285.25 151.14 1284.42 151.307 1283.42 151.307ZM1284.57 147.932C1285.44 147.932 1286.18 147.697 1286.79 147.227C1287.41 146.75 1287.87 146.087 1288.19 145.239C1288.51 144.39 1288.67 143.402 1288.67 142.273C1288.67 141.144 1288.51 140.163 1288.19 139.33C1287.88 138.496 1287.42 137.848 1286.81 137.386C1286.2 136.924 1285.45 136.693 1284.57 136.693C1283.65 136.693 1282.88 136.932 1282.27 137.409C1281.66 137.886 1281.2 138.545 1280.88 139.386C1280.57 140.227 1280.42 141.189 1280.42 142.273C1280.42 143.364 1280.57 144.337 1280.88 145.193C1281.2 146.042 1281.67 146.712 1282.28 147.205C1282.9 147.689 1283.67 147.932 1284.57 147.932ZM1304.83 151.341C1303.08 151.341 1301.56 150.977 1300.29 150.25C1299.03 149.515 1298.05 148.477 1297.37 147.136C1296.69 145.788 1296.35 144.201 1296.35 142.375C1296.35 140.58 1296.69 139.004 1297.37 137.648C1298.06 136.284 1299.02 135.223 1300.26 134.466C1301.49 133.701 1302.94 133.318 1304.61 133.318C1305.69 133.318 1306.7 133.492 1307.65 133.841C1308.62 134.182 1309.47 134.712 1310.2 135.432C1310.94 136.152 1311.53 137.068 1311.95 138.182C1312.37 139.288 1312.59 140.606 1312.59 142.136V143.398H1298.28V140.625H1308.64C1308.64 139.837 1308.47 139.136 1308.13 138.523C1307.8 137.902 1307.33 137.413 1306.73 137.057C1306.14 136.701 1305.45 136.523 1304.67 136.523C1303.83 136.523 1303.09 136.727 1302.45 137.136C1301.81 137.538 1301.32 138.068 1300.96 138.727C1300.61 139.379 1300.44 140.095 1300.43 140.875V143.295C1300.43 144.311 1300.61 145.182 1300.98 145.909C1301.36 146.629 1301.87 147.182 1302.54 147.568C1303.21 147.947 1303.99 148.136 1304.88 148.136C1305.48 148.136 1306.02 148.053 1306.51 147.886C1306.99 147.712 1307.41 147.458 1307.77 147.125C1308.12 146.792 1308.39 146.379 1308.58 145.886L1312.42 146.318C1312.17 147.333 1311.71 148.22 1311.03 148.977C1310.36 149.727 1309.49 150.311 1308.44 150.727C1307.39 151.136 1306.18 151.341 1304.83 151.341Z" fill="black"/>
</svg>
