<svg width="306" height="72" viewBox="0 0 306 72" fill="none" xmlns="http://www.w3.org/2000/svg">
<rect width="135" height="72" fill="#21394A"/>
<path d="M26.7997 23.5625C26.7467 23.0663 26.5232 22.6799 26.1293 22.4034C25.7391 22.1269 25.2315 21.9886 24.6065 21.9886C24.1671 21.9886 23.7902 22.0549 23.4759 22.1875C23.1615 22.3201 22.9209 22.5 22.7543 22.7273C22.5876 22.9545 22.5024 23.214 22.4986 23.5057C22.4986 23.7481 22.5535 23.9583 22.6634 24.1364C22.777 24.3144 22.9304 24.4659 23.1236 24.5909C23.3168 24.7121 23.5308 24.8144 23.7656 24.8977C24.0005 24.9811 24.2372 25.0511 24.4759 25.108L25.5668 25.3807C26.0062 25.483 26.4285 25.6212 26.8338 25.7955C27.2429 25.9697 27.6084 26.1894 27.9304 26.4545C28.2562 26.7197 28.5137 27.0398 28.7031 27.4148C28.8925 27.7898 28.9872 28.2292 28.9872 28.733C28.9872 29.4148 28.813 30.0152 28.4645 30.5341C28.116 31.0492 27.6122 31.4527 26.9531 31.7443C26.2978 32.0322 25.5043 32.1761 24.5724 32.1761C23.6671 32.1761 22.8812 32.036 22.2145 31.7557C21.5516 31.4754 21.0327 31.0663 20.6577 30.5284C20.2865 29.9905 20.0857 29.3352 20.0554 28.5625H22.1293C22.1596 28.9678 22.2846 29.3049 22.5043 29.5739C22.724 29.8428 23.0099 30.0436 23.3622 30.1761C23.7183 30.3087 24.116 30.375 24.5554 30.375C25.0137 30.375 25.4152 30.3068 25.7599 30.1705C26.1084 30.0303 26.3812 29.8371 26.5781 29.5909C26.7751 29.3409 26.8755 29.0492 26.8793 28.7159C26.8755 28.4129 26.7865 28.1629 26.6122 27.9659C26.438 27.7652 26.1937 27.5985 25.8793 27.4659C25.5687 27.3295 25.205 27.2083 24.7884 27.1023L23.4645 26.7614C22.5062 26.5152 21.7486 26.142 21.1918 25.642C20.6387 25.1383 20.3622 24.4697 20.3622 23.6364C20.3622 22.9508 20.5478 22.3504 20.919 21.8352C21.294 21.3201 21.8035 20.9205 22.4474 20.6364C23.0914 20.3485 23.8205 20.2045 24.6349 20.2045C25.4607 20.2045 26.1842 20.3485 26.8054 20.6364C27.4304 20.9205 27.9209 21.3163 28.277 21.8239C28.633 22.3277 28.8168 22.9072 28.8281 23.5625H26.7997ZM34.6392 32.1705C33.7642 32.1705 33.0085 31.9886 32.3722 31.625C31.7396 31.2576 31.2528 30.7386 30.9119 30.0682C30.571 29.3939 30.4006 28.6004 30.4006 27.6875C30.4006 26.7898 30.571 26.0019 30.9119 25.3239C31.2566 24.642 31.7377 24.1117 32.3551 23.733C32.9725 23.3504 33.6979 23.1591 34.5312 23.1591C35.0691 23.1591 35.5767 23.2462 36.054 23.4205C36.535 23.5909 36.9593 23.8561 37.3267 24.2159C37.6979 24.5758 37.9896 25.0341 38.2017 25.5909C38.4138 26.1439 38.5199 26.803 38.5199 27.5682V28.1989H31.3665V26.8125H36.5483C36.5445 26.4186 36.4593 26.0682 36.2926 25.7614C36.1259 25.4508 35.893 25.2064 35.5938 25.0284C35.2983 24.8504 34.9536 24.7614 34.5597 24.7614C34.1392 24.7614 33.7699 24.8636 33.4517 25.0682C33.1335 25.2689 32.8854 25.5341 32.7074 25.8636C32.5331 26.1894 32.4441 26.5473 32.4403 26.9375V28.1477C32.4403 28.6553 32.5331 29.0909 32.7188 29.4545C32.9044 29.8144 33.1638 30.0909 33.4972 30.2841C33.8305 30.4735 34.2206 30.5682 34.6676 30.5682C34.9669 30.5682 35.2377 30.5265 35.4801 30.4432C35.7225 30.3561 35.9328 30.2292 36.1108 30.0625C36.2888 29.8958 36.4233 29.6894 36.5142 29.4432L38.4347 29.6591C38.3134 30.1667 38.0824 30.6098 37.7415 30.9886C37.4044 31.3636 36.9725 31.6553 36.446 31.8636C35.9195 32.0682 35.3172 32.1705 34.6392 32.1705ZM40.2599 32V23.2727H42.2543V24.7273H42.3452C42.5043 24.2235 42.777 23.8352 43.1634 23.5625C43.5535 23.286 43.9986 23.1477 44.4986 23.1477C44.6122 23.1477 44.7391 23.1534 44.8793 23.1648C45.0232 23.1723 45.1425 23.1856 45.2372 23.2045V25.0966C45.1501 25.0663 45.0118 25.0398 44.8224 25.017C44.6368 24.9905 44.4569 24.9773 44.2827 24.9773C43.9077 24.9773 43.5705 25.0587 43.2713 25.2216C42.9759 25.3807 42.7429 25.6023 42.5724 25.8864C42.402 26.1705 42.3168 26.4981 42.3168 26.8693V32H40.2599ZM46.6037 32V23.2727H48.6605V32H46.6037ZM47.6378 22.0341C47.312 22.0341 47.0317 21.9261 46.7969 21.7102C46.562 21.4905 46.4446 21.2273 46.4446 20.9205C46.4446 20.6098 46.562 20.3466 46.7969 20.1307C47.0317 19.911 47.312 19.8011 47.6378 19.8011C47.9673 19.8011 48.2476 19.911 48.4787 20.1307C48.7135 20.3466 48.831 20.6098 48.831 20.9205C48.831 21.2273 48.7135 21.4905 48.4787 21.7102C48.2476 21.9261 47.9673 22.0341 47.6378 22.0341ZM53.2869 32.1761C52.7339 32.1761 52.2358 32.0777 51.7926 31.8807C51.3532 31.6799 51.0047 31.3845 50.7472 30.9943C50.4934 30.6042 50.3665 30.1231 50.3665 29.5511C50.3665 29.0587 50.4574 28.6515 50.6392 28.3295C50.821 28.0076 51.0691 27.75 51.3835 27.5568C51.6979 27.3636 52.0521 27.2178 52.446 27.1193C52.8438 27.017 53.2547 26.9432 53.679 26.8977C54.1903 26.8447 54.6051 26.7973 54.9233 26.7557C55.2415 26.7102 55.4725 26.642 55.6165 26.5511C55.7642 26.4564 55.8381 26.3106 55.8381 26.1136V26.0795C55.8381 25.6515 55.7112 25.3201 55.4574 25.0852C55.2036 24.8504 54.8381 24.733 54.3608 24.733C53.857 24.733 53.4574 24.8428 53.1619 25.0625C52.8703 25.2822 52.6733 25.5417 52.571 25.8409L50.6506 25.5682C50.8021 25.0379 51.0521 24.5947 51.4006 24.2386C51.7491 23.8788 52.1752 23.6098 52.679 23.4318C53.1828 23.25 53.7396 23.1591 54.3494 23.1591C54.7699 23.1591 55.1884 23.2083 55.6051 23.3068C56.0218 23.4053 56.4025 23.5682 56.7472 23.7955C57.0919 24.0189 57.3684 24.3239 57.5767 24.7102C57.7888 25.0966 57.8949 25.5795 57.8949 26.1591V32H55.9176V30.8011H55.8494C55.7244 31.0436 55.5483 31.2708 55.321 31.483C55.0975 31.6913 54.8153 31.8598 54.4744 31.9886C54.1373 32.1136 53.7415 32.1761 53.2869 32.1761ZM53.821 30.6648C54.2339 30.6648 54.5919 30.5833 54.8949 30.4205C55.1979 30.2538 55.4309 30.0341 55.5938 29.7614C55.7604 29.4886 55.8438 29.1913 55.8438 28.8693V27.8409C55.7794 27.8939 55.6695 27.9432 55.5142 27.9886C55.3627 28.0341 55.1922 28.0739 55.0028 28.108C54.8134 28.142 54.6259 28.1723 54.4403 28.1989C54.2547 28.2254 54.0938 28.2481 53.9574 28.267C53.6506 28.3087 53.3759 28.3769 53.1335 28.4716C52.8911 28.5663 52.6998 28.6989 52.5597 28.8693C52.4195 29.036 52.3494 29.2519 52.3494 29.517C52.3494 29.8958 52.4877 30.1818 52.7642 30.375C53.0407 30.5682 53.393 30.6648 53.821 30.6648ZM62.0199 20.3636V32H59.9631V20.3636H62.0199ZM75.0014 25.5795L73.1264 25.7841C73.0734 25.5947 72.9806 25.4167 72.848 25.25C72.7192 25.0833 72.545 24.9489 72.3253 24.8466C72.1056 24.7443 71.8366 24.6932 71.5185 24.6932C71.0904 24.6932 70.7306 24.786 70.4389 24.9716C70.151 25.1572 70.009 25.3977 70.0128 25.6932C70.009 25.947 70.1018 26.1534 70.2912 26.3125C70.4844 26.4716 70.8026 26.6023 71.2457 26.7045L72.7344 27.0227C73.5601 27.2008 74.1738 27.483 74.5753 27.8693C74.9806 28.2557 75.1851 28.7614 75.1889 29.3864C75.1851 29.9356 75.0241 30.4205 74.706 30.8409C74.3916 31.2576 73.9541 31.5833 73.3935 31.8182C72.8329 32.053 72.1889 32.1705 71.4616 32.1705C70.3935 32.1705 69.5336 31.947 68.8821 31.5C68.2306 31.0492 67.8423 30.4223 67.7173 29.6193L69.723 29.4261C69.8139 29.8201 70.0071 30.1174 70.3026 30.3182C70.598 30.5189 70.9825 30.6193 71.456 30.6193C71.9446 30.6193 72.3366 30.5189 72.6321 30.3182C72.9313 30.1174 73.081 29.8693 73.081 29.5739C73.081 29.3239 72.9844 29.1174 72.7912 28.9545C72.6018 28.7917 72.3063 28.6667 71.9048 28.5795L70.4162 28.267C69.5791 28.0928 68.9598 27.7992 68.5582 27.3864C68.1567 26.9697 67.9579 26.4432 67.9616 25.8068C67.9579 25.2689 68.1037 24.803 68.3991 24.4091C68.6984 24.0114 69.1132 23.7045 69.6435 23.4886C70.1776 23.2689 70.7931 23.1591 71.4901 23.1591C72.5128 23.1591 73.3177 23.3769 73.9048 23.8125C74.4957 24.2481 74.8613 24.8371 75.0014 25.5795ZM80.7486 32.1705C79.8736 32.1705 79.1179 31.9886 78.4815 31.625C77.849 31.2576 77.3622 30.7386 77.0213 30.0682C76.6804 29.3939 76.5099 28.6004 76.5099 27.6875C76.5099 26.7898 76.6804 26.0019 77.0213 25.3239C77.366 24.642 77.8471 24.1117 78.4645 23.733C79.0819 23.3504 79.8073 23.1591 80.6406 23.1591C81.1785 23.1591 81.6861 23.2462 82.1634 23.4205C82.6444 23.5909 83.0687 23.8561 83.4361 24.2159C83.8073 24.5758 84.099 25.0341 84.3111 25.5909C84.5232 26.1439 84.6293 26.803 84.6293 27.5682V28.1989H77.4759V26.8125H82.6577C82.6539 26.4186 82.5687 26.0682 82.402 25.7614C82.2353 25.4508 82.0024 25.2064 81.7031 25.0284C81.4077 24.8504 81.063 24.7614 80.669 24.7614C80.2486 24.7614 79.8793 24.8636 79.5611 25.0682C79.2429 25.2689 78.9948 25.5341 78.8168 25.8636C78.6425 26.1894 78.5535 26.5473 78.5497 26.9375V28.1477C78.5497 28.6553 78.6425 29.0909 78.8281 29.4545C79.0137 29.8144 79.2732 30.0909 79.6065 30.2841C79.9399 30.4735 80.33 30.5682 80.777 30.5682C81.0762 30.5682 81.3471 30.5265 81.5895 30.4432C81.8319 30.3561 82.0421 30.2292 82.2202 30.0625C82.3982 29.8958 82.5327 29.6894 82.6236 29.4432L84.544 29.6591C84.4228 30.1667 84.1918 30.6098 83.8509 30.9886C83.5137 31.3636 83.0819 31.6553 82.5554 31.8636C82.0289 32.0682 81.4266 32.1705 80.7486 32.1705ZM86.3693 32V23.2727H88.3636V24.7273H88.4545C88.6136 24.2235 88.8864 23.8352 89.2727 23.5625C89.6629 23.286 90.108 23.1477 90.608 23.1477C90.7216 23.1477 90.8485 23.1534 90.9886 23.1648C91.1326 23.1723 91.2519 23.1856 91.3466 23.2045V25.0966C91.2595 25.0663 91.1212 25.0398 90.9318 25.017C90.7462 24.9905 90.5663 24.9773 90.392 24.9773C90.017 24.9773 89.6799 25.0587 89.3807 25.2216C89.0852 25.3807 88.8523 25.6023 88.6818 25.8864C88.5114 26.1705 88.4261 26.4981 88.4261 26.8693V32H86.3693ZM100.774 23.2727L97.6662 32H95.3935L92.2855 23.2727H94.4787L96.4844 29.7557H96.5753L98.5866 23.2727H100.774ZM105.764 32.1705C104.889 32.1705 104.134 31.9886 103.497 31.625C102.865 31.2576 102.378 30.7386 102.037 30.0682C101.696 29.3939 101.526 28.6004 101.526 27.6875C101.526 26.7898 101.696 26.0019 102.037 25.3239C102.382 24.642 102.863 24.1117 103.48 23.733C104.098 23.3504 104.823 23.1591 105.656 23.1591C106.194 23.1591 106.702 23.2462 107.179 23.4205C107.66 23.5909 108.084 23.8561 108.452 24.2159C108.823 24.5758 109.115 25.0341 109.327 25.5909C109.539 26.1439 109.645 26.803 109.645 27.5682V28.1989H102.491V26.8125H107.673C107.67 26.4186 107.584 26.0682 107.418 25.7614C107.251 25.4508 107.018 25.2064 106.719 25.0284C106.423 24.8504 106.079 24.7614 105.685 24.7614C105.264 24.7614 104.895 24.8636 104.577 25.0682C104.259 25.2689 104.01 25.5341 103.832 25.8636C103.658 26.1894 103.569 26.5473 103.565 26.9375V28.1477C103.565 28.6553 103.658 29.0909 103.844 29.4545C104.029 29.8144 104.289 30.0909 104.622 30.2841C104.955 30.4735 105.346 30.5682 105.793 30.5682C106.092 30.5682 106.363 30.5265 106.605 30.4432C106.848 30.3561 107.058 30.2292 107.236 30.0625C107.414 29.8958 107.548 29.6894 107.639 29.4432L109.56 29.6591C109.438 30.1667 109.207 30.6098 108.866 30.9886C108.529 31.3636 108.098 31.6553 107.571 31.8636C107.045 32.0682 106.442 32.1705 105.764 32.1705ZM111.385 32V23.2727H113.379V24.7273H113.47C113.629 24.2235 113.902 23.8352 114.288 23.5625C114.679 23.286 115.124 23.1477 115.624 23.1477C115.737 23.1477 115.864 23.1534 116.004 23.1648C116.148 23.1723 116.268 23.1856 116.362 23.2045V25.0966C116.275 25.0663 116.137 25.0398 115.947 25.017C115.762 24.9905 115.582 24.9773 115.408 24.9773C115.033 24.9773 114.696 25.0587 114.396 25.2216C114.101 25.3807 113.868 25.6023 113.697 25.8864C113.527 26.1705 113.442 26.4981 113.442 26.8693V32H111.385ZM58.2024 51V39.3636H62.5661C63.46 39.3636 64.21 39.5303 64.8161 39.8636C65.4259 40.197 65.8861 40.6553 66.1967 41.2386C66.5111 41.8182 66.6683 42.4773 66.6683 43.2159C66.6683 43.9621 66.5111 44.625 66.1967 45.2045C65.8823 45.7841 65.4183 46.2405 64.8047 46.5739C64.1911 46.9034 63.4354 47.0682 62.5376 47.0682H59.6456V45.3352H62.2536C62.7763 45.3352 63.2043 45.2443 63.5376 45.0625C63.871 44.8807 64.1172 44.6307 64.2763 44.3125C64.4392 43.9943 64.5206 43.6288 64.5206 43.2159C64.5206 42.803 64.4392 42.4394 64.2763 42.125C64.1172 41.8106 63.8691 41.5663 63.532 41.392C63.1986 41.214 62.7687 41.125 62.2422 41.125H60.3104V51H58.2024ZM72.4425 51H68.4993V39.3636H72.522C73.6773 39.3636 74.6697 39.5966 75.4993 40.0625C76.3326 40.5246 76.9728 41.1894 77.4197 42.0568C77.8667 42.9242 78.0902 43.9621 78.0902 45.1705C78.0902 46.3826 77.8648 47.4242 77.4141 48.2955C76.9671 49.1667 76.3213 49.8352 75.4766 50.3011C74.6357 50.767 73.6243 51 72.4425 51ZM70.6072 49.1761H72.3402C73.1508 49.1761 73.8269 49.0284 74.3686 48.733C74.9103 48.4337 75.3175 47.9886 75.5902 47.3977C75.8629 46.803 75.9993 46.0606 75.9993 45.1705C75.9993 44.2803 75.8629 43.5417 75.5902 42.9545C75.3175 42.3636 74.9141 41.9223 74.38 41.6307C73.8497 41.3352 73.1906 41.1875 72.4027 41.1875H70.6072V49.1761Z" fill="white"/>
<rect x="210.5" y="11.5" width="94" height="49" stroke="#21394A" stroke-width="3"/>
<path d="M243.199 30.3636H245.659V37.9205C245.659 38.7689 245.456 39.5114 245.051 40.1477C244.65 40.7841 244.087 41.2803 243.364 41.6364C242.64 41.9886 241.797 42.1648 240.835 42.1648C239.869 42.1648 239.025 41.9886 238.301 41.6364C237.578 41.2803 237.015 40.7841 236.614 40.1477C236.212 39.5114 236.011 38.7689 236.011 37.9205V30.3636H238.472V37.7102C238.472 38.1534 238.568 38.5473 238.761 38.892C238.958 39.2367 239.235 39.5076 239.591 39.7045C239.947 39.9015 240.362 40 240.835 40C241.313 40 241.727 39.9015 242.08 39.7045C242.436 39.5076 242.71 39.2367 242.903 38.892C243.1 38.5473 243.199 38.1534 243.199 37.7102V30.3636ZM249.689 42H247.053L251.07 30.3636H254.24L258.251 42H255.615L252.7 33.0227H252.609L249.689 42ZM249.524 37.4261H255.751V39.3466H249.524V37.4261ZM259.652 42V30.3636H264.243C265.122 30.3636 265.872 30.5208 266.493 30.8352C267.118 31.1458 267.593 31.5871 267.919 32.1591C268.249 32.7273 268.413 33.3958 268.413 34.1648C268.413 34.9375 268.247 35.6023 267.913 36.1591C267.58 36.7121 267.097 37.1364 266.464 37.4318C265.836 37.7273 265.074 37.875 264.18 37.875H261.107V35.8977H263.783C264.252 35.8977 264.643 35.8333 264.953 35.7045C265.264 35.5758 265.495 35.3826 265.646 35.125C265.802 34.8674 265.879 34.5473 265.879 34.1648C265.879 33.7784 265.802 33.4527 265.646 33.1875C265.495 32.9223 265.262 32.7216 264.947 32.5852C264.637 32.4451 264.245 32.375 263.771 32.375H262.112V42H259.652ZM265.936 36.7045L268.828 42H266.112L263.283 36.7045H265.936ZM269.709 32.392V30.3636H279.266V32.392H275.703V42H273.271V32.392H269.709Z" fill="#21394A"/>
<path d="M209 30L199 24.2265V35.7735L209 30ZM135 31H200V29H135V31Z" fill="#21394A"/>
<path d="M135 42L145 47.7735V36.2265L135 42ZM209 41H144V43H209V41Z" fill="#21394A"/>
</svg>
