<?xml version="1.0" encoding="UTF-8"?>
<svg xmlns="http://www.w3.org/2000/svg" version="1.1" viewBox="0 0 105.22 105.3">
  <!-- Generator: Adobe Illustrator 29.4.0, SVG Export Plug-In . SVG Version: 2.1.0 Build 152)  -->
  <defs>
    <style>
      .st0 {
        fill-rule: evenodd;
        stroke: #000;
        stroke-linecap: round;
        stroke-linejoin: round;
        stroke-width: 3px;
      }
    </style>
  </defs>
  <path d="M52.21,5.12C26.15,5.12,4.94,26.34,4.94,52.39s21.22,47.27,47.27,47.27,47.27-21.22,47.27-47.27S78.26,5.12,52.21,5.12ZM52.14,9.32c1.68.04,3.02,1.42,3.02,3.11,0,1.72-1.39,3.11-3.11,3.11s-3.11-1.39-3.11-3.11c0-1.72,1.39-3.11,3.11-3.11.03,0,.06,0,.09,0ZM59.26,14.44c11.05,2.07,20.63,8.89,26.2,18.66l-3.67,8.28c-.63,1.43.02,3.11,1.44,3.75l7.06,3.13c.22,2.21.25,4.43.08,6.64h-3.93c-.39,0-.55.26-.55.64v1.8c0,4.24-2.39,5.17-4.49,5.4-2,.23-4.21-.84-4.49-2.06-1.18-6.63-3.14-8.04-6.24-10.49,3.85-2.44,7.85-6.05,7.85-10.87,0-5.21-3.57-8.49-6-10.1-3.42-2.25-7.2-2.7-8.22-2.7H23.7c5.61-6.27,13.14-10.52,21.41-12.08l4.79,5.02c1.08,1.13,2.87,1.18,4,.09l5.36-5.11ZM15.06,37.46c1.68.05,3.02,1.43,3.02,3.11,0,1.72-1.39,3.11-3.11,3.11-1.72,0-3.11-1.39-3.11-3.11,0-1.72,1.39-3.11,3.11-3.11.03,0,.06,0,.09,0ZM89.21,37.6c1.68.05,3.02,1.43,3.02,3.11,0,1.72-1.39,3.11-3.11,3.11s-3.11-1.39-3.11-3.11c0-1.72,1.39-3.11,3.11-3.11.03,0,.06,0,.09,0ZM20.92,38.1h5.42v24.44h-10.94c-1.35-4.74-1.77-9.71-1.24-14.61l6.7-2.98c1.43-.64,2.08-2.31,1.44-3.74l-1.38-3.11ZM43.54,38.36h12.91c.67,0,4.71.77,4.71,3.8,0,2.51-3.1,3.41-5.65,3.41h-11.98v-7.21ZM43.54,55.92h9.89c.9,0,4.83.26,6.08,5.28.39,1.54,1.26,6.56,1.85,8.17.59,1.8,2.98,5.4,5.53,5.4h16.14c-1.08,1.45-2.26,2.82-3.54,4.1l-6.57-1.41c-1.53-.33-3.04.65-3.37,2.18l-1.56,7.28c-10.15,4.6-21.8,4.54-31.91-.15l-1.56-7.28c-.33-1.53-1.83-2.51-3.36-2.18l-6.43,1.38c-1.19-1.23-2.3-2.54-3.32-3.92h31.27c.35,0,.59-.06.59-.39v-11.06c0-.32-.24-.39-.59-.39h-9.15v-7.01ZM29.11,81.25c1.68.05,3.02,1.43,3.02,3.11,0,1.72-1.39,3.11-3.11,3.11s-3.11-1.39-3.11-3.11c0-1.72,1.39-3.11,3.11-3.11.03,0,.06,0,.09,0ZM75.16,81.39c1.68.05,3.02,1.43,3.02,3.11,0,1.72-1.39,3.11-3.11,3.11s-3.11-1.39-3.11-3.11c0-1.72,1.39-3.11,3.11-3.11.03,0,.06,0,.09,0Z"/>
  <path class="st0" d="M96.84,52.39c0,24.65-19.98,44.63-44.63,44.63S7.58,77.04,7.58,52.39h0C7.58,27.74,27.56,7.76,52.21,7.76s44.63,19.98,44.63,44.63h0ZM96,48.08l6.96,4.31-6.96,4.31,5.98,5.59-7.66,2.87,4.78,6.65-8.09,1.32,3.4,7.46-8.19-.29,1.88,7.98-7.98-1.88.29,8.19-7.46-3.4-1.32,8.09-6.65-4.78-2.87,7.66-5.59-5.98-4.31,6.96-4.31-6.96-5.59,5.98-2.87-7.66-6.65,4.78-1.32-8.09-7.46,3.4.29-8.19-7.98,1.88,1.88-7.98-8.19.29,3.4-7.46-8.09-1.32,4.78-6.65-7.66-2.87,5.98-5.59-6.96-4.31,6.96-4.31-5.98-5.59,7.66-2.87-4.78-6.65,8.09-1.32-3.4-7.46,8.19.29-1.88-7.98,7.98,1.88-.29-8.19,7.46,3.4,1.32-8.09,6.65,4.78,2.87-7.66,5.59,5.98,4.31-6.96,4.31,6.96,5.59-5.98,2.87,7.66,6.65-4.78,1.32,8.09,7.46-3.4-.29,8.19,7.98-1.88-1.88,7.98,8.19-.29-3.4,7.46,8.09,1.32-4.78,6.65,7.66,2.87-5.98,5.59Z"/>
</svg>