<svg width="1389" height="722" viewBox="0 0 1389 722" fill="none" xmlns="http://www.w3.org/2000/svg">
<rect x="955" y="276" width="375" height="167" stroke="#2C6AB1" stroke-width="6"/>
<path d="M1106.84 353.312H1099.37C1099.23 352.347 1098.95 351.489 1098.53 350.739C1098.11 349.977 1097.57 349.33 1096.91 348.795C1096.26 348.261 1095.49 347.852 1094.63 347.568C1093.78 347.284 1092.85 347.142 1091.85 347.142C1090.05 347.142 1088.47 347.591 1087.13 348.489C1085.79 349.375 1084.75 350.67 1084.01 352.375C1083.27 354.068 1082.9 356.125 1082.9 358.545C1082.9 361.034 1083.27 363.125 1084.01 364.818C1084.76 366.511 1085.81 367.79 1087.15 368.653C1088.49 369.517 1090.04 369.949 1091.8 369.949C1092.79 369.949 1093.7 369.818 1094.55 369.557C1095.4 369.295 1096.15 368.915 1096.81 368.415C1097.47 367.903 1098.02 367.284 1098.45 366.557C1098.89 365.83 1099.2 365 1099.37 364.068L1106.84 364.102C1106.64 365.705 1106.16 367.25 1105.39 368.739C1104.63 370.216 1103.6 371.54 1102.3 372.71C1101.02 373.869 1099.48 374.79 1097.7 375.472C1095.93 376.142 1093.92 376.477 1091.68 376.477C1088.57 376.477 1085.78 375.773 1083.33 374.364C1080.89 372.955 1078.95 370.915 1077.53 368.244C1076.12 365.574 1075.42 362.341 1075.42 358.545C1075.42 354.739 1076.14 351.5 1077.57 348.83C1079 346.159 1080.94 344.125 1083.4 342.727C1085.85 341.318 1088.61 340.614 1091.68 340.614C1093.7 340.614 1095.58 340.898 1097.31 341.466C1099.05 342.034 1100.59 342.864 1101.93 343.955C1103.27 345.034 1104.36 346.358 1105.2 347.926C1106.05 349.494 1106.6 351.29 1106.84 353.312ZM1119.25 341.091V376H1111.99V341.091H1119.25ZM1125.07 376V349.818H1132.33V376H1125.07ZM1128.72 346.443C1127.64 346.443 1126.71 346.085 1125.94 345.369C1125.18 344.642 1124.8 343.773 1124.8 342.761C1124.8 341.761 1125.18 340.903 1125.94 340.188C1126.71 339.46 1127.64 339.097 1128.72 339.097C1129.8 339.097 1130.72 339.46 1131.48 340.188C1132.25 340.903 1132.64 341.761 1132.64 342.761C1132.64 343.773 1132.25 344.642 1131.48 345.369C1130.72 346.085 1129.8 346.443 1128.72 346.443ZM1150.08 376.511C1147.39 376.511 1145.07 375.966 1143.12 374.875C1141.19 373.773 1139.7 372.216 1138.66 370.205C1137.61 368.182 1137.09 365.79 1137.09 363.028C1137.09 360.335 1137.61 357.972 1138.66 355.938C1139.7 353.903 1141.18 352.318 1143.07 351.182C1144.98 350.045 1147.22 349.477 1149.79 349.477C1151.52 349.477 1153.13 349.756 1154.61 350.312C1156.11 350.858 1157.42 351.682 1158.53 352.784C1159.66 353.886 1160.53 355.273 1161.16 356.943C1161.78 358.602 1162.1 360.545 1162.1 362.773V364.767H1139.99V360.267H1155.26C1155.26 359.222 1155.03 358.295 1154.58 357.489C1154.13 356.682 1153.49 356.051 1152.69 355.597C1151.89 355.131 1150.97 354.898 1149.91 354.898C1148.81 354.898 1147.83 355.153 1146.98 355.665C1146.14 356.165 1145.48 356.841 1145 357.693C1144.52 358.534 1144.28 359.472 1144.27 360.506V364.784C1144.27 366.08 1144.51 367.199 1144.98 368.142C1145.47 369.085 1146.16 369.812 1147.05 370.324C1147.93 370.835 1148.98 371.091 1150.2 371.091C1151.01 371.091 1151.74 370.977 1152.41 370.75C1153.09 370.523 1153.66 370.182 1154.14 369.727C1154.61 369.273 1154.98 368.716 1155.23 368.057L1161.94 368.5C1161.6 370.114 1160.9 371.523 1159.85 372.727C1158.8 373.92 1157.45 374.852 1155.79 375.523C1154.14 376.182 1152.24 376.511 1150.08 376.511ZM1174.1 360.864V376H1166.84V349.818H1173.76V354.438H1174.06C1174.64 352.915 1175.61 351.71 1176.98 350.824C1178.34 349.926 1179.99 349.477 1181.94 349.477C1183.76 349.477 1185.34 349.875 1186.69 350.67C1188.05 351.466 1189.1 352.602 1189.85 354.08C1190.6 355.545 1190.97 357.295 1190.97 359.33V376H1183.71V360.625C1183.72 359.023 1183.31 357.773 1182.48 356.875C1181.65 355.966 1180.51 355.511 1179.06 355.511C1178.08 355.511 1177.22 355.722 1176.47 356.142C1175.73 356.562 1175.15 357.176 1174.73 357.983C1174.32 358.778 1174.11 359.739 1174.1 360.864ZM1210.62 349.818V355.273H1194.85V349.818H1210.62ZM1198.43 343.545H1205.69V367.955C1205.69 368.625 1205.8 369.148 1206 369.523C1206.21 369.886 1206.49 370.142 1206.85 370.29C1207.23 370.437 1207.66 370.511 1208.15 370.511C1208.49 370.511 1208.83 370.483 1209.17 370.426C1209.51 370.358 1209.77 370.307 1209.96 370.273L1211.1 375.676C1210.73 375.79 1210.22 375.92 1209.56 376.068C1208.9 376.227 1208.1 376.324 1207.16 376.358C1205.41 376.426 1203.88 376.193 1202.56 375.659C1201.25 375.125 1200.23 374.295 1199.51 373.17C1198.78 372.045 1198.42 370.625 1198.43 368.909V343.545Z" fill="#2C6AB1"/>
<rect x="408" y="276" width="375" height="167" stroke="#2C6AB1" stroke-width="6"/>
<path d="M468.972 351.131C468.835 349.756 468.25 348.687 467.216 347.926C466.182 347.165 464.778 346.784 463.006 346.784C461.801 346.784 460.784 346.955 459.955 347.295C459.125 347.625 458.489 348.085 458.045 348.676C457.614 349.267 457.398 349.938 457.398 350.688C457.375 351.312 457.506 351.858 457.79 352.324C458.085 352.79 458.489 353.193 459 353.534C459.511 353.864 460.102 354.153 460.773 354.403C461.443 354.642 462.159 354.847 462.92 355.017L466.057 355.767C467.58 356.108 468.977 356.562 470.25 357.131C471.523 357.699 472.625 358.398 473.557 359.227C474.489 360.057 475.21 361.034 475.722 362.159C476.244 363.284 476.511 364.574 476.523 366.028C476.511 368.165 475.966 370.017 474.886 371.585C473.818 373.142 472.273 374.352 470.25 375.216C468.239 376.068 465.813 376.494 462.972 376.494C460.153 376.494 457.699 376.062 455.608 375.199C453.528 374.335 451.903 373.057 450.733 371.364C449.574 369.659 448.966 367.551 448.909 365.04H456.051C456.131 366.21 456.466 367.187 457.057 367.972C457.659 368.744 458.46 369.33 459.46 369.727C460.472 370.114 461.614 370.307 462.886 370.307C464.136 370.307 465.222 370.125 466.142 369.761C467.074 369.398 467.795 368.892 468.307 368.244C468.818 367.597 469.074 366.852 469.074 366.011C469.074 365.227 468.841 364.568 468.375 364.034C467.92 363.5 467.25 363.045 466.364 362.67C465.489 362.295 464.415 361.955 463.142 361.648L459.341 360.693C456.398 359.977 454.074 358.858 452.369 357.335C450.665 355.812 449.818 353.761 449.83 351.182C449.818 349.068 450.381 347.222 451.517 345.642C452.665 344.062 454.239 342.83 456.239 341.943C458.239 341.057 460.511 340.614 463.057 340.614C465.648 340.614 467.909 341.057 469.841 341.943C471.784 342.83 473.295 344.062 474.375 345.642C475.455 347.222 476.011 349.051 476.045 351.131H468.972ZM493.283 376.511C490.589 376.511 488.271 375.966 486.328 374.875C484.396 373.773 482.908 372.216 481.862 370.205C480.817 368.182 480.294 365.79 480.294 363.028C480.294 360.335 480.817 357.972 481.862 355.938C482.908 353.903 484.379 352.318 486.277 351.182C488.186 350.045 490.425 349.477 492.993 349.477C494.72 349.477 496.328 349.756 497.817 350.312C499.317 350.858 500.624 351.682 501.737 352.784C502.862 353.886 503.737 355.273 504.362 356.943C504.987 358.602 505.3 360.545 505.3 362.773V364.767H483.192V360.267H498.464C498.464 359.222 498.237 358.295 497.783 357.489C497.328 356.682 496.697 356.051 495.891 355.597C495.095 355.131 494.169 354.898 493.112 354.898C492.01 354.898 491.033 355.153 490.18 355.665C489.339 356.165 488.68 356.841 488.203 357.693C487.726 358.534 487.482 359.472 487.47 360.506V364.784C487.47 366.08 487.709 367.199 488.186 368.142C488.675 369.085 489.362 369.812 490.249 370.324C491.135 370.835 492.186 371.091 493.402 371.091C494.209 371.091 494.947 370.977 495.618 370.75C496.288 370.523 496.862 370.182 497.339 369.727C497.817 369.273 498.18 368.716 498.43 368.057L505.146 368.5C504.805 370.114 504.107 371.523 503.05 372.727C502.004 373.92 500.652 374.852 498.993 375.523C497.345 376.182 495.442 376.511 493.283 376.511ZM510.038 376V349.818H517.078V354.386H517.351C517.828 352.761 518.629 351.534 519.754 350.705C520.879 349.864 522.175 349.443 523.641 349.443C524.004 349.443 524.396 349.466 524.817 349.511C525.237 349.557 525.607 349.619 525.925 349.699V356.142C525.584 356.04 525.112 355.949 524.51 355.869C523.908 355.79 523.357 355.75 522.857 355.75C521.788 355.75 520.834 355.983 519.993 356.449C519.163 356.903 518.504 357.54 518.016 358.358C517.538 359.176 517.3 360.119 517.3 361.188V376H510.038ZM529.679 376V349.818H536.94V376H529.679ZM533.327 346.443C532.247 346.443 531.321 346.085 530.548 345.369C529.787 344.642 529.406 343.773 529.406 342.761C529.406 341.761 529.787 340.903 530.548 340.188C531.321 339.46 532.247 339.097 533.327 339.097C534.406 339.097 535.327 339.46 536.088 340.188C536.861 340.903 537.247 341.761 537.247 342.761C537.247 343.773 536.861 344.642 536.088 345.369C535.327 346.085 534.406 346.443 533.327 346.443ZM550.223 376.494C548.553 376.494 547.064 376.205 545.757 375.625C544.45 375.034 543.416 374.165 542.655 373.017C541.905 371.858 541.53 370.415 541.53 368.688C541.53 367.233 541.797 366.011 542.331 365.023C542.865 364.034 543.592 363.239 544.513 362.636C545.433 362.034 546.479 361.58 547.649 361.273C548.831 360.966 550.07 360.75 551.365 360.625C552.888 360.466 554.115 360.318 555.047 360.182C555.979 360.034 556.655 359.818 557.075 359.534C557.496 359.25 557.706 358.83 557.706 358.273V358.17C557.706 357.091 557.365 356.256 556.683 355.665C556.013 355.074 555.058 354.778 553.82 354.778C552.513 354.778 551.473 355.068 550.7 355.648C549.928 356.216 549.416 356.932 549.166 357.795L542.45 357.25C542.791 355.659 543.462 354.284 544.462 353.125C545.462 351.955 546.751 351.057 548.331 350.432C549.922 349.795 551.763 349.477 553.854 349.477C555.308 349.477 556.7 349.648 558.03 349.989C559.371 350.33 560.558 350.858 561.592 351.574C562.638 352.29 563.462 353.21 564.064 354.335C564.666 355.449 564.967 356.784 564.967 358.341V376H558.081V372.369H557.876C557.456 373.188 556.893 373.909 556.189 374.534C555.484 375.148 554.638 375.631 553.649 375.983C552.661 376.324 551.518 376.494 550.223 376.494ZM552.303 371.483C553.371 371.483 554.314 371.273 555.132 370.852C555.95 370.42 556.592 369.841 557.058 369.114C557.524 368.386 557.757 367.562 557.757 366.642V363.864C557.53 364.011 557.217 364.148 556.82 364.273C556.433 364.386 555.996 364.494 555.507 364.597C555.018 364.687 554.53 364.773 554.041 364.852C553.553 364.92 553.109 364.983 552.712 365.04C551.859 365.165 551.115 365.364 550.479 365.636C549.842 365.909 549.348 366.278 548.996 366.744C548.643 367.199 548.467 367.767 548.467 368.449C548.467 369.438 548.825 370.193 549.541 370.716C550.268 371.227 551.189 371.483 552.303 371.483ZM577.862 341.091V376H570.601V341.091H577.862ZM616.572 357.284L609.925 357.693C609.811 357.125 609.567 356.614 609.192 356.159C608.817 355.693 608.322 355.324 607.709 355.051C607.107 354.767 606.385 354.625 605.544 354.625C604.419 354.625 603.47 354.864 602.697 355.341C601.925 355.807 601.538 356.432 601.538 357.216C601.538 357.841 601.788 358.369 602.288 358.801C602.788 359.233 603.646 359.58 604.862 359.841L609.601 360.795C612.146 361.318 614.044 362.159 615.294 363.318C616.544 364.477 617.169 366 617.169 367.886C617.169 369.602 616.663 371.108 615.652 372.403C614.652 373.699 613.277 374.71 611.527 375.438C609.788 376.153 607.783 376.511 605.51 376.511C602.044 376.511 599.283 375.79 597.226 374.347C595.18 372.892 593.982 370.915 593.629 368.415L600.771 368.04C600.987 369.097 601.51 369.903 602.339 370.46C603.169 371.006 604.232 371.278 605.527 371.278C606.8 371.278 607.822 371.034 608.595 370.545C609.379 370.045 609.777 369.403 609.788 368.619C609.777 367.96 609.499 367.42 608.953 367C608.408 366.568 607.567 366.239 606.43 366.011L601.896 365.108C599.339 364.597 597.436 363.71 596.186 362.449C594.947 361.187 594.328 359.58 594.328 357.625C594.328 355.943 594.783 354.494 595.692 353.278C596.612 352.062 597.902 351.125 599.561 350.466C601.232 349.807 603.186 349.477 605.425 349.477C608.732 349.477 611.334 350.176 613.232 351.574C615.141 352.972 616.254 354.875 616.572 357.284ZM633.673 376.511C630.98 376.511 628.662 375.966 626.719 374.875C624.787 373.773 623.298 372.216 622.253 370.205C621.207 368.182 620.685 365.79 620.685 363.028C620.685 360.335 621.207 357.972 622.253 355.938C623.298 353.903 624.77 352.318 626.668 351.182C628.577 350.045 630.815 349.477 633.384 349.477C635.111 349.477 636.719 349.756 638.207 350.312C639.707 350.858 641.014 351.682 642.128 352.784C643.253 353.886 644.128 355.273 644.753 356.943C645.378 358.602 645.69 360.545 645.69 362.773V364.767H623.582V360.267H638.855C638.855 359.222 638.628 358.295 638.173 357.489C637.719 356.682 637.088 356.051 636.281 355.597C635.486 355.131 634.56 354.898 633.503 354.898C632.401 354.898 631.423 355.153 630.571 355.665C629.73 356.165 629.071 356.841 628.594 357.693C628.116 358.534 627.872 359.472 627.861 360.506V364.784C627.861 366.08 628.099 367.199 628.577 368.142C629.065 369.085 629.753 369.812 630.639 370.324C631.526 370.835 632.577 371.091 633.793 371.091C634.599 371.091 635.338 370.977 636.009 370.75C636.679 370.523 637.253 370.182 637.73 369.727C638.207 369.273 638.571 368.716 638.821 368.057L645.537 368.5C645.196 370.114 644.497 371.523 643.44 372.727C642.395 373.92 641.043 374.852 639.384 375.523C637.736 376.182 635.832 376.511 633.673 376.511ZM650.429 376V349.818H657.469V354.386H657.741C658.219 352.761 659.02 351.534 660.145 350.705C661.27 349.864 662.565 349.443 664.031 349.443C664.395 349.443 664.787 349.466 665.207 349.511C665.628 349.557 665.997 349.619 666.315 349.699V356.142C665.974 356.04 665.503 355.949 664.901 355.869C664.298 355.79 663.747 355.75 663.247 355.75C662.179 355.75 661.224 355.983 660.384 356.449C659.554 356.903 658.895 357.54 658.406 358.358C657.929 359.176 657.69 360.119 657.69 361.188V376H650.429ZM695.276 349.818L686.122 376H677.94L668.787 349.818H676.457L681.895 368.551H682.168L687.588 349.818H695.276ZM710.08 376.511C707.386 376.511 705.068 375.966 703.125 374.875C701.193 373.773 699.705 372.216 698.659 370.205C697.614 368.182 697.091 365.79 697.091 363.028C697.091 360.335 697.614 357.972 698.659 355.938C699.705 353.903 701.176 352.318 703.074 351.182C704.983 350.045 707.222 349.477 709.79 349.477C711.517 349.477 713.125 349.756 714.614 350.312C716.114 350.858 717.42 351.682 718.534 352.784C719.659 353.886 720.534 355.273 721.159 356.943C721.784 358.602 722.097 360.545 722.097 362.773V364.767H699.989V360.267H715.261C715.261 359.222 715.034 358.295 714.58 357.489C714.125 356.682 713.494 356.051 712.688 355.597C711.892 355.131 710.966 354.898 709.909 354.898C708.807 354.898 707.83 355.153 706.977 355.665C706.136 356.165 705.477 356.841 705 357.693C704.523 358.534 704.278 359.472 704.267 360.506V364.784C704.267 366.08 704.506 367.199 704.983 368.142C705.472 369.085 706.159 369.812 707.045 370.324C707.932 370.835 708.983 371.091 710.199 371.091C711.006 371.091 711.744 370.977 712.415 370.75C713.085 370.523 713.659 370.182 714.136 369.727C714.614 369.273 714.977 368.716 715.227 368.057L721.943 368.5C721.602 370.114 720.903 371.523 719.847 372.727C718.801 373.92 717.449 374.852 715.79 375.523C714.142 376.182 712.239 376.511 710.08 376.511ZM726.835 376V349.818H733.875V354.386H734.148C734.625 352.761 735.426 351.534 736.551 350.705C737.676 349.864 738.972 349.443 740.438 349.443C740.801 349.443 741.193 349.466 741.614 349.511C742.034 349.557 742.403 349.619 742.722 349.699V356.142C742.381 356.04 741.909 355.949 741.307 355.869C740.705 355.79 740.153 355.75 739.653 355.75C738.585 355.75 737.631 355.983 736.79 356.449C735.96 356.903 735.301 357.54 734.812 358.358C734.335 359.176 734.097 360.119 734.097 361.188V376H726.835Z" fill="#2C6AB1"/>
<rect x="577" y="3" width="529" height="103" fill="black" stroke="black" stroke-width="6"/>
<path d="M650.972 46.1307C650.835 44.7557 650.25 43.6875 649.216 42.9261C648.182 42.1648 646.778 41.7841 645.006 41.7841C643.801 41.7841 642.784 41.9545 641.955 42.2955C641.125 42.625 640.489 43.0852 640.045 43.6761C639.614 44.267 639.398 44.9375 639.398 45.6875C639.375 46.3125 639.506 46.858 639.79 47.3239C640.085 47.7898 640.489 48.1932 641 48.5341C641.511 48.8636 642.102 49.1534 642.773 49.4034C643.443 49.642 644.159 49.8466 644.92 50.017L648.057 50.767C649.58 51.108 650.977 51.5625 652.25 52.1307C653.523 52.6989 654.625 53.3977 655.557 54.2273C656.489 55.0568 657.21 56.0341 657.722 57.1591C658.244 58.2841 658.511 59.5739 658.523 61.0284C658.511 63.1648 657.966 65.017 656.886 66.5852C655.818 68.142 654.273 69.3523 652.25 70.2159C650.239 71.0682 647.813 71.4943 644.972 71.4943C642.153 71.4943 639.699 71.0625 637.608 70.1989C635.528 69.3352 633.903 68.0568 632.733 66.3636C631.574 64.6591 630.966 62.5511 630.909 60.0398H638.051C638.131 61.2102 638.466 62.1875 639.057 62.9716C639.659 63.7443 640.46 64.3295 641.46 64.7273C642.472 65.1136 643.614 65.3068 644.886 65.3068C646.136 65.3068 647.222 65.125 648.142 64.7614C649.074 64.3977 649.795 63.892 650.307 63.2443C650.818 62.5966 651.074 61.8523 651.074 61.0114C651.074 60.2273 650.841 59.5682 650.375 59.0341C649.92 58.5 649.25 58.0455 648.364 57.6705C647.489 57.2955 646.415 56.9545 645.142 56.6477L641.341 55.6932C638.398 54.9773 636.074 53.858 634.369 52.3352C632.665 50.8125 631.818 48.7614 631.83 46.1818C631.818 44.0682 632.381 42.2216 633.517 40.642C634.665 39.0625 636.239 37.8295 638.239 36.9432C640.239 36.0568 642.511 35.6136 645.057 35.6136C647.648 35.6136 649.909 36.0568 651.841 36.9432C653.784 37.8295 655.295 39.0625 656.375 40.642C657.455 42.2216 658.011 44.0511 658.045 46.1307H650.972ZM675.283 71.5114C672.589 71.5114 670.271 70.9659 668.328 69.875C666.396 68.7727 664.908 67.2159 663.862 65.2045C662.817 63.1818 662.294 60.7898 662.294 58.0284C662.294 55.3352 662.817 52.9716 663.862 50.9375C664.908 48.9034 666.379 47.3182 668.277 46.1818C670.186 45.0455 672.425 44.4773 674.993 44.4773C676.72 44.4773 678.328 44.7557 679.817 45.3125C681.317 45.858 682.624 46.6818 683.737 47.7841C684.862 48.8864 685.737 50.2727 686.362 51.9432C686.987 53.6023 687.3 55.5455 687.3 57.7727V59.767H665.192V55.267H680.464C680.464 54.2216 680.237 53.2955 679.783 52.4886C679.328 51.6818 678.697 51.0511 677.891 50.5966C677.095 50.1307 676.169 49.8977 675.112 49.8977C674.01 49.8977 673.033 50.1534 672.18 50.6648C671.339 51.1648 670.68 51.8409 670.203 52.6932C669.726 53.5341 669.482 54.4716 669.47 55.5057V59.7841C669.47 61.0795 669.709 62.1989 670.186 63.142C670.675 64.0852 671.362 64.8125 672.249 65.3239C673.135 65.8352 674.186 66.0909 675.402 66.0909C676.209 66.0909 676.947 65.9773 677.618 65.75C678.288 65.5227 678.862 65.1818 679.339 64.7273C679.817 64.2727 680.18 63.7159 680.43 63.0568L687.146 63.5C686.805 65.1136 686.107 66.5227 685.05 67.7273C684.004 68.9205 682.652 69.8523 680.993 70.5227C679.345 71.1818 677.442 71.5114 675.283 71.5114ZM692.038 71V44.8182H699.078V49.3864H699.351C699.828 47.7614 700.629 46.5341 701.754 45.7045C702.879 44.8636 704.175 44.4432 705.641 44.4432C706.004 44.4432 706.396 44.4659 706.817 44.5114C707.237 44.5568 707.607 44.6193 707.925 44.6989V51.142C707.584 51.0398 707.112 50.9489 706.51 50.8693C705.908 50.7898 705.357 50.75 704.857 50.75C703.788 50.75 702.834 50.983 701.993 51.4489C701.163 51.9034 700.504 52.5398 700.016 53.358C699.538 54.1761 699.3 55.1193 699.3 56.1875V71H692.038ZM711.679 71V44.8182H718.94V71H711.679ZM715.327 41.4432C714.247 41.4432 713.321 41.0852 712.548 40.3693C711.787 39.642 711.406 38.7727 711.406 37.7614C711.406 36.7614 711.787 35.9034 712.548 35.1875C713.321 34.4602 714.247 34.0966 715.327 34.0966C716.406 34.0966 717.327 34.4602 718.088 35.1875C718.861 35.9034 719.247 36.7614 719.247 37.7614C719.247 38.7727 718.861 39.642 718.088 40.3693C717.327 41.0852 716.406 41.4432 715.327 41.4432ZM732.223 71.4943C730.553 71.4943 729.064 71.2045 727.757 70.625C726.45 70.0341 725.416 69.1648 724.655 68.017C723.905 66.858 723.53 65.4148 723.53 63.6875C723.53 62.233 723.797 61.0114 724.331 60.0227C724.865 59.0341 725.592 58.2386 726.513 57.6364C727.433 57.0341 728.479 56.5795 729.649 56.2727C730.831 55.9659 732.07 55.75 733.365 55.625C734.888 55.4659 736.115 55.3182 737.047 55.1818C737.979 55.0341 738.655 54.8182 739.075 54.5341C739.496 54.25 739.706 53.8295 739.706 53.2727V53.1705C739.706 52.0909 739.365 51.2557 738.683 50.6648C738.013 50.0739 737.058 49.7784 735.82 49.7784C734.513 49.7784 733.473 50.0682 732.7 50.6477C731.928 51.2159 731.416 51.9318 731.166 52.7955L724.45 52.25C724.791 50.6591 725.462 49.2841 726.462 48.125C727.462 46.9545 728.751 46.0568 730.331 45.4318C731.922 44.7955 733.763 44.4773 735.854 44.4773C737.308 44.4773 738.7 44.6477 740.03 44.9886C741.371 45.3295 742.558 45.858 743.592 46.5739C744.638 47.2898 745.462 48.2102 746.064 49.3352C746.666 50.4489 746.967 51.7841 746.967 53.3409V71H740.081V67.3693H739.876C739.456 68.1875 738.893 68.9091 738.189 69.5341C737.484 70.1477 736.638 70.6307 735.649 70.983C734.661 71.3239 733.518 71.4943 732.223 71.4943ZM734.303 66.483C735.371 66.483 736.314 66.2727 737.132 65.8523C737.95 65.4205 738.592 64.8409 739.058 64.1136C739.524 63.3864 739.757 62.5625 739.757 61.642V58.8636C739.53 59.0114 739.217 59.1477 738.82 59.2727C738.433 59.3864 737.996 59.4943 737.507 59.5966C737.018 59.6875 736.53 59.7727 736.041 59.8523C735.553 59.9205 735.109 59.983 734.712 60.0398C733.859 60.1648 733.115 60.3636 732.479 60.6364C731.842 60.9091 731.348 61.2784 730.996 61.7443C730.643 62.1989 730.467 62.767 730.467 63.4489C730.467 64.4375 730.825 65.1932 731.541 65.7159C732.268 66.2273 733.189 66.483 734.303 66.483ZM759.862 36.0909V71H752.601V36.0909H759.862ZM784.305 36.0909V71H776.925V36.0909H784.305ZM797.503 55.8636V71H790.241V44.8182H797.162V49.4375H797.469C798.048 47.9148 799.02 46.7102 800.384 45.8239C801.747 44.9261 803.401 44.4773 805.344 44.4773C807.162 44.4773 808.747 44.875 810.099 45.6705C811.452 46.4659 812.503 47.6023 813.253 49.0795C814.003 50.5455 814.378 52.2955 814.378 54.3295V71H807.116V55.625C807.128 54.0227 806.719 52.7727 805.889 51.875C805.06 50.9659 803.918 50.5114 802.463 50.5114C801.486 50.5114 800.622 50.7216 799.872 51.142C799.134 51.5625 798.554 52.1761 798.134 52.983C797.724 53.7784 797.514 54.7386 797.503 55.8636ZM820.101 80.8182V44.8182H827.26V49.2159H827.584C827.902 48.5114 828.362 47.7955 828.964 47.0682C829.578 46.3295 830.374 45.7159 831.351 45.2273C832.339 44.7273 833.567 44.4773 835.033 44.4773C836.942 44.4773 838.703 44.9773 840.317 45.9773C841.93 46.9659 843.22 48.4602 844.186 50.4602C845.152 52.4489 845.635 54.9432 845.635 57.9432C845.635 60.8636 845.163 63.3295 844.22 65.3409C843.288 67.3409 842.016 68.858 840.402 69.892C838.8 70.9148 837.004 71.4261 835.016 71.4261C833.607 71.4261 832.408 71.1932 831.419 70.7273C830.442 70.2614 829.641 69.6761 829.016 68.9716C828.391 68.2557 827.913 67.5341 827.584 66.8068H827.362V80.8182H820.101ZM827.209 57.9091C827.209 59.4659 827.425 60.8239 827.857 61.983C828.288 63.142 828.913 64.0455 829.732 64.6932C830.55 65.3295 831.544 65.6477 832.714 65.6477C833.896 65.6477 834.896 65.3239 835.714 64.6761C836.533 64.017 837.152 63.108 837.572 61.9489C838.004 60.7784 838.22 59.4318 838.22 57.9091C838.22 56.3977 838.01 55.0682 837.589 53.9205C837.169 52.7727 836.55 51.875 835.732 51.2273C834.913 50.5795 833.908 50.2557 832.714 50.2557C831.533 50.2557 830.533 50.5682 829.714 51.1932C828.908 51.8182 828.288 52.7045 827.857 53.8523C827.425 55 827.209 56.3523 827.209 57.9091ZM867.266 59.8523V44.8182H874.527V71H867.555V66.2443H867.283C866.692 67.7784 865.709 69.0114 864.334 69.9432C862.97 70.875 861.305 71.3409 859.339 71.3409C857.589 71.3409 856.05 70.9432 854.72 70.1477C853.391 69.3523 852.351 68.2216 851.601 66.7557C850.862 65.2898 850.487 63.5341 850.476 61.4886V44.8182H857.737V60.1932C857.749 61.7386 858.163 62.9602 858.982 63.858C859.8 64.7557 860.896 65.2045 862.271 65.2045C863.146 65.2045 863.964 65.0057 864.726 64.608C865.487 64.1989 866.101 63.5966 866.567 62.8011C867.044 62.0057 867.277 61.0227 867.266 59.8523ZM894.261 44.8182V50.2727H878.494V44.8182H894.261ZM882.074 38.5455H889.335V62.9545C889.335 63.625 889.438 64.1477 889.642 64.5227C889.847 64.8864 890.131 65.142 890.494 65.2898C890.869 65.4375 891.301 65.5114 891.79 65.5114C892.131 65.5114 892.472 65.483 892.812 65.4261C893.153 65.358 893.415 65.3068 893.597 65.2727L894.739 70.6761C894.375 70.7898 893.864 70.9205 893.205 71.0682C892.545 71.2273 891.744 71.3239 890.801 71.358C889.051 71.4261 887.517 71.1932 886.199 70.6591C884.892 70.125 883.875 69.2955 883.148 68.1705C882.42 67.0455 882.063 65.625 882.074 63.9091V38.5455ZM910.237 71V36.0909H924.214C926.783 36.0909 928.925 36.4716 930.641 37.233C932.357 37.9943 933.646 39.0511 934.51 40.4034C935.374 41.7443 935.805 43.2898 935.805 45.0398C935.805 46.4034 935.533 47.6023 934.987 48.6364C934.442 49.6591 933.692 50.5 932.737 51.1591C931.794 51.8068 930.714 52.267 929.499 52.5398V52.8807C930.828 52.9375 932.072 53.3125 933.232 54.0057C934.402 54.6989 935.351 55.6705 936.078 56.9205C936.805 58.1591 937.169 59.6364 937.169 61.3523C937.169 63.2045 936.709 64.858 935.788 66.3125C934.879 67.7557 933.533 68.8977 931.749 69.7386C929.964 70.5795 927.766 71 925.152 71H910.237ZM917.618 64.9659H923.635C925.692 64.9659 927.192 64.5739 928.135 63.7898C929.078 62.9943 929.55 61.9375 929.55 60.6193C929.55 59.6534 929.317 58.8011 928.851 58.0625C928.385 57.3239 927.72 56.7443 926.857 56.3239C926.004 55.9034 924.987 55.6932 923.805 55.6932H917.618V64.9659ZM917.618 50.6989H923.089C924.101 50.6989 924.999 50.5227 925.783 50.1705C926.578 49.8068 927.203 49.2955 927.658 48.6364C928.124 47.9773 928.357 47.1875 928.357 46.267C928.357 45.0057 927.908 43.9886 927.01 43.2159C926.124 42.4432 924.862 42.0568 923.226 42.0568H917.618V50.6989ZM958.625 59.8523V44.8182H965.886V71H958.915V66.2443H958.642C958.051 67.7784 957.068 69.0114 955.693 69.9432C954.33 70.875 952.665 71.3409 950.699 71.3409C948.949 71.3409 947.409 70.9432 946.08 70.1477C944.75 69.3523 943.71 68.2216 942.96 66.7557C942.222 65.2898 941.847 63.5341 941.835 61.4886V44.8182H949.097V60.1932C949.108 61.7386 949.523 62.9602 950.341 63.858C951.159 64.7557 952.256 65.2045 953.631 65.2045C954.506 65.2045 955.324 65.0057 956.085 64.608C956.847 64.1989 957.46 63.5966 957.926 62.8011C958.403 62.0057 958.636 61.0227 958.625 59.8523ZM985.774 44.8182V50.2727H969.615V44.8182H985.774ZM973.314 71V42.9261C973.314 41.0284 973.683 39.4545 974.422 38.2045C975.172 36.9545 976.195 36.017 977.49 35.392C978.786 34.767 980.257 34.4545 981.905 34.4545C983.018 34.4545 984.036 34.5398 984.956 34.7102C985.888 34.8807 986.581 35.0341 987.036 35.1705L985.74 40.625C985.456 40.5341 985.104 40.4489 984.683 40.3693C984.274 40.2898 983.854 40.25 983.422 40.25C982.354 40.25 981.609 40.5 981.189 41C980.768 41.4886 980.558 42.1761 980.558 43.0625V71H973.314ZM1004.29 44.8182V50.2727H988.131V44.8182H1004.29ZM991.83 71V42.9261C991.83 41.0284 992.199 39.4545 992.938 38.2045C993.688 36.9545 994.71 36.017 996.006 35.392C997.301 34.767 998.773 34.4545 1000.42 34.4545C1001.53 34.4545 1002.55 34.5398 1003.47 34.7102C1004.4 34.8807 1005.1 35.0341 1005.55 35.1705L1004.26 40.625C1003.97 40.5341 1003.62 40.4489 1003.2 40.3693C1002.79 40.2898 1002.37 40.25 1001.94 40.25C1000.87 40.25 1000.12 40.5 999.705 41C999.284 41.4886 999.074 42.1761 999.074 43.0625V71H991.83ZM1019.72 71.5114C1017.03 71.5114 1014.71 70.9659 1012.77 69.875C1010.83 68.7727 1009.35 67.2159 1008.3 65.2045C1007.25 63.1818 1006.73 60.7898 1006.73 58.0284C1006.73 55.3352 1007.25 52.9716 1008.3 50.9375C1009.35 48.9034 1010.82 47.3182 1012.71 46.1818C1014.62 45.0455 1016.86 44.4773 1019.43 44.4773C1021.16 44.4773 1022.77 44.7557 1024.25 45.3125C1025.75 45.858 1027.06 46.6818 1028.17 47.7841C1029.3 48.8864 1030.17 50.2727 1030.8 51.9432C1031.42 53.6023 1031.74 55.5455 1031.74 57.7727V59.767H1009.63V55.267H1024.9C1024.9 54.2216 1024.67 53.2955 1024.22 52.4886C1023.77 51.6818 1023.13 51.0511 1022.33 50.5966C1021.53 50.1307 1020.61 49.8977 1019.55 49.8977C1018.45 49.8977 1017.47 50.1534 1016.62 50.6648C1015.78 51.1648 1015.12 51.8409 1014.64 52.6932C1014.16 53.5341 1013.92 54.4716 1013.91 55.5057V59.7841C1013.91 61.0795 1014.15 62.1989 1014.62 63.142C1015.11 64.0852 1015.8 64.8125 1016.69 65.3239C1017.57 65.8352 1018.62 66.0909 1019.84 66.0909C1020.65 66.0909 1021.38 65.9773 1022.06 65.75C1022.73 65.5227 1023.3 65.1818 1023.78 64.7273C1024.25 64.2727 1024.62 63.7159 1024.87 63.0568L1031.58 63.5C1031.24 65.1136 1030.54 66.5227 1029.49 67.7273C1028.44 68.9205 1027.09 69.8523 1025.43 70.5227C1023.78 71.1818 1021.88 71.5114 1019.72 71.5114ZM1036.48 71V44.8182H1043.52V49.3864H1043.79C1044.27 47.7614 1045.07 46.5341 1046.19 45.7045C1047.32 44.8636 1048.61 44.4432 1050.08 44.4432C1050.44 44.4432 1050.83 44.4659 1051.25 44.5114C1051.67 44.5568 1052.04 44.6193 1052.36 44.6989V51.142C1052.02 51.0398 1051.55 50.9489 1050.95 50.8693C1050.35 50.7898 1049.79 50.75 1049.29 50.75C1048.23 50.75 1047.27 50.983 1046.43 51.4489C1045.6 51.9034 1044.94 52.5398 1044.45 53.358C1043.98 54.1761 1043.74 55.1193 1043.74 56.1875V71H1036.48Z" fill="white"/>
<rect x="577" y="616" width="529" height="103" fill="black" stroke="black" stroke-width="6"/>
<path d="M629.972 660.131C629.835 658.756 629.25 657.687 628.216 656.926C627.182 656.165 625.778 655.784 624.006 655.784C622.801 655.784 621.784 655.955 620.955 656.295C620.125 656.625 619.489 657.085 619.045 657.676C618.614 658.267 618.398 658.938 618.398 659.688C618.375 660.312 618.506 660.858 618.79 661.324C619.085 661.79 619.489 662.193 620 662.534C620.511 662.864 621.102 663.153 621.773 663.403C622.443 663.642 623.159 663.847 623.92 664.017L627.057 664.767C628.58 665.108 629.977 665.562 631.25 666.131C632.523 666.699 633.625 667.398 634.557 668.227C635.489 669.057 636.21 670.034 636.722 671.159C637.244 672.284 637.511 673.574 637.523 675.028C637.511 677.165 636.966 679.017 635.886 680.585C634.818 682.142 633.273 683.352 631.25 684.216C629.239 685.068 626.813 685.494 623.972 685.494C621.153 685.494 618.699 685.062 616.608 684.199C614.528 683.335 612.903 682.057 611.733 680.364C610.574 678.659 609.966 676.551 609.909 674.04H617.051C617.131 675.21 617.466 676.187 618.057 676.972C618.659 677.744 619.46 678.33 620.46 678.727C621.472 679.114 622.614 679.307 623.886 679.307C625.136 679.307 626.222 679.125 627.142 678.761C628.074 678.398 628.795 677.892 629.307 677.244C629.818 676.597 630.074 675.852 630.074 675.011C630.074 674.227 629.841 673.568 629.375 673.034C628.92 672.5 628.25 672.045 627.364 671.67C626.489 671.295 625.415 670.955 624.142 670.648L620.341 669.693C617.398 668.977 615.074 667.858 613.369 666.335C611.665 664.812 610.818 662.761 610.83 660.182C610.818 658.068 611.381 656.222 612.517 654.642C613.665 653.062 615.239 651.83 617.239 650.943C619.239 650.057 621.511 649.614 624.057 649.614C626.648 649.614 628.909 650.057 630.841 650.943C632.784 651.83 634.295 653.062 635.375 654.642C636.455 656.222 637.011 658.051 637.045 660.131H629.972ZM654.283 685.511C651.589 685.511 649.271 684.966 647.328 683.875C645.396 682.773 643.908 681.216 642.862 679.205C641.817 677.182 641.294 674.79 641.294 672.028C641.294 669.335 641.817 666.972 642.862 664.938C643.908 662.903 645.379 661.318 647.277 660.182C649.186 659.045 651.425 658.477 653.993 658.477C655.72 658.477 657.328 658.756 658.817 659.312C660.317 659.858 661.624 660.682 662.737 661.784C663.862 662.886 664.737 664.273 665.362 665.943C665.987 667.602 666.3 669.545 666.3 671.773V673.767H644.192V669.267H659.464C659.464 668.222 659.237 667.295 658.783 666.489C658.328 665.682 657.697 665.051 656.891 664.597C656.095 664.131 655.169 663.898 654.112 663.898C653.01 663.898 652.033 664.153 651.18 664.665C650.339 665.165 649.68 665.841 649.203 666.693C648.726 667.534 648.482 668.472 648.47 669.506V673.784C648.47 675.08 648.709 676.199 649.186 677.142C649.675 678.085 650.362 678.812 651.249 679.324C652.135 679.835 653.186 680.091 654.402 680.091C655.209 680.091 655.947 679.977 656.618 679.75C657.288 679.523 657.862 679.182 658.339 678.727C658.817 678.273 659.18 677.716 659.43 677.057L666.146 677.5C665.805 679.114 665.107 680.523 664.05 681.727C663.004 682.92 661.652 683.852 659.993 684.523C658.345 685.182 656.442 685.511 654.283 685.511ZM671.038 685V658.818H678.078V663.386H678.351C678.828 661.761 679.629 660.534 680.754 659.705C681.879 658.864 683.175 658.443 684.641 658.443C685.004 658.443 685.396 658.466 685.817 658.511C686.237 658.557 686.607 658.619 686.925 658.699V665.142C686.584 665.04 686.112 664.949 685.51 664.869C684.908 664.79 684.357 664.75 683.857 664.75C682.788 664.75 681.834 664.983 680.993 665.449C680.163 665.903 679.504 666.54 679.016 667.358C678.538 668.176 678.3 669.119 678.3 670.188V685H671.038ZM690.679 685V658.818H697.94V685H690.679ZM694.327 655.443C693.247 655.443 692.321 655.085 691.548 654.369C690.787 653.642 690.406 652.773 690.406 651.761C690.406 650.761 690.787 649.903 691.548 649.188C692.321 648.46 693.247 648.097 694.327 648.097C695.406 648.097 696.327 648.46 697.088 649.188C697.861 649.903 698.247 650.761 698.247 651.761C698.247 652.773 697.861 653.642 697.088 654.369C696.327 655.085 695.406 655.443 694.327 655.443ZM711.223 685.494C709.553 685.494 708.064 685.205 706.757 684.625C705.45 684.034 704.416 683.165 703.655 682.017C702.905 680.858 702.53 679.415 702.53 677.688C702.53 676.233 702.797 675.011 703.331 674.023C703.865 673.034 704.592 672.239 705.513 671.636C706.433 671.034 707.479 670.58 708.649 670.273C709.831 669.966 711.07 669.75 712.365 669.625C713.888 669.466 715.115 669.318 716.047 669.182C716.979 669.034 717.655 668.818 718.075 668.534C718.496 668.25 718.706 667.83 718.706 667.273V667.17C718.706 666.091 718.365 665.256 717.683 664.665C717.013 664.074 716.058 663.778 714.82 663.778C713.513 663.778 712.473 664.068 711.7 664.648C710.928 665.216 710.416 665.932 710.166 666.795L703.45 666.25C703.791 664.659 704.462 663.284 705.462 662.125C706.462 660.955 707.751 660.057 709.331 659.432C710.922 658.795 712.763 658.477 714.854 658.477C716.308 658.477 717.7 658.648 719.03 658.989C720.371 659.33 721.558 659.858 722.592 660.574C723.638 661.29 724.462 662.21 725.064 663.335C725.666 664.449 725.967 665.784 725.967 667.341V685H719.081V681.369H718.876C718.456 682.188 717.893 682.909 717.189 683.534C716.484 684.148 715.638 684.631 714.649 684.983C713.661 685.324 712.518 685.494 711.223 685.494ZM713.303 680.483C714.371 680.483 715.314 680.273 716.132 679.852C716.95 679.42 717.592 678.841 718.058 678.114C718.524 677.386 718.757 676.562 718.757 675.642V672.864C718.53 673.011 718.217 673.148 717.82 673.273C717.433 673.386 716.996 673.494 716.507 673.597C716.018 673.687 715.53 673.773 715.041 673.852C714.553 673.92 714.109 673.983 713.712 674.04C712.859 674.165 712.115 674.364 711.479 674.636C710.842 674.909 710.348 675.278 709.996 675.744C709.643 676.199 709.467 676.767 709.467 677.449C709.467 678.438 709.825 679.193 710.541 679.716C711.268 680.227 712.189 680.483 713.303 680.483ZM738.862 650.091V685H731.601V650.091H738.862ZM788.004 667.545C788.004 671.352 787.283 674.591 785.839 677.261C784.408 679.932 782.453 681.972 779.976 683.381C777.51 684.778 774.737 685.477 771.658 685.477C768.555 685.477 765.771 684.773 763.305 683.364C760.839 681.955 758.891 679.915 757.459 677.244C756.027 674.574 755.311 671.341 755.311 667.545C755.311 663.739 756.027 660.5 757.459 657.83C758.891 655.159 760.839 653.125 763.305 651.727C765.771 650.318 768.555 649.614 771.658 649.614C774.737 649.614 777.51 650.318 779.976 651.727C782.453 653.125 784.408 655.159 785.839 657.83C787.283 660.5 788.004 663.739 788.004 667.545ZM780.521 667.545C780.521 665.08 780.152 663 779.413 661.307C778.686 659.614 777.658 658.33 776.328 657.455C774.999 656.58 773.442 656.142 771.658 656.142C769.874 656.142 768.317 656.58 766.987 657.455C765.658 658.33 764.624 659.614 763.885 661.307C763.158 663 762.794 665.08 762.794 667.545C762.794 670.011 763.158 672.091 763.885 673.784C764.624 675.477 765.658 676.761 766.987 677.636C768.317 678.511 769.874 678.949 771.658 678.949C773.442 678.949 774.999 678.511 776.328 677.636C777.658 676.761 778.686 675.477 779.413 673.784C780.152 672.091 780.521 670.011 780.521 667.545ZM810.125 673.852V658.818H817.386V685H810.415V680.244H810.142C809.551 681.778 808.568 683.011 807.193 683.943C805.83 684.875 804.165 685.341 802.199 685.341C800.449 685.341 798.909 684.943 797.58 684.148C796.25 683.352 795.21 682.222 794.46 680.756C793.722 679.29 793.347 677.534 793.335 675.489V658.818H800.597V674.193C800.608 675.739 801.023 676.96 801.841 677.858C802.659 678.756 803.756 679.205 805.131 679.205C806.006 679.205 806.824 679.006 807.585 678.608C808.347 678.199 808.96 677.597 809.426 676.801C809.903 676.006 810.136 675.023 810.125 673.852ZM837.121 658.818V664.273H821.354V658.818H837.121ZM824.933 652.545H832.195V676.955C832.195 677.625 832.297 678.148 832.501 678.523C832.706 678.886 832.99 679.142 833.354 679.29C833.729 679.437 834.161 679.511 834.649 679.511C834.99 679.511 835.331 679.483 835.672 679.426C836.013 679.358 836.274 679.307 836.456 679.273L837.598 684.676C837.234 684.79 836.723 684.92 836.064 685.068C835.405 685.227 834.604 685.324 833.661 685.358C831.911 685.426 830.376 685.193 829.058 684.659C827.751 684.125 826.734 683.295 826.007 682.17C825.28 681.045 824.922 679.625 824.933 677.909V652.545ZM841.851 694.818V658.818H849.01V663.216H849.334C849.652 662.511 850.112 661.795 850.714 661.068C851.328 660.33 852.124 659.716 853.101 659.227C854.089 658.727 855.317 658.477 856.783 658.477C858.692 658.477 860.453 658.977 862.067 659.977C863.68 660.966 864.97 662.46 865.936 664.46C866.902 666.449 867.385 668.943 867.385 671.943C867.385 674.864 866.913 677.33 865.97 679.341C865.038 681.341 863.766 682.858 862.152 683.892C860.55 684.915 858.754 685.426 856.766 685.426C855.357 685.426 854.158 685.193 853.169 684.727C852.192 684.261 851.391 683.676 850.766 682.972C850.141 682.256 849.663 681.534 849.334 680.807H849.112V694.818H841.851ZM848.959 671.909C848.959 673.466 849.175 674.824 849.607 675.983C850.038 677.142 850.663 678.045 851.482 678.693C852.3 679.33 853.294 679.648 854.464 679.648C855.646 679.648 856.646 679.324 857.464 678.676C858.283 678.017 858.902 677.108 859.322 675.949C859.754 674.778 859.97 673.432 859.97 671.909C859.97 670.398 859.76 669.068 859.339 667.92C858.919 666.773 858.3 665.875 857.482 665.227C856.663 664.58 855.658 664.256 854.464 664.256C853.283 664.256 852.283 664.568 851.464 665.193C850.658 665.818 850.038 666.705 849.607 667.852C849.175 669 848.959 670.352 848.959 671.909ZM889.016 673.852V658.818H896.277V685H889.305V680.244H889.033C888.442 681.778 887.459 683.011 886.084 683.943C884.72 684.875 883.055 685.341 881.089 685.341C879.339 685.341 877.8 684.943 876.47 684.148C875.141 683.352 874.101 682.222 873.351 680.756C872.612 679.29 872.237 677.534 872.226 675.489V658.818H879.487V674.193C879.499 675.739 879.913 676.96 880.732 677.858C881.55 678.756 882.646 679.205 884.021 679.205C884.896 679.205 885.714 679.006 886.476 678.608C887.237 678.199 887.851 677.597 888.317 676.801C888.794 676.006 889.027 675.023 889.016 673.852ZM916.011 658.818V664.273H900.244V658.818H916.011ZM903.824 652.545H911.085V676.955C911.085 677.625 911.188 678.148 911.392 678.523C911.597 678.886 911.881 679.142 912.244 679.29C912.619 679.437 913.051 679.511 913.54 679.511C913.881 679.511 914.222 679.483 914.562 679.426C914.903 679.358 915.165 679.307 915.347 679.273L916.489 684.676C916.125 684.79 915.614 684.92 914.955 685.068C914.295 685.227 913.494 685.324 912.551 685.358C910.801 685.426 909.267 685.193 907.949 684.659C906.642 684.125 905.625 683.295 904.898 682.17C904.17 681.045 903.813 679.625 903.824 677.909V652.545ZM931.987 685V650.091H945.964C948.533 650.091 950.675 650.472 952.391 651.233C954.107 651.994 955.396 653.051 956.26 654.403C957.124 655.744 957.555 657.29 957.555 659.04C957.555 660.403 957.283 661.602 956.737 662.636C956.192 663.659 955.442 664.5 954.487 665.159C953.544 665.807 952.464 666.267 951.249 666.54V666.881C952.578 666.937 953.822 667.312 954.982 668.006C956.152 668.699 957.101 669.67 957.828 670.92C958.555 672.159 958.919 673.636 958.919 675.352C958.919 677.205 958.459 678.858 957.538 680.312C956.629 681.756 955.283 682.898 953.499 683.739C951.714 684.58 949.516 685 946.902 685H931.987ZM939.368 678.966H945.385C947.442 678.966 948.942 678.574 949.885 677.79C950.828 676.994 951.3 675.937 951.3 674.619C951.3 673.653 951.067 672.801 950.601 672.062C950.135 671.324 949.47 670.744 948.607 670.324C947.754 669.903 946.737 669.693 945.555 669.693H939.368V678.966ZM939.368 664.699H944.839C945.851 664.699 946.749 664.523 947.533 664.17C948.328 663.807 948.953 663.295 949.408 662.636C949.874 661.977 950.107 661.188 950.107 660.267C950.107 659.006 949.658 657.989 948.76 657.216C947.874 656.443 946.612 656.057 944.976 656.057H939.368V664.699ZM980.375 673.852V658.818H987.636V685H980.665V680.244H980.392C979.801 681.778 978.818 683.011 977.443 683.943C976.08 684.875 974.415 685.341 972.449 685.341C970.699 685.341 969.159 684.943 967.83 684.148C966.5 683.352 965.46 682.222 964.71 680.756C963.972 679.29 963.597 677.534 963.585 675.489V658.818H970.847V674.193C970.858 675.739 971.273 676.96 972.091 677.858C972.909 678.756 974.006 679.205 975.381 679.205C976.256 679.205 977.074 679.006 977.835 678.608C978.597 678.199 979.21 677.597 979.676 676.801C980.153 676.006 980.386 675.023 980.375 673.852ZM1007.52 658.818V664.273H991.365V658.818H1007.52ZM995.064 685V656.926C995.064 655.028 995.433 653.455 996.172 652.205C996.922 650.955 997.945 650.017 999.24 649.392C1000.54 648.767 1002.01 648.455 1003.65 648.455C1004.77 648.455 1005.79 648.54 1006.71 648.71C1007.64 648.881 1008.33 649.034 1008.79 649.17L1007.49 654.625C1007.21 654.534 1006.85 654.449 1006.43 654.369C1006.02 654.29 1005.6 654.25 1005.17 654.25C1004.1 654.25 1003.36 654.5 1002.94 655C1002.52 655.489 1002.31 656.176 1002.31 657.062V685H995.064ZM1026.04 658.818V664.273H1009.88V658.818H1026.04ZM1013.58 685V656.926C1013.58 655.028 1013.95 653.455 1014.69 652.205C1015.44 650.955 1016.46 650.017 1017.76 649.392C1019.05 648.767 1020.52 648.455 1022.17 648.455C1023.28 648.455 1024.3 648.54 1025.22 648.71C1026.15 648.881 1026.85 649.034 1027.3 649.17L1026.01 654.625C1025.72 654.534 1025.37 654.449 1024.95 654.369C1024.54 654.29 1024.12 654.25 1023.69 654.25C1022.62 654.25 1021.88 654.5 1021.45 655C1021.03 655.489 1020.82 656.176 1020.82 657.062V685H1013.58ZM1041.47 685.511C1038.78 685.511 1036.46 684.966 1034.52 683.875C1032.58 682.773 1031.1 681.216 1030.05 679.205C1029 677.182 1028.48 674.79 1028.48 672.028C1028.48 669.335 1029 666.972 1030.05 664.938C1031.1 662.903 1032.57 661.318 1034.46 660.182C1036.37 659.045 1038.61 658.477 1041.18 658.477C1042.91 658.477 1044.52 658.756 1046 659.312C1047.5 659.858 1048.81 660.682 1049.92 661.784C1051.05 662.886 1051.92 664.273 1052.55 665.943C1053.17 667.602 1053.49 669.545 1053.49 671.773V673.767H1031.38V669.267H1046.65C1046.65 668.222 1046.42 667.295 1045.97 666.489C1045.52 665.682 1044.88 665.051 1044.08 664.597C1043.28 664.131 1042.36 663.898 1041.3 663.898C1040.2 663.898 1039.22 664.153 1038.37 664.665C1037.53 665.165 1036.87 665.841 1036.39 666.693C1035.91 667.534 1035.67 668.472 1035.66 669.506V673.784C1035.66 675.08 1035.9 676.199 1036.37 677.142C1036.86 678.085 1037.55 678.812 1038.44 679.324C1039.32 679.835 1040.37 680.091 1041.59 680.091C1042.4 680.091 1043.13 679.977 1043.81 679.75C1044.48 679.523 1045.05 679.182 1045.53 678.727C1046 678.273 1046.37 677.716 1046.62 677.057L1053.33 677.5C1052.99 679.114 1052.29 680.523 1051.24 681.727C1050.19 682.92 1048.84 683.852 1047.18 684.523C1045.53 685.182 1043.63 685.511 1041.47 685.511ZM1058.23 685V658.818H1065.27V663.386H1065.54C1066.02 661.761 1066.82 660.534 1067.94 659.705C1069.07 658.864 1070.36 658.443 1071.83 658.443C1072.19 658.443 1072.58 658.466 1073 658.511C1073.42 658.557 1073.79 658.619 1074.11 658.699V665.142C1073.77 665.04 1073.3 664.949 1072.7 664.869C1072.1 664.79 1071.54 664.75 1071.04 664.75C1069.98 664.75 1069.02 664.983 1068.18 665.449C1067.35 665.903 1066.69 666.54 1066.2 667.358C1065.73 668.176 1065.49 669.119 1065.49 670.188V685H1058.23Z" fill="white"/>
<path d="M1015 613L1047.39 600.728L1020.57 578.81L1015 613ZM1146.68 447.102L1029.76 590.194L1034.41 593.99L1151.32 450.898L1146.68 447.102Z" fill="black"/>
<path d="M1149 273L1116.61 260.728L1143.43 238.81L1149 273ZM1017.32 107.102L1134.24 250.194L1129.59 253.99L1012.68 110.898L1017.32 107.102Z" fill="black"/>
<path d="M567 446L571.277 480.376L598.909 459.484L567 446ZM580.891 469.346L688.607 611.809L693.393 608.191L585.677 465.727L580.891 469.346Z" fill="black"/>
<path d="M691 109L686.723 143.376L659.091 122.484L691 109ZM677.109 132.346L569.393 274.809L564.607 271.191L672.323 128.727L677.109 132.346Z" fill="black"/>
<path d="M405 346L375 328.679V363.321L405 346ZM378 343H278V349H378V343Z" fill="black"/>
<path d="M278 387L308 404.321V369.679L278 387ZM405 384H305V390H405V384Z" fill="black"/>
<path d="M356.835 539.312H349.369C349.233 538.347 348.955 537.489 348.534 536.739C348.114 535.977 347.574 535.33 346.915 534.795C346.256 534.261 345.494 533.852 344.631 533.568C343.778 533.284 342.852 533.142 341.852 533.142C340.045 533.142 338.472 533.591 337.131 534.489C335.79 535.375 334.75 536.67 334.011 538.375C333.273 540.068 332.903 542.125 332.903 544.545C332.903 547.034 333.273 549.125 334.011 550.818C334.761 552.511 335.807 553.79 337.148 554.653C338.489 555.517 340.04 555.949 341.801 555.949C342.79 555.949 343.705 555.818 344.545 555.557C345.398 555.295 346.153 554.915 346.812 554.415C347.472 553.903 348.017 553.284 348.449 552.557C348.892 551.83 349.199 551 349.369 550.068L356.835 550.102C356.642 551.705 356.159 553.25 355.386 554.739C354.625 556.216 353.597 557.54 352.301 558.71C351.017 559.869 349.483 560.79 347.699 561.472C345.926 562.142 343.92 562.477 341.682 562.477C338.568 562.477 335.784 561.773 333.33 560.364C330.886 558.955 328.955 556.915 327.534 554.244C326.125 551.574 325.42 548.341 325.42 544.545C325.42 540.739 326.136 537.5 327.568 534.83C329 532.159 330.943 530.125 333.398 528.727C335.852 527.318 338.614 526.614 341.682 526.614C343.705 526.614 345.58 526.898 347.307 527.466C349.045 528.034 350.585 528.864 351.926 529.955C353.267 531.034 354.358 532.358 355.199 533.926C356.051 535.494 356.597 537.29 356.835 539.312ZM373.821 562.511C371.173 562.511 368.884 561.949 366.952 560.824C365.031 559.687 363.548 558.108 362.503 556.085C361.457 554.051 360.935 551.693 360.935 549.011C360.935 546.307 361.457 543.943 362.503 541.92C363.548 539.886 365.031 538.307 366.952 537.182C368.884 536.045 371.173 535.477 373.821 535.477C376.469 535.477 378.753 536.045 380.673 537.182C382.605 538.307 384.094 539.886 385.139 541.92C386.185 543.943 386.707 546.307 386.707 549.011C386.707 551.693 386.185 554.051 385.139 556.085C384.094 558.108 382.605 559.687 380.673 560.824C378.753 561.949 376.469 562.511 373.821 562.511ZM373.855 556.886C375.06 556.886 376.065 556.545 376.872 555.864C377.679 555.17 378.287 554.227 378.696 553.034C379.116 551.841 379.327 550.483 379.327 548.96C379.327 547.438 379.116 546.08 378.696 544.886C378.287 543.693 377.679 542.75 376.872 542.057C376.065 541.364 375.06 541.017 373.855 541.017C372.639 541.017 371.616 541.364 370.787 542.057C369.969 542.75 369.349 543.693 368.929 544.886C368.52 546.08 368.315 547.438 368.315 548.96C368.315 550.483 368.52 551.841 368.929 553.034C369.349 554.227 369.969 555.17 370.787 555.864C371.616 556.545 372.639 556.886 373.855 556.886ZM398.69 546.864V562H391.429V535.818H398.349V540.438H398.656C399.236 538.915 400.207 537.71 401.571 536.824C402.935 535.926 404.588 535.477 406.531 535.477C408.349 535.477 409.935 535.875 411.287 536.67C412.639 537.466 413.69 538.602 414.44 540.08C415.19 541.545 415.565 543.295 415.565 545.33V562H408.304V546.625C408.315 545.023 407.906 543.773 407.077 542.875C406.247 541.966 405.105 541.511 403.651 541.511C402.673 541.511 401.81 541.722 401.06 542.142C400.321 542.562 399.741 543.176 399.321 543.983C398.912 544.778 398.702 545.739 398.69 546.864ZM443.072 543.284L436.425 543.693C436.311 543.125 436.067 542.614 435.692 542.159C435.317 541.693 434.822 541.324 434.209 541.051C433.607 540.767 432.885 540.625 432.044 540.625C430.919 540.625 429.97 540.864 429.197 541.341C428.425 541.807 428.038 542.432 428.038 543.216C428.038 543.841 428.288 544.369 428.788 544.801C429.288 545.233 430.146 545.58 431.362 545.841L436.101 546.795C438.646 547.318 440.544 548.159 441.794 549.318C443.044 550.477 443.669 552 443.669 553.886C443.669 555.602 443.163 557.108 442.152 558.403C441.152 559.699 439.777 560.71 438.027 561.438C436.288 562.153 434.283 562.511 432.01 562.511C428.544 562.511 425.783 561.79 423.726 560.347C421.68 558.892 420.482 556.915 420.129 554.415L427.271 554.04C427.487 555.097 428.01 555.903 428.839 556.46C429.669 557.006 430.732 557.278 432.027 557.278C433.3 557.278 434.322 557.034 435.095 556.545C435.879 556.045 436.277 555.403 436.288 554.619C436.277 553.96 435.999 553.42 435.453 553C434.908 552.568 434.067 552.239 432.93 552.011L428.396 551.108C425.839 550.597 423.936 549.71 422.686 548.449C421.447 547.187 420.828 545.58 420.828 543.625C420.828 541.943 421.283 540.494 422.192 539.278C423.112 538.062 424.402 537.125 426.061 536.466C427.732 535.807 429.686 535.477 431.925 535.477C435.232 535.477 437.834 536.176 439.732 537.574C441.641 538.972 442.754 540.875 443.072 543.284ZM465.031 550.852V535.818H472.293V562H465.321V557.244H465.048C464.457 558.778 463.474 560.011 462.099 560.943C460.736 561.875 459.071 562.341 457.105 562.341C455.355 562.341 453.815 561.943 452.486 561.148C451.156 560.352 450.116 559.222 449.366 557.756C448.628 556.29 448.253 554.534 448.241 552.489V535.818H455.503V551.193C455.514 552.739 455.929 553.96 456.747 554.858C457.565 555.756 458.662 556.205 460.037 556.205C460.912 556.205 461.73 556.006 462.491 555.608C463.253 555.199 463.866 554.597 464.332 553.801C464.81 553.006 465.043 552.023 465.031 550.852ZM478.101 562V535.818H485.021V540.438H485.328C485.874 538.903 486.783 537.693 488.055 536.807C489.328 535.92 490.851 535.477 492.624 535.477C494.419 535.477 495.947 535.926 497.209 536.824C498.47 537.71 499.311 538.915 499.732 540.438H500.004C500.538 538.938 501.504 537.739 502.902 536.841C504.311 535.932 505.976 535.477 507.896 535.477C510.339 535.477 512.322 536.256 513.845 537.812C515.379 539.358 516.146 541.551 516.146 544.392V562H508.902V545.824C508.902 544.369 508.516 543.278 507.743 542.551C506.97 541.824 506.004 541.46 504.845 541.46C503.527 541.46 502.499 541.881 501.76 542.722C501.021 543.551 500.652 544.648 500.652 546.011V562H493.612V545.67C493.612 544.386 493.243 543.364 492.504 542.602C491.777 541.841 490.817 541.46 489.624 541.46C488.817 541.46 488.089 541.665 487.442 542.074C486.805 542.472 486.3 543.034 485.925 543.761C485.55 544.477 485.362 545.318 485.362 546.284V562H478.101ZM533.814 562.511C531.121 562.511 528.803 561.966 526.859 560.875C524.928 559.773 523.439 558.216 522.393 556.205C521.348 554.182 520.825 551.79 520.825 549.028C520.825 546.335 521.348 543.972 522.393 541.938C523.439 539.903 524.911 538.318 526.808 537.182C528.717 536.045 530.956 535.477 533.524 535.477C535.251 535.477 536.859 535.756 538.348 536.312C539.848 536.858 541.155 537.682 542.268 538.784C543.393 539.886 544.268 541.273 544.893 542.943C545.518 544.602 545.831 546.545 545.831 548.773V550.767H523.723V546.267H538.996C538.996 545.222 538.768 544.295 538.314 543.489C537.859 542.682 537.229 542.051 536.422 541.597C535.626 541.131 534.7 540.898 533.643 540.898C532.541 540.898 531.564 541.153 530.712 541.665C529.871 542.165 529.212 542.841 528.734 543.693C528.257 544.534 528.013 545.472 528.001 546.506V550.784C528.001 552.08 528.24 553.199 528.717 554.142C529.206 555.085 529.893 555.812 530.78 556.324C531.666 556.835 532.717 557.091 533.933 557.091C534.74 557.091 535.479 556.977 536.149 556.75C536.82 556.523 537.393 556.182 537.871 555.727C538.348 555.273 538.712 554.716 538.962 554.057L545.678 554.5C545.337 556.114 544.638 557.523 543.581 558.727C542.536 559.92 541.183 560.852 539.524 561.523C537.876 562.182 535.973 562.511 533.814 562.511ZM572.354 543.284L565.706 543.693C565.592 543.125 565.348 542.614 564.973 542.159C564.598 541.693 564.104 541.324 563.49 541.051C562.888 540.767 562.166 540.625 561.325 540.625C560.2 540.625 559.251 540.864 558.479 541.341C557.706 541.807 557.32 542.432 557.32 543.216C557.32 543.841 557.57 544.369 558.07 544.801C558.57 545.233 559.428 545.58 560.643 545.841L565.382 546.795C567.928 547.318 569.825 548.159 571.075 549.318C572.325 550.477 572.95 552 572.95 553.886C572.95 555.602 572.445 557.108 571.433 558.403C570.433 559.699 569.058 560.71 567.308 561.438C565.57 562.153 563.564 562.511 561.291 562.511C557.825 562.511 555.064 561.79 553.007 560.347C550.962 558.892 549.763 556.915 549.411 554.415L556.553 554.04C556.768 555.097 557.291 555.903 558.121 556.46C558.95 557.006 560.013 557.278 561.308 557.278C562.581 557.278 563.604 557.034 564.376 556.545C565.161 556.045 565.558 555.403 565.57 554.619C565.558 553.96 565.28 553.42 564.734 553C564.189 552.568 563.348 552.239 562.212 552.011L557.678 551.108C555.121 550.597 553.217 549.71 551.967 548.449C550.729 547.187 550.109 545.58 550.109 543.625C550.109 541.943 550.564 540.494 551.473 539.278C552.393 538.062 553.683 537.125 555.342 536.466C557.013 535.807 558.967 535.477 561.206 535.477C564.513 535.477 567.115 536.176 569.013 537.574C570.922 538.972 572.036 540.875 572.354 543.284Z" fill="black"/>
<path d="M1170.84 164.312H1163.37C1163.23 163.347 1162.95 162.489 1162.53 161.739C1162.11 160.977 1161.57 160.33 1160.91 159.795C1160.26 159.261 1159.49 158.852 1158.63 158.568C1157.78 158.284 1156.85 158.142 1155.85 158.142C1154.05 158.142 1152.47 158.591 1151.13 159.489C1149.79 160.375 1148.75 161.67 1148.01 163.375C1147.27 165.068 1146.9 167.125 1146.9 169.545C1146.9 172.034 1147.27 174.125 1148.01 175.818C1148.76 177.511 1149.81 178.79 1151.15 179.653C1152.49 180.517 1154.04 180.949 1155.8 180.949C1156.79 180.949 1157.7 180.818 1158.55 180.557C1159.4 180.295 1160.15 179.915 1160.81 179.415C1161.47 178.903 1162.02 178.284 1162.45 177.557C1162.89 176.83 1163.2 176 1163.37 175.068L1170.84 175.102C1170.64 176.705 1170.16 178.25 1169.39 179.739C1168.63 181.216 1167.6 182.54 1166.3 183.71C1165.02 184.869 1163.48 185.79 1161.7 186.472C1159.93 187.142 1157.92 187.477 1155.68 187.477C1152.57 187.477 1149.78 186.773 1147.33 185.364C1144.89 183.955 1142.95 181.915 1141.53 179.244C1140.12 176.574 1139.42 173.341 1139.42 169.545C1139.42 165.739 1140.14 162.5 1141.57 159.83C1143 157.159 1144.94 155.125 1147.4 153.727C1149.85 152.318 1152.61 151.614 1155.68 151.614C1157.7 151.614 1159.58 151.898 1161.31 152.466C1163.05 153.034 1164.59 153.864 1165.93 154.955C1167.27 156.034 1168.36 157.358 1169.2 158.926C1170.05 160.494 1170.6 162.29 1170.84 164.312ZM1187.82 187.511C1185.17 187.511 1182.88 186.949 1180.95 185.824C1179.03 184.687 1177.55 183.108 1176.5 181.085C1175.46 179.051 1174.93 176.693 1174.93 174.011C1174.93 171.307 1175.46 168.943 1176.5 166.92C1177.55 164.886 1179.03 163.307 1180.95 162.182C1182.88 161.045 1185.17 160.477 1187.82 160.477C1190.47 160.477 1192.75 161.045 1194.67 162.182C1196.61 163.307 1198.09 164.886 1199.14 166.92C1200.18 168.943 1200.71 171.307 1200.71 174.011C1200.71 176.693 1200.18 179.051 1199.14 181.085C1198.09 183.108 1196.61 184.687 1194.67 185.824C1192.75 186.949 1190.47 187.511 1187.82 187.511ZM1187.86 181.886C1189.06 181.886 1190.07 181.545 1190.87 180.864C1191.68 180.17 1192.29 179.227 1192.7 178.034C1193.12 176.841 1193.33 175.483 1193.33 173.96C1193.33 172.438 1193.12 171.08 1192.7 169.886C1192.29 168.693 1191.68 167.75 1190.87 167.057C1190.07 166.364 1189.06 166.017 1187.86 166.017C1186.64 166.017 1185.62 166.364 1184.79 167.057C1183.97 167.75 1183.35 168.693 1182.93 169.886C1182.52 171.08 1182.32 172.438 1182.32 173.96C1182.32 175.483 1182.52 176.841 1182.93 178.034C1183.35 179.227 1183.97 180.17 1184.79 180.864C1185.62 181.545 1186.64 181.886 1187.86 181.886ZM1212.69 171.864V187H1205.43V160.818H1212.35V165.438H1212.66C1213.24 163.915 1214.21 162.71 1215.57 161.824C1216.93 160.926 1218.59 160.477 1220.53 160.477C1222.35 160.477 1223.93 160.875 1225.29 161.67C1226.64 162.466 1227.69 163.602 1228.44 165.08C1229.19 166.545 1229.57 168.295 1229.57 170.33V187H1222.3V171.625C1222.32 170.023 1221.91 168.773 1221.08 167.875C1220.25 166.966 1219.11 166.511 1217.65 166.511C1216.67 166.511 1215.81 166.722 1215.06 167.142C1214.32 167.562 1213.74 168.176 1213.32 168.983C1212.91 169.778 1212.7 170.739 1212.69 171.864ZM1257.07 168.284L1250.42 168.693C1250.31 168.125 1250.07 167.614 1249.69 167.159C1249.32 166.693 1248.82 166.324 1248.21 166.051C1247.61 165.767 1246.88 165.625 1246.04 165.625C1244.92 165.625 1243.97 165.864 1243.2 166.341C1242.42 166.807 1242.04 167.432 1242.04 168.216C1242.04 168.841 1242.29 169.369 1242.79 169.801C1243.29 170.233 1244.15 170.58 1245.36 170.841L1250.1 171.795C1252.65 172.318 1254.54 173.159 1255.79 174.318C1257.04 175.477 1257.67 177 1257.67 178.886C1257.67 180.602 1257.16 182.108 1256.15 183.403C1255.15 184.699 1253.78 185.71 1252.03 186.438C1250.29 187.153 1248.28 187.511 1246.01 187.511C1242.54 187.511 1239.78 186.79 1237.73 185.347C1235.68 183.892 1234.48 181.915 1234.13 179.415L1241.27 179.04C1241.49 180.097 1242.01 180.903 1242.84 181.46C1243.67 182.006 1244.73 182.278 1246.03 182.278C1247.3 182.278 1248.32 182.034 1249.1 181.545C1249.88 181.045 1250.28 180.403 1250.29 179.619C1250.28 178.96 1250 178.42 1249.45 178C1248.91 177.568 1248.07 177.239 1246.93 177.011L1242.4 176.108C1239.84 175.597 1237.94 174.71 1236.69 173.449C1235.45 172.187 1234.83 170.58 1234.83 168.625C1234.83 166.943 1235.28 165.494 1236.19 164.278C1237.11 163.062 1238.4 162.125 1240.06 161.466C1241.73 160.807 1243.69 160.477 1245.92 160.477C1249.23 160.477 1251.83 161.176 1253.73 162.574C1255.64 163.972 1256.75 165.875 1257.07 168.284ZM1279.03 175.852V160.818H1286.29V187H1279.32V182.244H1279.05C1278.46 183.778 1277.47 185.011 1276.1 185.943C1274.74 186.875 1273.07 187.341 1271.11 187.341C1269.36 187.341 1267.82 186.943 1266.49 186.148C1265.16 185.352 1264.12 184.222 1263.37 182.756C1262.63 181.29 1262.25 179.534 1262.24 177.489V160.818H1269.5V176.193C1269.51 177.739 1269.93 178.96 1270.75 179.858C1271.57 180.756 1272.66 181.205 1274.04 181.205C1274.91 181.205 1275.73 181.006 1276.49 180.608C1277.25 180.199 1277.87 179.597 1278.33 178.801C1278.81 178.006 1279.04 177.023 1279.03 175.852ZM1292.1 187V160.818H1299.02V165.438H1299.33C1299.87 163.903 1300.78 162.693 1302.06 161.807C1303.33 160.92 1304.85 160.477 1306.62 160.477C1308.42 160.477 1309.95 160.926 1311.21 161.824C1312.47 162.71 1313.31 163.915 1313.73 165.438H1314C1314.54 163.938 1315.5 162.739 1316.9 161.841C1318.31 160.932 1319.98 160.477 1321.9 160.477C1324.34 160.477 1326.32 161.256 1327.85 162.812C1329.38 164.358 1330.15 166.551 1330.15 169.392V187H1322.9V170.824C1322.9 169.369 1322.52 168.278 1321.74 167.551C1320.97 166.824 1320 166.46 1318.85 166.46C1317.53 166.46 1316.5 166.881 1315.76 167.722C1315.02 168.551 1314.65 169.648 1314.65 171.011V187H1307.61V170.67C1307.61 169.386 1307.24 168.364 1306.5 167.602C1305.78 166.841 1304.82 166.46 1303.62 166.46C1302.82 166.46 1302.09 166.665 1301.44 167.074C1300.81 167.472 1300.3 168.034 1299.92 168.761C1299.55 169.477 1299.36 170.318 1299.36 171.284V187H1292.1ZM1347.81 187.511C1345.12 187.511 1342.8 186.966 1340.86 185.875C1338.93 184.773 1337.44 183.216 1336.39 181.205C1335.35 179.182 1334.83 176.79 1334.83 174.028C1334.83 171.335 1335.35 168.972 1336.39 166.938C1337.44 164.903 1338.91 163.318 1340.81 162.182C1342.72 161.045 1344.96 160.477 1347.52 160.477C1349.25 160.477 1350.86 160.756 1352.35 161.312C1353.85 161.858 1355.15 162.682 1356.27 163.784C1357.39 164.886 1358.27 166.273 1358.89 167.943C1359.52 169.602 1359.83 171.545 1359.83 173.773V175.767H1337.72V171.267H1353C1353 170.222 1352.77 169.295 1352.31 168.489C1351.86 167.682 1351.23 167.051 1350.42 166.597C1349.63 166.131 1348.7 165.898 1347.64 165.898C1346.54 165.898 1345.56 166.153 1344.71 166.665C1343.87 167.165 1343.21 167.841 1342.73 168.693C1342.26 169.534 1342.01 170.472 1342 171.506V175.784C1342 177.08 1342.24 178.199 1342.72 179.142C1343.21 180.085 1343.89 180.812 1344.78 181.324C1345.67 181.835 1346.72 182.091 1347.93 182.091C1348.74 182.091 1349.48 181.977 1350.15 181.75C1350.82 181.523 1351.39 181.182 1351.87 180.727C1352.35 180.273 1352.71 179.716 1352.96 179.057L1359.68 179.5C1359.34 181.114 1358.64 182.523 1357.58 183.727C1356.54 184.92 1355.18 185.852 1353.52 186.523C1351.88 187.182 1349.97 187.511 1347.81 187.511ZM1386.35 168.284L1379.71 168.693C1379.59 168.125 1379.35 167.614 1378.97 167.159C1378.6 166.693 1378.1 166.324 1377.49 166.051C1376.89 165.767 1376.17 165.625 1375.33 165.625C1374.2 165.625 1373.25 165.864 1372.48 166.341C1371.71 166.807 1371.32 167.432 1371.32 168.216C1371.32 168.841 1371.57 169.369 1372.07 169.801C1372.57 170.233 1373.43 170.58 1374.64 170.841L1379.38 171.795C1381.93 172.318 1383.83 173.159 1385.08 174.318C1386.33 175.477 1386.95 177 1386.95 178.886C1386.95 180.602 1386.44 182.108 1385.43 183.403C1384.43 184.699 1383.06 185.71 1381.31 186.438C1379.57 187.153 1377.56 187.511 1375.29 187.511C1371.83 187.511 1369.06 186.79 1367.01 185.347C1364.96 183.892 1363.76 181.915 1363.41 179.415L1370.55 179.04C1370.77 180.097 1371.29 180.903 1372.12 181.46C1372.95 182.006 1374.01 182.278 1375.31 182.278C1376.58 182.278 1377.6 182.034 1378.38 181.545C1379.16 181.045 1379.56 180.403 1379.57 179.619C1379.56 178.96 1379.28 178.42 1378.73 178C1378.19 177.568 1377.35 177.239 1376.21 177.011L1371.68 176.108C1369.12 175.597 1367.22 174.71 1365.97 173.449C1364.73 172.187 1364.11 170.58 1364.11 168.625C1364.11 166.943 1364.56 165.494 1365.47 164.278C1366.39 163.062 1367.68 162.125 1369.34 161.466C1371.01 160.807 1372.97 160.477 1375.21 160.477C1378.51 160.477 1381.12 161.176 1383.01 162.574C1384.92 163.972 1386.04 165.875 1386.35 168.284Z" fill="black"/>
<path d="M1152.03 550V515.091H1165.81C1168.45 515.091 1170.71 515.597 1172.57 516.608C1174.44 517.608 1175.86 519 1176.84 520.784C1177.82 522.557 1178.32 524.602 1178.32 526.92C1178.32 529.239 1177.82 531.284 1176.82 533.057C1175.82 534.83 1174.37 536.21 1172.47 537.199C1170.59 538.187 1168.3 538.682 1165.62 538.682H1156.84V532.767H1164.43C1165.85 532.767 1167.02 532.523 1167.94 532.034C1168.87 531.534 1169.56 530.847 1170.02 529.972C1170.48 529.085 1170.72 528.068 1170.72 526.92C1170.72 525.761 1170.48 524.75 1170.02 523.886C1169.56 523.011 1168.87 522.335 1167.94 521.858C1167.01 521.369 1165.82 521.125 1164.39 521.125H1159.41V550H1152.03ZM1182.98 550V523.818H1190.02V528.386H1190.29C1190.77 526.761 1191.57 525.534 1192.69 524.705C1193.82 523.864 1195.11 523.443 1196.58 523.443C1196.94 523.443 1197.33 523.466 1197.75 523.511C1198.17 523.557 1198.54 523.619 1198.86 523.699V530.142C1198.52 530.04 1198.05 529.949 1197.45 529.869C1196.85 529.79 1196.29 529.75 1195.79 529.75C1194.73 529.75 1193.77 529.983 1192.93 530.449C1192.1 530.903 1191.44 531.54 1190.95 532.358C1190.48 533.176 1190.24 534.119 1190.24 535.188V550H1182.98ZM1213.23 550.511C1210.58 550.511 1208.29 549.949 1206.36 548.824C1204.44 547.687 1202.95 546.108 1201.91 544.085C1200.86 542.051 1200.34 539.693 1200.34 537.011C1200.34 534.307 1200.86 531.943 1201.91 529.92C1202.95 527.886 1204.44 526.307 1206.36 525.182C1208.29 524.045 1210.58 523.477 1213.23 523.477C1215.88 523.477 1218.16 524.045 1220.08 525.182C1222.01 526.307 1223.5 527.886 1224.55 529.92C1225.59 531.943 1226.11 534.307 1226.11 537.011C1226.11 539.693 1225.59 542.051 1224.55 544.085C1223.5 546.108 1222.01 547.687 1220.08 548.824C1218.16 549.949 1215.88 550.511 1213.23 550.511ZM1213.26 544.886C1214.47 544.886 1215.47 544.545 1216.28 543.864C1217.09 543.17 1217.69 542.227 1218.1 541.034C1218.52 539.841 1218.73 538.483 1218.73 536.96C1218.73 535.438 1218.52 534.08 1218.1 532.886C1217.69 531.693 1217.09 530.75 1216.28 530.057C1215.47 529.364 1214.47 529.017 1213.26 529.017C1212.05 529.017 1211.02 529.364 1210.19 530.057C1209.38 530.75 1208.76 531.693 1208.34 532.886C1207.93 534.08 1207.72 535.438 1207.72 536.96C1207.72 538.483 1207.93 539.841 1208.34 541.034C1208.76 542.227 1209.38 543.17 1210.19 543.864C1211.02 544.545 1212.05 544.886 1213.26 544.886ZM1240.48 550.426C1238.49 550.426 1236.69 549.915 1235.08 548.892C1233.48 547.858 1232.2 546.341 1231.26 544.341C1230.33 542.33 1229.86 539.864 1229.86 536.943C1229.86 533.943 1230.35 531.449 1231.31 529.46C1232.28 527.46 1233.56 525.966 1235.16 524.977C1236.78 523.977 1238.55 523.477 1240.47 523.477C1241.93 523.477 1243.15 523.727 1244.13 524.227C1245.12 524.716 1245.91 525.33 1246.52 526.068C1247.13 526.795 1247.6 527.511 1247.91 528.216H1248.14V515.091H1255.38V550H1248.22V545.807H1247.91C1247.57 546.534 1247.09 547.256 1246.47 547.972C1245.85 548.676 1245.05 549.261 1244.06 549.727C1243.09 550.193 1241.89 550.426 1240.48 550.426ZM1242.78 544.648C1243.95 544.648 1244.94 544.33 1245.75 543.693C1246.57 543.045 1247.19 542.142 1247.62 540.983C1248.07 539.824 1248.29 538.466 1248.29 536.909C1248.29 535.352 1248.07 534 1247.64 532.852C1247.21 531.705 1246.59 530.818 1245.77 530.193C1244.95 529.568 1243.95 529.256 1242.78 529.256C1241.59 529.256 1240.59 529.58 1239.77 530.227C1238.95 530.875 1238.33 531.773 1237.91 532.92C1237.49 534.068 1237.28 535.398 1237.28 536.909C1237.28 538.432 1237.49 539.778 1237.91 540.949C1238.34 542.108 1238.96 543.017 1239.77 543.676C1240.59 544.324 1241.59 544.648 1242.78 544.648ZM1278.14 538.852V523.818H1285.4V550H1278.43V545.244H1278.16C1277.57 546.778 1276.58 548.011 1275.21 548.943C1273.85 549.875 1272.18 550.341 1270.21 550.341C1268.46 550.341 1266.92 549.943 1265.6 549.148C1264.27 548.352 1263.23 547.222 1262.48 545.756C1261.74 544.29 1261.36 542.534 1261.35 540.489V523.818H1268.61V539.193C1268.62 540.739 1269.04 541.96 1269.86 542.858C1270.67 543.756 1271.77 544.205 1273.15 544.205C1274.02 544.205 1274.84 544.006 1275.6 543.608C1276.36 543.199 1276.98 542.597 1277.44 541.801C1277.92 541.006 1278.15 540.023 1278.14 538.852ZM1303.04 550.511C1300.36 550.511 1298.05 549.943 1296.12 548.807C1294.2 547.659 1292.72 546.068 1291.69 544.034C1290.66 542 1290.15 539.659 1290.15 537.011C1290.15 534.33 1290.67 531.977 1291.7 529.955C1292.75 527.92 1294.23 526.335 1296.15 525.199C1298.07 524.051 1300.36 523.477 1303.01 523.477C1305.29 523.477 1307.29 523.892 1309.01 524.722C1310.72 525.551 1312.08 526.716 1313.08 528.216C1314.08 529.716 1314.63 531.477 1314.73 533.5H1307.88C1307.69 532.193 1307.18 531.142 1306.35 530.347C1305.53 529.54 1304.45 529.136 1303.12 529.136C1302 529.136 1301.02 529.443 1300.18 530.057C1299.35 530.659 1298.7 531.54 1298.23 532.699C1297.77 533.858 1297.53 535.261 1297.53 536.909C1297.53 538.58 1297.76 540 1298.22 541.17C1298.68 542.341 1299.34 543.233 1300.18 543.847C1301.02 544.46 1302 544.767 1303.12 544.767C1303.95 544.767 1304.7 544.597 1305.36 544.256C1306.03 543.915 1306.58 543.42 1307.01 542.773C1307.45 542.114 1307.74 541.324 1307.88 540.403H1314.73C1314.62 542.403 1314.07 544.165 1313.1 545.688C1312.13 547.199 1310.8 548.381 1309.09 549.233C1307.39 550.085 1305.37 550.511 1303.04 550.511ZM1331.31 550.511C1328.62 550.511 1326.3 549.966 1324.36 548.875C1322.43 547.773 1320.94 546.216 1319.89 544.205C1318.85 542.182 1318.33 539.79 1318.33 537.028C1318.33 534.335 1318.85 531.972 1319.89 529.938C1320.94 527.903 1322.41 526.318 1324.31 525.182C1326.22 524.045 1328.46 523.477 1331.02 523.477C1332.75 523.477 1334.36 523.756 1335.85 524.312C1337.35 524.858 1338.65 525.682 1339.77 526.784C1340.89 527.886 1341.77 529.273 1342.39 530.943C1343.02 532.602 1343.33 534.545 1343.33 536.773V538.767H1321.22V534.267H1336.5C1336.5 533.222 1336.27 532.295 1335.81 531.489C1335.36 530.682 1334.73 530.051 1333.92 529.597C1333.13 529.131 1332.2 528.898 1331.14 528.898C1330.04 528.898 1329.06 529.153 1328.21 529.665C1327.37 530.165 1326.71 530.841 1326.23 531.693C1325.76 532.534 1325.51 533.472 1325.5 534.506V538.784C1325.5 540.08 1325.74 541.199 1326.22 542.142C1326.71 543.085 1327.39 543.812 1328.28 544.324C1329.17 544.835 1330.22 545.091 1331.43 545.091C1332.24 545.091 1332.98 544.977 1333.65 544.75C1334.32 544.523 1334.89 544.182 1335.37 543.727C1335.85 543.273 1336.21 542.716 1336.46 542.057L1343.18 542.5C1342.84 544.114 1342.14 545.523 1341.08 546.727C1340.04 547.92 1338.68 548.852 1337.02 549.523C1335.38 550.182 1333.47 550.511 1331.31 550.511ZM1369.85 531.284L1363.21 531.693C1363.09 531.125 1362.85 530.614 1362.47 530.159C1362.1 529.693 1361.6 529.324 1360.99 529.051C1360.39 528.767 1359.67 528.625 1358.83 528.625C1357.7 528.625 1356.75 528.864 1355.98 529.341C1355.21 529.807 1354.82 530.432 1354.82 531.216C1354.82 531.841 1355.07 532.369 1355.57 532.801C1356.07 533.233 1356.93 533.58 1358.14 533.841L1362.88 534.795C1365.43 535.318 1367.33 536.159 1368.58 537.318C1369.83 538.477 1370.45 540 1370.45 541.886C1370.45 543.602 1369.94 545.108 1368.93 546.403C1367.93 547.699 1366.56 548.71 1364.81 549.438C1363.07 550.153 1361.06 550.511 1358.79 550.511C1355.33 550.511 1352.56 549.79 1350.51 548.347C1348.46 546.892 1347.26 544.915 1346.91 542.415L1354.05 542.04C1354.27 543.097 1354.79 543.903 1355.62 544.46C1356.45 545.006 1357.51 545.278 1358.81 545.278C1360.08 545.278 1361.1 545.034 1361.88 544.545C1362.66 544.045 1363.06 543.403 1363.07 542.619C1363.06 541.96 1362.78 541.42 1362.23 541C1361.69 540.568 1360.85 540.239 1359.71 540.011L1355.18 539.108C1352.62 538.597 1350.72 537.71 1349.47 536.449C1348.23 535.187 1347.61 533.58 1347.61 531.625C1347.61 529.943 1348.06 528.494 1348.97 527.278C1349.89 526.062 1351.18 525.125 1352.84 524.466C1354.51 523.807 1356.47 523.477 1358.71 523.477C1362.01 523.477 1364.62 524.176 1366.51 525.574C1368.42 526.972 1369.54 528.875 1369.85 531.284Z" fill="black"/>
<path d="M354.034 199V164.091H367.807C370.455 164.091 372.71 164.597 374.574 165.608C376.438 166.608 377.858 168 378.835 169.784C379.824 171.557 380.318 173.602 380.318 175.92C380.318 178.239 379.818 180.284 378.818 182.057C377.818 183.83 376.369 185.21 374.472 186.199C372.585 187.187 370.301 187.682 367.619 187.682H358.841V181.767H366.426C367.847 181.767 369.017 181.523 369.938 181.034C370.869 180.534 371.563 179.847 372.017 178.972C372.483 178.085 372.716 177.068 372.716 175.92C372.716 174.761 372.483 173.75 372.017 172.886C371.563 172.011 370.869 171.335 369.938 170.858C369.006 170.369 367.824 170.125 366.392 170.125H361.415V199H354.034ZM384.976 199V172.818H392.016V177.386H392.288C392.766 175.761 393.567 174.534 394.692 173.705C395.817 172.864 397.112 172.443 398.578 172.443C398.942 172.443 399.334 172.466 399.754 172.511C400.175 172.557 400.544 172.619 400.862 172.699V179.142C400.521 179.04 400.05 178.949 399.447 178.869C398.845 178.79 398.294 178.75 397.794 178.75C396.726 178.75 395.771 178.983 394.93 179.449C394.101 179.903 393.442 180.54 392.953 181.358C392.476 182.176 392.237 183.119 392.237 184.188V199H384.976ZM415.227 199.511C412.58 199.511 410.29 198.949 408.358 197.824C406.438 196.687 404.955 195.108 403.909 193.085C402.864 191.051 402.341 188.693 402.341 186.011C402.341 183.307 402.864 180.943 403.909 178.92C404.955 176.886 406.438 175.307 408.358 174.182C410.29 173.045 412.58 172.477 415.227 172.477C417.875 172.477 420.159 173.045 422.08 174.182C424.011 175.307 425.5 176.886 426.545 178.92C427.591 180.943 428.114 183.307 428.114 186.011C428.114 188.693 427.591 191.051 426.545 193.085C425.5 195.108 424.011 196.687 422.08 197.824C420.159 198.949 417.875 199.511 415.227 199.511ZM415.261 193.886C416.466 193.886 417.472 193.545 418.278 192.864C419.085 192.17 419.693 191.227 420.102 190.034C420.523 188.841 420.733 187.483 420.733 185.96C420.733 184.438 420.523 183.08 420.102 181.886C419.693 180.693 419.085 179.75 418.278 179.057C417.472 178.364 416.466 178.017 415.261 178.017C414.045 178.017 413.023 178.364 412.193 179.057C411.375 179.75 410.756 180.693 410.335 181.886C409.926 183.08 409.722 184.438 409.722 185.96C409.722 187.483 409.926 188.841 410.335 190.034C410.756 191.227 411.375 192.17 412.193 192.864C413.023 193.545 414.045 193.886 415.261 193.886ZM442.483 199.426C440.494 199.426 438.693 198.915 437.08 197.892C435.477 196.858 434.205 195.341 433.261 193.341C432.33 191.33 431.864 188.864 431.864 185.943C431.864 182.943 432.347 180.449 433.312 178.46C434.278 176.46 435.563 174.966 437.165 173.977C438.778 172.977 440.545 172.477 442.466 172.477C443.932 172.477 445.153 172.727 446.131 173.227C447.119 173.716 447.915 174.33 448.517 175.068C449.131 175.795 449.597 176.511 449.915 177.216H450.136V164.091H457.381V199H450.222V194.807H449.915C449.574 195.534 449.091 196.256 448.466 196.972C447.852 197.676 447.051 198.261 446.062 198.727C445.085 199.193 443.892 199.426 442.483 199.426ZM444.784 193.648C445.955 193.648 446.943 193.33 447.75 192.693C448.568 192.045 449.193 191.142 449.625 189.983C450.068 188.824 450.29 187.466 450.29 185.909C450.29 184.352 450.074 183 449.642 181.852C449.21 180.705 448.585 179.818 447.767 179.193C446.949 178.568 445.955 178.256 444.784 178.256C443.591 178.256 442.585 178.58 441.767 179.227C440.949 179.875 440.33 180.773 439.909 181.92C439.489 183.068 439.278 184.398 439.278 185.909C439.278 187.432 439.489 188.778 439.909 189.949C440.341 191.108 440.96 192.017 441.767 192.676C442.585 193.324 443.591 193.648 444.784 193.648ZM480.141 187.852V172.818H487.402V199H480.43V194.244H480.158C479.567 195.778 478.584 197.011 477.209 197.943C475.845 198.875 474.18 199.341 472.214 199.341C470.464 199.341 468.925 198.943 467.595 198.148C466.266 197.352 465.226 196.222 464.476 194.756C463.737 193.29 463.362 191.534 463.351 189.489V172.818H470.612V188.193C470.624 189.739 471.038 190.96 471.857 191.858C472.675 192.756 473.771 193.205 475.146 193.205C476.021 193.205 476.839 193.006 477.601 192.608C478.362 192.199 478.976 191.597 479.442 190.801C479.919 190.006 480.152 189.023 480.141 187.852ZM505.04 199.511C502.358 199.511 500.051 198.943 498.119 197.807C496.199 196.659 494.722 195.068 493.688 193.034C492.665 191 492.153 188.659 492.153 186.011C492.153 183.33 492.67 180.977 493.705 178.955C494.75 176.92 496.233 175.335 498.153 174.199C500.074 173.051 502.358 172.477 505.006 172.477C507.29 172.477 509.29 172.892 511.006 173.722C512.722 174.551 514.08 175.716 515.08 177.216C516.08 178.716 516.631 180.477 516.733 182.5H509.881C509.688 181.193 509.176 180.142 508.347 179.347C507.528 178.54 506.455 178.136 505.125 178.136C504 178.136 503.017 178.443 502.176 179.057C501.347 179.659 500.699 180.54 500.233 181.699C499.767 182.858 499.534 184.261 499.534 185.909C499.534 187.58 499.761 189 500.216 190.17C500.682 191.341 501.335 192.233 502.176 192.847C503.017 193.46 504 193.767 505.125 193.767C505.955 193.767 506.699 193.597 507.358 193.256C508.028 192.915 508.58 192.42 509.011 191.773C509.455 191.114 509.744 190.324 509.881 189.403H516.733C516.619 191.403 516.074 193.165 515.097 194.688C514.131 196.199 512.795 197.381 511.091 198.233C509.386 199.085 507.369 199.511 505.04 199.511ZM533.314 199.511C530.621 199.511 528.303 198.966 526.359 197.875C524.428 196.773 522.939 195.216 521.893 193.205C520.848 191.182 520.325 188.79 520.325 186.028C520.325 183.335 520.848 180.972 521.893 178.938C522.939 176.903 524.411 175.318 526.308 174.182C528.217 173.045 530.456 172.477 533.024 172.477C534.751 172.477 536.359 172.756 537.848 173.312C539.348 173.858 540.655 174.682 541.768 175.784C542.893 176.886 543.768 178.273 544.393 179.943C545.018 181.602 545.331 183.545 545.331 185.773V187.767H523.223V183.267H538.496C538.496 182.222 538.268 181.295 537.814 180.489C537.359 179.682 536.729 179.051 535.922 178.597C535.126 178.131 534.2 177.898 533.143 177.898C532.041 177.898 531.064 178.153 530.212 178.665C529.371 179.165 528.712 179.841 528.234 180.693C527.757 181.534 527.513 182.472 527.501 183.506V187.784C527.501 189.08 527.74 190.199 528.217 191.142C528.706 192.085 529.393 192.812 530.28 193.324C531.166 193.835 532.217 194.091 533.433 194.091C534.24 194.091 534.979 193.977 535.649 193.75C536.32 193.523 536.893 193.182 537.371 192.727C537.848 192.273 538.212 191.716 538.462 191.057L545.178 191.5C544.837 193.114 544.138 194.523 543.081 195.727C542.036 196.92 540.683 197.852 539.024 198.523C537.376 199.182 535.473 199.511 533.314 199.511ZM571.854 180.284L565.206 180.693C565.092 180.125 564.848 179.614 564.473 179.159C564.098 178.693 563.604 178.324 562.99 178.051C562.388 177.767 561.666 177.625 560.825 177.625C559.7 177.625 558.751 177.864 557.979 178.341C557.206 178.807 556.82 179.432 556.82 180.216C556.82 180.841 557.07 181.369 557.57 181.801C558.07 182.233 558.928 182.58 560.143 182.841L564.882 183.795C567.428 184.318 569.325 185.159 570.575 186.318C571.825 187.477 572.45 189 572.45 190.886C572.45 192.602 571.945 194.108 570.933 195.403C569.933 196.699 568.558 197.71 566.808 198.438C565.07 199.153 563.064 199.511 560.791 199.511C557.325 199.511 554.564 198.79 552.507 197.347C550.462 195.892 549.263 193.915 548.911 191.415L556.053 191.04C556.268 192.097 556.791 192.903 557.621 193.46C558.45 194.006 559.513 194.278 560.808 194.278C562.081 194.278 563.104 194.034 563.876 193.545C564.661 193.045 565.058 192.403 565.07 191.619C565.058 190.96 564.78 190.42 564.234 190C563.689 189.568 562.848 189.239 561.712 189.011L557.178 188.108C554.621 187.597 552.717 186.71 551.467 185.449C550.229 184.187 549.609 182.58 549.609 180.625C549.609 178.943 550.064 177.494 550.973 176.278C551.893 175.062 553.183 174.125 554.842 173.466C556.513 172.807 558.467 172.477 560.706 172.477C564.013 172.477 566.615 173.176 568.513 174.574C570.422 175.972 571.536 177.875 571.854 180.284Z" fill="black"/>
<rect x="3" y="308" width="272" height="103" fill="black" stroke="black" stroke-width="6"/>
<path d="M96.5966 342.091H103.977V364.761C103.977 367.307 103.369 369.534 102.153 371.443C100.949 373.352 99.2614 374.841 97.0909 375.909C94.9205 376.966 92.392 377.494 89.5057 377.494C86.608 377.494 84.0739 376.966 81.9034 375.909C79.733 374.841 78.0455 373.352 76.8409 371.443C75.6364 369.534 75.0341 367.307 75.0341 364.761V342.091H82.4148V364.131C82.4148 365.46 82.7045 366.642 83.2841 367.676C83.875 368.71 84.7045 369.523 85.7727 370.114C86.8409 370.705 88.0852 371 89.5057 371C90.9375 371 92.1818 370.705 93.2386 370.114C94.3068 369.523 95.1307 368.71 95.7102 367.676C96.3011 366.642 96.5966 365.46 96.5966 364.131V342.091ZM116.067 377H108.158L120.209 342.091H129.72L141.754 377H133.845L125.101 350.068H124.828L116.067 377ZM115.572 363.278H134.254V369.04H115.572V363.278ZM145.956 377V342.091H159.729C162.365 342.091 164.615 342.562 166.479 343.506C168.354 344.437 169.78 345.761 170.757 347.477C171.746 349.182 172.24 351.187 172.24 353.494C172.24 355.812 171.74 357.807 170.74 359.477C169.74 361.136 168.291 362.409 166.393 363.295C164.507 364.182 162.223 364.625 159.541 364.625H150.32V358.693H158.348C159.757 358.693 160.928 358.5 161.859 358.114C162.791 357.727 163.484 357.148 163.939 356.375C164.405 355.602 164.638 354.642 164.638 353.494C164.638 352.335 164.405 351.358 163.939 350.562C163.484 349.767 162.786 349.165 161.842 348.756C160.911 348.335 159.734 348.125 158.314 348.125H153.337V377H145.956ZM164.808 361.114L173.484 377H165.337L156.848 361.114H164.808ZM176.126 348.176V342.091H204.797V348.176H194.109V377H186.814V348.176H176.126Z" fill="white"/>
</svg>
