<svg width="1075" height="1081" viewBox="0 0 1075 1081" fill="none" xmlns="http://www.w3.org/2000/svg">
<rect x="309" y="714" width="687" height="94" stroke="#69A63A" stroke-width="6"/>
<path d="M619.682 759.284L613.034 759.693C612.92 759.125 612.676 758.614 612.301 758.159C611.926 757.693 611.432 757.324 610.818 757.051C610.216 756.767 609.494 756.625 608.653 756.625C607.528 756.625 606.58 756.864 605.807 757.341C605.034 757.807 604.648 758.432 604.648 759.216C604.648 759.841 604.898 760.369 605.398 760.801C605.898 761.233 606.756 761.58 607.972 761.841L612.71 762.795C615.256 763.318 617.153 764.159 618.403 765.318C619.653 766.477 620.278 768 620.278 769.886C620.278 771.602 619.773 773.108 618.761 774.403C617.761 775.699 616.386 776.71 614.636 777.438C612.898 778.153 610.892 778.511 608.619 778.511C605.153 778.511 602.392 777.79 600.335 776.347C598.29 774.892 597.091 772.915 596.739 770.415L603.881 770.04C604.097 771.097 604.619 771.903 605.449 772.46C606.278 773.006 607.341 773.278 608.636 773.278C609.909 773.278 610.932 773.034 611.705 772.545C612.489 772.045 612.886 771.403 612.898 770.619C612.886 769.96 612.608 769.42 612.062 769C611.517 768.568 610.676 768.239 609.54 768.011L605.006 767.108C602.449 766.597 600.545 765.71 599.295 764.449C598.057 763.187 597.438 761.58 597.438 759.625C597.438 757.943 597.892 756.494 598.801 755.278C599.722 754.062 601.011 753.125 602.67 752.466C604.341 751.807 606.295 751.477 608.534 751.477C611.841 751.477 614.443 752.176 616.341 753.574C618.25 754.972 619.364 756.875 619.682 759.284ZM636.783 778.511C634.089 778.511 631.771 777.966 629.828 776.875C627.896 775.773 626.408 774.216 625.362 772.205C624.317 770.182 623.794 767.79 623.794 765.028C623.794 762.335 624.317 759.972 625.362 757.938C626.408 755.903 627.879 754.318 629.777 753.182C631.686 752.045 633.925 751.477 636.493 751.477C638.22 751.477 639.828 751.756 641.317 752.312C642.817 752.858 644.124 753.682 645.237 754.784C646.362 755.886 647.237 757.273 647.862 758.943C648.487 760.602 648.8 762.545 648.8 764.773V766.767H626.692V762.267H641.964C641.964 761.222 641.737 760.295 641.283 759.489C640.828 758.682 640.197 758.051 639.391 757.597C638.595 757.131 637.669 756.898 636.612 756.898C635.51 756.898 634.533 757.153 633.68 757.665C632.839 758.165 632.18 758.841 631.703 759.693C631.226 760.534 630.982 761.472 630.97 762.506V766.784C630.97 768.08 631.209 769.199 631.686 770.142C632.175 771.085 632.862 771.812 633.749 772.324C634.635 772.835 635.686 773.091 636.902 773.091C637.709 773.091 638.447 772.977 639.118 772.75C639.788 772.523 640.362 772.182 640.839 771.727C641.317 771.273 641.68 770.716 641.93 770.057L648.646 770.5C648.305 772.114 647.607 773.523 646.55 774.727C645.504 775.92 644.152 776.852 642.493 777.523C640.845 778.182 638.942 778.511 636.783 778.511ZM653.675 778V743.091H661.055V771.915H676.021V778H653.675ZM680.176 771.864V766.051L694.75 743.091H699.761V751.136H696.795L687.608 765.676V765.949H708.318V771.864H680.176ZM696.932 778V770.091L697.068 767.517V743.091H703.989V778H696.932Z" fill="#69A63A"/>
<rect x="457" y="428" width="375" height="167" stroke="#2C6AB1" stroke-width="6"/>
<path d="M592.341 494.091L600.778 520.614H601.102L609.557 494.091H617.739L605.705 529H596.193L584.142 494.091H592.341ZM621.94 494.091H631.043L640.656 517.545H641.065L650.679 494.091H659.781V529H652.622V506.278H652.332L643.298 528.83H638.423L629.389 506.193H629.099V529H621.94V494.091ZM665.862 494.091H674.964L684.578 517.545H684.987L694.601 494.091H703.703V529H696.544V506.278H696.254L687.22 528.83H682.345L673.311 506.193H673.021V529H665.862V494.091Z" fill="#2C6AB1"/>
<path d="M0 858L999 858" stroke="black" stroke-opacity="0.4" stroke-width="6" stroke-dasharray="16 16"/>
<path d="M1.66992 808.898H6.38086C6.60938 811.096 8.40234 812.361 11.2852 812.361C14.0273 812.361 15.7676 811.043 15.7676 808.986C15.7676 807.264 14.6426 806.35 11.707 805.699L9.07031 805.084C4.48242 804.047 2.23242 801.621 2.23242 797.859C2.23242 793.131 5.73047 790.125 11.2148 790.125C16.5234 790.125 20.0918 793.096 20.25 797.631H15.5391C15.3457 795.539 13.7461 794.256 11.2676 794.256C8.75391 794.256 7.18945 795.434 7.18945 797.332C7.18945 799.125 8.31445 800.109 11.0566 800.707L13.6582 801.305C18.5625 802.395 20.707 804.592 20.707 808.477C20.707 813.486 17.1211 816.51 11.1973 816.51C5.44922 816.51 1.8457 813.645 1.66992 808.898ZM43.1367 805.26C43.1367 812.309 39.4629 816.51 33.3809 816.51C27.2988 816.51 23.625 812.309 23.625 805.26V801.375C23.625 794.326 27.2988 790.125 33.3809 790.125C39.4629 790.125 43.1367 794.326 43.1367 801.375V805.26ZM33.3809 812.08C36.4395 812.08 38.0566 809.777 38.0566 805.207V801.428C38.0566 796.857 36.4395 794.555 33.3809 794.555C30.3223 794.555 28.7051 796.857 28.7051 801.428V805.207C28.7051 809.777 30.3223 812.08 33.3809 812.08ZM53.2969 816H48.2871V790.635H64.3184V794.941H53.2969V801.814H63.3164V805.945H53.2969V816ZM80.3848 816H75.3926V794.941H68.1328V790.635H87.6445V794.941H80.3848V816ZM100.283 801.059H100.002L97.3477 816H92.9531L89.0156 790.635H93.5508L94.5703 799.389L95.5723 809.408H95.8535L98.209 796.436H102.076L104.432 809.408H104.713L105.715 799.389L106.734 790.635H111.27L107.332 816H102.938L100.283 801.059ZM119.443 805.893H124.98L122.344 795.609H122.115L119.443 805.893ZM127.564 816L125.982 809.795H118.441L116.824 816H111.832L119.443 790.635H125.35L132.961 816H127.564ZM141.012 794.713V802.834H144.545C147.375 802.834 149.062 801.305 149.062 798.738C149.062 796.225 147.41 794.713 144.598 794.713H141.012ZM144.633 806.666H141.012V816H136.037V790.635H145.248C150.768 790.635 154.143 793.693 154.143 798.721C154.143 802.008 152.402 804.75 149.643 805.84L154.723 816H149.098L144.633 806.666ZM175.254 811.693V816H159.258V790.635H175.254V794.941H164.268V801.182H174.604V805.172H164.268V811.693H175.254Z" fill="black" fill-opacity="0.4"/>
<path d="M20.1797 920H15.2754V909.277H6.97852V920H2.07422V894.635H6.97852V904.971H15.2754V894.635H20.1797V920ZM30.4277 909.893H35.9648L33.3281 899.609H33.0996L30.4277 909.893ZM38.5488 920L36.9668 913.795H29.4258L27.8086 920H22.8164L30.4277 894.635H36.334L43.9453 920H38.5488ZM51.9961 898.713V906.834H55.5293C58.3594 906.834 60.0469 905.305 60.0469 902.738C60.0469 900.225 58.3945 898.713 55.582 898.713H51.9961ZM55.6172 910.666H51.9961V920H47.0215V894.635H56.2324C61.752 894.635 65.127 897.693 65.127 902.721C65.127 906.008 63.3867 908.75 60.627 909.84L65.707 920H60.082L55.6172 910.666ZM68.8887 894.635H77.0273C84.1289 894.635 87.8379 898.924 87.8379 907.133C87.8379 915.641 84.1816 920 77.0273 920H68.8887V894.635ZM73.8809 898.941V915.693H76.3418C80.7363 915.693 82.7402 913.057 82.7402 907.221C82.7402 901.631 80.666 898.941 76.3418 898.941H73.8809ZM100.283 905.059H100.002L97.3477 920H92.9531L89.0156 894.635H93.5508L94.5703 903.389L95.5723 913.408H95.8535L98.209 900.436H102.076L104.432 913.408H104.713L105.715 903.389L106.734 894.635H111.27L107.332 920H102.938L100.283 905.059ZM119.443 909.893H124.98L122.344 899.609H122.115L119.443 909.893ZM127.564 920L125.982 913.795H118.441L116.824 920H111.832L119.443 894.635H125.35L132.961 920H127.564ZM141.012 898.713V906.834H144.545C147.375 906.834 149.062 905.305 149.062 902.738C149.062 900.225 147.41 898.713 144.598 898.713H141.012ZM144.633 910.666H141.012V920H136.037V894.635H145.248C150.768 894.635 154.143 897.693 154.143 902.721C154.143 906.008 152.402 908.75 149.643 909.84L154.723 920H149.098L144.633 910.666ZM175.254 915.693V920H159.258V894.635H175.254V898.941H164.268V905.182H174.604V909.172H164.268V915.693H175.254Z" fill="black" fill-opacity="0.4"/>
<rect x="495" y="975" width="316" height="103" fill="black" stroke="black" stroke-width="6"/>
<path d="M553.034 1044V1009.09H576.557V1015.18H560.415V1023.49H575.347V1029.58H560.415V1037.91H576.625V1044H553.034ZM596.214 1017.82V1023.27H580.447V1017.82H596.214ZM584.027 1011.55H591.288V1035.95C591.288 1036.62 591.391 1037.15 591.595 1037.52C591.8 1037.89 592.084 1038.14 592.447 1038.29C592.822 1038.44 593.254 1038.51 593.743 1038.51C594.084 1038.51 594.425 1038.48 594.766 1038.43C595.107 1038.36 595.368 1038.31 595.55 1038.27L596.692 1043.68C596.328 1043.79 595.817 1043.92 595.158 1044.07C594.499 1044.23 593.697 1044.32 592.754 1044.36C591.004 1044.43 589.47 1044.19 588.152 1043.66C586.845 1043.12 585.828 1042.3 585.101 1041.17C584.374 1040.05 584.016 1038.62 584.027 1036.91V1011.55ZM608.768 1028.86V1044H601.507V1009.09H608.564V1022.44H608.871C609.462 1020.89 610.416 1019.68 611.734 1018.81C613.053 1017.92 614.706 1017.48 616.695 1017.48C618.513 1017.48 620.098 1017.88 621.45 1018.67C622.814 1019.45 623.871 1020.59 624.621 1022.06C625.382 1023.53 625.757 1025.28 625.746 1027.33V1044H618.484V1028.62C618.496 1027.01 618.087 1025.76 617.257 1024.86C616.439 1023.96 615.291 1023.51 613.814 1023.51C612.825 1023.51 611.95 1023.72 611.189 1024.14C610.439 1024.56 609.848 1025.18 609.416 1025.98C608.996 1026.78 608.78 1027.74 608.768 1028.86ZM643.392 1044.51C640.699 1044.51 638.381 1043.97 636.438 1042.88C634.506 1041.77 633.017 1040.22 631.972 1038.2C630.926 1036.18 630.403 1033.79 630.403 1031.03C630.403 1028.34 630.926 1025.97 631.972 1023.94C633.017 1021.9 634.489 1020.32 636.386 1019.18C638.295 1018.05 640.534 1017.48 643.102 1017.48C644.83 1017.48 646.438 1017.76 647.926 1018.31C649.426 1018.86 650.733 1019.68 651.847 1020.78C652.972 1021.89 653.847 1023.27 654.472 1024.94C655.097 1026.6 655.409 1028.55 655.409 1030.77V1032.77H633.301V1028.27H648.574C648.574 1027.22 648.347 1026.3 647.892 1025.49C647.438 1024.68 646.807 1024.05 646 1023.6C645.205 1023.13 644.278 1022.9 643.222 1022.9C642.119 1022.9 641.142 1023.15 640.29 1023.66C639.449 1024.16 638.79 1024.84 638.312 1025.69C637.835 1026.53 637.591 1027.47 637.58 1028.51V1032.78C637.58 1034.08 637.818 1035.2 638.295 1036.14C638.784 1037.09 639.472 1037.81 640.358 1038.32C641.244 1038.84 642.295 1039.09 643.511 1039.09C644.318 1039.09 645.057 1038.98 645.727 1038.75C646.398 1038.52 646.972 1038.18 647.449 1037.73C647.926 1037.27 648.29 1036.72 648.54 1036.06L655.256 1036.5C654.915 1038.11 654.216 1039.52 653.159 1040.73C652.114 1041.92 650.761 1042.85 649.102 1043.52C647.455 1044.18 645.551 1044.51 643.392 1044.51ZM660.148 1044V1017.82H667.188V1022.39H667.46C667.938 1020.76 668.739 1019.53 669.864 1018.7C670.989 1017.86 672.284 1017.44 673.75 1017.44C674.114 1017.44 674.506 1017.47 674.926 1017.51C675.347 1017.56 675.716 1017.62 676.034 1017.7V1024.14C675.693 1024.04 675.222 1023.95 674.619 1023.87C674.017 1023.79 673.466 1023.75 672.966 1023.75C671.898 1023.75 670.943 1023.98 670.102 1024.45C669.273 1024.9 668.614 1025.54 668.125 1026.36C667.648 1027.18 667.409 1028.12 667.409 1029.19V1044H660.148ZM687.05 1028.86V1044H679.788V1017.82H686.709V1022.44H687.016C687.595 1020.91 688.567 1019.71 689.93 1018.82C691.294 1017.93 692.947 1017.48 694.891 1017.48C696.709 1017.48 698.294 1017.88 699.646 1018.67C700.999 1019.47 702.05 1020.6 702.8 1022.08C703.55 1023.55 703.925 1025.3 703.925 1027.33V1044H696.663V1028.62C696.675 1027.02 696.266 1025.77 695.436 1024.88C694.607 1023.97 693.464 1023.51 692.01 1023.51C691.033 1023.51 690.169 1023.72 689.419 1024.14C688.68 1024.56 688.101 1025.18 687.68 1025.98C687.271 1026.78 687.061 1027.74 687.05 1028.86ZM721.58 1044.51C718.886 1044.51 716.568 1043.97 714.625 1042.88C712.693 1041.77 711.205 1040.22 710.159 1038.2C709.114 1036.18 708.591 1033.79 708.591 1031.03C708.591 1028.34 709.114 1025.97 710.159 1023.94C711.205 1021.9 712.676 1020.32 714.574 1019.18C716.483 1018.05 718.722 1017.48 721.29 1017.48C723.017 1017.48 724.625 1017.76 726.114 1018.31C727.614 1018.86 728.92 1019.68 730.034 1020.78C731.159 1021.89 732.034 1023.27 732.659 1024.94C733.284 1026.6 733.597 1028.55 733.597 1030.77V1032.77H711.489V1028.27H726.761C726.761 1027.22 726.534 1026.3 726.08 1025.49C725.625 1024.68 724.994 1024.05 724.188 1023.6C723.392 1023.13 722.466 1022.9 721.409 1022.9C720.307 1022.9 719.33 1023.15 718.477 1023.66C717.636 1024.16 716.977 1024.84 716.5 1025.69C716.023 1026.53 715.778 1027.47 715.767 1028.51V1032.78C715.767 1034.08 716.006 1035.2 716.483 1036.14C716.972 1037.09 717.659 1037.81 718.545 1038.32C719.432 1038.84 720.483 1039.09 721.699 1039.09C722.506 1039.09 723.244 1038.98 723.915 1038.75C724.585 1038.52 725.159 1038.18 725.636 1037.73C726.114 1037.27 726.477 1036.72 726.727 1036.06L733.443 1036.5C733.102 1038.11 732.403 1039.52 731.347 1040.73C730.301 1041.92 728.949 1042.85 727.29 1043.52C725.642 1044.18 723.739 1044.51 721.58 1044.51ZM752.261 1017.82V1023.27H736.494V1017.82H752.261ZM740.074 1011.55H747.335V1035.95C747.335 1036.62 747.438 1037.15 747.642 1037.52C747.847 1037.89 748.131 1038.14 748.494 1038.29C748.869 1038.44 749.301 1038.51 749.79 1038.51C750.131 1038.51 750.472 1038.48 750.812 1038.43C751.153 1038.36 751.415 1038.31 751.597 1038.27L752.739 1043.68C752.375 1043.79 751.864 1043.92 751.205 1044.07C750.545 1044.23 749.744 1044.32 748.801 1044.36C747.051 1044.43 745.517 1044.19 744.199 1043.66C742.892 1043.12 741.875 1042.3 741.148 1041.17C740.42 1040.05 740.063 1038.62 740.074 1036.91V1011.55Z" fill="white"/>
<path d="M250 153L250 1031" stroke="black" stroke-width="6"/>
<path d="M653 811L635.679 841L670.321 841L653 811ZM656 972L656 838L650 838L650 972L656 972Z" fill="black"/>
<path d="M645 598L627.679 628L662.321 628L645 598ZM648 711L648 625L642 625L642 711L648 711Z" fill="black"/>
<path d="M645 334L627.679 364L662.321 364L645 334ZM648 425L648 361L642 361L642 425L648 425Z" fill="black"/>
<path d="M709.869 925V895.909H715.139V908.224H728.619V895.909H733.903V925H728.619V912.642H715.139V925H709.869ZM745.686 925.44C744.304 925.44 743.058 925.194 741.95 924.702C740.852 924.2 739.981 923.461 739.337 922.486C738.702 921.51 738.385 920.308 738.385 918.878C738.385 917.647 738.612 916.629 739.067 915.824C739.521 915.019 740.142 914.375 740.928 913.892C741.714 913.409 742.599 913.045 743.584 912.798C744.578 912.543 745.606 912.358 746.666 912.244C747.945 912.112 748.982 911.993 749.777 911.889C750.572 911.776 751.15 911.605 751.51 911.378C751.879 911.141 752.064 910.777 752.064 910.284V910.199C752.064 909.129 751.747 908.3 751.112 907.713C750.478 907.126 749.564 906.832 748.371 906.832C747.111 906.832 746.112 907.107 745.374 907.656C744.644 908.205 744.152 908.854 743.896 909.602L739.095 908.92C739.474 907.595 740.099 906.487 740.97 905.597C741.841 904.697 742.907 904.025 744.166 903.58C745.426 903.125 746.818 902.898 748.342 902.898C749.393 902.898 750.44 903.021 751.482 903.267C752.523 903.513 753.475 903.92 754.337 904.489C755.198 905.047 755.89 905.81 756.411 906.776C756.941 907.741 757.206 908.949 757.206 910.398V925H752.263V922.003H752.092C751.78 922.609 751.339 923.177 750.771 923.707C750.213 924.228 749.507 924.65 748.655 924.972C747.812 925.284 746.822 925.44 745.686 925.44ZM747.021 921.662C748.054 921.662 748.948 921.458 749.706 921.051C750.464 920.634 751.046 920.085 751.453 919.403C751.87 918.722 752.078 917.978 752.078 917.173V914.602C751.917 914.735 751.643 914.858 751.254 914.972C750.875 915.085 750.449 915.185 749.976 915.27C749.502 915.355 749.034 915.431 748.57 915.497C748.106 915.563 747.703 915.62 747.362 915.668C746.595 915.772 745.909 915.942 745.303 916.179C744.696 916.416 744.218 916.747 743.868 917.173C743.518 917.59 743.342 918.13 743.342 918.793C743.342 919.74 743.688 920.455 744.379 920.938C745.071 921.42 745.951 921.662 747.021 921.662ZM762.376 925V903.182H767.362V906.818H767.589C767.987 905.559 768.669 904.588 769.635 903.906C770.61 903.215 771.723 902.869 772.973 902.869C773.257 902.869 773.574 902.884 773.925 902.912C774.285 902.931 774.583 902.964 774.82 903.011V907.741C774.602 907.666 774.256 907.599 773.783 907.543C773.319 907.476 772.869 907.443 772.433 907.443C771.496 907.443 770.653 907.647 769.905 908.054C769.166 908.452 768.584 909.006 768.158 909.716C767.732 910.426 767.518 911.245 767.518 912.173V925H762.376ZM785.434 925.384C783.72 925.384 782.186 924.943 780.832 924.062C779.478 923.182 778.407 921.903 777.621 920.227C776.835 918.551 776.442 916.515 776.442 914.119C776.442 911.695 776.84 909.65 777.636 907.983C778.441 906.307 779.525 905.043 780.888 904.19C782.252 903.329 783.772 902.898 785.448 902.898C786.727 902.898 787.778 903.116 788.602 903.551C789.425 903.977 790.079 904.493 790.562 905.099C791.045 905.696 791.419 906.259 791.684 906.79H791.897V895.909H797.053V925H791.996V921.562H791.684C791.419 922.093 791.035 922.656 790.533 923.253C790.031 923.84 789.369 924.342 788.545 924.759C787.721 925.175 786.684 925.384 785.434 925.384ZM786.869 921.165C787.958 921.165 788.886 920.871 789.653 920.284C790.42 919.687 791.002 918.859 791.4 917.798C791.798 916.738 791.996 915.502 791.996 914.091C791.996 912.68 791.798 911.454 791.4 910.412C791.012 909.37 790.434 908.561 789.667 907.983C788.909 907.405 787.977 907.116 786.869 907.116C785.723 907.116 784.766 907.415 783.999 908.011C783.232 908.608 782.655 909.432 782.266 910.483C781.878 911.534 781.684 912.737 781.684 914.091C781.684 915.455 781.878 916.671 782.266 917.741C782.664 918.802 783.246 919.64 784.013 920.256C784.79 920.862 785.742 921.165 786.869 921.165ZM807.036 925L800.871 903.182H806.112L809.947 918.523H810.146L814.067 903.182H819.251L823.172 918.438H823.385L827.163 903.182H832.419L826.24 925H820.885L816.794 910.256H816.496L812.405 925H807.036ZM842.288 925.44C840.905 925.44 839.66 925.194 838.552 924.702C837.453 924.2 836.582 923.461 835.938 922.486C835.304 921.51 834.987 920.308 834.987 918.878C834.987 917.647 835.214 916.629 835.668 915.824C836.123 915.019 836.743 914.375 837.529 913.892C838.315 913.409 839.201 913.045 840.185 912.798C841.18 912.543 842.207 912.358 843.268 912.244C844.546 912.112 845.583 911.993 846.379 911.889C847.174 911.776 847.752 911.605 848.112 911.378C848.481 911.141 848.665 910.777 848.665 910.284V910.199C848.665 909.129 848.348 908.3 847.714 907.713C847.079 907.126 846.165 906.832 844.972 906.832C843.713 906.832 842.714 907.107 841.975 907.656C841.246 908.205 840.754 908.854 840.498 909.602L835.697 908.92C836.076 907.595 836.701 906.487 837.572 905.597C838.443 904.697 839.508 904.025 840.768 903.58C842.027 903.125 843.419 902.898 844.944 902.898C845.995 902.898 847.041 903.021 848.083 903.267C849.125 903.513 850.076 903.92 850.938 904.489C851.8 905.047 852.491 905.81 853.012 906.776C853.542 907.741 853.808 908.949 853.808 910.398V925H848.864V922.003H848.694C848.381 922.609 847.941 923.177 847.373 923.707C846.814 924.228 846.109 924.65 845.256 924.972C844.414 925.284 843.424 925.44 842.288 925.44ZM843.623 921.662C844.655 921.662 845.55 921.458 846.308 921.051C847.065 920.634 847.647 920.085 848.055 919.403C848.471 918.722 848.68 917.978 848.68 917.173V914.602C848.519 914.735 848.244 914.858 847.856 914.972C847.477 915.085 847.051 915.185 846.577 915.27C846.104 915.355 845.635 915.431 845.171 915.497C844.707 915.563 844.305 915.62 843.964 915.668C843.197 915.772 842.51 915.942 841.904 916.179C841.298 916.416 840.82 916.747 840.469 917.173C840.119 917.59 839.944 918.13 839.944 918.793C839.944 919.74 840.29 920.455 840.981 920.938C841.672 921.42 842.553 921.662 843.623 921.662ZM858.978 925V903.182H863.964V906.818H864.191C864.589 905.559 865.271 904.588 866.237 903.906C867.212 903.215 868.325 902.869 869.575 902.869C869.859 902.869 870.176 902.884 870.526 902.912C870.886 902.931 871.184 902.964 871.421 903.011V907.741C871.203 907.666 870.858 907.599 870.384 907.543C869.92 907.476 869.47 907.443 869.035 907.443C868.097 907.443 867.254 907.647 866.506 908.054C865.768 908.452 865.185 909.006 864.759 909.716C864.333 910.426 864.12 911.245 864.12 912.173V925H858.978ZM883.598 925.426C881.411 925.426 879.521 924.972 877.93 924.062C876.349 923.144 875.132 921.847 874.28 920.17C873.428 918.485 873.001 916.501 873.001 914.219C873.001 911.974 873.428 910.005 874.28 908.31C875.142 906.605 876.344 905.279 877.888 904.332C879.431 903.376 881.245 902.898 883.328 902.898C884.673 902.898 885.942 903.116 887.135 903.551C888.338 903.977 889.398 904.64 890.317 905.54C891.245 906.439 891.974 907.585 892.504 908.977C893.035 910.36 893.3 912.008 893.3 913.92V915.497H875.416V912.031H888.371C888.361 911.046 888.148 910.17 887.732 909.403C887.315 908.627 886.732 908.016 885.984 907.571C885.246 907.126 884.384 906.903 883.399 906.903C882.348 906.903 881.425 907.159 880.629 907.67C879.834 908.172 879.214 908.835 878.768 909.659C878.333 910.473 878.11 911.368 878.101 912.344V915.369C878.101 916.638 878.333 917.727 878.797 918.636C879.261 919.536 879.91 920.227 880.743 920.71C881.576 921.184 882.552 921.42 883.669 921.42C884.417 921.42 885.094 921.316 885.7 921.108C886.306 920.89 886.832 920.573 887.277 920.156C887.722 919.74 888.058 919.223 888.286 918.608L893.087 919.148C892.784 920.417 892.206 921.525 891.354 922.472C890.511 923.409 889.431 924.138 888.115 924.659C886.799 925.17 885.293 925.426 883.598 925.426ZM907.572 925V903.182H912.714V925H907.572ZM910.157 900.085C909.343 900.085 908.642 899.815 908.055 899.276C907.468 898.726 907.174 898.068 907.174 897.301C907.174 896.525 907.468 895.866 908.055 895.327C908.642 894.777 909.343 894.503 910.157 894.503C910.981 894.503 911.682 894.777 912.259 895.327C912.846 895.866 913.14 896.525 913.14 897.301C913.14 898.068 912.846 898.726 912.259 899.276C911.682 899.815 910.981 900.085 910.157 900.085ZM923.143 912.216V925H918.001V903.182H922.916V906.889H923.172C923.674 905.668 924.474 904.697 925.572 903.977C926.68 903.258 928.049 902.898 929.678 902.898C931.183 902.898 932.495 903.22 933.612 903.864C934.739 904.508 935.61 905.44 936.226 906.662C936.851 907.884 937.159 909.366 937.149 911.108V925H932.007V911.903C932.007 910.445 931.628 909.304 930.871 908.48C930.123 907.656 929.086 907.244 927.76 907.244C926.86 907.244 926.06 907.443 925.359 907.841C924.668 908.229 924.124 908.793 923.726 909.531C923.338 910.27 923.143 911.165 923.143 912.216ZM953.271 903.182V907.159H940.729V903.182H953.271ZM943.825 897.955H948.967V918.438C948.967 919.129 949.071 919.659 949.28 920.028C949.498 920.388 949.782 920.634 950.132 920.767C950.482 920.9 950.871 920.966 951.297 920.966C951.619 920.966 951.912 920.942 952.178 920.895C952.452 920.848 952.661 920.805 952.803 920.767L953.669 924.787C953.394 924.882 953.001 924.986 952.49 925.099C951.988 925.213 951.373 925.279 950.643 925.298C949.356 925.336 948.196 925.142 947.163 924.716C946.131 924.28 945.312 923.608 944.706 922.699C944.109 921.79 943.816 920.653 943.825 919.29V897.955ZM966.996 925.426C964.809 925.426 962.92 924.972 961.329 924.062C959.747 923.144 958.531 921.847 957.678 920.17C956.826 918.485 956.4 916.501 956.4 914.219C956.4 911.974 956.826 910.005 957.678 908.31C958.54 906.605 959.743 905.279 961.286 904.332C962.83 903.376 964.643 902.898 966.727 902.898C968.071 902.898 969.34 903.116 970.533 903.551C971.736 903.977 972.797 904.64 973.715 905.54C974.643 906.439 975.372 907.585 975.903 908.977C976.433 910.36 976.698 912.008 976.698 913.92V915.497H958.815V912.031H971.769C971.76 911.046 971.547 910.17 971.13 909.403C970.713 908.627 970.131 908.016 969.383 907.571C968.644 907.126 967.782 906.903 966.798 906.903C965.746 906.903 964.823 907.159 964.028 907.67C963.232 908.172 962.612 908.835 962.167 909.659C961.731 910.473 961.509 911.368 961.499 912.344V915.369C961.499 916.638 961.731 917.727 962.195 918.636C962.659 919.536 963.308 920.227 964.141 920.71C964.975 921.184 965.95 921.42 967.067 921.42C967.816 921.42 968.493 921.316 969.099 921.108C969.705 920.89 970.23 920.573 970.675 920.156C971.121 919.74 971.457 919.223 971.684 918.608L976.485 919.148C976.182 920.417 975.604 921.525 974.752 922.472C973.909 923.409 972.83 924.138 971.513 924.659C970.197 925.17 968.692 925.426 966.996 925.426ZM981.048 925V903.182H986.034V906.818H986.261C986.659 905.559 987.341 904.588 988.307 903.906C989.282 903.215 990.395 902.869 991.645 902.869C991.929 902.869 992.246 902.884 992.597 902.912C992.956 902.931 993.255 902.964 993.491 903.011V907.741C993.274 907.666 992.928 907.599 992.455 907.543C991.991 907.476 991.541 907.443 991.105 907.443C990.168 907.443 989.325 907.647 988.577 908.054C987.838 908.452 987.256 909.006 986.83 909.716C986.403 910.426 986.19 911.245 986.19 912.173V925H981.048ZM996.908 925V903.182H1001.89V906.818H1002.12C1002.52 905.559 1003.2 904.588 1004.17 903.906C1005.14 903.215 1006.25 902.869 1007.5 902.869C1007.79 902.869 1008.11 902.884 1008.46 902.912C1008.82 902.931 1009.11 902.964 1009.35 903.011V907.741C1009.13 907.666 1008.79 907.599 1008.31 907.543C1007.85 907.476 1007.4 907.443 1006.96 907.443C1006.03 907.443 1005.18 907.647 1004.44 908.054C1003.7 908.452 1003.12 909.006 1002.69 909.716C1002.26 910.426 1002.05 911.245 1002.05 912.173V925H996.908ZM1026.67 915.824V903.182H1031.82V925H1026.83V921.122H1026.6C1026.11 922.344 1025.3 923.343 1024.17 924.119C1023.06 924.896 1021.68 925.284 1020.04 925.284C1018.61 925.284 1017.35 924.967 1016.25 924.332C1015.16 923.688 1014.31 922.756 1013.69 921.534C1013.07 920.303 1012.77 918.816 1012.77 917.074V903.182H1017.91V916.278C1017.91 917.661 1018.29 918.759 1019.05 919.574C1019.8 920.388 1020.8 920.795 1022.03 920.795C1022.79 920.795 1023.52 920.611 1024.23 920.241C1024.94 919.872 1025.52 919.323 1025.98 918.594C1026.44 917.855 1026.67 916.932 1026.67 915.824ZM1037.1 933.182V903.182H1042.16V906.79H1042.46C1042.72 906.259 1043.1 905.696 1043.58 905.099C1044.06 904.493 1044.72 903.977 1045.54 903.551C1046.36 903.116 1047.42 902.898 1048.69 902.898C1050.38 902.898 1051.9 903.329 1053.25 904.19C1054.62 905.043 1055.7 906.307 1056.49 907.983C1057.3 909.65 1057.7 911.695 1057.7 914.119C1057.7 916.515 1057.31 918.551 1056.52 920.227C1055.73 921.903 1054.66 923.182 1053.31 924.062C1051.96 924.943 1050.42 925.384 1048.71 925.384C1047.46 925.384 1046.42 925.175 1045.6 924.759C1044.77 924.342 1044.11 923.84 1043.61 923.253C1043.12 922.656 1042.73 922.093 1042.46 921.562H1042.25V933.182H1037.1ZM1042.15 914.091C1042.15 915.502 1042.34 916.738 1042.74 917.798C1043.15 918.859 1043.73 919.687 1044.49 920.284C1045.26 920.871 1046.18 921.165 1047.27 921.165C1048.41 921.165 1049.36 920.862 1050.13 920.256C1050.9 919.64 1051.47 918.802 1051.86 917.741C1052.26 916.671 1052.46 915.455 1052.46 914.091C1052.46 912.737 1052.26 911.534 1051.88 910.483C1051.49 909.432 1050.91 908.608 1050.14 908.011C1049.38 907.415 1048.42 907.116 1047.27 907.116C1046.17 907.116 1045.24 907.405 1044.48 907.983C1043.71 908.561 1043.13 909.37 1042.73 910.412C1042.34 911.454 1042.15 912.68 1042.15 914.091ZM1073 903.182V907.159H1060.46V903.182H1073ZM1063.55 897.955H1068.69V918.438C1068.69 919.129 1068.8 919.659 1069.01 920.028C1069.22 920.388 1069.51 920.634 1069.86 920.767C1070.21 920.9 1070.6 920.966 1071.02 920.966C1071.35 920.966 1071.64 920.942 1071.9 920.895C1072.18 920.848 1072.39 920.805 1072.53 920.767L1073.4 924.787C1073.12 924.882 1072.73 924.986 1072.22 925.099C1071.71 925.213 1071.1 925.279 1070.37 925.298C1069.08 925.336 1067.92 925.142 1066.89 924.716C1065.86 924.28 1065.04 923.608 1064.43 922.699C1063.84 921.79 1063.54 920.653 1063.55 919.29V897.955Z" fill="black"/>
<path d="M737.776 640.909V670H733.088L719.381 650.185H719.139V670H713.869V640.909H718.585L732.278 660.739H732.534V640.909H737.776ZM752.808 670.426C750.677 670.426 748.83 669.957 747.268 669.02C745.705 668.082 744.493 666.771 743.631 665.085C742.779 663.4 742.353 661.43 742.353 659.176C742.353 656.922 742.779 654.948 743.631 653.253C744.493 651.558 745.705 650.241 747.268 649.304C748.83 648.366 750.677 647.898 752.808 647.898C754.938 647.898 756.785 648.366 758.347 649.304C759.91 650.241 761.117 651.558 761.969 653.253C762.831 654.948 763.262 656.922 763.262 659.176C763.262 661.43 762.831 663.4 761.969 665.085C761.117 666.771 759.91 668.082 758.347 669.02C756.785 669.957 754.938 670.426 752.808 670.426ZM752.836 666.307C753.991 666.307 754.957 665.99 755.734 665.355C756.51 664.711 757.088 663.849 757.467 662.77C757.855 661.69 758.049 660.488 758.049 659.162C758.049 657.827 757.855 656.619 757.467 655.54C757.088 654.451 756.51 653.584 755.734 652.94C754.957 652.296 753.991 651.974 752.836 651.974C751.652 651.974 750.667 652.296 749.881 652.94C749.105 653.584 748.522 654.451 748.134 655.54C747.755 656.619 747.566 657.827 747.566 659.162C747.566 660.488 747.755 661.69 748.134 662.77C748.522 663.849 749.105 664.711 749.881 665.355C750.667 665.99 751.652 666.307 752.836 666.307ZM778.521 648.182V652.159H765.979V648.182H778.521ZM769.075 642.955H774.217V663.438C774.217 664.129 774.321 664.659 774.53 665.028C774.748 665.388 775.032 665.634 775.382 665.767C775.732 665.9 776.121 665.966 776.547 665.966C776.869 665.966 777.162 665.942 777.428 665.895C777.702 665.848 777.911 665.805 778.053 665.767L778.919 669.787C778.644 669.882 778.251 669.986 777.74 670.099C777.238 670.213 776.623 670.279 775.893 670.298C774.606 670.336 773.446 670.142 772.413 669.716C771.381 669.28 770.562 668.608 769.956 667.699C769.359 666.79 769.066 665.653 769.075 664.29V642.955ZM782.822 670V648.182H787.964V670H782.822ZM785.407 645.085C784.593 645.085 783.892 644.815 783.305 644.276C782.718 643.726 782.424 643.068 782.424 642.301C782.424 641.525 782.718 640.866 783.305 640.327C783.892 639.777 784.593 639.503 785.407 639.503C786.231 639.503 786.932 639.777 787.509 640.327C788.096 640.866 788.39 641.525 788.39 642.301C788.39 643.068 788.096 643.726 787.509 644.276C786.932 644.815 786.231 645.085 785.407 645.085ZM804.303 648.182V652.159H791.405V648.182H804.303ZM794.629 670V646.122C794.629 644.654 794.932 643.433 795.538 642.457C796.154 641.482 796.978 640.753 798.01 640.27C799.042 639.787 800.188 639.545 801.447 639.545C802.338 639.545 803.128 639.616 803.82 639.759C804.511 639.901 805.022 640.028 805.354 640.142L804.331 644.119C804.113 644.053 803.839 643.987 803.507 643.92C803.176 643.845 802.806 643.807 802.399 643.807C801.443 643.807 800.766 644.039 800.368 644.503C799.98 644.957 799.786 645.611 799.786 646.463V670H794.629ZM808.33 670V648.182H813.472V670H808.33ZM810.915 645.085C810.1 645.085 809.4 644.815 808.812 644.276C808.225 643.726 807.932 643.068 807.932 642.301C807.932 641.525 808.225 640.866 808.812 640.327C809.4 639.777 810.1 639.503 810.915 639.503C811.739 639.503 812.439 639.777 813.017 640.327C813.604 640.866 813.898 641.525 813.898 642.301C813.898 643.068 813.604 643.726 813.017 644.276C812.439 644.815 811.739 645.085 810.915 645.085ZM828.276 670.426C826.098 670.426 824.228 669.948 822.665 668.991C821.112 668.035 819.915 666.714 819.072 665.028C818.238 663.333 817.822 661.383 817.822 659.176C817.822 656.96 818.248 655.005 819.1 653.31C819.952 651.605 821.155 650.279 822.708 649.332C824.271 648.376 826.117 647.898 828.248 647.898C830.019 647.898 831.586 648.224 832.95 648.878C834.323 649.522 835.416 650.436 836.231 651.619C837.045 652.794 837.509 654.167 837.623 655.739H832.708C832.509 654.687 832.036 653.812 831.288 653.111C830.549 652.401 829.559 652.045 828.319 652.045C827.268 652.045 826.344 652.33 825.549 652.898C824.754 653.456 824.133 654.261 823.688 655.312C823.253 656.364 823.035 657.623 823.035 659.091C823.035 660.578 823.253 661.856 823.688 662.926C824.124 663.987 824.735 664.806 825.521 665.384C826.316 665.952 827.249 666.236 828.319 666.236C829.076 666.236 829.754 666.094 830.35 665.81C830.956 665.516 831.463 665.095 831.87 664.545C832.277 663.996 832.557 663.329 832.708 662.543H837.623C837.5 664.086 837.045 665.455 836.259 666.648C835.473 667.831 834.403 668.759 833.049 669.432C831.695 670.095 830.104 670.426 828.276 670.426ZM848.124 670.44C846.741 670.44 845.496 670.194 844.388 669.702C843.289 669.2 842.418 668.461 841.774 667.486C841.14 666.51 840.822 665.308 840.822 663.878C840.822 662.647 841.05 661.629 841.504 660.824C841.959 660.019 842.579 659.375 843.365 658.892C844.151 658.409 845.036 658.045 846.021 657.798C847.016 657.543 848.043 657.358 849.104 657.244C850.382 657.112 851.419 656.993 852.214 656.889C853.01 656.776 853.588 656.605 853.947 656.378C854.317 656.141 854.501 655.777 854.501 655.284V655.199C854.501 654.129 854.184 653.3 853.55 652.713C852.915 652.126 852.001 651.832 850.808 651.832C849.549 651.832 848.55 652.107 847.811 652.656C847.082 653.205 846.589 653.854 846.334 654.602L841.533 653.92C841.911 652.595 842.536 651.487 843.408 650.597C844.279 649.697 845.344 649.025 846.604 648.58C847.863 648.125 849.255 647.898 850.78 647.898C851.831 647.898 852.877 648.021 853.919 648.267C854.961 648.513 855.912 648.92 856.774 649.489C857.636 650.047 858.327 650.81 858.848 651.776C859.378 652.741 859.643 653.949 859.643 655.398V670H854.7V667.003H854.53C854.217 667.609 853.777 668.177 853.209 668.707C852.65 669.228 851.945 669.65 851.092 669.972C850.25 670.284 849.26 670.44 848.124 670.44ZM849.459 666.662C850.491 666.662 851.386 666.458 852.143 666.051C852.901 665.634 853.483 665.085 853.891 664.403C854.307 663.722 854.516 662.978 854.516 662.173V659.602C854.355 659.735 854.08 659.858 853.692 659.972C853.313 660.085 852.887 660.185 852.413 660.27C851.94 660.355 851.471 660.431 851.007 660.497C850.543 660.563 850.141 660.62 849.8 660.668C849.033 660.772 848.346 660.942 847.74 661.179C847.134 661.416 846.656 661.747 846.305 662.173C845.955 662.59 845.78 663.13 845.78 663.793C845.78 664.74 846.125 665.455 846.817 665.938C847.508 666.42 848.389 666.662 849.459 666.662ZM875.709 648.182V652.159H863.166V648.182H875.709ZM866.263 642.955H871.405V663.438C871.405 664.129 871.509 664.659 871.717 665.028C871.935 665.388 872.219 665.634 872.57 665.767C872.92 665.9 873.308 665.966 873.734 665.966C874.056 665.966 874.35 665.942 874.615 665.895C874.89 665.848 875.098 665.805 875.24 665.767L876.107 669.787C875.832 669.882 875.439 669.986 874.928 670.099C874.426 670.213 873.81 670.279 873.081 670.298C871.793 670.336 870.633 670.142 869.601 669.716C868.569 669.28 867.75 668.608 867.143 667.699C866.547 666.79 866.253 665.653 866.263 664.29V642.955ZM880.009 670V648.182H885.151V670H880.009ZM882.594 645.085C881.78 645.085 881.079 644.815 880.492 644.276C879.905 643.726 879.612 643.068 879.612 642.301C879.612 641.525 879.905 640.866 880.492 640.327C881.079 639.777 881.78 639.503 882.594 639.503C883.418 639.503 884.119 639.777 884.697 640.327C885.284 640.866 885.577 641.525 885.577 642.301C885.577 643.068 885.284 643.726 884.697 644.276C884.119 644.815 883.418 645.085 882.594 645.085ZM899.956 670.426C897.825 670.426 895.979 669.957 894.416 669.02C892.854 668.082 891.642 666.771 890.78 665.085C889.928 663.4 889.501 661.43 889.501 659.176C889.501 656.922 889.928 654.948 890.78 653.253C891.642 651.558 892.854 650.241 894.416 649.304C895.979 648.366 897.825 647.898 899.956 647.898C902.087 647.898 903.933 648.366 905.496 649.304C907.058 650.241 908.266 651.558 909.118 653.253C909.98 654.948 910.411 656.922 910.411 659.176C910.411 661.43 909.98 663.4 909.118 665.085C908.266 666.771 907.058 668.082 905.496 669.02C903.933 669.957 902.087 670.426 899.956 670.426ZM899.984 666.307C901.14 666.307 902.106 665.99 902.882 665.355C903.659 664.711 904.236 663.849 904.615 662.77C905.003 661.69 905.197 660.488 905.197 659.162C905.197 657.827 905.003 656.619 904.615 655.54C904.236 654.451 903.659 653.584 902.882 652.94C902.106 652.296 901.14 651.974 899.984 651.974C898.801 651.974 897.816 652.296 897.03 652.94C896.253 653.584 895.671 654.451 895.283 655.54C894.904 656.619 894.714 657.827 894.714 659.162C894.714 660.488 894.904 661.69 895.283 662.77C895.671 663.849 896.253 664.711 897.03 665.355C897.816 665.99 898.801 666.307 899.984 666.307ZM919.917 657.216V670H914.775V648.182H919.69V651.889H919.945C920.447 650.668 921.247 649.697 922.346 648.977C923.454 648.258 924.822 647.898 926.451 647.898C927.957 647.898 929.268 648.22 930.386 648.864C931.513 649.508 932.384 650.44 932.999 651.662C933.624 652.884 933.932 654.366 933.923 656.108V670H928.781V656.903C928.781 655.445 928.402 654.304 927.644 653.48C926.896 652.656 925.859 652.244 924.533 652.244C923.634 652.244 922.834 652.443 922.133 652.841C921.442 653.229 920.897 653.793 920.499 654.531C920.111 655.27 919.917 656.165 919.917 657.216Z" fill="black"/>
<path d="M700.761 365.909L708.332 388.807H708.631L716.188 365.909H721.983L711.727 395H705.222L694.98 365.909H700.761ZM725.587 395V373.182H730.729V395H725.587ZM728.173 370.085C727.358 370.085 726.657 369.815 726.07 369.276C725.483 368.726 725.19 368.068 725.19 367.301C725.19 366.525 725.483 365.866 726.07 365.327C726.657 364.777 727.358 364.503 728.173 364.503C728.996 364.503 729.697 364.777 730.275 365.327C730.862 365.866 731.156 366.525 731.156 367.301C731.156 368.068 730.862 368.726 730.275 369.276C729.697 369.815 728.996 370.085 728.173 370.085ZM736.017 395V373.182H741.003V376.818H741.23C741.628 375.559 742.31 374.588 743.276 373.906C744.251 373.215 745.364 372.869 746.614 372.869C746.898 372.869 747.215 372.884 747.565 372.912C747.925 372.931 748.223 372.964 748.46 373.011V377.741C748.242 377.666 747.897 377.599 747.423 377.543C746.959 377.476 746.509 377.443 746.074 377.443C745.136 377.443 744.294 377.647 743.545 378.054C742.807 378.452 742.224 379.006 741.798 379.716C741.372 380.426 741.159 381.245 741.159 382.173V395H736.017ZM763.943 373.182V377.159H751.401V373.182H763.943ZM754.497 367.955H759.639V388.438C759.639 389.129 759.743 389.659 759.952 390.028C760.17 390.388 760.454 390.634 760.804 390.767C761.154 390.9 761.543 390.966 761.969 390.966C762.291 390.966 762.584 390.942 762.849 390.895C763.124 390.848 763.332 390.805 763.474 390.767L764.341 394.787C764.066 394.882 763.673 394.986 763.162 395.099C762.66 395.213 762.045 395.279 761.315 395.298C760.027 395.336 758.867 395.142 757.835 394.716C756.803 394.28 755.984 393.608 755.378 392.699C754.781 391.79 754.488 390.653 754.497 389.29V367.955ZM782.15 385.824V373.182H787.292V395H782.306V391.122H782.079C781.586 392.344 780.777 393.343 779.65 394.119C778.532 394.896 777.155 395.284 775.516 395.284C774.086 395.284 772.822 394.967 771.724 394.332C770.635 393.688 769.782 392.756 769.167 391.534C768.551 390.303 768.244 388.816 768.244 387.074V373.182H773.386V386.278C773.386 387.661 773.764 388.759 774.522 389.574C775.28 390.388 776.274 390.795 777.505 390.795C778.263 390.795 778.996 390.611 779.707 390.241C780.417 389.872 780.999 389.323 781.454 388.594C781.918 387.855 782.15 386.932 782.15 385.824ZM798.858 395.44C797.475 395.44 796.23 395.194 795.122 394.702C794.024 394.2 793.152 393.461 792.509 392.486C791.874 391.51 791.557 390.308 791.557 388.878C791.557 387.647 791.784 386.629 792.239 385.824C792.693 385.019 793.313 384.375 794.099 383.892C794.885 383.409 795.771 383.045 796.756 382.798C797.75 382.543 798.777 382.358 799.838 382.244C801.116 382.112 802.153 381.993 802.949 381.889C803.744 381.776 804.322 381.605 804.682 381.378C805.051 381.141 805.236 380.777 805.236 380.284V380.199C805.236 379.129 804.919 378.3 804.284 377.713C803.65 377.126 802.736 376.832 801.543 376.832C800.283 376.832 799.284 377.107 798.545 377.656C797.816 378.205 797.324 378.854 797.068 379.602L792.267 378.92C792.646 377.595 793.271 376.487 794.142 375.597C795.013 374.697 796.079 374.025 797.338 373.58C798.598 373.125 799.99 372.898 801.514 372.898C802.565 372.898 803.612 373.021 804.653 373.267C805.695 373.513 806.647 373.92 807.509 374.489C808.37 375.047 809.062 375.81 809.582 376.776C810.113 377.741 810.378 378.949 810.378 380.398V395H805.435V392.003H805.264C804.952 392.609 804.511 393.177 803.943 393.707C803.384 394.228 802.679 394.65 801.827 394.972C800.984 395.284 799.994 395.44 798.858 395.44ZM800.193 391.662C801.225 391.662 802.12 391.458 802.878 391.051C803.635 390.634 804.218 390.085 804.625 389.403C805.042 388.722 805.25 387.978 805.25 387.173V384.602C805.089 384.735 804.814 384.858 804.426 384.972C804.047 385.085 803.621 385.185 803.148 385.27C802.674 385.355 802.205 385.431 801.741 385.497C801.277 385.563 800.875 385.62 800.534 385.668C799.767 385.772 799.08 385.942 798.474 386.179C797.868 386.416 797.39 386.747 797.04 387.173C796.689 387.59 796.514 388.13 796.514 388.793C796.514 389.74 796.86 390.455 797.551 390.938C798.242 391.42 799.123 391.662 800.193 391.662ZM820.69 365.909V395H815.548V365.909H820.69ZM835.9 395V373.182H841.042V395H835.9ZM838.485 370.085C837.671 370.085 836.97 369.815 836.383 369.276C835.796 368.726 835.502 368.068 835.502 367.301C835.502 366.525 835.796 365.866 836.383 365.327C836.97 364.777 837.671 364.503 838.485 364.503C839.309 364.503 840.01 364.777 840.587 365.327C841.174 365.866 841.468 366.525 841.468 367.301C841.468 368.068 841.174 368.726 840.587 369.276C840.01 369.815 839.309 370.085 838.485 370.085ZM851.472 382.216V395H846.33V373.182H851.244V376.889H851.5C852.002 375.668 852.802 374.697 853.901 373.977C855.009 373.258 856.377 372.898 858.006 372.898C859.511 372.898 860.823 373.22 861.94 373.864C863.067 374.508 863.938 375.44 864.554 376.662C865.179 377.884 865.487 379.366 865.477 381.108V395H860.335V381.903C860.335 380.445 859.956 379.304 859.199 378.48C858.451 377.656 857.414 377.244 856.088 377.244C855.188 377.244 854.388 377.443 853.688 377.841C852.996 378.229 852.452 378.793 852.054 379.531C851.666 380.27 851.472 381.165 851.472 382.216ZM881.599 373.182V377.159H869.057V373.182H881.599ZM872.153 367.955H877.295V388.438C877.295 389.129 877.4 389.659 877.608 390.028C877.826 390.388 878.11 390.634 878.46 390.767C878.811 390.9 879.199 390.966 879.625 390.966C879.947 390.966 880.241 390.942 880.506 390.895C880.78 390.848 880.989 390.805 881.131 390.767L881.997 394.787C881.723 394.882 881.33 394.986 880.818 395.099C880.316 395.213 879.701 395.279 878.972 395.298C877.684 395.336 876.524 395.142 875.491 394.716C874.459 394.28 873.64 393.608 873.034 392.699C872.438 391.79 872.144 390.653 872.153 389.29V367.955ZM895.325 395.426C893.137 395.426 891.248 394.972 889.657 394.062C888.076 393.144 886.859 391.847 886.006 390.17C885.154 388.485 884.728 386.501 884.728 384.219C884.728 381.974 885.154 380.005 886.006 378.31C886.868 376.605 888.071 375.279 889.614 374.332C891.158 373.376 892.971 372.898 895.055 372.898C896.399 372.898 897.668 373.116 898.862 373.551C900.064 373.977 901.125 374.64 902.043 375.54C902.971 376.439 903.701 377.585 904.231 378.977C904.761 380.36 905.026 382.008 905.026 383.92V385.497H887.143V382.031H900.097C900.088 381.046 899.875 380.17 899.458 379.403C899.041 378.627 898.459 378.016 897.711 377.571C896.972 377.126 896.111 376.903 895.126 376.903C894.075 376.903 893.151 377.159 892.356 377.67C891.56 378.172 890.94 378.835 890.495 379.659C890.059 380.473 889.837 381.368 889.827 382.344V385.369C889.827 386.638 890.059 387.727 890.523 388.636C890.987 389.536 891.636 390.227 892.469 390.71C893.303 391.184 894.278 391.42 895.396 391.42C896.144 391.42 896.821 391.316 897.427 391.108C898.033 390.89 898.558 390.573 899.004 390.156C899.449 389.74 899.785 389.223 900.012 388.608L904.813 389.148C904.51 390.417 903.933 391.525 903.08 392.472C902.237 393.409 901.158 394.138 899.842 394.659C898.525 395.17 897.02 395.426 895.325 395.426ZM909.376 395V373.182H914.362V376.818H914.589C914.987 375.559 915.669 374.588 916.635 373.906C917.61 373.215 918.723 372.869 919.973 372.869C920.257 372.869 920.574 372.884 920.925 372.912C921.285 372.931 921.583 372.964 921.82 373.011V377.741C921.602 377.666 921.256 377.599 920.783 377.543C920.319 377.476 919.869 377.443 919.433 377.443C918.496 377.443 917.653 377.647 916.905 378.054C916.166 378.452 915.584 379.006 915.158 379.716C914.732 380.426 914.518 381.245 914.518 382.173V395H909.376ZM925.236 395V373.182H930.222V376.818H930.449C930.847 375.559 931.528 374.588 932.494 373.906C933.47 373.215 934.582 372.869 935.832 372.869C936.116 372.869 936.434 372.884 936.784 372.912C937.144 372.931 937.442 372.964 937.679 373.011V377.741C937.461 377.666 937.116 377.599 936.642 377.543C936.178 377.476 935.728 377.443 935.293 377.443C934.355 377.443 933.512 377.647 932.764 378.054C932.026 378.452 931.443 379.006 931.017 379.716C930.591 380.426 930.378 381.245 930.378 382.173V395H925.236ZM955.001 385.824V373.182H960.143V395H955.158V391.122H954.93C954.438 392.344 953.628 393.343 952.501 394.119C951.384 394.896 950.006 395.284 948.368 395.284C946.938 395.284 945.674 394.967 944.575 394.332C943.486 393.688 942.634 392.756 942.018 391.534C941.403 390.303 941.095 388.816 941.095 387.074V373.182H946.237V386.278C946.237 387.661 946.616 388.759 947.374 389.574C948.131 390.388 949.125 390.795 950.357 390.795C951.114 390.795 951.848 390.611 952.558 390.241C953.268 389.872 953.851 389.323 954.305 388.594C954.769 387.855 955.001 386.932 955.001 385.824ZM965.431 403.182V373.182H970.488V376.79H970.786C971.051 376.259 971.425 375.696 971.908 375.099C972.391 374.493 973.045 373.977 973.869 373.551C974.692 373.116 975.744 372.898 977.022 372.898C978.708 372.898 980.228 373.329 981.582 374.19C982.945 375.043 984.025 376.307 984.82 377.983C985.625 379.65 986.028 381.695 986.028 384.119C986.028 386.515 985.635 388.551 984.849 390.227C984.063 391.903 982.993 393.182 981.638 394.062C980.284 394.943 978.75 395.384 977.036 395.384C975.786 395.384 974.749 395.175 973.925 394.759C973.102 394.342 972.439 393.84 971.937 393.253C971.444 392.656 971.061 392.093 970.786 391.562H970.573V403.182H965.431ZM970.474 384.091C970.474 385.502 970.673 386.738 971.07 387.798C971.478 388.859 972.06 389.687 972.817 390.284C973.585 390.871 974.513 391.165 975.602 391.165C976.738 391.165 977.69 390.862 978.457 390.256C979.224 389.64 979.801 388.802 980.19 387.741C980.587 386.671 980.786 385.455 980.786 384.091C980.786 382.737 980.592 381.534 980.204 380.483C979.816 379.432 979.238 378.608 978.471 378.011C977.704 377.415 976.747 377.116 975.602 377.116C974.503 377.116 973.57 377.405 972.803 377.983C972.036 378.561 971.454 379.37 971.056 380.412C970.668 381.454 970.474 382.68 970.474 384.091ZM1001.33 373.182V377.159H988.783V373.182H1001.33ZM991.88 367.955H997.022V388.438C997.022 389.129 997.126 389.659 997.335 390.028C997.552 390.388 997.836 390.634 998.187 390.767C998.537 390.9 998.925 390.966 999.352 390.966C999.674 390.966 999.967 390.942 1000.23 390.895C1000.51 390.848 1000.72 390.805 1000.86 390.767L1001.72 394.787C1001.45 394.882 1001.06 394.986 1000.54 395.099C1000.04 395.213 999.427 395.279 998.698 395.298C997.41 395.336 996.25 395.142 995.218 394.716C994.186 394.28 993.367 393.608 992.761 392.699C992.164 391.79 991.871 390.653 991.88 389.29V367.955Z" fill="black"/>
<rect x="457" y="3" width="375" height="328" fill="#D75A49" stroke="#761A0D" stroke-width="6"/>
<path d="M577.653 120.091L586.091 146.614H586.415L594.869 120.091H603.051L591.017 155H581.506L569.455 120.091H577.653ZM607.116 155V128.818H614.378V155H607.116ZM610.764 125.443C609.685 125.443 608.759 125.085 607.986 124.369C607.224 123.642 606.844 122.773 606.844 121.761C606.844 120.761 607.224 119.903 607.986 119.188C608.759 118.46 609.685 118.097 610.764 118.097C611.844 118.097 612.764 118.46 613.526 119.188C614.298 119.903 614.685 120.761 614.685 121.761C614.685 122.773 614.298 123.642 613.526 124.369C612.764 125.085 611.844 125.443 610.764 125.443ZM620.195 155V128.818H627.234V133.386H627.507C627.984 131.761 628.786 130.534 629.911 129.705C631.036 128.864 632.331 128.443 633.797 128.443C634.161 128.443 634.553 128.466 634.973 128.511C635.393 128.557 635.763 128.619 636.081 128.699V135.142C635.74 135.04 635.268 134.949 634.666 134.869C634.064 134.79 633.513 134.75 633.013 134.75C631.945 134.75 630.99 134.983 630.149 135.449C629.32 135.903 628.661 136.54 628.172 137.358C627.695 138.176 627.456 139.119 627.456 140.188V155H620.195ZM655.074 128.818V134.273H639.307V128.818H655.074ZM642.886 122.545H650.148V146.955C650.148 147.625 650.25 148.148 650.455 148.523C650.659 148.886 650.943 149.142 651.307 149.29C651.682 149.437 652.114 149.511 652.602 149.511C652.943 149.511 653.284 149.483 653.625 149.426C653.966 149.358 654.227 149.307 654.409 149.273L655.551 154.676C655.188 154.79 654.676 154.92 654.017 155.068C653.358 155.227 652.557 155.324 651.614 155.358C649.864 155.426 648.33 155.193 647.011 154.659C645.705 154.125 644.688 153.295 643.96 152.17C643.233 151.045 642.875 149.625 642.886 147.909V122.545ZM676.594 143.852V128.818H683.855V155H676.884V150.244H676.611C676.02 151.778 675.037 153.011 673.662 153.943C672.298 154.875 670.634 155.341 668.668 155.341C666.918 155.341 665.378 154.943 664.048 154.148C662.719 153.352 661.679 152.222 660.929 150.756C660.19 149.29 659.815 147.534 659.804 145.489V128.818H667.065V144.193C667.077 145.739 667.491 146.96 668.31 147.858C669.128 148.756 670.224 149.205 671.599 149.205C672.474 149.205 673.293 149.006 674.054 148.608C674.815 148.199 675.429 147.597 675.895 146.801C676.372 146.006 676.605 145.023 676.594 143.852ZM697.129 155.494C695.459 155.494 693.97 155.205 692.663 154.625C691.357 154.034 690.322 153.165 689.561 152.017C688.811 150.858 688.436 149.415 688.436 147.688C688.436 146.233 688.703 145.011 689.237 144.023C689.771 143.034 690.499 142.239 691.419 141.636C692.339 141.034 693.385 140.58 694.555 140.273C695.737 139.966 696.976 139.75 698.271 139.625C699.794 139.466 701.021 139.318 701.953 139.182C702.885 139.034 703.561 138.818 703.982 138.534C704.402 138.25 704.612 137.83 704.612 137.273V137.17C704.612 136.091 704.271 135.256 703.589 134.665C702.919 134.074 701.964 133.778 700.726 133.778C699.419 133.778 698.379 134.068 697.607 134.648C696.834 135.216 696.322 135.932 696.072 136.795L689.357 136.25C689.697 134.659 690.368 133.284 691.368 132.125C692.368 130.955 693.658 130.057 695.237 129.432C696.828 128.795 698.669 128.477 700.76 128.477C702.214 128.477 703.607 128.648 704.936 128.989C706.277 129.33 707.464 129.858 708.499 130.574C709.544 131.29 710.368 132.21 710.97 133.335C711.572 134.449 711.874 135.784 711.874 137.341V155H704.987V151.369H704.783C704.362 152.188 703.8 152.909 703.095 153.534C702.391 154.148 701.544 154.631 700.555 154.983C699.567 155.324 698.425 155.494 697.129 155.494ZM699.209 150.483C700.277 150.483 701.22 150.273 702.038 149.852C702.857 149.42 703.499 148.841 703.964 148.114C704.43 147.386 704.663 146.562 704.663 145.642V142.864C704.436 143.011 704.124 143.148 703.726 143.273C703.339 143.386 702.902 143.494 702.413 143.597C701.925 143.687 701.436 143.773 700.947 143.852C700.459 143.92 700.016 143.983 699.618 144.04C698.766 144.165 698.021 144.364 697.385 144.636C696.749 144.909 696.254 145.278 695.902 145.744C695.55 146.199 695.374 146.767 695.374 147.449C695.374 148.438 695.732 149.193 696.447 149.716C697.175 150.227 698.095 150.483 699.209 150.483ZM724.768 120.091V155H717.507V120.091H724.768ZM550.276 178.091H559.379L568.992 201.545H569.401L579.015 178.091H588.117V213H580.958V190.278H580.668L571.634 212.83H566.759L557.725 190.193H557.435V213H550.276V178.091ZM601.528 213.494C599.857 213.494 598.369 213.205 597.062 212.625C595.755 212.034 594.721 211.165 593.96 210.017C593.21 208.858 592.835 207.415 592.835 205.688C592.835 204.233 593.102 203.011 593.636 202.023C594.17 201.034 594.897 200.239 595.817 199.636C596.738 199.034 597.783 198.58 598.954 198.273C600.136 197.966 601.374 197.75 602.67 197.625C604.192 197.466 605.42 197.318 606.352 197.182C607.283 197.034 607.96 196.818 608.38 196.534C608.8 196.25 609.011 195.83 609.011 195.273V195.17C609.011 194.091 608.67 193.256 607.988 192.665C607.317 192.074 606.363 191.778 605.124 191.778C603.817 191.778 602.778 192.068 602.005 192.648C601.232 193.216 600.721 193.932 600.471 194.795L593.755 194.25C594.096 192.659 594.766 191.284 595.766 190.125C596.766 188.955 598.056 188.057 599.636 187.432C601.227 186.795 603.067 186.477 605.158 186.477C606.613 186.477 608.005 186.648 609.335 186.989C610.675 187.33 611.863 187.858 612.897 188.574C613.942 189.29 614.766 190.21 615.369 191.335C615.971 192.449 616.272 193.784 616.272 195.341V213H609.386V209.369H609.181C608.761 210.188 608.198 210.909 607.494 211.534C606.789 212.148 605.942 212.631 604.954 212.983C603.965 213.324 602.823 213.494 601.528 213.494ZM603.607 208.483C604.675 208.483 605.619 208.273 606.437 207.852C607.255 207.42 607.897 206.841 608.363 206.114C608.829 205.386 609.062 204.562 609.062 203.642V200.864C608.835 201.011 608.522 201.148 608.124 201.273C607.738 201.386 607.3 201.494 606.812 201.597C606.323 201.687 605.835 201.773 605.346 201.852C604.857 201.92 604.414 201.983 604.016 202.04C603.164 202.165 602.42 202.364 601.783 202.636C601.147 202.909 600.653 203.278 600.3 203.744C599.948 204.199 599.772 204.767 599.772 205.449C599.772 206.438 600.13 207.193 600.846 207.716C601.573 208.227 602.494 208.483 603.607 208.483ZM633.735 213.511C631.053 213.511 628.746 212.943 626.815 211.807C624.894 210.659 623.417 209.068 622.383 207.034C621.36 205 620.849 202.659 620.849 200.011C620.849 197.33 621.366 194.977 622.4 192.955C623.445 190.92 624.928 189.335 626.849 188.199C628.769 187.051 631.053 186.477 633.701 186.477C635.985 186.477 637.985 186.892 639.701 187.722C641.417 188.551 642.775 189.716 643.775 191.216C644.775 192.716 645.326 194.477 645.428 196.5H638.576C638.383 195.193 637.871 194.142 637.042 193.347C636.224 192.54 635.15 192.136 633.82 192.136C632.695 192.136 631.712 192.443 630.871 193.057C630.042 193.659 629.394 194.54 628.928 195.699C628.462 196.858 628.229 198.261 628.229 199.909C628.229 201.58 628.457 203 628.911 204.17C629.377 205.341 630.031 206.233 630.871 206.847C631.712 207.46 632.695 207.767 633.82 207.767C634.65 207.767 635.394 207.597 636.053 207.256C636.724 206.915 637.275 206.42 637.707 205.773C638.15 205.114 638.44 204.324 638.576 203.403H645.428C645.315 205.403 644.769 207.165 643.792 208.688C642.826 210.199 641.491 211.381 639.786 212.233C638.082 213.085 636.065 213.511 633.735 213.511ZM657.339 197.864V213H650.077V178.091H657.134V191.438H657.441C658.032 189.892 658.987 188.682 660.305 187.807C661.623 186.92 663.276 186.477 665.265 186.477C667.083 186.477 668.668 186.875 670.021 187.67C671.384 188.455 672.441 189.585 673.191 191.062C673.952 192.528 674.327 194.284 674.316 196.33V213H667.055V197.625C667.066 196.011 666.657 194.756 665.827 193.858C665.009 192.96 663.862 192.511 662.384 192.511C661.396 192.511 660.521 192.722 659.759 193.142C659.009 193.562 658.418 194.176 657.987 194.983C657.566 195.778 657.35 196.739 657.339 197.864ZM680.031 213V186.818H687.292V213H680.031ZM683.678 183.443C682.599 183.443 681.673 183.085 680.9 182.369C680.138 181.642 679.758 180.773 679.758 179.761C679.758 178.761 680.138 177.903 680.9 177.188C681.673 176.46 682.599 176.097 683.678 176.097C684.758 176.097 685.678 176.46 686.44 177.188C687.212 177.903 687.599 178.761 687.599 179.761C687.599 180.773 687.212 181.642 686.44 182.369C685.678 183.085 684.758 183.443 683.678 183.443ZM700.37 197.864V213H693.109V186.818H700.029V191.438H700.336C700.915 189.915 701.887 188.71 703.251 187.824C704.614 186.926 706.268 186.477 708.211 186.477C710.029 186.477 711.614 186.875 712.967 187.67C714.319 188.466 715.37 189.602 716.12 191.08C716.87 192.545 717.245 194.295 717.245 196.33V213H709.984V197.625C709.995 196.023 709.586 194.773 708.756 193.875C707.927 192.966 706.785 192.511 705.33 192.511C704.353 192.511 703.489 192.722 702.739 193.142C702.001 193.562 701.421 194.176 701.001 194.983C700.592 195.778 700.381 196.739 700.37 197.864ZM734.9 213.511C732.207 213.511 729.888 212.966 727.945 211.875C726.013 210.773 724.525 209.216 723.479 207.205C722.434 205.182 721.911 202.79 721.911 200.028C721.911 197.335 722.434 194.972 723.479 192.938C724.525 190.903 725.996 189.318 727.894 188.182C729.803 187.045 732.042 186.477 734.61 186.477C736.337 186.477 737.945 186.756 739.434 187.312C740.934 187.858 742.241 188.682 743.354 189.784C744.479 190.886 745.354 192.273 745.979 193.943C746.604 195.602 746.917 197.545 746.917 199.773V201.767H724.809V197.267H740.082C740.082 196.222 739.854 195.295 739.4 194.489C738.945 193.682 738.315 193.051 737.508 192.597C736.712 192.131 735.786 191.898 734.729 191.898C733.627 191.898 732.65 192.153 731.798 192.665C730.957 193.165 730.298 193.841 729.82 194.693C729.343 195.534 729.099 196.472 729.087 197.506V201.784C729.087 203.08 729.326 204.199 729.803 205.142C730.292 206.085 730.979 206.812 731.866 207.324C732.752 207.835 733.803 208.091 735.019 208.091C735.826 208.091 736.565 207.977 737.235 207.75C737.906 207.523 738.479 207.182 738.957 206.727C739.434 206.273 739.798 205.716 740.048 205.057L746.763 205.5C746.423 207.114 745.724 208.523 744.667 209.727C743.621 210.92 742.269 211.852 740.61 212.523C738.962 213.182 737.059 213.511 734.9 213.511Z" fill="white"/>
<line x1="454" y1="156" x2="250" y2="156" stroke="black" stroke-width="6"/>
<path d="M492 1030L462 1012.68L462 1047.32L492 1030ZM465 1027L247 1027L247 1033L465 1033L465 1027Z" fill="black"/>
<path d="M70.4432 511.091H78.1818L88.5455 536.386H88.9545L99.3182 511.091H107.057V546H100.989V522.017H100.665L91.017 545.898H86.483L76.8352 521.966H76.5114V546H70.4432V511.091ZM113.943 511.091H121.682L132.045 536.386H132.455L142.818 511.091H150.557V546H144.489V522.017H144.165L134.517 545.898H129.983L120.335 521.966H120.011V546H113.943V511.091ZM163.767 511.091V546H157.443V511.091H163.767ZM201.808 528.545C201.808 532.307 201.104 535.528 199.695 538.21C198.297 540.881 196.388 542.926 193.967 544.347C191.558 545.767 188.825 546.477 185.768 546.477C182.712 546.477 179.973 545.767 177.553 544.347C175.143 542.915 173.234 540.864 171.825 538.193C170.428 535.511 169.729 532.295 169.729 528.545C169.729 524.784 170.428 521.568 171.825 518.898C173.234 516.216 175.143 514.165 177.553 512.744C179.973 511.324 182.712 510.614 185.768 510.614C188.825 510.614 191.558 511.324 193.967 512.744C196.388 514.165 198.297 516.216 199.695 518.898C201.104 521.568 201.808 524.784 201.808 528.545ZM195.45 528.545C195.45 525.898 195.036 523.665 194.206 521.847C193.388 520.017 192.251 518.636 190.797 517.705C189.342 516.761 187.666 516.29 185.768 516.29C183.871 516.29 182.195 516.761 180.74 517.705C179.286 518.636 178.143 520.017 177.314 521.847C176.496 523.665 176.087 525.898 176.087 528.545C176.087 531.193 176.496 533.432 177.314 535.261C178.143 537.08 179.286 538.46 180.74 539.403C182.195 540.335 183.871 540.801 185.768 540.801C187.666 540.801 189.342 540.335 190.797 539.403C192.251 538.46 193.388 537.08 194.206 535.261C195.036 533.432 195.45 531.193 195.45 528.545Z" fill="black"/>
</svg>
