<?xml version="1.0" encoding="UTF-8" standalone="no"?>
<!-- Created with Inkscape (http://www.inkscape.org/) -->

<svg
   width="84.224365mm"
   height="32.530689mm"
   viewBox="0 0 84.224367 32.530689"
   version="1.1"
   id="svg5"
   inkscape:version="1.3.2 (091e20e, 2023-11-25)"
   sodipodi:docname="sel4-docs.svg"
   inkscape:export-filename="C:\Users\Birgit Brecknell\Documents\seL4 Foundation\seL4 Summit 2022\sel4_summit_v02.png"
   inkscape:export-xdpi="96"
   inkscape:export-ydpi="96"
   xmlns:inkscape="http://www.inkscape.org/namespaces/inkscape"
   xmlns:sodipodi="http://sodipodi.sourceforge.net/DTD/sodipodi-0.dtd"
   xmlns="http://www.w3.org/2000/svg"
   xmlns:svg="http://www.w3.org/2000/svg">
  <sodipodi:namedview
     id="namedview7"
     pagecolor="#ffffff"
     bordercolor="#666666"
     borderopacity="1.0"
     inkscape:pageshadow="2"
     inkscape:pageopacity="0.0"
     inkscape:pagecheckerboard="0"
     inkscape:document-units="mm"
     showgrid="false"
     inkscape:zoom="1.8116734"
     inkscape:cx="193.19155"
     inkscape:cy="87.764163"
     inkscape:window-width="1392"
     inkscape:window-height="1099"
     inkscape:window-x="0"
     inkscape:window-y="25"
     inkscape:window-maximized="0"
     inkscape:current-layer="g18"
     fit-margin-top="0"
     fit-margin-left="0"
     fit-margin-right="0"
     fit-margin-bottom="0"
     showguides="true"
     inkscape:guide-bbox="true"
     inkscape:showpageshadow="2"
     inkscape:deskcolor="#d1d1d1" />
  <defs
     id="defs2">
    <rect
       x="680.69342"
       y="102.26014"
       width="15.612235"
       height="115.53054"
       id="rect9649" />
    <style
       id="style824">.cls-1,.cls-2,.cls-3{fill:#96ca4f;}.cls-2,.cls-3{stroke:#96ca4f;stroke-miterlimit:8;}.cls-3{stroke-width:0.25px;}</style>
    <clipPath
       clipPathUnits="userSpaceOnUse"
       id="clipPath15">
      <g
         inkscape:label="Clip"
         id="use15">
        <path
           d="m 39.66384,47.73588 h 1.324364 q 0.447983,0 0.68299,0.06854 0.315791,0.09302 0.541007,0.330479 0.225215,0.237455 0.342719,0.582623 0.117503,0.342719 0.117503,0.847005 0,0.443087 -0.110159,0.763774 -0.13464,0.391679 -0.384335,0.63403 -0.188496,0.1836 -0.509183,0.286416 -0.239903,0.07589 -0.641374,0.07589 H 39.66384 Z m 0.724606,0.607103 v 2.377001 h 0.541006 q 0.303551,0 0.438191,-0.03427 0.176255,-0.04406 0.291311,-0.149327 0.117504,-0.105264 0.190944,-0.345168 0.07344,-0.242351 0.07344,-0.65851 0,-0.416159 -0.07344,-0.638926 -0.07344,-0.222767 -0.205632,-0.347615 -0.132192,-0.124848 -0.335375,-0.168912 -0.151776,-0.03427 -0.594862,-0.03427 z m 2.751544,1.209308 q 0,-0.54835 0.164016,-0.920445 0.122399,-0.274175 0.332927,-0.492047 0.212975,-0.217871 0.465118,-0.323135 0.335375,-0.141984 0.773566,-0.141984 0.79315,0 1.268061,0.492047 0.477358,0.492047 0.477358,1.368428 0,0.869038 -0.472462,1.361085 -0.472463,0.489598 -1.263165,0.489598 -0.800494,0 -1.272956,-0.48715 -0.472463,-0.489599 -0.472463,-1.346397 z m 0.746638,-0.02448 q 0,0.609551 0.281519,0.925342 0.281519,0.313343 0.714814,0.313343 0.433295,0 0.709918,-0.310895 0.279072,-0.313343 0.279072,-0.937582 0,-0.616894 -0.271728,-0.920445 -0.269279,-0.303551 -0.717262,-0.303551 -0.447983,0 -0.722158,0.308447 -0.274175,0.305999 -0.274175,0.925341 z m 5.596112,0.477359 0.702574,0.222767 q -0.161567,0.587519 -0.538558,0.873934 -0.374543,0.283967 -0.95227,0.283967 -0.714814,0 -1.175036,-0.48715 -0.460223,-0.489599 -0.460223,-1.336605 0,-0.895965 0.462671,-1.39046 0.46267,-0.496943 1.216652,-0.496943 0.658511,0 1.069773,0.389231 0.2448,0.230112 0.367199,0.660959 l -0.717262,0.171359 q -0.06365,-0.279071 -0.266831,-0.440639 -0.200735,-0.161567 -0.489599,-0.161567 -0.399022,0 -0.648718,0.286415 -0.247247,0.286415 -0.247247,0.927789 0,0.680542 0.244799,0.969406 0.2448,0.288863 0.636478,0.288863 0.288864,0 0.496943,-0.1836 0.20808,-0.183599 0.298655,-0.577726 z m 1.140766,0.151776 0.705022,-0.06854 q 0.06365,0.354959 0.257039,0.521422 0.19584,0.166464 0.526319,0.166464 0.350063,0 0.526318,-0.14688 0.178704,-0.149327 0.178704,-0.347615 0,-0.127295 -0.07589,-0.215423 -0.07344,-0.09058 -0.259487,-0.156672 -0.127296,-0.04406 -0.580175,-0.156671 -0.582622,-0.144432 -0.81763,-0.354959 -0.330479,-0.296208 -0.330479,-0.722158 0,-0.274176 0.154224,-0.511631 0.156671,-0.239903 0.447983,-0.364751 0.293759,-0.124848 0.70747,-0.124848 0.675646,0 1.015917,0.296208 0.342719,0.296207 0.359855,0.790701 l -0.724606,0.03182 q -0.04651,-0.276623 -0.200735,-0.396575 -0.151776,-0.122399 -0.457775,-0.122399 -0.315791,0 -0.494495,0.129743 -0.115056,0.08323 -0.115056,0.222768 0,0.127295 0.107712,0.217871 0.137088,0.115056 0.665854,0.239904 0.528767,0.124847 0.78091,0.259487 0.254591,0.132191 0.396575,0.364751 0.144432,0.230111 0.144432,0.570382 0,0.308447 -0.17136,0.577727 -0.171359,0.269279 -0.484703,0.401471 -0.313343,0.129743 -0.780909,0.129743 -0.680542,0 -1.045293,-0.313343 -0.364751,-0.315791 -0.435743,-0.917997 z"
           id="path16"
           style="font-weight:bold;font-stretch:condensed;font-size:5.01349px;font-family:Arial;-inkscape-font-specification:'Arial, Bold Condensed';fill:#96ca4f;stroke-width:0.264583"
           transform="scale(1.0680757,0.9362632)"
           aria-label="DOCS" />
      </g>
    </clipPath>
  </defs>
  <g
     inkscape:label="Layer 1"
     inkscape:groupmode="layer"
     id="layer1"
     transform="translate(-11.065137,-18.670029)">
    <g
       id="g18">
      <text
         xml:space="preserve"
         transform="scale(0.26458333)"
         id="text9647"
         style="font-style:normal;font-weight:normal;font-size:40px;line-height:1.25;font-family:sans-serif;white-space:pre;shape-inside:url(#rect9649);display:inline;fill:#000000;fill-opacity:1;stroke:none" />
      <g
         id="Layer_2"
         data-name="Layer 2"
         transform="matrix(0.5563179,0,0,0.5563179,-0.00218815,0)">
        <path
           class="cls-1"
           d="M 169.29,64.52 V 41.46 h -11.1 l -19.38,23.1 h -5.43 v -28.5 h -10.85 v 28.5 h -5.6 c 0,-0.53 0.08,-1.14 0.08,-1.88 V 62 h -6.77 v 1.94 a 6.32,6.32 0 0 1 -0.37,2.63 1.68,1.68 0 0 1 -1.66,0.88 1.5,1.5 0 0 1 -1.42,-0.71 5,5 0 0 1 -0.32,-2.33 V 58.73 H 117 V 56 a 13,13 0 0 0 -0.85,-5.23 6.31,6.31 0 0 0 -2.92,-2.88 11.68,11.68 0 0 0 -5.43,-1.11 11.49,11.49 0 0 0 -4.76,0.93 5.75,5.75 0 0 0 -2.88,2.57 10.54,10.54 0 0 0 -0.89,4.76 v 7 a 20,20 0 0 0 0.13,2.5 h -3 c 0,-0.28 0,-0.56 0,-0.87 a 5.84,5.84 0 0 0 -1,-3.71 12.59,12.59 0 0 0 -4.47,-2.8 22,22 0 0 1 -3.6,-1.84 3,3 0 0 1 -1.22,-1.32 6,6 0 0 1 -0.19,-1.77 2.32,2.32 0 0 1 0.45,-1.52 1.7,1.7 0 0 1 1.39,-0.58 1.5,1.5 0 0 1 1.49,0.71 5.86,5.86 0 0 1 0.25,2.32 v 1.3 h 6.27 V 53 a 11.15,11.15 0 0 0 -0.2,-2.55 3.72,3.72 0 0 0 -1.08,-1.63 6.68,6.68 0 0 0 -2.67,-1.49 14.3,14.3 0 0 0 -4.38,-0.58 13.32,13.32 0 0 0 -4.54,0.71 5,5 0 0 0 -2.63,1.92 7.84,7.84 0 0 0 -0.78,4 6.85,6.85 0 0 0 0.73,3.28 c 0.47,0.89 1.88,1.93 4.17,3.09 3.84,1.92 4.6,2.43 4.85,2.66 a 3.55,3.55 0 0 1 0.59,2.49 3,3 0 0 1 -0.46,2 A 2,2 0 0 1 87.8,67.45 1.5,1.5 0 0 1 86.3,66.6 6.54,6.54 0 0 1 86,63.87 v -2 h -6.29 v 1.62 c 0,0.38 0,0.72 0,1.05 h -6 a 25.58,25.58 0 1 0 0,8.83 H 158 v 8.42 h 11.33 v -8.4 h 5 V 64.52 Z M 38.89,75.1 A 6.1,6.1 0 1 1 45,69 6.1,6.1 0 0 1 38.89,75.1 Z m 67.54,-20.86 a 7.57,7.57 0 0 1 0.24,-2.68 c 0.15,-0.34 0.53,-0.75 1.48,-0.75 a 1.36,1.36 0 0 1 1.35,0.84 7.39,7.39 0 0 1 0.25,2.59 v 2.23 h -3.32 z M 158,64.52 h -9.62 L 158,52.22 Z"
           transform="translate(-3.04,-2.5)"
           id="path858" />
      </g>
      <text
         xml:space="preserve"
         style="font-weight:bold;font-stretch:condensed;font-size:8.61839px;font-family:Arial;-inkscape-font-specification:'Arial, Bold Condensed';fill:none;fill-opacity:1;fill-rule:evenodd;stroke:#000000;stroke-width:0.505292;stroke-opacity:1"
         x="48.089367"
         y="45.416836"
         id="text16"
         transform="scale(0.93916555,1.064775)"><tspan
           sodipodi:role="line"
           id="tspan16"
           style="fill:#96ca4f;fill-opacity:1;stroke:none;stroke-width:0.505292"
           x="48.089367"
           y="45.416836">D</tspan></text>
      <text
         xml:space="preserve"
         style="font-weight:bold;font-stretch:condensed;font-size:8.87389px;font-family:Arial;-inkscape-font-specification:'Arial, Bold Condensed';fill:none;fill-opacity:1;fill-rule:evenodd;stroke:#000000;stroke-width:0.505292;stroke-opacity:1"
         x="54.558205"
         y="48.250385"
         id="text16-9"><tspan
           sodipodi:role="line"
           id="tspan16-1"
           style="fill:#96ca4f;fill-opacity:1;stroke:none;stroke-width:0.505292"
           x="54.558205"
           y="48.250385">O</tspan></text>
      <g
         id="g1"
         transform="matrix(1.1426343,0,0,1.1426343,24.136464,-10.044912)"
         style="stroke-width:1.67137">
        <text
           xml:space="preserve"
           style="font-weight:bold;font-stretch:condensed;font-size:7.7611px;font-family:Arial;-inkscape-font-specification:'Arial, Bold Condensed';fill:none;fill-opacity:1;fill-rule:evenodd;stroke:#000000;stroke-width:0.442217;stroke-opacity:1"
           x="44.508698"
           y="51.014606"
           id="text16-5"><tspan
             sodipodi:role="line"
             id="tspan16-8"
             style="fill:#96ca4f;fill-opacity:1;stroke:none;stroke-width:0.442217"
             x="44.508698"
             y="51.014606">S</tspan></text>
      </g>
      <text
         xml:space="preserve"
         style="font-weight:bold;font-stretch:condensed;font-size:8.87389px;font-family:Arial;-inkscape-font-specification:'Arial, Bold Condensed';fill:#96ca4f;fill-opacity:1;fill-rule:evenodd;stroke:none;stroke-width:0.505292;stroke-opacity:1"
         x="65.022789"
         y="48.250385"
         id="text17"><tspan
           sodipodi:role="line"
           id="tspan17"
           style="stroke-width:0.505292"
           x="65.022789"
           y="48.250385">C</tspan></text>
    </g>
  </g>
</svg>
