<svg width="1497" height="607" viewBox="0 0 1497 607" fill="none" xmlns="http://www.w3.org/2000/svg">
<path d="M640.312 19.1875C637.219 19.1875 635.031 17.1562 635.031 14.2188C635.031 11.2812 637.219 9.25 640.312 9.25C643.438 9.25 645.625 11.2812 645.625 14.2188C645.625 17.1562 643.438 19.1875 640.312 19.1875ZM654.844 61H625.719V55.1875H637V32.5938H626.094V26.7812H644.094V55.1875H654.844V61ZM664.562 61V26.7812H671.594V32.625H672.094C673.844 28.4375 677.625 26.0938 682.656 26.0938C690.094 26.0938 694.125 30.5312 694.125 38.8125V61H686.844V40.5938C686.844 35.0938 684.594 32.4688 679.906 32.4688C675.031 32.4688 671.844 35.875 671.844 41.0625V61H664.562ZM719.438 19.1875C716.344 19.1875 714.156 17.1562 714.156 14.2188C714.156 11.2812 716.344 9.25 719.438 9.25C722.562 9.25 724.75 11.2812 724.75 14.2188C724.75 17.1562 722.562 19.1875 719.438 19.1875ZM733.969 61H704.844V55.1875H716.125V32.5938H705.219V26.7812H723.219V55.1875H733.969V61ZM751.875 17.2188H759V27H772.219V32.875H759.125V50.4688C759.125 53.5 761.281 55.1875 765.156 55.1875C766.406 55.1875 771.344 55.1562 771.938 55.0938V60.9062C771.375 61 765.625 61.0938 764.594 61.0938C755.594 61.0938 751.875 58.0312 751.875 50.4375V32.875H742.875V27H751.875V17.2188ZM789.969 38.4688C789.969 27.25 793.375 17.5 799.812 10.2812H807.25C800.594 20.0625 797.875 28.1875 797.875 38.4688C797.875 48.7188 800.594 56.8125 807.25 66.5938H799.812C793.375 59.375 789.969 49.625 789.969 38.4688ZM828.375 10.2812H835.812C842.25 17.5 845.656 27.25 845.656 38.4688C845.656 49.625 842.25 59.375 835.812 66.5938H828.375C835.031 56.8125 837.75 48.7188 837.75 38.4688C837.75 28.1875 835.031 20.0625 828.375 10.2812Z" fill="black"/>
<path d="M460.594 247.781L453.531 282H447.031L441.969 257.5H441.625L436.531 282H430.031L422.969 247.781H429.938L433.344 273.25H434.25L438.656 247.844H444.906L449.312 273.25H450.219L453.594 247.781H460.594ZM477.188 282.562C470.688 282.562 466.344 278.438 466.344 272.25C466.344 266.125 470.781 262.5 478.969 262L487.531 261.5V258.625C487.531 255.094 485.25 253.094 481.25 253.094C477.906 253.094 475.469 254.531 474.719 257.031H467.594C468.219 251.125 473.75 247.219 481.438 247.219C489.906 247.219 494.719 251.375 494.719 258.688V282H487.812V277.219H487.156C485.5 280.625 481.844 282.562 477.188 282.562ZM479.531 276.625C484.156 276.625 487.531 273.656 487.531 269.531V266.406L480.062 266.812C475.781 267.062 473.562 268.781 473.562 271.812C473.562 274.781 475.875 276.625 479.531 276.625ZM521.438 240.188C518.344 240.188 516.156 238.156 516.156 235.219C516.156 232.281 518.344 230.25 521.438 230.25C524.562 230.25 526.75 232.281 526.75 235.219C526.75 238.156 524.562 240.188 521.438 240.188ZM535.969 282H506.844V276.188H518.125V253.594H507.219V247.781H525.219V276.188H535.969V282ZM553.875 238.219H561V248H574.219V253.875H561.125V271.469C561.125 274.5 563.281 276.188 567.156 276.188C568.406 276.188 573.344 276.156 573.938 276.094V281.906C573.375 282 567.625 282.094 566.594 282.094C557.594 282.094 553.875 279.031 553.875 271.438V253.875H544.875V248H553.875V238.219ZM616.25 292.531H583.812V286.156H616.25V292.531ZM634.062 282V253.875H624.906V248H634.062V245.156C634.062 237.875 637.875 234.875 646.812 234.875C648.094 234.875 654.781 235 655.5 235.094V240.562C654.531 240.469 648.219 240.375 646.969 240.375C643.156 240.375 641.188 241.875 641.188 244.781V248H655.5V253.875H641.312V282H634.062ZM679.156 282.688C669.719 282.688 663.75 276.812 663.75 267.5V262.281C663.75 252.969 669.719 247.094 679.156 247.094C688.594 247.094 694.562 252.969 694.562 262.281V267.5C694.562 276.812 688.594 282.688 679.156 282.688ZM679.156 253.125C674.094 253.125 670.938 256.781 670.938 262.688V267.094C670.938 273 674.094 276.656 679.156 276.656C684.219 276.656 687.375 273 687.375 267.094V262.688C687.375 256.781 684.219 253.125 679.156 253.125ZM717.812 256.531H718.875C720.281 249.938 724.094 246.875 730.594 246.875C732.531 246.875 734.312 247.125 735.5 247.594V255.5C733.969 254.906 731.719 254.531 729.844 254.531C721.938 254.531 717.781 258.844 717.781 266.75V276.562H727.969V282H704.125V276.562H710.781V253.219H703.469V247.781H717.812V256.531ZM774.5 292.531H742.062V286.156H774.5V292.531ZM798.219 252.844C793.312 252.844 790.375 256.188 790.375 261.781H805.875C805.875 256.219 803 252.844 798.219 252.844ZM805.969 272.719H812.875C812.062 278.594 806.25 282.688 798.594 282.688C788.844 282.688 783.219 277.094 783.219 267.344V262C783.219 253.031 789.25 247.094 798.344 247.094C807.344 247.094 812.938 253 812.938 262.5V266.656H790.375V268.312C790.375 273.531 793.594 276.906 798.562 276.906C802.344 276.906 805.25 275.25 805.969 272.719ZM821.156 247.781H828.969L837.25 274.781H837.75L845.938 247.781H853.656L841.531 282H833.344L821.156 247.781ZM877.344 252.844C872.438 252.844 869.5 256.188 869.5 261.781H885C885 256.219 882.125 252.844 877.344 252.844ZM885.094 272.719H892C891.188 278.594 885.375 282.688 877.719 282.688C867.969 282.688 862.344 277.094 862.344 267.344V262C862.344 253.031 868.375 247.094 877.469 247.094C886.469 247.094 892.062 253 892.062 262.5V266.656H869.5V268.312C869.5 273.531 872.719 276.906 877.688 276.906C881.469 276.906 884.375 275.25 885.094 272.719ZM901.75 282V247.781H908.781V253.625H909.281C911.031 249.438 914.812 247.094 919.844 247.094C927.281 247.094 931.312 251.531 931.312 259.812V282H924.031V261.594C924.031 256.094 921.781 253.469 917.094 253.469C912.219 253.469 909.031 256.875 909.031 262.062V282H901.75ZM949.5 238.219H956.625V248H969.844V253.875H956.75V271.469C956.75 274.5 958.906 276.188 962.781 276.188C964.031 276.188 968.969 276.156 969.562 276.094V281.906C969 282 963.25 282.094 962.219 282.094C953.219 282.094 949.5 279.031 949.5 271.438V253.875H940.5V248H949.5V238.219ZM987.594 259.469C987.594 248.25 991 238.5 997.438 231.281H1004.88C998.219 241.062 995.5 249.188 995.5 259.469C995.5 269.719 998.219 277.812 1004.88 287.594H997.438C991 280.375 987.594 270.625 987.594 259.469ZM1026 231.281H1033.44C1039.88 238.5 1043.28 248.25 1043.28 259.469C1043.28 270.625 1039.88 280.375 1033.44 287.594H1026C1032.66 277.812 1035.38 269.719 1035.38 259.469C1035.38 249.188 1032.66 241.062 1026 231.281Z" fill="black"/>
<path d="M174 592V557.781H181.031V563.625H181.531C183.281 559.438 187.062 557.094 192.094 557.094C199.531 557.094 203.562 561.531 203.562 569.812V592H196.281V571.594C196.281 566.094 194.031 563.469 189.344 563.469C184.469 563.469 181.281 566.875 181.281 572.062V592H174ZM228.344 592.688C218.906 592.688 212.938 586.812 212.938 577.5V572.281C212.938 562.969 218.906 557.094 228.344 557.094C237.781 557.094 243.75 562.969 243.75 572.281V577.5C243.75 586.812 237.781 592.688 228.344 592.688ZM228.344 563.125C223.281 563.125 220.125 566.781 220.125 572.688V577.094C220.125 583 223.281 586.656 228.344 586.656C233.406 586.656 236.562 583 236.562 577.094V572.688C236.562 566.781 233.406 563.125 228.344 563.125ZM261.312 548.219H268.438V558H281.656V563.875H268.562V581.469C268.562 584.5 270.719 586.188 274.594 586.188C275.844 586.188 280.781 586.156 281.375 586.094V591.906C280.812 592 275.062 592.094 274.031 592.094C265.031 592.094 261.312 589.031 261.312 581.438V563.875H252.312V558H261.312V548.219ZM308 550.188C304.906 550.188 302.719 548.156 302.719 545.219C302.719 542.281 304.906 540.25 308 540.25C311.125 540.25 313.312 542.281 313.312 545.219C313.312 548.156 311.125 550.188 308 550.188ZM322.531 592H293.406V586.188H304.688V563.594H293.781V557.781H311.781V586.188H322.531V592ZM341.5 592V563.875H332.344V558H341.5V555.156C341.5 547.875 345.312 544.875 354.25 544.875C355.531 544.875 362.219 545 362.938 545.094V550.562C361.969 550.469 355.656 550.375 354.406 550.375C350.594 550.375 348.625 551.875 348.625 554.781V558H362.938V563.875H348.75V592H341.5ZM387.125 550.188C384.031 550.188 381.844 548.156 381.844 545.219C381.844 542.281 384.031 540.25 387.125 540.25C390.25 540.25 392.438 542.281 392.438 545.219C392.438 548.156 390.25 550.188 387.125 550.188ZM401.656 592H372.531V586.188H383.812V563.594H372.906V557.781H390.906V586.188H401.656V592ZM426.531 562.844C421.625 562.844 418.688 566.188 418.688 571.781H434.188C434.188 566.219 431.312 562.844 426.531 562.844ZM434.281 582.719H441.188C440.375 588.594 434.562 592.688 426.906 592.688C417.156 592.688 411.531 587.094 411.531 577.344V572C411.531 563.031 417.562 557.094 426.656 557.094C435.656 557.094 441.25 563 441.25 572.5V576.656H418.688V578.312C418.688 583.531 421.906 586.906 426.875 586.906C430.656 586.906 433.562 585.25 434.281 582.719ZM457.25 572.125V577.469C457.25 582.844 460.281 586.188 465.188 586.188C470.062 586.188 473.094 582.844 473.094 577.469V572.125C473.094 566.719 470.062 563.375 465.188 563.375C460.281 563.375 457.25 566.75 457.25 572.125ZM473.062 586.375H472.438C471 590.375 467.531 592.531 462.562 592.531C454.719 592.531 449.844 587.031 449.844 577.906V571.812C449.844 562.719 454.719 557.188 462.562 557.188C467.5 557.188 471.031 559.406 472.312 563.375H472.938V544.562H480.438V592H473.062V586.375ZM497.219 569.469C497.219 558.25 500.625 548.5 507.062 541.281H514.5C507.844 551.062 505.125 559.188 505.125 569.469C505.125 579.719 507.844 587.812 514.5 597.594H507.062C500.625 590.375 497.219 580.625 497.219 569.469ZM544.844 592.438C541.344 592.438 538.469 589.469 538.469 585.906C538.469 582.344 541.344 579.406 544.844 579.406C548.344 579.406 551.219 582.344 551.219 585.906C551.219 589.469 548.344 592.438 544.844 592.438ZM584.406 592.438C580.906 592.438 578.031 589.469 578.031 585.906C578.031 582.344 580.906 579.406 584.406 579.406C587.906 579.406 590.781 582.344 590.781 585.906C590.781 589.469 587.906 592.438 584.406 592.438ZM623.969 592.438C620.469 592.438 617.594 589.469 617.594 585.906C617.594 582.344 620.469 579.406 623.969 579.406C627.469 579.406 630.344 582.344 630.344 585.906C630.344 589.469 627.469 592.438 623.969 592.438ZM654.312 541.281H661.75C668.188 548.5 671.594 558.25 671.594 569.469C671.594 580.625 668.188 590.375 661.75 597.594H654.312C660.969 587.812 663.688 579.719 663.688 569.469C663.688 559.188 660.969 551.062 654.312 541.281Z" fill="black"/>
<path d="M818.938 555.219C826.812 555.219 831.688 560.75 831.688 569.844V575.938C831.688 585.062 826.812 590.594 818.938 590.594C814 590.594 810.5 588.344 809.219 584.406H808.594V601.469H801.094V555.781H808.469V561.406H809.094C810.531 557.406 814 555.219 818.938 555.219ZM816.344 561.594C811.469 561.594 808.438 564.938 808.438 570.312V575.688C808.438 581.062 811.469 584.406 816.344 584.406C821.25 584.406 824.281 581.031 824.281 575.688V570.312C824.281 564.938 821.25 561.594 816.344 561.594ZM854.438 564.531H855.5C856.906 557.938 860.719 554.875 867.219 554.875C869.156 554.875 870.938 555.125 872.125 555.594V563.5C870.594 562.906 868.344 562.531 866.469 562.531C858.562 562.531 854.406 566.844 854.406 574.75V584.562H864.594V590H840.75V584.562H847.406V561.219H840.094V555.781H854.438V564.531ZM894.906 590.688C885.469 590.688 879.5 584.812 879.5 575.5V570.281C879.5 560.969 885.469 555.094 894.906 555.094C904.344 555.094 910.312 560.969 910.312 570.281V575.5C910.312 584.812 904.344 590.688 894.906 590.688ZM894.906 561.125C889.844 561.125 886.688 564.781 886.688 570.688V575.094C886.688 581 889.844 584.656 894.906 584.656C899.969 584.656 903.125 581 903.125 575.094V570.688C903.125 564.781 899.969 561.125 894.906 561.125ZM927.875 546.219H935V556H948.219V561.875H935.125V579.469C935.125 582.5 937.281 584.188 941.156 584.188C942.406 584.188 947.344 584.156 947.938 584.094V589.906C947.375 590 941.625 590.094 940.594 590.094C931.594 590.094 927.875 587.031 927.875 579.438V561.875H918.875V556H927.875V546.219ZM974.406 560.844C969.5 560.844 966.562 564.188 966.562 569.781H982.062C982.062 564.219 979.188 560.844 974.406 560.844ZM982.156 580.719H989.062C988.25 586.594 982.438 590.688 974.781 590.688C965.031 590.688 959.406 585.094 959.406 575.344V570C959.406 561.031 965.438 555.094 974.531 555.094C983.531 555.094 989.125 561 989.125 570.5V574.656H966.562V576.312C966.562 581.531 969.781 584.906 974.75 584.906C978.531 584.906 981.438 583.25 982.156 580.719ZM1028.59 567.188H1021.47C1020.88 563.281 1018.16 561.125 1014.19 561.125C1009.06 561.125 1006.25 564.812 1006.25 571.531V574.156C1006.25 580.875 1009.06 584.562 1014.19 584.562C1018.19 584.562 1020.84 582.5 1021.47 578.719H1028.59C1027.81 586.375 1022.59 590.688 1014.25 590.688C1004.47 590.688 998.938 585 998.938 574.812V570.875C998.938 560.719 1004.47 555 1014.25 555C1022.62 555 1027.78 559.344 1028.59 567.188ZM1046.56 546.219H1053.69V556H1066.91V561.875H1053.81V579.469C1053.81 582.5 1055.97 584.188 1059.84 584.188C1061.09 584.188 1066.03 584.156 1066.62 584.094V589.906C1066.06 590 1060.31 590.094 1059.28 590.094C1050.28 590.094 1046.56 587.031 1046.56 579.438V561.875H1037.56V556H1046.56V546.219ZM1093.09 560.844C1088.19 560.844 1085.25 564.188 1085.25 569.781H1100.75C1100.75 564.219 1097.88 560.844 1093.09 560.844ZM1100.84 580.719H1107.75C1106.94 586.594 1101.12 590.688 1093.47 590.688C1083.72 590.688 1078.09 585.094 1078.09 575.344V570C1078.09 561.031 1084.12 555.094 1093.22 555.094C1102.22 555.094 1107.81 561 1107.81 570.5V574.656H1085.25V576.312C1085.25 581.531 1088.47 584.906 1093.44 584.906C1097.22 584.906 1100.12 583.25 1100.84 580.719ZM1123.81 570.125V575.469C1123.81 580.844 1126.84 584.188 1131.75 584.188C1136.62 584.188 1139.66 580.844 1139.66 575.469V570.125C1139.66 564.719 1136.62 561.375 1131.75 561.375C1126.84 561.375 1123.81 564.75 1123.81 570.125ZM1139.62 584.375H1139C1137.56 588.375 1134.09 590.531 1129.12 590.531C1121.28 590.531 1116.41 585.031 1116.41 575.906V569.812C1116.41 560.719 1121.28 555.188 1129.12 555.188C1134.06 555.188 1137.59 557.406 1138.88 561.375H1139.5V542.562H1147V590H1139.62V584.375ZM1163.78 567.469C1163.78 556.25 1167.19 546.5 1173.62 539.281H1181.06C1174.41 549.062 1171.69 557.188 1171.69 567.469C1171.69 577.719 1174.41 585.812 1181.06 595.594H1173.62C1167.19 588.375 1163.78 578.625 1163.78 567.469ZM1211.41 590.438C1207.91 590.438 1205.03 587.469 1205.03 583.906C1205.03 580.344 1207.91 577.406 1211.41 577.406C1214.91 577.406 1217.78 580.344 1217.78 583.906C1217.78 587.469 1214.91 590.438 1211.41 590.438ZM1250.97 590.438C1247.47 590.438 1244.59 587.469 1244.59 583.906C1244.59 580.344 1247.47 577.406 1250.97 577.406C1254.47 577.406 1257.34 580.344 1257.34 583.906C1257.34 587.469 1254.47 590.438 1250.97 590.438ZM1290.53 590.438C1287.03 590.438 1284.16 587.469 1284.16 583.906C1284.16 580.344 1287.03 577.406 1290.53 577.406C1294.03 577.406 1296.91 580.344 1296.91 583.906C1296.91 587.469 1294.03 590.438 1290.53 590.438ZM1320.88 539.281H1328.31C1334.75 546.5 1338.16 556.25 1338.16 567.469C1338.16 578.625 1334.75 588.375 1328.31 595.594H1320.88C1327.53 585.812 1330.25 577.719 1330.25 567.469C1330.25 557.188 1327.53 549.062 1320.88 539.281Z" fill="black"/>
<path d="M739 210L756.321 180L721.679 180L739 210ZM736 87L736 183L742 183L742 87L736 87Z" fill="#757575"/>
<path d="M426 501L459.461 492.034L434.966 467.539L426 501ZM597.879 324.879L442.971 479.787L447.213 484.029L602.121 329.121L597.879 324.879Z" fill="#757575"/>
<path d="M110 569H-5.99401e-07" stroke="#757575" stroke-width="6"/>
<path d="M377 259L347 241.679V276.321L377 259ZM350 256L1.32703e-05 256V262L350 262V256Z" fill="#757575"/>
<path d="M3 572L3 259" stroke="#757575" stroke-width="6"/>
<path d="M1387 569H1497" stroke="#757575" stroke-width="6"/>
<path d="M1120 259L1150 241.679V276.321L1120 259ZM1147 256L1497 256V262L1147 262V256Z" fill="#757575"/>
<path d="M1494 572L1494 259" stroke="#757575" stroke-width="6"/>
<path d="M1075 501L1041.54 492.034L1066.03 467.539L1075 501ZM903.121 324.879L1058.03 479.787L1053.79 484.029L898.879 329.121L903.121 324.879Z" fill="#757575"/>
</svg>
