<svg width="999" height="628" viewBox="0 0 999 628" fill="none" xmlns="http://www.w3.org/2000/svg">
<rect x="309" y="289" width="687" height="94" stroke="#69A63A" stroke-width="6"/>
<path d="M619.682 334.284L613.034 334.693C612.92 334.125 612.676 333.614 612.301 333.159C611.926 332.693 611.432 332.324 610.818 332.051C610.216 331.767 609.494 331.625 608.653 331.625C607.528 331.625 606.58 331.864 605.807 332.341C605.034 332.807 604.648 333.432 604.648 334.216C604.648 334.841 604.898 335.369 605.398 335.801C605.898 336.233 606.756 336.58 607.972 336.841L612.71 337.795C615.256 338.318 617.153 339.159 618.403 340.318C619.653 341.477 620.278 343 620.278 344.886C620.278 346.602 619.773 348.108 618.761 349.403C617.761 350.699 616.386 351.71 614.636 352.438C612.898 353.153 610.892 353.511 608.619 353.511C605.153 353.511 602.392 352.79 600.335 351.347C598.29 349.892 597.091 347.915 596.739 345.415L603.881 345.04C604.097 346.097 604.619 346.903 605.449 347.46C606.278 348.006 607.341 348.278 608.636 348.278C609.909 348.278 610.932 348.034 611.705 347.545C612.489 347.045 612.886 346.403 612.898 345.619C612.886 344.96 612.608 344.42 612.062 344C611.517 343.568 610.676 343.239 609.54 343.011L605.006 342.108C602.449 341.597 600.545 340.71 599.295 339.449C598.057 338.187 597.438 336.58 597.438 334.625C597.438 332.943 597.892 331.494 598.801 330.278C599.722 329.062 601.011 328.125 602.67 327.466C604.341 326.807 606.295 326.477 608.534 326.477C611.841 326.477 614.443 327.176 616.341 328.574C618.25 329.972 619.364 331.875 619.682 334.284ZM636.783 353.511C634.089 353.511 631.771 352.966 629.828 351.875C627.896 350.773 626.408 349.216 625.362 347.205C624.317 345.182 623.794 342.79 623.794 340.028C623.794 337.335 624.317 334.972 625.362 332.938C626.408 330.903 627.879 329.318 629.777 328.182C631.686 327.045 633.925 326.477 636.493 326.477C638.22 326.477 639.828 326.756 641.317 327.312C642.817 327.858 644.124 328.682 645.237 329.784C646.362 330.886 647.237 332.273 647.862 333.943C648.487 335.602 648.8 337.545 648.8 339.773V341.767H626.692V337.267H641.964C641.964 336.222 641.737 335.295 641.283 334.489C640.828 333.682 640.197 333.051 639.391 332.597C638.595 332.131 637.669 331.898 636.612 331.898C635.51 331.898 634.533 332.153 633.68 332.665C632.839 333.165 632.18 333.841 631.703 334.693C631.226 335.534 630.982 336.472 630.97 337.506V341.784C630.97 343.08 631.209 344.199 631.686 345.142C632.175 346.085 632.862 346.812 633.749 347.324C634.635 347.835 635.686 348.091 636.902 348.091C637.709 348.091 638.447 347.977 639.118 347.75C639.788 347.523 640.362 347.182 640.839 346.727C641.317 346.273 641.68 345.716 641.93 345.057L648.646 345.5C648.305 347.114 647.607 348.523 646.55 349.727C645.504 350.92 644.152 351.852 642.493 352.523C640.845 353.182 638.942 353.511 636.783 353.511ZM653.675 353V318.091H661.055V346.915H676.021V353H653.675ZM680.176 346.864V341.051L694.75 318.091H699.761V326.136H696.795L687.608 340.676V340.949H708.318V346.864H680.176ZM696.932 353V345.091L697.068 342.517V318.091H703.989V353H696.932Z" fill="#69A63A"/>
<rect x="309" y="3" width="375" height="167" stroke="#2C6AB1" stroke-width="6"/>
<path d="M369.972 78.1307C369.835 76.7557 369.25 75.6875 368.216 74.9261C367.182 74.1648 365.778 73.7841 364.006 73.7841C362.801 73.7841 361.784 73.9545 360.955 74.2955C360.125 74.625 359.489 75.0852 359.045 75.6761C358.614 76.267 358.398 76.9375 358.398 77.6875C358.375 78.3125 358.506 78.858 358.79 79.3239C359.085 79.7898 359.489 80.1932 360 80.5341C360.511 80.8636 361.102 81.1534 361.773 81.4034C362.443 81.642 363.159 81.8466 363.92 82.017L367.057 82.767C368.58 83.108 369.977 83.5625 371.25 84.1307C372.523 84.6989 373.625 85.3977 374.557 86.2273C375.489 87.0568 376.21 88.0341 376.722 89.1591C377.244 90.2841 377.511 91.5739 377.523 93.0284C377.511 95.1648 376.966 97.017 375.886 98.5852C374.818 100.142 373.273 101.352 371.25 102.216C369.239 103.068 366.813 103.494 363.972 103.494C361.153 103.494 358.699 103.062 356.608 102.199C354.528 101.335 352.903 100.057 351.733 98.3636C350.574 96.6591 349.966 94.5511 349.909 92.0398H357.051C357.131 93.2102 357.466 94.1875 358.057 94.9716C358.659 95.7443 359.46 96.3295 360.46 96.7273C361.472 97.1136 362.614 97.3068 363.886 97.3068C365.136 97.3068 366.222 97.125 367.142 96.7614C368.074 96.3977 368.795 95.892 369.307 95.2443C369.818 94.5966 370.074 93.8523 370.074 93.0114C370.074 92.2273 369.841 91.5682 369.375 91.0341C368.92 90.5 368.25 90.0455 367.364 89.6705C366.489 89.2955 365.415 88.9545 364.142 88.6477L360.341 87.6932C357.398 86.9773 355.074 85.858 353.369 84.3352C351.665 82.8125 350.818 80.7614 350.83 78.1818C350.818 76.0682 351.381 74.2216 352.517 72.642C353.665 71.0625 355.239 69.8295 357.239 68.9432C359.239 68.0568 361.511 67.6136 364.057 67.6136C366.648 67.6136 368.909 68.0568 370.841 68.9432C372.784 69.8295 374.295 71.0625 375.375 72.642C376.455 74.2216 377.011 76.0511 377.045 78.1307H369.972ZM394.283 103.511C391.589 103.511 389.271 102.966 387.328 101.875C385.396 100.773 383.908 99.2159 382.862 97.2045C381.817 95.1818 381.294 92.7898 381.294 90.0284C381.294 87.3352 381.817 84.9716 382.862 82.9375C383.908 80.9034 385.379 79.3182 387.277 78.1818C389.186 77.0455 391.425 76.4773 393.993 76.4773C395.72 76.4773 397.328 76.7557 398.817 77.3125C400.317 77.858 401.624 78.6818 402.737 79.7841C403.862 80.8864 404.737 82.2727 405.362 83.9432C405.987 85.6023 406.3 87.5455 406.3 89.7727V91.767H384.192V87.267H399.464C399.464 86.2216 399.237 85.2955 398.783 84.4886C398.328 83.6818 397.697 83.0511 396.891 82.5966C396.095 82.1307 395.169 81.8977 394.112 81.8977C393.01 81.8977 392.033 82.1534 391.18 82.6648C390.339 83.1648 389.68 83.8409 389.203 84.6932C388.726 85.5341 388.482 86.4716 388.47 87.5057V91.7841C388.47 93.0795 388.709 94.1989 389.186 95.142C389.675 96.0852 390.362 96.8125 391.249 97.3239C392.135 97.8352 393.186 98.0909 394.402 98.0909C395.209 98.0909 395.947 97.9773 396.618 97.75C397.288 97.5227 397.862 97.1818 398.339 96.7273C398.817 96.2727 399.18 95.7159 399.43 95.0568L406.146 95.5C405.805 97.1136 405.107 98.5227 404.05 99.7273C403.004 100.92 401.652 101.852 399.993 102.523C398.345 103.182 396.442 103.511 394.283 103.511ZM411.038 103V76.8182H418.078V81.3864H418.351C418.828 79.7614 419.629 78.5341 420.754 77.7045C421.879 76.8636 423.175 76.4432 424.641 76.4432C425.004 76.4432 425.396 76.4659 425.817 76.5114C426.237 76.5568 426.607 76.6193 426.925 76.6989V83.142C426.584 83.0398 426.112 82.9489 425.51 82.8693C424.908 82.7898 424.357 82.75 423.857 82.75C422.788 82.75 421.834 82.983 420.993 83.4489C420.163 83.9034 419.504 84.5398 419.016 85.358C418.538 86.1761 418.3 87.1193 418.3 88.1875V103H411.038ZM430.679 103V76.8182H437.94V103H430.679ZM434.327 73.4432C433.247 73.4432 432.321 73.0852 431.548 72.3693C430.787 71.642 430.406 70.7727 430.406 69.7614C430.406 68.7614 430.787 67.9034 431.548 67.1875C432.321 66.4602 433.247 66.0966 434.327 66.0966C435.406 66.0966 436.327 66.4602 437.088 67.1875C437.861 67.9034 438.247 68.7614 438.247 69.7614C438.247 70.7727 437.861 71.642 437.088 72.3693C436.327 73.0852 435.406 73.4432 434.327 73.4432ZM451.223 103.494C449.553 103.494 448.064 103.205 446.757 102.625C445.45 102.034 444.416 101.165 443.655 100.017C442.905 98.858 442.53 97.4148 442.53 95.6875C442.53 94.233 442.797 93.0114 443.331 92.0227C443.865 91.0341 444.592 90.2386 445.513 89.6364C446.433 89.0341 447.479 88.5795 448.649 88.2727C449.831 87.9659 451.07 87.75 452.365 87.625C453.888 87.4659 455.115 87.3182 456.047 87.1818C456.979 87.0341 457.655 86.8182 458.075 86.5341C458.496 86.25 458.706 85.8295 458.706 85.2727V85.1705C458.706 84.0909 458.365 83.2557 457.683 82.6648C457.013 82.0739 456.058 81.7784 454.82 81.7784C453.513 81.7784 452.473 82.0682 451.7 82.6477C450.928 83.2159 450.416 83.9318 450.166 84.7955L443.45 84.25C443.791 82.6591 444.462 81.2841 445.462 80.125C446.462 78.9545 447.751 78.0568 449.331 77.4318C450.922 76.7955 452.763 76.4773 454.854 76.4773C456.308 76.4773 457.7 76.6477 459.03 76.9886C460.371 77.3295 461.558 77.858 462.592 78.5739C463.638 79.2898 464.462 80.2102 465.064 81.3352C465.666 82.4489 465.967 83.7841 465.967 85.3409V103H459.081V99.3693H458.876C458.456 100.188 457.893 100.909 457.189 101.534C456.484 102.148 455.638 102.631 454.649 102.983C453.661 103.324 452.518 103.494 451.223 103.494ZM453.303 98.483C454.371 98.483 455.314 98.2727 456.132 97.8523C456.95 97.4205 457.592 96.8409 458.058 96.1136C458.524 95.3864 458.757 94.5625 458.757 93.642V90.8636C458.53 91.0114 458.217 91.1477 457.82 91.2727C457.433 91.3864 456.996 91.4943 456.507 91.5966C456.018 91.6875 455.53 91.7727 455.041 91.8523C454.553 91.9205 454.109 91.983 453.712 92.0398C452.859 92.1648 452.115 92.3636 451.479 92.6364C450.842 92.9091 450.348 93.2784 449.996 93.7443C449.643 94.1989 449.467 94.767 449.467 95.4489C449.467 96.4375 449.825 97.1932 450.541 97.7159C451.268 98.2273 452.189 98.483 453.303 98.483ZM478.862 68.0909V103H471.601V68.0909H478.862ZM517.572 84.2841L510.925 84.6932C510.811 84.125 510.567 83.6136 510.192 83.1591C509.817 82.6932 509.322 82.3239 508.709 82.0511C508.107 81.767 507.385 81.625 506.544 81.625C505.419 81.625 504.47 81.8636 503.697 82.3409C502.925 82.8068 502.538 83.4318 502.538 84.2159C502.538 84.8409 502.788 85.3693 503.288 85.8011C503.788 86.233 504.646 86.5795 505.862 86.8409L510.601 87.7955C513.146 88.3182 515.044 89.1591 516.294 90.3182C517.544 91.4773 518.169 93 518.169 94.8864C518.169 96.6023 517.663 98.108 516.652 99.4034C515.652 100.699 514.277 101.71 512.527 102.438C510.788 103.153 508.783 103.511 506.51 103.511C503.044 103.511 500.283 102.79 498.226 101.347C496.18 99.892 494.982 97.9148 494.629 95.4148L501.771 95.0398C501.987 96.0966 502.51 96.9034 503.339 97.4602C504.169 98.0057 505.232 98.2784 506.527 98.2784C507.8 98.2784 508.822 98.0341 509.595 97.5455C510.379 97.0455 510.777 96.4034 510.788 95.6193C510.777 94.9602 510.499 94.4205 509.953 94C509.408 93.5682 508.567 93.2386 507.43 93.0114L502.896 92.108C500.339 91.5966 498.436 90.7102 497.186 89.4489C495.947 88.1875 495.328 86.5795 495.328 84.625C495.328 82.9432 495.783 81.4943 496.692 80.2784C497.612 79.0625 498.902 78.125 500.561 77.4659C502.232 76.8068 504.186 76.4773 506.425 76.4773C509.732 76.4773 512.334 77.1761 514.232 78.5739C516.141 79.9716 517.254 81.875 517.572 84.2841ZM534.673 103.511C531.98 103.511 529.662 102.966 527.719 101.875C525.787 100.773 524.298 99.2159 523.253 97.2045C522.207 95.1818 521.685 92.7898 521.685 90.0284C521.685 87.3352 522.207 84.9716 523.253 82.9375C524.298 80.9034 525.77 79.3182 527.668 78.1818C529.577 77.0455 531.815 76.4773 534.384 76.4773C536.111 76.4773 537.719 76.7557 539.207 77.3125C540.707 77.858 542.014 78.6818 543.128 79.7841C544.253 80.8864 545.128 82.2727 545.753 83.9432C546.378 85.6023 546.69 87.5455 546.69 89.7727V91.767H524.582V87.267H539.855C539.855 86.2216 539.628 85.2955 539.173 84.4886C538.719 83.6818 538.088 83.0511 537.281 82.5966C536.486 82.1307 535.56 81.8977 534.503 81.8977C533.401 81.8977 532.423 82.1534 531.571 82.6648C530.73 83.1648 530.071 83.8409 529.594 84.6932C529.116 85.5341 528.872 86.4716 528.861 87.5057V91.7841C528.861 93.0795 529.099 94.1989 529.577 95.142C530.065 96.0852 530.753 96.8125 531.639 97.3239C532.526 97.8352 533.577 98.0909 534.793 98.0909C535.599 98.0909 536.338 97.9773 537.009 97.75C537.679 97.5227 538.253 97.1818 538.73 96.7273C539.207 96.2727 539.571 95.7159 539.821 95.0568L546.537 95.5C546.196 97.1136 545.497 98.5227 544.44 99.7273C543.395 100.92 542.043 101.852 540.384 102.523C538.736 103.182 536.832 103.511 534.673 103.511ZM551.429 103V76.8182H558.469V81.3864H558.741C559.219 79.7614 560.02 78.5341 561.145 77.7045C562.27 76.8636 563.565 76.4432 565.031 76.4432C565.395 76.4432 565.787 76.4659 566.207 76.5114C566.628 76.5568 566.997 76.6193 567.315 76.6989V83.142C566.974 83.0398 566.503 82.9489 565.901 82.8693C565.298 82.7898 564.747 82.75 564.247 82.75C563.179 82.75 562.224 82.983 561.384 83.4489C560.554 83.9034 559.895 84.5398 559.406 85.358C558.929 86.1761 558.69 87.1193 558.69 88.1875V103H551.429ZM596.276 76.8182L587.122 103H578.94L569.787 76.8182H577.457L582.895 95.5511H583.168L588.588 76.8182H596.276ZM611.08 103.511C608.386 103.511 606.068 102.966 604.125 101.875C602.193 100.773 600.705 99.2159 599.659 97.2045C598.614 95.1818 598.091 92.7898 598.091 90.0284C598.091 87.3352 598.614 84.9716 599.659 82.9375C600.705 80.9034 602.176 79.3182 604.074 78.1818C605.983 77.0455 608.222 76.4773 610.79 76.4773C612.517 76.4773 614.125 76.7557 615.614 77.3125C617.114 77.858 618.42 78.6818 619.534 79.7841C620.659 80.8864 621.534 82.2727 622.159 83.9432C622.784 85.6023 623.097 87.5455 623.097 89.7727V91.767H600.989V87.267H616.261C616.261 86.2216 616.034 85.2955 615.58 84.4886C615.125 83.6818 614.494 83.0511 613.688 82.5966C612.892 82.1307 611.966 81.8977 610.909 81.8977C609.807 81.8977 608.83 82.1534 607.977 82.6648C607.136 83.1648 606.477 83.8409 606 84.6932C605.523 85.5341 605.278 86.4716 605.267 87.5057V91.7841C605.267 93.0795 605.506 94.1989 605.983 95.142C606.472 96.0852 607.159 96.8125 608.045 97.3239C608.932 97.8352 609.983 98.0909 611.199 98.0909C612.006 98.0909 612.744 97.9773 613.415 97.75C614.085 97.5227 614.659 97.1818 615.136 96.7273C615.614 96.2727 615.977 95.7159 616.227 95.0568L622.943 95.5C622.602 97.1136 621.903 98.5227 620.847 99.7273C619.801 100.92 618.449 101.852 616.79 102.523C615.142 103.182 613.239 103.511 611.08 103.511ZM627.835 103V76.8182H634.875V81.3864H635.148C635.625 79.7614 636.426 78.5341 637.551 77.7045C638.676 76.8636 639.972 76.4432 641.438 76.4432C641.801 76.4432 642.193 76.4659 642.614 76.5114C643.034 76.5568 643.403 76.6193 643.722 76.6989V83.142C643.381 83.0398 642.909 82.9489 642.307 82.8693C641.705 82.7898 641.153 82.75 640.653 82.75C639.585 82.75 638.631 82.983 637.79 83.4489C636.96 83.9034 636.301 84.5398 635.812 85.358C635.335 86.1761 635.097 87.1193 635.097 88.1875V103H627.835Z" fill="#2C6AB1"/>
<path d="M0 433L999 433" stroke="black" stroke-opacity="0.4" stroke-width="6" stroke-dasharray="16 16"/>
<path d="M1.66992 383.898H6.38086C6.60938 386.096 8.40234 387.361 11.2852 387.361C14.0273 387.361 15.7676 386.043 15.7676 383.986C15.7676 382.264 14.6426 381.35 11.707 380.699L9.07031 380.084C4.48242 379.047 2.23242 376.621 2.23242 372.859C2.23242 368.131 5.73047 365.125 11.2148 365.125C16.5234 365.125 20.0918 368.096 20.25 372.631H15.5391C15.3457 370.539 13.7461 369.256 11.2676 369.256C8.75391 369.256 7.18945 370.434 7.18945 372.332C7.18945 374.125 8.31445 375.109 11.0566 375.707L13.6582 376.305C18.5625 377.395 20.707 379.592 20.707 383.477C20.707 388.486 17.1211 391.51 11.1973 391.51C5.44922 391.51 1.8457 388.645 1.66992 383.898ZM43.1367 380.26C43.1367 387.309 39.4629 391.51 33.3809 391.51C27.2988 391.51 23.625 387.309 23.625 380.26V376.375C23.625 369.326 27.2988 365.125 33.3809 365.125C39.4629 365.125 43.1367 369.326 43.1367 376.375V380.26ZM33.3809 387.08C36.4395 387.08 38.0566 384.777 38.0566 380.207V376.428C38.0566 371.857 36.4395 369.555 33.3809 369.555C30.3223 369.555 28.7051 371.857 28.7051 376.428V380.207C28.7051 384.777 30.3223 387.08 33.3809 387.08ZM53.2969 391H48.2871V365.635H64.3184V369.941H53.2969V376.814H63.3164V380.945H53.2969V391ZM80.3848 391H75.3926V369.941H68.1328V365.635H87.6445V369.941H80.3848V391ZM100.283 376.059H100.002L97.3477 391H92.9531L89.0156 365.635H93.5508L94.5703 374.389L95.5723 384.408H95.8535L98.209 371.436H102.076L104.432 384.408H104.713L105.715 374.389L106.734 365.635H111.27L107.332 391H102.938L100.283 376.059ZM119.443 380.893H124.98L122.344 370.609H122.115L119.443 380.893ZM127.564 391L125.982 384.795H118.441L116.824 391H111.832L119.443 365.635H125.35L132.961 391H127.564ZM141.012 369.713V377.834H144.545C147.375 377.834 149.062 376.305 149.062 373.738C149.062 371.225 147.41 369.713 144.598 369.713H141.012ZM144.633 381.666H141.012V391H136.037V365.635H145.248C150.768 365.635 154.143 368.693 154.143 373.721C154.143 377.008 152.402 379.75 149.643 380.84L154.723 391H149.098L144.633 381.666ZM175.254 386.693V391H159.258V365.635H175.254V369.941H164.268V376.182H174.604V380.172H164.268V386.693H175.254Z" fill="black" fill-opacity="0.4"/>
<path d="M20.1797 495H15.2754V484.277H6.97852V495H2.07422V469.635H6.97852V479.971H15.2754V469.635H20.1797V495ZM30.4277 484.893H35.9648L33.3281 474.609H33.0996L30.4277 484.893ZM38.5488 495L36.9668 488.795H29.4258L27.8086 495H22.8164L30.4277 469.635H36.334L43.9453 495H38.5488ZM51.9961 473.713V481.834H55.5293C58.3594 481.834 60.0469 480.305 60.0469 477.738C60.0469 475.225 58.3945 473.713 55.582 473.713H51.9961ZM55.6172 485.666H51.9961V495H47.0215V469.635H56.2324C61.752 469.635 65.127 472.693 65.127 477.721C65.127 481.008 63.3867 483.75 60.627 484.84L65.707 495H60.082L55.6172 485.666ZM68.8887 469.635H77.0273C84.1289 469.635 87.8379 473.924 87.8379 482.133C87.8379 490.641 84.1816 495 77.0273 495H68.8887V469.635ZM73.8809 473.941V490.693H76.3418C80.7363 490.693 82.7402 488.057 82.7402 482.221C82.7402 476.631 80.666 473.941 76.3418 473.941H73.8809ZM100.283 480.059H100.002L97.3477 495H92.9531L89.0156 469.635H93.5508L94.5703 478.389L95.5723 488.408H95.8535L98.209 475.436H102.076L104.432 488.408H104.713L105.715 478.389L106.734 469.635H111.27L107.332 495H102.938L100.283 480.059ZM119.443 484.893H124.98L122.344 474.609H122.115L119.443 484.893ZM127.564 495L125.982 488.795H118.441L116.824 495H111.832L119.443 469.635H125.35L132.961 495H127.564ZM141.012 473.713V481.834H144.545C147.375 481.834 149.062 480.305 149.062 477.738C149.062 475.225 147.41 473.713 144.598 473.713H141.012ZM144.633 485.666H141.012V495H136.037V469.635H145.248C150.768 469.635 154.143 472.693 154.143 477.721C154.143 481.008 152.402 483.75 149.643 484.84L154.723 495H149.098L144.633 485.666ZM175.254 490.693V495H159.258V469.635H175.254V473.941H164.268V480.182H174.604V484.172H164.268V490.693H175.254Z" fill="black" fill-opacity="0.4"/>
<rect x="309" y="522" width="272" height="103" fill="black" stroke="black" stroke-width="6"/>
<path d="M402.597 556.091H409.977V578.761C409.977 581.307 409.369 583.534 408.153 585.443C406.949 587.352 405.261 588.841 403.091 589.909C400.92 590.966 398.392 591.494 395.506 591.494C392.608 591.494 390.074 590.966 387.903 589.909C385.733 588.841 384.045 587.352 382.841 585.443C381.636 583.534 381.034 581.307 381.034 578.761V556.091H388.415V578.131C388.415 579.46 388.705 580.642 389.284 581.676C389.875 582.71 390.705 583.523 391.773 584.114C392.841 584.705 394.085 585 395.506 585C396.938 585 398.182 584.705 399.239 584.114C400.307 583.523 401.131 582.71 401.71 581.676C402.301 580.642 402.597 579.46 402.597 578.131V556.091ZM422.067 591H414.158L426.209 556.091H435.72L447.754 591H439.845L431.101 564.068H430.828L422.067 591ZM421.572 577.278H440.254V583.04H421.572V577.278ZM451.956 591V556.091H465.729C468.365 556.091 470.615 556.562 472.479 557.506C474.354 558.437 475.78 559.761 476.757 561.477C477.746 563.182 478.24 565.187 478.24 567.494C478.24 569.812 477.74 571.807 476.74 573.477C475.74 575.136 474.291 576.409 472.393 577.295C470.507 578.182 468.223 578.625 465.541 578.625H456.32V572.693H464.348C465.757 572.693 466.928 572.5 467.859 572.114C468.791 571.727 469.484 571.148 469.939 570.375C470.405 569.602 470.638 568.642 470.638 567.494C470.638 566.335 470.405 565.358 469.939 564.562C469.484 563.767 468.786 563.165 467.842 562.756C466.911 562.335 465.734 562.125 464.314 562.125H459.337V591H451.956ZM470.808 575.114L479.484 591H471.337L462.848 575.114H470.808ZM482.126 562.176V556.091H510.797V562.176H500.109V591H492.814V562.176H482.126Z" fill="white"/>
<path d="M378 519L395.321 489L360.68 489L378 519ZM375 173L375 492L381 492L381 173L375 173Z" fill="black"/>
<path d="M653 386L618.36 386.221L635.872 416.11L653 386ZM427.517 521.588L631.221 402.238L628.188 397.061L424.483 516.412L427.517 521.588Z" fill="black"/>
<path d="M496 173L509.437 204.929L530.37 177.327L496 173ZM646.813 283.61L519.326 186.925L515.7 191.706L643.187 288.39L646.813 283.61Z" fill="black"/>
<path d="M236.869 210.909H243.318L251.955 231.989H252.295L260.932 210.909H267.381V240H262.324V220.014H262.054L254.014 239.915H250.236L242.196 219.972H241.926V240H236.869V210.909ZM273.119 210.909H279.568L288.205 231.989H288.545L297.182 210.909H303.631V240H298.574V220.014H298.304L290.264 239.915H286.486L278.446 219.972H278.176V240H273.119V210.909ZM314.639 210.909V240H309.369V210.909H314.639ZM346.34 225.455C346.34 228.589 345.753 231.274 344.579 233.509C343.414 235.734 341.823 237.438 339.806 238.622C337.799 239.806 335.521 240.398 332.974 240.398C330.426 240.398 328.144 239.806 326.127 238.622C324.12 237.429 322.529 235.72 321.354 233.494C320.19 231.259 319.607 228.58 319.607 225.455C319.607 222.32 320.19 219.64 321.354 217.415C322.529 215.18 324.12 213.471 326.127 212.287C328.144 211.103 330.426 210.511 332.974 210.511C335.521 210.511 337.799 211.103 339.806 212.287C341.823 213.471 343.414 215.18 344.579 217.415C345.753 219.64 346.34 222.32 346.34 225.455ZM341.042 225.455C341.042 223.248 340.696 221.387 340.005 219.872C339.323 218.348 338.376 217.197 337.164 216.42C335.952 215.634 334.555 215.241 332.974 215.241C331.392 215.241 329.996 215.634 328.783 216.42C327.571 217.197 326.62 218.348 325.928 219.872C325.246 221.387 324.906 223.248 324.906 225.455C324.906 227.661 325.246 229.527 325.928 231.051C326.62 232.566 327.571 233.717 328.783 234.503C329.996 235.279 331.392 235.668 332.974 235.668C334.555 235.668 335.952 235.279 337.164 234.503C338.376 233.717 339.323 232.566 340.005 231.051C340.696 229.527 341.042 227.661 341.042 225.455Z" fill="black"/>
<path d="M564.869 497V467.909H570.139V480.224H583.619V467.909H588.903V497H583.619V484.642H570.139V497H564.869ZM600.686 497.44C599.304 497.44 598.058 497.194 596.95 496.702C595.852 496.2 594.981 495.461 594.337 494.486C593.702 493.51 593.385 492.308 593.385 490.878C593.385 489.647 593.612 488.629 594.067 487.824C594.521 487.019 595.142 486.375 595.928 485.892C596.714 485.409 597.599 485.045 598.584 484.798C599.578 484.543 600.606 484.358 601.666 484.244C602.945 484.112 603.982 483.993 604.777 483.889C605.572 483.776 606.15 483.605 606.51 483.378C606.879 483.141 607.064 482.777 607.064 482.284V482.199C607.064 481.129 606.747 480.3 606.112 479.713C605.478 479.126 604.564 478.832 603.371 478.832C602.111 478.832 601.112 479.107 600.374 479.656C599.644 480.205 599.152 480.854 598.896 481.602L594.095 480.92C594.474 479.595 595.099 478.487 595.97 477.597C596.841 476.697 597.907 476.025 599.166 475.58C600.426 475.125 601.818 474.898 603.342 474.898C604.393 474.898 605.44 475.021 606.482 475.267C607.523 475.513 608.475 475.92 609.337 476.489C610.198 477.047 610.89 477.81 611.411 478.776C611.941 479.741 612.206 480.949 612.206 482.398V497H607.263V494.003H607.092C606.78 494.609 606.339 495.177 605.771 495.707C605.213 496.228 604.507 496.65 603.655 496.972C602.812 497.284 601.822 497.44 600.686 497.44ZM602.021 493.662C603.054 493.662 603.948 493.458 604.706 493.051C605.464 492.634 606.046 492.085 606.453 491.403C606.87 490.722 607.078 489.978 607.078 489.173V486.602C606.917 486.735 606.643 486.858 606.254 486.972C605.875 487.085 605.449 487.185 604.976 487.27C604.502 487.355 604.034 487.431 603.57 487.497C603.106 487.563 602.703 487.62 602.362 487.668C601.595 487.772 600.909 487.942 600.303 488.179C599.696 488.416 599.218 488.747 598.868 489.173C598.518 489.59 598.342 490.13 598.342 490.793C598.342 491.74 598.688 492.455 599.379 492.938C600.071 493.42 600.951 493.662 602.021 493.662ZM617.376 497V475.182H622.362V478.818H622.589C622.987 477.559 623.669 476.588 624.635 475.906C625.61 475.215 626.723 474.869 627.973 474.869C628.257 474.869 628.574 474.884 628.925 474.912C629.285 474.931 629.583 474.964 629.82 475.011V479.741C629.602 479.666 629.256 479.599 628.783 479.543C628.319 479.476 627.869 479.443 627.433 479.443C626.496 479.443 625.653 479.647 624.905 480.054C624.166 480.452 623.584 481.006 623.158 481.716C622.732 482.426 622.518 483.245 622.518 484.173V497H617.376ZM640.434 497.384C638.72 497.384 637.186 496.943 635.832 496.062C634.478 495.182 633.407 493.903 632.621 492.227C631.835 490.551 631.442 488.515 631.442 486.119C631.442 483.695 631.84 481.65 632.636 479.983C633.441 478.307 634.525 477.043 635.888 476.19C637.252 475.329 638.772 474.898 640.448 474.898C641.727 474.898 642.778 475.116 643.602 475.551C644.425 475.977 645.079 476.493 645.562 477.099C646.045 477.696 646.419 478.259 646.684 478.79H646.897V467.909H652.053V497H646.996V493.562H646.684C646.419 494.093 646.035 494.656 645.533 495.253C645.031 495.84 644.369 496.342 643.545 496.759C642.721 497.175 641.684 497.384 640.434 497.384ZM641.869 493.165C642.958 493.165 643.886 492.871 644.653 492.284C645.42 491.687 646.002 490.859 646.4 489.798C646.798 488.738 646.996 487.502 646.996 486.091C646.996 484.68 646.798 483.454 646.4 482.412C646.012 481.37 645.434 480.561 644.667 479.983C643.909 479.405 642.977 479.116 641.869 479.116C640.723 479.116 639.766 479.415 638.999 480.011C638.232 480.608 637.655 481.432 637.266 482.483C636.878 483.534 636.684 484.737 636.684 486.091C636.684 487.455 636.878 488.671 637.266 489.741C637.664 490.802 638.246 491.64 639.013 492.256C639.79 492.862 640.742 493.165 641.869 493.165ZM662.036 497L655.871 475.182H661.112L664.947 490.523H665.146L669.067 475.182H674.251L678.172 490.438H678.385L682.163 475.182H687.419L681.24 497H675.885L671.794 482.256H671.496L667.405 497H662.036ZM697.288 497.44C695.905 497.44 694.66 497.194 693.552 496.702C692.453 496.2 691.582 495.461 690.938 494.486C690.304 493.51 689.987 492.308 689.987 490.878C689.987 489.647 690.214 488.629 690.668 487.824C691.123 487.019 691.743 486.375 692.529 485.892C693.315 485.409 694.201 485.045 695.185 484.798C696.18 484.543 697.207 484.358 698.268 484.244C699.546 484.112 700.583 483.993 701.379 483.889C702.174 483.776 702.752 483.605 703.112 483.378C703.481 483.141 703.665 482.777 703.665 482.284V482.199C703.665 481.129 703.348 480.3 702.714 479.713C702.079 479.126 701.165 478.832 699.972 478.832C698.713 478.832 697.714 479.107 696.975 479.656C696.246 480.205 695.754 480.854 695.498 481.602L690.697 480.92C691.076 479.595 691.701 478.487 692.572 477.597C693.443 476.697 694.508 476.025 695.768 475.58C697.027 475.125 698.419 474.898 699.944 474.898C700.995 474.898 702.041 475.021 703.083 475.267C704.125 475.513 705.076 475.92 705.938 476.489C706.8 477.047 707.491 477.81 708.012 478.776C708.542 479.741 708.808 480.949 708.808 482.398V497H703.864V494.003H703.694C703.381 494.609 702.941 495.177 702.373 495.707C701.814 496.228 701.109 496.65 700.256 496.972C699.414 497.284 698.424 497.44 697.288 497.44ZM698.623 493.662C699.655 493.662 700.55 493.458 701.308 493.051C702.065 492.634 702.647 492.085 703.055 491.403C703.471 490.722 703.68 489.978 703.68 489.173V486.602C703.519 486.735 703.244 486.858 702.856 486.972C702.477 487.085 702.051 487.185 701.577 487.27C701.104 487.355 700.635 487.431 700.171 487.497C699.707 487.563 699.305 487.62 698.964 487.668C698.197 487.772 697.51 487.942 696.904 488.179C696.298 488.416 695.82 488.747 695.469 489.173C695.119 489.59 694.944 490.13 694.944 490.793C694.944 491.74 695.29 492.455 695.981 492.938C696.672 493.42 697.553 493.662 698.623 493.662ZM713.978 497V475.182H718.964V478.818H719.191C719.589 477.559 720.271 476.588 721.237 475.906C722.212 475.215 723.325 474.869 724.575 474.869C724.859 474.869 725.176 474.884 725.526 474.912C725.886 474.931 726.184 474.964 726.421 475.011V479.741C726.203 479.666 725.858 479.599 725.384 479.543C724.92 479.476 724.47 479.443 724.035 479.443C723.097 479.443 722.254 479.647 721.506 480.054C720.768 480.452 720.185 481.006 719.759 481.716C719.333 482.426 719.12 483.245 719.12 484.173V497H713.978ZM738.598 497.426C736.411 497.426 734.521 496.972 732.93 496.062C731.349 495.144 730.132 493.847 729.28 492.17C728.428 490.485 728.001 488.501 728.001 486.219C728.001 483.974 728.428 482.005 729.28 480.31C730.142 478.605 731.344 477.279 732.888 476.332C734.431 475.376 736.245 474.898 738.328 474.898C739.673 474.898 740.942 475.116 742.135 475.551C743.338 475.977 744.398 476.64 745.317 477.54C746.245 478.439 746.974 479.585 747.504 480.977C748.035 482.36 748.3 484.008 748.3 485.92V487.497H730.416V484.031H743.371C743.361 483.046 743.148 482.17 742.732 481.403C742.315 480.627 741.732 480.016 740.984 479.571C740.246 479.126 739.384 478.903 738.399 478.903C737.348 478.903 736.425 479.159 735.629 479.67C734.834 480.172 734.214 480.835 733.768 481.659C733.333 482.473 733.11 483.368 733.101 484.344V487.369C733.101 488.638 733.333 489.727 733.797 490.636C734.261 491.536 734.91 492.227 735.743 492.71C736.576 493.184 737.552 493.42 738.669 493.42C739.417 493.42 740.094 493.316 740.7 493.108C741.306 492.89 741.832 492.573 742.277 492.156C742.722 491.74 743.058 491.223 743.286 490.608L748.087 491.148C747.784 492.417 747.206 493.525 746.354 494.472C745.511 495.409 744.431 496.138 743.115 496.659C741.799 497.17 740.293 497.426 738.598 497.426ZM762.572 497V475.182H767.714V497H762.572ZM765.157 472.085C764.343 472.085 763.642 471.815 763.055 471.276C762.468 470.726 762.174 470.068 762.174 469.301C762.174 468.525 762.468 467.866 763.055 467.327C763.642 466.777 764.343 466.503 765.157 466.503C765.981 466.503 766.682 466.777 767.259 467.327C767.846 467.866 768.14 468.525 768.14 469.301C768.14 470.068 767.846 470.726 767.259 471.276C766.682 471.815 765.981 472.085 765.157 472.085ZM778.143 484.216V497H773.001V475.182H777.916V478.889H778.172C778.674 477.668 779.474 476.697 780.572 475.977C781.68 475.258 783.049 474.898 784.678 474.898C786.183 474.898 787.495 475.22 788.612 475.864C789.739 476.508 790.61 477.44 791.226 478.662C791.851 479.884 792.159 481.366 792.149 483.108V497H787.007V483.903C787.007 482.445 786.628 481.304 785.871 480.48C785.123 479.656 784.086 479.244 782.76 479.244C781.86 479.244 781.06 479.443 780.359 479.841C779.668 480.229 779.124 480.793 778.726 481.531C778.338 482.27 778.143 483.165 778.143 484.216ZM808.271 475.182V479.159H795.729V475.182H808.271ZM798.825 469.955H803.967V490.438C803.967 491.129 804.071 491.659 804.28 492.028C804.498 492.388 804.782 492.634 805.132 492.767C805.482 492.9 805.871 492.966 806.297 492.966C806.619 492.966 806.912 492.942 807.178 492.895C807.452 492.848 807.661 492.805 807.803 492.767L808.669 496.787C808.394 496.882 808.001 496.986 807.49 497.099C806.988 497.213 806.373 497.279 805.643 497.298C804.356 497.336 803.196 497.142 802.163 496.716C801.131 496.28 800.312 495.608 799.706 494.699C799.109 493.79 798.816 492.653 798.825 491.29V469.955ZM821.996 497.426C819.809 497.426 817.92 496.972 816.329 496.062C814.747 495.144 813.531 493.847 812.678 492.17C811.826 490.485 811.4 488.501 811.4 486.219C811.4 483.974 811.826 482.005 812.678 480.31C813.54 478.605 814.743 477.279 816.286 476.332C817.83 475.376 819.643 474.898 821.727 474.898C823.071 474.898 824.34 475.116 825.533 475.551C826.736 475.977 827.797 476.64 828.715 477.54C829.643 478.439 830.372 479.585 830.903 480.977C831.433 482.36 831.698 484.008 831.698 485.92V487.497H813.815V484.031H826.769C826.76 483.046 826.547 482.17 826.13 481.403C825.713 480.627 825.131 480.016 824.383 479.571C823.644 479.126 822.782 478.903 821.798 478.903C820.746 478.903 819.823 479.159 819.028 479.67C818.232 480.172 817.612 480.835 817.167 481.659C816.731 482.473 816.509 483.368 816.499 484.344V487.369C816.499 488.638 816.731 489.727 817.195 490.636C817.659 491.536 818.308 492.227 819.141 492.71C819.975 493.184 820.95 493.42 822.067 493.42C822.816 493.42 823.493 493.316 824.099 493.108C824.705 492.89 825.23 492.573 825.675 492.156C826.121 491.74 826.457 491.223 826.684 490.608L831.485 491.148C831.182 492.417 830.604 493.525 829.752 494.472C828.909 495.409 827.83 496.138 826.513 496.659C825.197 497.17 823.692 497.426 821.996 497.426ZM836.048 497V475.182H841.034V478.818H841.261C841.659 477.559 842.341 476.588 843.307 475.906C844.282 475.215 845.395 474.869 846.645 474.869C846.929 474.869 847.246 474.884 847.597 474.912C847.956 474.931 848.255 474.964 848.491 475.011V479.741C848.274 479.666 847.928 479.599 847.455 479.543C846.991 479.476 846.541 479.443 846.105 479.443C845.168 479.443 844.325 479.647 843.577 480.054C842.838 480.452 842.256 481.006 841.83 481.716C841.403 482.426 841.19 483.245 841.19 484.173V497H836.048ZM851.908 497V475.182H856.893V478.818H857.121C857.518 477.559 858.2 476.588 859.166 475.906C860.142 475.215 861.254 474.869 862.504 474.869C862.788 474.869 863.106 474.884 863.456 474.912C863.816 474.931 864.114 474.964 864.351 475.011V479.741C864.133 479.666 863.787 479.599 863.314 479.543C862.85 479.476 862.4 479.443 861.964 479.443C861.027 479.443 860.184 479.647 859.436 480.054C858.697 480.452 858.115 481.006 857.689 481.716C857.263 482.426 857.05 483.245 857.05 484.173V497H851.908ZM881.673 487.824V475.182H886.815V497H881.83V493.122H881.602C881.11 494.344 880.3 495.343 879.173 496.119C878.056 496.896 876.678 497.284 875.04 497.284C873.61 497.284 872.346 496.967 871.247 496.332C870.158 495.688 869.306 494.756 868.69 493.534C868.075 492.303 867.767 490.816 867.767 489.074V475.182H872.909V488.278C872.909 489.661 873.288 490.759 874.045 491.574C874.803 492.388 875.797 492.795 877.028 492.795C877.786 492.795 878.52 492.611 879.23 492.241C879.94 491.872 880.523 491.323 880.977 490.594C881.441 489.855 881.673 488.932 881.673 487.824ZM892.103 505.182V475.182H897.16V478.79H897.458C897.723 478.259 898.097 477.696 898.58 477.099C899.063 476.493 899.717 475.977 900.54 475.551C901.364 475.116 902.415 474.898 903.694 474.898C905.379 474.898 906.899 475.329 908.254 476.19C909.617 477.043 910.697 478.307 911.492 479.983C912.297 481.65 912.7 483.695 912.7 486.119C912.7 488.515 912.307 490.551 911.521 492.227C910.735 493.903 909.665 495.182 908.31 496.062C906.956 496.943 905.422 497.384 903.708 497.384C902.458 497.384 901.421 497.175 900.597 496.759C899.773 496.342 899.111 495.84 898.609 495.253C898.116 494.656 897.733 494.093 897.458 493.562H897.245V505.182H892.103ZM897.146 486.091C897.146 487.502 897.344 488.738 897.742 489.798C898.149 490.859 898.732 491.687 899.489 492.284C900.256 492.871 901.184 493.165 902.273 493.165C903.41 493.165 904.362 492.862 905.129 492.256C905.896 491.64 906.473 490.802 906.862 489.741C907.259 488.671 907.458 487.455 907.458 486.091C907.458 484.737 907.264 483.534 906.876 482.483C906.487 481.432 905.91 480.608 905.143 480.011C904.376 479.415 903.419 479.116 902.273 479.116C901.175 479.116 900.242 479.405 899.475 479.983C898.708 480.561 898.126 481.37 897.728 482.412C897.34 483.454 897.146 484.68 897.146 486.091ZM927.998 475.182V479.159H915.455V475.182H927.998ZM918.552 469.955H923.694V490.438C923.694 491.129 923.798 491.659 924.006 492.028C924.224 492.388 924.508 492.634 924.859 492.767C925.209 492.9 925.597 492.966 926.023 492.966C926.345 492.966 926.639 492.942 926.904 492.895C927.179 492.848 927.387 492.805 927.529 492.767L928.396 496.787C928.121 496.882 927.728 496.986 927.217 497.099C926.715 497.213 926.099 497.279 925.37 497.298C924.082 497.336 922.922 497.142 921.89 496.716C920.858 496.28 920.039 495.608 919.433 494.699C918.836 493.79 918.542 492.653 918.552 491.29V469.955Z" fill="black"/>
<path d="M654.776 210.909V240H650.088L636.381 220.185H636.139V240H630.869V210.909H635.585L649.278 230.739H649.534V210.909H654.776ZM669.808 240.426C667.677 240.426 665.83 239.957 664.268 239.02C662.705 238.082 661.493 236.771 660.631 235.085C659.779 233.4 659.353 231.43 659.353 229.176C659.353 226.922 659.779 224.948 660.631 223.253C661.493 221.558 662.705 220.241 664.268 219.304C665.83 218.366 667.677 217.898 669.808 217.898C671.938 217.898 673.785 218.366 675.347 219.304C676.91 220.241 678.117 221.558 678.969 223.253C679.831 224.948 680.262 226.922 680.262 229.176C680.262 231.43 679.831 233.4 678.969 235.085C678.117 236.771 676.91 238.082 675.347 239.02C673.785 239.957 671.938 240.426 669.808 240.426ZM669.836 236.307C670.991 236.307 671.957 235.99 672.734 235.355C673.51 234.711 674.088 233.849 674.467 232.77C674.855 231.69 675.049 230.488 675.049 229.162C675.049 227.827 674.855 226.619 674.467 225.54C674.088 224.451 673.51 223.584 672.734 222.94C671.957 222.296 670.991 221.974 669.836 221.974C668.652 221.974 667.667 222.296 666.881 222.94C666.105 223.584 665.522 224.451 665.134 225.54C664.755 226.619 664.566 227.827 664.566 229.162C664.566 230.488 664.755 231.69 665.134 232.77C665.522 233.849 666.105 234.711 666.881 235.355C667.667 235.99 668.652 236.307 669.836 236.307ZM695.521 218.182V222.159H682.979V218.182H695.521ZM686.075 212.955H691.217V233.438C691.217 234.129 691.321 234.659 691.53 235.028C691.748 235.388 692.032 235.634 692.382 235.767C692.732 235.9 693.121 235.966 693.547 235.966C693.869 235.966 694.162 235.942 694.428 235.895C694.702 235.848 694.911 235.805 695.053 235.767L695.919 239.787C695.644 239.882 695.251 239.986 694.74 240.099C694.238 240.213 693.623 240.279 692.893 240.298C691.606 240.336 690.446 240.142 689.413 239.716C688.381 239.28 687.562 238.608 686.956 237.699C686.359 236.79 686.066 235.653 686.075 234.29V212.955ZM699.822 240V218.182H704.964V240H699.822ZM702.407 215.085C701.593 215.085 700.892 214.815 700.305 214.276C699.718 213.726 699.424 213.068 699.424 212.301C699.424 211.525 699.718 210.866 700.305 210.327C700.892 209.777 701.593 209.503 702.407 209.503C703.231 209.503 703.932 209.777 704.509 210.327C705.096 210.866 705.39 211.525 705.39 212.301C705.39 213.068 705.096 213.726 704.509 214.276C703.932 214.815 703.231 215.085 702.407 215.085ZM721.303 218.182V222.159H708.405V218.182H721.303ZM711.629 240V216.122C711.629 214.654 711.932 213.433 712.538 212.457C713.154 211.482 713.978 210.753 715.01 210.27C716.042 209.787 717.188 209.545 718.447 209.545C719.338 209.545 720.128 209.616 720.82 209.759C721.511 209.901 722.022 210.028 722.354 210.142L721.331 214.119C721.113 214.053 720.839 213.987 720.507 213.92C720.176 213.845 719.806 213.807 719.399 213.807C718.443 213.807 717.766 214.039 717.368 214.503C716.98 214.957 716.786 215.611 716.786 216.463V240H711.629ZM725.33 240V218.182H730.472V240H725.33ZM727.915 215.085C727.1 215.085 726.4 214.815 725.812 214.276C725.225 213.726 724.932 213.068 724.932 212.301C724.932 211.525 725.225 210.866 725.812 210.327C726.4 209.777 727.1 209.503 727.915 209.503C728.739 209.503 729.439 209.777 730.017 210.327C730.604 210.866 730.898 211.525 730.898 212.301C730.898 213.068 730.604 213.726 730.017 214.276C729.439 214.815 728.739 215.085 727.915 215.085ZM745.276 240.426C743.098 240.426 741.228 239.948 739.665 238.991C738.112 238.035 736.915 236.714 736.072 235.028C735.238 233.333 734.822 231.383 734.822 229.176C734.822 226.96 735.248 225.005 736.1 223.31C736.952 221.605 738.155 220.279 739.708 219.332C741.271 218.376 743.117 217.898 745.248 217.898C747.019 217.898 748.586 218.224 749.95 218.878C751.323 219.522 752.416 220.436 753.231 221.619C754.045 222.794 754.509 224.167 754.623 225.739H749.708C749.509 224.687 749.036 223.812 748.288 223.111C747.549 222.401 746.559 222.045 745.319 222.045C744.268 222.045 743.344 222.33 742.549 222.898C741.754 223.456 741.133 224.261 740.688 225.312C740.253 226.364 740.035 227.623 740.035 229.091C740.035 230.578 740.253 231.856 740.688 232.926C741.124 233.987 741.735 234.806 742.521 235.384C743.316 235.952 744.249 236.236 745.319 236.236C746.076 236.236 746.754 236.094 747.35 235.81C747.956 235.516 748.463 235.095 748.87 234.545C749.277 233.996 749.557 233.329 749.708 232.543H754.623C754.5 234.086 754.045 235.455 753.259 236.648C752.473 237.831 751.403 238.759 750.049 239.432C748.695 240.095 747.104 240.426 745.276 240.426ZM765.124 240.44C763.741 240.44 762.496 240.194 761.388 239.702C760.289 239.2 759.418 238.461 758.774 237.486C758.14 236.51 757.822 235.308 757.822 233.878C757.822 232.647 758.05 231.629 758.504 230.824C758.959 230.019 759.579 229.375 760.365 228.892C761.151 228.409 762.036 228.045 763.021 227.798C764.016 227.543 765.043 227.358 766.104 227.244C767.382 227.112 768.419 226.993 769.214 226.889C770.01 226.776 770.588 226.605 770.947 226.378C771.317 226.141 771.501 225.777 771.501 225.284V225.199C771.501 224.129 771.184 223.3 770.55 222.713C769.915 222.126 769.001 221.832 767.808 221.832C766.549 221.832 765.55 222.107 764.811 222.656C764.082 223.205 763.589 223.854 763.334 224.602L758.533 223.92C758.911 222.595 759.536 221.487 760.408 220.597C761.279 219.697 762.344 219.025 763.604 218.58C764.863 218.125 766.255 217.898 767.78 217.898C768.831 217.898 769.877 218.021 770.919 218.267C771.961 218.513 772.912 218.92 773.774 219.489C774.636 220.047 775.327 220.81 775.848 221.776C776.378 222.741 776.643 223.949 776.643 225.398V240H771.7V237.003H771.53C771.217 237.609 770.777 238.177 770.209 238.707C769.65 239.228 768.945 239.65 768.092 239.972C767.25 240.284 766.26 240.44 765.124 240.44ZM766.459 236.662C767.491 236.662 768.386 236.458 769.143 236.051C769.901 235.634 770.483 235.085 770.891 234.403C771.307 233.722 771.516 232.978 771.516 232.173V229.602C771.355 229.735 771.08 229.858 770.692 229.972C770.313 230.085 769.887 230.185 769.413 230.27C768.94 230.355 768.471 230.431 768.007 230.497C767.543 230.563 767.141 230.62 766.8 230.668C766.033 230.772 765.346 230.942 764.74 231.179C764.134 231.416 763.656 231.747 763.305 232.173C762.955 232.59 762.78 233.13 762.78 233.793C762.78 234.74 763.125 235.455 763.817 235.938C764.508 236.42 765.389 236.662 766.459 236.662ZM792.709 218.182V222.159H780.166V218.182H792.709ZM783.263 212.955H788.405V233.438C788.405 234.129 788.509 234.659 788.717 235.028C788.935 235.388 789.219 235.634 789.57 235.767C789.92 235.9 790.308 235.966 790.734 235.966C791.056 235.966 791.35 235.942 791.615 235.895C791.89 235.848 792.098 235.805 792.24 235.767L793.107 239.787C792.832 239.882 792.439 239.986 791.928 240.099C791.426 240.213 790.81 240.279 790.081 240.298C788.793 240.336 787.633 240.142 786.601 239.716C785.569 239.28 784.75 238.608 784.143 237.699C783.547 236.79 783.253 235.653 783.263 234.29V212.955ZM797.009 240V218.182H802.151V240H797.009ZM799.594 215.085C798.78 215.085 798.079 214.815 797.492 214.276C796.905 213.726 796.612 213.068 796.612 212.301C796.612 211.525 796.905 210.866 797.492 210.327C798.079 209.777 798.78 209.503 799.594 209.503C800.418 209.503 801.119 209.777 801.697 210.327C802.284 210.866 802.577 211.525 802.577 212.301C802.577 213.068 802.284 213.726 801.697 214.276C801.119 214.815 800.418 215.085 799.594 215.085ZM816.956 240.426C814.825 240.426 812.979 239.957 811.416 239.02C809.854 238.082 808.642 236.771 807.78 235.085C806.928 233.4 806.501 231.43 806.501 229.176C806.501 226.922 806.928 224.948 807.78 223.253C808.642 221.558 809.854 220.241 811.416 219.304C812.979 218.366 814.825 217.898 816.956 217.898C819.087 217.898 820.933 218.366 822.496 219.304C824.058 220.241 825.266 221.558 826.118 223.253C826.98 224.948 827.411 226.922 827.411 229.176C827.411 231.43 826.98 233.4 826.118 235.085C825.266 236.771 824.058 238.082 822.496 239.02C820.933 239.957 819.087 240.426 816.956 240.426ZM816.984 236.307C818.14 236.307 819.106 235.99 819.882 235.355C820.659 234.711 821.236 233.849 821.615 232.77C822.003 231.69 822.197 230.488 822.197 229.162C822.197 227.827 822.003 226.619 821.615 225.54C821.236 224.451 820.659 223.584 819.882 222.94C819.106 222.296 818.14 221.974 816.984 221.974C815.801 221.974 814.816 222.296 814.03 222.94C813.253 223.584 812.671 224.451 812.283 225.54C811.904 226.619 811.714 227.827 811.714 229.162C811.714 230.488 811.904 231.69 812.283 232.77C812.671 233.849 813.253 234.711 814.03 235.355C814.816 235.99 815.801 236.307 816.984 236.307ZM836.917 227.216V240H831.775V218.182H836.69V221.889H836.945C837.447 220.668 838.247 219.697 839.346 218.977C840.454 218.258 841.822 217.898 843.451 217.898C844.957 217.898 846.268 218.22 847.386 218.864C848.513 219.508 849.384 220.44 849.999 221.662C850.624 222.884 850.932 224.366 850.923 226.108V240H845.781V226.903C845.781 225.445 845.402 224.304 844.644 223.48C843.896 222.656 842.859 222.244 841.533 222.244C840.634 222.244 839.834 222.443 839.133 222.841C838.442 223.229 837.897 223.793 837.499 224.531C837.111 225.27 836.917 226.165 836.917 227.216Z" fill="black"/>
</svg>
