<svg width="1282" height="269" viewBox="0 0 1282 269" fill="none" xmlns="http://www.w3.org/2000/svg">
<rect x="3" y="55" width="375" height="167" stroke="#2C6AB1" stroke-width="6"/>
<path d="M154.835 133.312H147.369C147.233 132.347 146.955 131.489 146.534 130.739C146.114 129.977 145.574 129.33 144.915 128.795C144.256 128.261 143.494 127.852 142.631 127.568C141.778 127.284 140.852 127.142 139.852 127.142C138.045 127.142 136.472 127.591 135.131 128.489C133.79 129.375 132.75 130.67 132.011 132.375C131.273 134.068 130.903 136.125 130.903 138.545C130.903 141.034 131.273 143.125 132.011 144.818C132.761 146.511 133.807 147.79 135.148 148.653C136.489 149.517 138.04 149.949 139.801 149.949C140.79 149.949 141.705 149.818 142.545 149.557C143.398 149.295 144.153 148.915 144.812 148.415C145.472 147.903 146.017 147.284 146.449 146.557C146.892 145.83 147.199 145 147.369 144.068L154.835 144.102C154.642 145.705 154.159 147.25 153.386 148.739C152.625 150.216 151.597 151.54 150.301 152.71C149.017 153.869 147.483 154.79 145.699 155.472C143.926 156.142 141.92 156.477 139.682 156.477C136.568 156.477 133.784 155.773 131.33 154.364C128.886 152.955 126.955 150.915 125.534 148.244C124.125 145.574 123.42 142.341 123.42 138.545C123.42 134.739 124.136 131.5 125.568 128.83C127 126.159 128.943 124.125 131.398 122.727C133.852 121.318 136.614 120.614 139.682 120.614C141.705 120.614 143.58 120.898 145.307 121.466C147.045 122.034 148.585 122.864 149.926 123.955C151.267 125.034 152.358 126.358 153.199 127.926C154.051 129.494 154.597 131.29 154.835 133.312ZM167.253 121.091V156H159.991V121.091H167.253ZM173.07 156V129.818H180.331V156H173.07ZM176.717 126.443C175.638 126.443 174.712 126.085 173.939 125.369C173.178 124.642 172.797 123.773 172.797 122.761C172.797 121.761 173.178 120.903 173.939 120.188C174.712 119.46 175.638 119.097 176.717 119.097C177.797 119.097 178.717 119.46 179.479 120.188C180.251 120.903 180.638 121.761 180.638 122.761C180.638 123.773 180.251 124.642 179.479 125.369C178.717 126.085 177.797 126.443 176.717 126.443ZM198.08 156.511C195.386 156.511 193.068 155.966 191.125 154.875C189.193 153.773 187.705 152.216 186.659 150.205C185.614 148.182 185.091 145.79 185.091 143.028C185.091 140.335 185.614 137.972 186.659 135.938C187.705 133.903 189.176 132.318 191.074 131.182C192.983 130.045 195.222 129.477 197.79 129.477C199.517 129.477 201.125 129.756 202.614 130.312C204.114 130.858 205.42 131.682 206.534 132.784C207.659 133.886 208.534 135.273 209.159 136.943C209.784 138.602 210.097 140.545 210.097 142.773V144.767H187.989V140.267H203.261C203.261 139.222 203.034 138.295 202.58 137.489C202.125 136.682 201.494 136.051 200.688 135.597C199.892 135.131 198.966 134.898 197.909 134.898C196.807 134.898 195.83 135.153 194.977 135.665C194.136 136.165 193.477 136.841 193 137.693C192.523 138.534 192.278 139.472 192.267 140.506V144.784C192.267 146.08 192.506 147.199 192.983 148.142C193.472 149.085 194.159 149.812 195.045 150.324C195.932 150.835 196.983 151.091 198.199 151.091C199.006 151.091 199.744 150.977 200.415 150.75C201.085 150.523 201.659 150.182 202.136 149.727C202.614 149.273 202.977 148.716 203.227 148.057L209.943 148.5C209.602 150.114 208.903 151.523 207.847 152.727C206.801 153.92 205.449 154.852 203.79 155.523C202.142 156.182 200.239 156.511 198.08 156.511ZM222.097 140.864V156H214.835V129.818H221.756V134.438H222.062C222.642 132.915 223.614 131.71 224.977 130.824C226.341 129.926 227.994 129.477 229.938 129.477C231.756 129.477 233.341 129.875 234.693 130.67C236.045 131.466 237.097 132.602 237.847 134.08C238.597 135.545 238.972 137.295 238.972 139.33V156H231.71V140.625C231.722 139.023 231.313 137.773 230.483 136.875C229.653 135.966 228.511 135.511 227.057 135.511C226.08 135.511 225.216 135.722 224.466 136.142C223.727 136.562 223.148 137.176 222.727 137.983C222.318 138.778 222.108 139.739 222.097 140.864ZM258.621 129.818V135.273H242.854V129.818H258.621ZM246.433 123.545H253.695V147.955C253.695 148.625 253.797 149.148 254.001 149.523C254.206 149.886 254.49 150.142 254.854 150.29C255.229 150.437 255.661 150.511 256.149 150.511C256.49 150.511 256.831 150.483 257.172 150.426C257.513 150.358 257.774 150.307 257.956 150.273L259.098 155.676C258.734 155.79 258.223 155.92 257.564 156.068C256.905 156.227 256.104 156.324 255.161 156.358C253.411 156.426 251.876 156.193 250.558 155.659C249.251 155.125 248.234 154.295 247.507 153.17C246.78 152.045 246.422 150.625 246.433 148.909V123.545Z" fill="#2C6AB1"/>
<path d="M901 120L871 102.68L871 137.321L901 120ZM381 123L874 123L874 117L381 117L381 123Z" fill="black"/>
<path d="M381 156L411 173.321L411 138.68L381 156ZM901 153L408 153L408 159L901 159L901 153Z" fill="black"/>
<path d="M937.892 156L927.903 121.091H935.966L941.744 145.347H942.034L948.409 121.091H955.312L961.67 145.398H961.977L967.756 121.091H975.818L965.83 156H958.636L951.989 133.176H951.716L945.085 156H937.892ZM988.649 156.511C986.001 156.511 983.712 155.949 981.78 154.824C979.859 153.687 978.376 152.108 977.331 150.085C976.286 148.051 975.763 145.693 975.763 143.011C975.763 140.307 976.286 137.943 977.331 135.92C978.376 133.886 979.859 132.307 981.78 131.182C983.712 130.045 986.001 129.477 988.649 129.477C991.297 129.477 993.581 130.045 995.501 131.182C997.433 132.307 998.922 133.886 999.967 135.92C1001.01 137.943 1001.54 140.307 1001.54 143.011C1001.54 145.693 1001.01 148.051 999.967 150.085C998.922 152.108 997.433 153.687 995.501 154.824C993.581 155.949 991.297 156.511 988.649 156.511ZM988.683 150.886C989.888 150.886 990.893 150.545 991.7 149.864C992.507 149.17 993.115 148.227 993.524 147.034C993.945 145.841 994.155 144.483 994.155 142.96C994.155 141.438 993.945 140.08 993.524 138.886C993.115 137.693 992.507 136.75 991.7 136.057C990.893 135.364 989.888 135.017 988.683 135.017C987.467 135.017 986.445 135.364 985.615 136.057C984.797 136.75 984.178 137.693 983.757 138.886C983.348 140.08 983.143 141.438 983.143 142.96C983.143 144.483 983.348 145.841 983.757 147.034C984.178 148.227 984.797 149.17 985.615 149.864C986.445 150.545 987.467 150.886 988.683 150.886ZM1006.26 156V129.818H1013.3V134.386H1013.57C1014.05 132.761 1014.85 131.534 1015.97 130.705C1017.1 129.864 1018.39 129.443 1019.86 129.443C1020.22 129.443 1020.62 129.466 1021.04 129.511C1021.46 129.557 1021.83 129.619 1022.14 129.699V136.142C1021.8 136.04 1021.33 135.949 1020.73 135.869C1020.13 135.79 1019.58 135.75 1019.08 135.75C1018.01 135.75 1017.05 135.983 1016.21 136.449C1015.38 136.903 1014.72 137.54 1014.23 138.358C1013.76 139.176 1013.52 140.119 1013.52 141.188V156H1006.26ZM1034.33 156.426C1032.34 156.426 1030.54 155.915 1028.92 154.892C1027.32 153.858 1026.05 152.341 1025.11 150.341C1024.17 148.33 1023.71 145.864 1023.71 142.943C1023.71 139.943 1024.19 137.449 1025.16 135.46C1026.12 133.46 1027.41 131.966 1029.01 130.977C1030.62 129.977 1032.39 129.477 1034.31 129.477C1035.78 129.477 1037 129.727 1037.97 130.227C1038.96 130.716 1039.76 131.33 1040.36 132.068C1040.97 132.795 1041.44 133.511 1041.76 134.216H1041.98V121.091H1049.22V156H1042.07V151.807H1041.76C1041.42 152.534 1040.93 153.256 1040.31 153.972C1039.7 154.676 1038.89 155.261 1037.91 155.727C1036.93 156.193 1035.74 156.426 1034.33 156.426ZM1036.63 150.648C1037.8 150.648 1038.79 150.33 1039.59 149.693C1040.41 149.045 1041.04 148.142 1041.47 146.983C1041.91 145.824 1042.13 144.466 1042.13 142.909C1042.13 141.352 1041.92 140 1041.49 138.852C1041.05 137.705 1040.43 136.818 1039.61 136.193C1038.79 135.568 1037.8 135.256 1036.63 135.256C1035.43 135.256 1034.43 135.58 1033.61 136.227C1032.79 136.875 1032.17 137.773 1031.75 138.92C1031.33 140.068 1031.12 141.398 1031.12 142.909C1031.12 144.432 1031.33 145.778 1031.75 146.949C1032.18 148.108 1032.8 149.017 1033.61 149.676C1034.43 150.324 1035.43 150.648 1036.63 150.648ZM1062.46 121.091V156H1055.19V121.091H1062.46ZM1080.2 156.511C1077.51 156.511 1075.19 155.966 1073.25 154.875C1071.32 153.773 1069.83 152.216 1068.78 150.205C1067.74 148.182 1067.22 145.79 1067.22 143.028C1067.22 140.335 1067.74 137.972 1068.78 135.938C1069.83 133.903 1071.3 132.318 1073.2 131.182C1075.11 130.045 1077.35 129.477 1079.91 129.477C1081.64 129.477 1083.25 129.756 1084.74 130.312C1086.24 130.858 1087.55 131.682 1088.66 132.784C1089.78 133.886 1090.66 135.273 1091.28 136.943C1091.91 138.602 1092.22 140.545 1092.22 142.773V144.767H1070.11V140.267H1085.39C1085.39 139.222 1085.16 138.295 1084.7 137.489C1084.25 136.682 1083.62 136.051 1082.81 135.597C1082.02 135.131 1081.09 134.898 1080.03 134.898C1078.93 134.898 1077.95 135.153 1077.1 135.665C1076.26 136.165 1075.6 136.841 1075.12 137.693C1074.65 138.534 1074.4 139.472 1074.39 140.506V144.784C1074.39 146.08 1074.63 147.199 1075.11 148.142C1075.6 149.085 1076.28 149.812 1077.17 150.324C1078.06 150.835 1079.11 151.091 1080.32 151.091C1081.13 151.091 1081.87 150.977 1082.54 150.75C1083.21 150.523 1083.78 150.182 1084.26 149.727C1084.74 149.273 1085.1 148.716 1085.35 148.057L1092.07 148.5C1091.73 150.114 1091.03 151.523 1089.97 152.727C1088.93 153.92 1087.57 154.852 1085.91 155.523C1084.27 156.182 1082.36 156.511 1080.2 156.511ZM1129.85 137.284L1123.21 137.693C1123.09 137.125 1122.85 136.614 1122.47 136.159C1122.1 135.693 1121.6 135.324 1120.99 135.051C1120.39 134.767 1119.67 134.625 1118.83 134.625C1117.7 134.625 1116.75 134.864 1115.98 135.341C1115.21 135.807 1114.82 136.432 1114.82 137.216C1114.82 137.841 1115.07 138.369 1115.57 138.801C1116.07 139.233 1116.93 139.58 1118.14 139.841L1122.88 140.795C1125.43 141.318 1127.33 142.159 1128.58 143.318C1129.83 144.477 1130.45 146 1130.45 147.886C1130.45 149.602 1129.94 151.108 1128.93 152.403C1127.93 153.699 1126.56 154.71 1124.81 155.438C1123.07 156.153 1121.06 156.511 1118.79 156.511C1115.33 156.511 1112.56 155.79 1110.51 154.347C1108.46 152.892 1107.26 150.915 1106.91 148.415L1114.05 148.04C1114.27 149.097 1114.79 149.903 1115.62 150.46C1116.45 151.006 1117.51 151.278 1118.81 151.278C1120.08 151.278 1121.1 151.034 1121.88 150.545C1122.66 150.045 1123.06 149.403 1123.07 148.619C1123.06 147.96 1122.78 147.42 1122.23 147C1121.69 146.568 1120.85 146.239 1119.71 146.011L1115.18 145.108C1112.62 144.597 1110.72 143.71 1109.47 142.449C1108.23 141.187 1107.61 139.58 1107.61 137.625C1107.61 135.943 1108.06 134.494 1108.97 133.278C1109.89 132.062 1111.18 131.125 1112.84 130.466C1114.51 129.807 1116.47 129.477 1118.71 129.477C1122.01 129.477 1124.62 130.176 1126.51 131.574C1128.42 132.972 1129.54 134.875 1129.85 137.284ZM1146.95 156.511C1144.26 156.511 1141.94 155.966 1140 154.875C1138.07 153.773 1136.58 152.216 1135.53 150.205C1134.49 148.182 1133.97 145.79 1133.97 143.028C1133.97 140.335 1134.49 137.972 1135.53 135.938C1136.58 133.903 1138.05 132.318 1139.95 131.182C1141.86 130.045 1144.1 129.477 1146.66 129.477C1148.39 129.477 1150 129.756 1151.49 130.312C1152.99 130.858 1154.3 131.682 1155.41 132.784C1156.53 133.886 1157.41 135.273 1158.03 136.943C1158.66 138.602 1158.97 140.545 1158.97 142.773V144.767H1136.86V140.267H1152.14C1152.14 139.222 1151.91 138.295 1151.45 137.489C1151 136.682 1150.37 136.051 1149.56 135.597C1148.77 135.131 1147.84 134.898 1146.78 134.898C1145.68 134.898 1144.7 135.153 1143.85 135.665C1143.01 136.165 1142.35 136.841 1141.88 137.693C1141.4 138.534 1141.15 139.472 1141.14 140.506V144.784C1141.14 146.08 1141.38 147.199 1141.86 148.142C1142.35 149.085 1143.03 149.812 1143.92 150.324C1144.81 150.835 1145.86 151.091 1147.07 151.091C1147.88 151.091 1148.62 150.977 1149.29 150.75C1149.96 150.523 1150.53 150.182 1151.01 149.727C1151.49 149.273 1151.85 148.716 1152.1 148.057L1158.82 148.5C1158.48 150.114 1157.78 151.523 1156.72 152.727C1155.68 153.92 1154.32 154.852 1152.66 155.523C1151.02 156.182 1149.11 156.511 1146.95 156.511ZM1163.71 156V129.818H1170.75V134.386H1171.02C1171.5 132.761 1172.3 131.534 1173.43 130.705C1174.55 129.864 1175.85 129.443 1177.31 129.443C1177.68 129.443 1178.07 129.466 1178.49 129.511C1178.91 129.557 1179.28 129.619 1179.6 129.699V136.142C1179.26 136.04 1178.78 135.949 1178.18 135.869C1177.58 135.79 1177.03 135.75 1176.53 135.75C1175.46 135.75 1174.51 135.983 1173.66 136.449C1172.84 136.903 1172.18 137.54 1171.69 138.358C1171.21 139.176 1170.97 140.119 1170.97 141.188V156H1163.71ZM1208.56 129.818L1199.4 156H1191.22L1182.07 129.818H1189.74L1195.18 148.551H1195.45L1200.87 129.818H1208.56ZM1223.36 156.511C1220.67 156.511 1218.35 155.966 1216.41 154.875C1214.47 153.773 1212.99 152.216 1211.94 150.205C1210.89 148.182 1210.37 145.79 1210.37 143.028C1210.37 140.335 1210.89 137.972 1211.94 135.938C1212.99 133.903 1214.46 132.318 1216.36 131.182C1218.26 130.045 1220.5 129.477 1223.07 129.477C1224.8 129.477 1226.41 129.756 1227.89 130.312C1229.39 130.858 1230.7 131.682 1231.82 132.784C1232.94 133.886 1233.82 135.273 1234.44 136.943C1235.07 138.602 1235.38 140.545 1235.38 142.773V144.767H1213.27V140.267H1228.54C1228.54 139.222 1228.32 138.295 1227.86 137.489C1227.41 136.682 1226.78 136.051 1225.97 135.597C1225.17 135.131 1224.25 134.898 1223.19 134.898C1222.09 134.898 1221.11 135.153 1220.26 135.665C1219.42 136.165 1218.76 136.841 1218.28 137.693C1217.8 138.534 1217.56 139.472 1217.55 140.506V144.784C1217.55 146.08 1217.79 147.199 1218.26 148.142C1218.75 149.085 1219.44 149.812 1220.33 150.324C1221.21 150.835 1222.26 151.091 1223.48 151.091C1224.29 151.091 1225.03 150.977 1225.7 150.75C1226.37 150.523 1226.94 150.182 1227.42 149.727C1227.89 149.273 1228.26 148.716 1228.51 148.057L1235.22 148.5C1234.88 150.114 1234.18 151.523 1233.13 152.727C1232.08 153.92 1230.73 154.852 1229.07 155.523C1227.42 156.182 1225.52 156.511 1223.36 156.511ZM1240.12 156V129.818H1247.16V134.386H1247.43C1247.91 132.761 1248.71 131.534 1249.83 130.705C1250.96 129.864 1252.25 129.443 1253.72 129.443C1254.08 129.443 1254.47 129.466 1254.89 129.511C1255.32 129.557 1255.68 129.619 1256 129.699V136.142C1255.66 136.04 1255.19 135.949 1254.59 135.869C1253.99 135.79 1253.43 135.75 1252.93 135.75C1251.87 135.75 1250.91 135.983 1250.07 136.449C1249.24 136.903 1248.58 137.54 1248.09 138.358C1247.62 139.176 1247.38 140.119 1247.38 141.188V156H1240.12Z" fill="#2C6AB1"/>
<rect x="904" y="55" width="375" height="167" stroke="#2C6AB1" stroke-width="6"/>
<path d="M484.016 17.652H479.235C479.099 16.8679 478.847 16.1733 478.481 15.5682C478.114 14.9545 477.658 14.4347 477.113 14.0085C476.567 13.5824 475.945 13.2628 475.246 13.0497C474.556 12.8281 473.81 12.7173 473.009 12.7173C471.586 12.7173 470.325 13.0753 469.225 13.7912C468.126 14.4986 467.265 15.5384 466.643 16.9105C466.021 18.2741 465.71 19.9403 465.71 21.9091C465.71 23.9119 466.021 25.5994 466.643 26.9716C467.273 28.3352 468.134 29.3665 469.225 30.0653C470.325 30.7557 471.582 31.1009 472.996 31.1009C473.781 31.1009 474.513 30.9986 475.195 30.794C475.886 30.581 476.504 30.2699 477.049 29.8608C477.603 29.4517 478.067 28.9489 478.442 28.3523C478.826 27.7557 479.09 27.0739 479.235 26.3068L484.016 26.3324C483.837 27.5767 483.45 28.7443 482.853 29.8352C482.265 30.9261 481.494 31.8892 480.539 32.7244C479.585 33.5511 478.468 34.1989 477.19 34.6676C475.911 35.1278 474.492 35.358 472.933 35.358C470.631 35.358 468.577 34.8253 466.771 33.7599C464.964 32.6946 463.54 31.1562 462.501 29.1449C461.461 27.1335 460.941 24.7216 460.941 21.9091C460.941 19.0881 461.465 16.6761 462.513 14.6733C463.562 12.6619 464.989 11.1236 466.796 10.0582C468.603 8.9929 470.648 8.46023 472.933 8.46023C474.39 8.46023 475.745 8.66477 476.998 9.07386C478.251 9.48295 479.367 10.0838 480.347 10.8764C481.327 11.6605 482.133 12.6236 482.763 13.7656C483.403 14.8991 483.82 16.1946 484.016 17.652ZM492.783 8.81818V35H488.155V8.81818H492.783ZM497.542 35V15.3636H502.17V35H497.542ZM499.869 12.5767C499.136 12.5767 498.505 12.3338 497.977 11.848C497.448 11.3537 497.184 10.7614 497.184 10.071C497.184 9.37216 497.448 8.77983 497.977 8.29403C498.505 7.79971 499.136 7.55256 499.869 7.55256C500.61 7.55256 501.241 7.79971 501.761 8.29403C502.289 8.77983 502.553 9.37216 502.553 10.071C502.553 10.7614 502.289 11.3537 501.761 11.848C501.241 12.3338 500.61 12.5767 499.869 12.5767ZM515.622 35.3835C513.653 35.3835 511.953 34.9744 510.521 34.1562C509.098 33.3295 508.002 32.1619 507.235 30.6534C506.468 29.1364 506.085 27.3509 506.085 25.2969C506.085 23.277 506.468 21.5043 507.235 19.9787C508.011 18.4446 509.093 17.2514 510.483 16.3991C511.872 15.5384 513.504 15.108 515.379 15.108C516.589 15.108 517.731 15.304 518.805 15.696C519.887 16.0795 520.842 16.6761 521.669 17.4858C522.504 18.2955 523.16 19.3267 523.637 20.5795C524.115 21.8239 524.353 23.3068 524.353 25.0284V26.4474H508.258V23.3281H519.917C519.909 22.4418 519.717 21.6534 519.342 20.9631C518.967 20.2642 518.443 19.7145 517.77 19.3139C517.105 18.9134 516.329 18.7131 515.443 18.7131C514.497 18.7131 513.666 18.9432 512.95 19.4034C512.234 19.8551 511.676 20.4517 511.275 21.1932C510.883 21.9261 510.683 22.7315 510.674 23.6094V26.3324C510.674 27.4744 510.883 28.4545 511.301 29.2727C511.718 30.0824 512.302 30.7045 513.052 31.1392C513.802 31.5653 514.68 31.7784 515.686 31.7784C516.359 31.7784 516.968 31.6847 517.514 31.4972C518.059 31.3011 518.532 31.0156 518.933 30.6406C519.333 30.2656 519.636 29.8011 519.841 29.2472L524.162 29.733C523.889 30.875 523.369 31.8722 522.602 32.7244C521.843 33.5682 520.872 34.2244 519.687 34.6932C518.502 35.1534 517.147 35.3835 515.622 35.3835ZM532.896 23.4943V35H528.268V15.3636H532.692V18.7003H532.922C533.374 17.6009 534.094 16.7273 535.082 16.0795C536.08 15.4318 537.311 15.108 538.777 15.108C540.132 15.108 541.313 15.3977 542.318 15.9773C543.332 16.5568 544.116 17.3963 544.67 18.4957C545.233 19.5952 545.51 20.929 545.501 22.4972V35H540.874V23.2131C540.874 21.9006 540.533 20.8736 539.851 20.1321C539.178 19.3906 538.244 19.0199 537.051 19.0199C536.241 19.0199 535.521 19.1989 534.891 19.5568C534.268 19.9062 533.778 20.4134 533.42 21.0781C533.071 21.7429 532.896 22.5483 532.896 23.4943ZM560.011 15.3636V18.9432H548.723V15.3636H560.011ZM551.51 10.6591H556.138V29.0938C556.138 29.7159 556.232 30.1932 556.419 30.5256C556.615 30.8494 556.871 31.071 557.186 31.1903C557.501 31.3097 557.851 31.3693 558.234 31.3693C558.524 31.3693 558.788 31.348 559.027 31.3054C559.274 31.2628 559.462 31.2244 559.589 31.1903L560.369 34.8082C560.122 34.8935 559.768 34.9872 559.308 35.0895C558.857 35.1918 558.303 35.2514 557.646 35.2685C556.487 35.3026 555.443 35.1278 554.514 34.7443C553.585 34.3523 552.848 33.7472 552.303 32.929C551.766 32.1108 551.501 31.0881 551.51 29.8608V10.6591ZM573.016 35V8.81818H582.834C584.846 8.81818 586.533 9.19318 587.897 9.94318C589.269 10.6932 590.304 11.7244 591.003 13.0369C591.711 14.3409 592.064 15.8239 592.064 17.4858C592.064 19.1648 591.711 20.6562 591.003 21.9602C590.296 23.2642 589.252 24.2912 587.871 25.0412C586.49 25.7827 584.79 26.1534 582.77 26.1534H576.263V22.2543H582.131C583.307 22.2543 584.27 22.0497 585.02 21.6406C585.77 21.2315 586.324 20.669 586.682 19.9531C587.049 19.2372 587.232 18.4148 587.232 17.4858C587.232 16.5568 587.049 15.7386 586.682 15.0312C586.324 14.3239 585.766 13.7741 585.007 13.3821C584.257 12.9815 583.29 12.7812 582.105 12.7812H577.759V35H573.016ZM596.184 35V8.81818H606.002C608.013 8.81818 609.701 9.19318 611.065 9.94318C612.437 10.6932 613.472 11.7244 614.171 13.0369C614.879 14.3409 615.232 15.8239 615.232 17.4858C615.232 19.1648 614.879 20.6562 614.171 21.9602C613.464 23.2642 612.42 24.2912 611.039 25.0412C609.658 25.7827 607.958 26.1534 605.938 26.1534H599.431V22.2543H605.299C606.475 22.2543 607.438 22.0497 608.188 21.6406C608.938 21.2315 609.492 20.669 609.85 19.9531C610.217 19.2372 610.4 18.4148 610.4 17.4858C610.4 16.5568 610.217 15.7386 609.85 15.0312C609.492 14.3239 608.934 13.7741 608.175 13.3821C607.425 12.9815 606.458 12.7812 605.273 12.7812H600.927V35H596.184ZM641.762 17.652H636.981C636.845 16.8679 636.593 16.1733 636.227 15.5682C635.86 14.9545 635.404 14.4347 634.859 14.0085C634.314 13.5824 633.691 13.2628 632.993 13.0497C632.302 12.8281 631.556 12.7173 630.755 12.7173C629.332 12.7173 628.071 13.0753 626.971 13.7912C625.872 14.4986 625.011 15.5384 624.389 16.9105C623.767 18.2741 623.456 19.9403 623.456 21.9091C623.456 23.9119 623.767 25.5994 624.389 26.9716C625.02 28.3352 625.88 29.3665 626.971 30.0653C628.071 30.7557 629.328 31.1009 630.743 31.1009C631.527 31.1009 632.26 30.9986 632.941 30.794C633.632 30.581 634.25 30.2699 634.795 29.8608C635.349 29.4517 635.814 28.9489 636.189 28.3523C636.572 27.7557 636.836 27.0739 636.981 26.3068L641.762 26.3324C641.583 27.5767 641.196 28.7443 640.599 29.8352C640.011 30.9261 639.24 31.8892 638.285 32.7244C637.331 33.5511 636.214 34.1989 634.936 34.6676C633.657 35.1278 632.238 35.358 630.679 35.358C628.377 35.358 626.324 34.8253 624.517 33.7599C622.71 32.6946 621.287 31.1562 620.247 29.1449C619.207 27.1335 618.687 24.7216 618.687 21.9091C618.687 19.0881 619.211 16.6761 620.26 14.6733C621.308 12.6619 622.735 11.1236 624.542 10.0582C626.349 8.9929 628.395 8.46023 630.679 8.46023C632.136 8.46023 633.491 8.66477 634.744 9.07386C635.997 9.48295 637.113 10.0838 638.093 10.8764C639.074 11.6605 639.879 12.6236 640.51 13.7656C641.149 14.8991 641.566 16.1946 641.762 17.652ZM661.421 20.554L657.202 21.0142C657.083 20.5881 656.874 20.1875 656.576 19.8125C656.286 19.4375 655.894 19.1349 655.4 18.9048C654.906 18.6747 654.3 18.5597 653.585 18.5597C652.621 18.5597 651.812 18.7685 651.156 19.1861C650.508 19.6037 650.188 20.1449 650.197 20.8097C650.188 21.3807 650.397 21.8452 650.823 22.2031C651.258 22.5611 651.974 22.8551 652.971 23.0852L656.32 23.8011C658.178 24.2017 659.559 24.8366 660.462 25.706C661.374 26.5753 661.835 27.7131 661.843 29.1193C661.835 30.3551 661.472 31.446 660.756 32.392C660.049 33.3295 659.065 34.0625 657.803 34.5909C656.542 35.1193 655.093 35.3835 653.457 35.3835C651.053 35.3835 649.119 34.8807 647.653 33.875C646.187 32.8608 645.313 31.4503 645.032 29.6435L649.545 29.2088C649.749 30.0952 650.184 30.7642 650.849 31.2159C651.513 31.6676 652.379 31.8935 653.444 31.8935C654.543 31.8935 655.425 31.6676 656.09 31.2159C656.763 30.7642 657.1 30.206 657.1 29.5412C657.1 28.9787 656.883 28.5142 656.448 28.1477C656.022 27.7812 655.357 27.5 654.454 27.304L651.104 26.6009C649.221 26.2088 647.827 25.5483 646.924 24.6193C646.021 23.6818 645.573 22.4972 645.582 21.0653C645.573 19.8551 645.901 18.8068 646.566 17.9205C647.239 17.0256 648.173 16.3352 649.366 15.8494C650.567 15.3551 651.952 15.108 653.521 15.108C655.822 15.108 657.633 15.598 658.954 16.5781C660.283 17.5582 661.106 18.8835 661.421 20.554ZM684.394 15.3636V18.9432H673.106V15.3636H684.394ZM675.893 10.6591H680.521V29.0938C680.521 29.7159 680.614 30.1932 680.802 30.5256C680.998 30.8494 681.254 31.071 681.569 31.1903C681.884 31.3097 682.234 31.3693 682.617 31.3693C682.907 31.3693 683.171 31.348 683.41 31.3054C683.657 31.2628 683.844 31.2244 683.972 31.1903L684.752 34.8082C684.505 34.8935 684.151 34.9872 683.691 35.0895C683.239 35.1918 682.685 35.2514 682.029 35.2685C680.87 35.3026 679.826 35.1278 678.897 34.7443C677.968 34.3523 677.231 33.7472 676.685 32.929C676.148 32.1108 675.884 31.0881 675.893 29.8608V10.6591ZM696.619 35.3835C694.701 35.3835 693.039 34.9616 691.633 34.1179C690.227 33.2741 689.136 32.0937 688.36 30.5767C687.593 29.0597 687.21 27.2869 687.21 25.2585C687.21 23.2301 687.593 21.4531 688.36 19.9276C689.136 18.402 690.227 17.2173 691.633 16.3736C693.039 15.5298 694.701 15.108 696.619 15.108C698.537 15.108 700.199 15.5298 701.605 16.3736C703.011 17.2173 704.098 18.402 704.865 19.9276C705.64 21.4531 706.028 23.2301 706.028 25.2585C706.028 27.2869 705.64 29.0597 704.865 30.5767C704.098 32.0937 703.011 33.2741 701.605 34.1179C700.199 34.9616 698.537 35.3835 696.619 35.3835ZM696.645 31.6761C697.684 31.6761 698.554 31.3906 699.252 30.8196C699.951 30.2401 700.471 29.4645 700.812 28.4929C701.162 27.5213 701.336 26.4389 701.336 25.2457C701.336 24.044 701.162 22.9574 700.812 21.9858C700.471 21.0057 699.951 20.2259 699.252 19.6463C698.554 19.0668 697.684 18.777 696.645 18.777C695.579 18.777 694.693 19.0668 693.985 19.6463C693.287 20.2259 692.762 21.0057 692.413 21.9858C692.072 22.9574 691.902 24.044 691.902 25.2457C691.902 26.4389 692.072 27.5213 692.413 28.4929C692.762 29.4645 693.287 30.2401 693.985 30.8196C694.693 31.3906 695.579 31.6761 696.645 31.6761ZM727.451 35.3835C725.491 35.3835 723.808 34.9531 722.401 34.0923C721.004 33.2315 719.925 32.0426 719.167 30.5256C718.417 29 718.042 27.2443 718.042 25.2585C718.042 23.2642 718.425 21.5043 719.192 19.9787C719.96 18.4446 721.042 17.2514 722.44 16.3991C723.846 15.5384 725.508 15.108 727.425 15.108C729.019 15.108 730.43 15.402 731.657 15.9901C732.893 16.5696 733.877 17.392 734.61 18.4574C735.343 19.5142 735.761 20.75 735.863 22.1648H731.44C731.261 21.2187 730.835 20.4304 730.161 19.7997C729.496 19.1605 728.606 18.8409 727.489 18.8409C726.543 18.8409 725.712 19.0966 724.996 19.608C724.281 20.1108 723.722 20.8352 723.322 21.7812C722.93 22.7273 722.734 23.8608 722.734 25.1818C722.734 26.5199 722.93 27.6705 723.322 28.6335C723.714 29.5881 724.263 30.3253 724.971 30.8452C725.687 31.3565 726.526 31.6122 727.489 31.6122C728.171 31.6122 728.781 31.4844 729.317 31.2287C729.863 30.9645 730.319 30.5852 730.685 30.0909C731.052 29.5966 731.303 28.9957 731.44 28.2884H735.863C735.752 29.6776 735.343 30.9091 734.636 31.983C733.928 33.0483 732.965 33.8835 731.746 34.4886C730.528 35.0852 729.096 35.3835 727.451 35.3835ZM744.291 23.4943V35H739.663V8.81818H744.189V18.7003H744.419C744.879 17.5923 745.591 16.7187 746.554 16.0795C747.525 15.4318 748.761 15.108 750.261 15.108C751.625 15.108 752.814 15.3935 753.828 15.9645C754.842 16.5355 755.626 17.3707 756.18 18.4702C756.743 19.5696 757.024 20.9119 757.024 22.4972V35H752.396V23.2131C752.396 21.892 752.055 20.8651 751.373 20.1321C750.7 19.3906 749.754 19.0199 748.535 19.0199C747.717 19.0199 746.984 19.1989 746.336 19.5568C745.697 19.9062 745.194 20.4134 744.828 21.0781C744.47 21.7429 744.291 22.5483 744.291 23.4943ZM770.434 35.3835C768.466 35.3835 766.765 34.9744 765.333 34.1562C763.91 33.3295 762.815 32.1619 762.048 30.6534C761.281 29.1364 760.897 27.3509 760.897 25.2969C760.897 23.277 761.281 21.5043 762.048 19.9787C762.824 18.4446 763.906 17.2514 765.295 16.3991C766.684 15.5384 768.316 15.108 770.191 15.108C771.402 15.108 772.544 15.304 773.618 15.696C774.7 16.0795 775.654 16.6761 776.481 17.4858C777.316 18.2955 777.973 19.3267 778.45 20.5795C778.927 21.8239 779.166 23.3068 779.166 25.0284V26.4474H763.071V23.3281H774.73C774.721 22.4418 774.529 21.6534 774.154 20.9631C773.779 20.2642 773.255 19.7145 772.582 19.3139C771.917 18.9134 771.142 18.7131 770.255 18.7131C769.309 18.7131 768.478 18.9432 767.762 19.4034C767.047 19.8551 766.488 20.4517 766.088 21.1932C765.696 21.9261 765.495 22.7315 765.487 23.6094V26.3324C765.487 27.4744 765.696 28.4545 766.113 29.2727C766.531 30.0824 767.115 30.7045 767.865 31.1392C768.615 31.5653 769.493 31.7784 770.498 31.7784C771.172 31.7784 771.781 31.6847 772.326 31.4972C772.872 31.3011 773.345 31.0156 773.745 30.6406C774.146 30.2656 774.449 29.8011 774.653 29.2472L778.974 29.733C778.701 30.875 778.181 31.8722 777.414 32.7244C776.656 33.5682 775.684 34.2244 774.5 34.6932C773.315 35.1534 771.96 35.3835 770.434 35.3835ZM791.646 35.3835C789.686 35.3835 788.003 34.9531 786.597 34.0923C785.199 33.2315 784.121 32.0426 783.362 30.5256C782.612 29 782.237 27.2443 782.237 25.2585C782.237 23.2642 782.621 21.5043 783.388 19.9787C784.155 18.4446 785.237 17.2514 786.635 16.3991C788.041 15.5384 789.703 15.108 791.621 15.108C793.214 15.108 794.625 15.402 795.852 15.9901C797.088 16.5696 798.072 17.392 798.805 18.4574C799.538 19.5142 799.956 20.75 800.058 22.1648H795.635C795.456 21.2187 795.03 20.4304 794.357 19.7997C793.692 19.1605 792.801 18.8409 791.685 18.8409C790.739 18.8409 789.908 19.0966 789.192 19.608C788.476 20.1108 787.918 20.8352 787.517 21.7812C787.125 22.7273 786.929 23.8608 786.929 25.1818C786.929 26.5199 787.125 27.6705 787.517 28.6335C787.909 29.5881 788.459 30.3253 789.166 30.8452C789.882 31.3565 790.722 31.6122 791.685 31.6122C792.366 31.6122 792.976 31.4844 793.513 31.2287C794.058 30.9645 794.514 30.5852 794.881 30.0909C795.247 29.5966 795.499 28.9957 795.635 28.2884H800.058C799.947 29.6776 799.538 30.9091 798.831 31.983C798.124 33.0483 797.161 33.8835 795.942 34.4886C794.723 35.0852 793.291 35.3835 791.646 35.3835ZM808.077 28.8381L808.064 23.2514H808.806L815.863 15.3636H821.27L812.59 25.0284H811.631L808.077 28.8381ZM803.858 35V8.81818H808.486V35H803.858ZM816.182 35L809.79 26.0639L812.909 22.804L821.718 35H816.182ZM598.789 86.7727C597.127 86.7727 595.699 86.5469 594.506 86.0952C593.313 85.652 592.354 85.0554 591.63 84.3054C590.905 83.5554 590.402 82.7244 590.121 81.8125L594.289 80.8026C594.476 81.1861 594.749 81.5653 595.107 81.9403C595.465 82.3239 595.946 82.6392 596.551 82.8864C597.165 83.142 597.936 83.2699 598.865 83.2699C600.178 83.2699 601.265 82.9503 602.125 82.3111C602.986 81.6804 603.417 80.6406 603.417 79.1918V75.4716H603.186C602.948 75.9489 602.598 76.4389 602.138 76.9418C601.686 77.4446 601.086 77.8665 600.336 78.2074C599.594 78.5483 598.661 78.7188 597.536 78.7188C596.027 78.7188 594.659 78.3651 593.432 77.6577C592.213 76.9418 591.242 75.8764 590.517 74.4616C589.801 73.0384 589.444 71.2571 589.444 69.1179C589.444 66.9616 589.801 65.142 590.517 63.6591C591.242 62.1676 592.218 61.0384 593.445 60.2713C594.672 59.4957 596.04 59.108 597.549 59.108C598.699 59.108 599.645 59.304 600.387 59.696C601.137 60.0795 601.733 60.544 602.176 61.0895C602.62 61.6264 602.956 62.1335 603.186 62.6108H603.442V59.3636H608.006V79.3196C608.006 80.9986 607.605 82.3878 606.804 83.4872C606.003 84.5866 604.908 85.4091 603.519 85.9545C602.13 86.5 600.553 86.7727 598.789 86.7727ZM598.827 75.0881C599.807 75.0881 600.642 74.8494 601.333 74.3722C602.023 73.8949 602.547 73.2088 602.905 72.3139C603.263 71.419 603.442 70.3452 603.442 69.0923C603.442 67.8565 603.263 66.7741 602.905 65.8452C602.556 64.9162 602.036 64.196 601.346 63.6847C600.664 63.1648 599.824 62.9048 598.827 62.9048C597.796 62.9048 596.935 63.1733 596.245 63.7102C595.554 64.2472 595.034 64.9844 594.685 65.9219C594.336 66.8509 594.161 67.9077 594.161 69.0923C594.161 70.294 594.336 71.3466 594.685 72.25C595.043 73.1449 595.567 73.8437 596.257 74.3466C596.956 74.8409 597.813 75.0881 598.827 75.0881ZM625.265 70.7415V59.3636H629.892V79H625.405V75.5099H625.201C624.757 76.6094 624.029 77.5085 623.015 78.2074C622.009 78.9062 620.769 79.2557 619.294 79.2557C618.007 79.2557 616.87 78.9702 615.881 78.3991C614.901 77.8196 614.134 76.9801 613.58 75.8807C613.026 74.7727 612.749 73.4347 612.749 71.8665V59.3636H617.377V71.1506C617.377 72.3949 617.718 73.3835 618.4 74.1165C619.081 74.8494 619.976 75.2159 621.084 75.2159C621.766 75.2159 622.426 75.0497 623.066 74.7173C623.705 74.3849 624.229 73.8906 624.638 73.2344C625.056 72.5696 625.265 71.7386 625.265 70.7415ZM643.344 79.3835C641.376 79.3835 639.675 78.9744 638.244 78.1562C636.82 77.3295 635.725 76.1619 634.958 74.6534C634.191 73.1364 633.808 71.3509 633.808 69.2969C633.808 67.277 634.191 65.5043 634.958 63.9787C635.734 62.4446 636.816 61.2514 638.205 60.3991C639.594 59.5384 641.227 59.108 643.102 59.108C644.312 59.108 645.454 59.304 646.528 59.696C647.61 60.0795 648.565 60.6761 649.391 61.4858C650.227 62.2955 650.883 63.3267 651.36 64.5795C651.837 65.8239 652.076 67.3068 652.076 69.0284V70.4474H635.981V67.3281H647.64C647.631 66.4418 647.44 65.6534 647.065 64.9631C646.69 64.2642 646.165 63.7145 645.492 63.3139C644.827 62.9134 644.052 62.7131 643.165 62.7131C642.219 62.7131 641.388 62.9432 640.673 63.4034C639.957 63.8551 639.398 64.4517 638.998 65.1932C638.606 65.9261 638.406 66.7315 638.397 67.6094V70.3324C638.397 71.4744 638.606 72.4545 639.023 73.2727C639.441 74.0824 640.025 74.7045 640.775 75.1392C641.525 75.5653 642.403 75.7784 643.408 75.7784C644.082 75.7784 644.691 75.6847 645.237 75.4972C645.782 75.3011 646.255 75.0156 646.656 74.6406C647.056 74.2656 647.359 73.8011 647.563 73.2472L651.884 73.733C651.612 74.875 651.092 75.8722 650.325 76.7244C649.566 77.5682 648.594 78.2244 647.41 78.6932C646.225 79.1534 644.87 79.3835 643.344 79.3835ZM671.511 64.554L667.292 65.0142C667.173 64.5881 666.964 64.1875 666.666 63.8125C666.376 63.4375 665.984 63.1349 665.49 62.9048C664.995 62.6747 664.39 62.5597 663.674 62.5597C662.711 62.5597 661.902 62.7685 661.245 63.1861C660.598 63.6037 660.278 64.1449 660.287 64.8097C660.278 65.3807 660.487 65.8452 660.913 66.2031C661.348 66.5611 662.064 66.8551 663.061 67.0852L666.41 67.8011C668.268 68.2017 669.649 68.8366 670.552 69.706C671.464 70.5753 671.924 71.7131 671.933 73.1193C671.924 74.3551 671.562 75.446 670.846 76.392C670.139 77.3295 669.154 78.0625 667.893 78.5909C666.632 79.1193 665.183 79.3835 663.547 79.3835C661.143 79.3835 659.208 78.8807 657.743 77.875C656.277 76.8608 655.403 75.4503 655.122 73.6435L659.635 73.2088C659.839 74.0952 660.274 74.7642 660.939 75.2159C661.603 75.6676 662.468 75.8935 663.534 75.8935C664.633 75.8935 665.515 75.6676 666.18 75.2159C666.853 74.7642 667.19 74.206 667.19 73.5412C667.19 72.9787 666.973 72.5142 666.538 72.1477C666.112 71.7812 665.447 71.5 664.544 71.304L661.194 70.6009C659.311 70.2088 657.917 69.5483 657.014 68.6193C656.11 67.6818 655.663 66.4972 655.672 65.0653C655.663 63.8551 655.991 62.8068 656.656 61.9205C657.329 61.0256 658.262 60.3352 659.456 59.8494C660.657 59.3551 662.042 59.108 663.61 59.108C665.912 59.108 667.723 59.598 669.044 60.5781C670.373 61.5582 671.196 62.8835 671.511 64.554ZM691.269 64.554L687.05 65.0142C686.931 64.5881 686.722 64.1875 686.424 63.8125C686.134 63.4375 685.742 63.1349 685.248 62.9048C684.753 62.6747 684.148 62.5597 683.432 62.5597C682.469 62.5597 681.659 62.7685 681.003 63.1861C680.355 63.6037 680.036 64.1449 680.044 64.8097C680.036 65.3807 680.245 65.8452 680.671 66.2031C681.105 66.5611 681.821 66.8551 682.819 67.0852L686.168 67.8011C688.026 68.2017 689.407 68.8366 690.31 69.706C691.222 70.5753 691.682 71.7131 691.691 73.1193C691.682 74.3551 691.32 75.446 690.604 76.392C689.897 77.3295 688.912 78.0625 687.651 78.5909C686.39 79.1193 684.941 79.3835 683.304 79.3835C680.901 79.3835 678.966 78.8807 677.5 77.875C676.034 76.8608 675.161 75.4503 674.88 73.6435L679.392 73.2088C679.597 74.0952 680.032 74.7642 680.696 75.2159C681.361 75.6676 682.226 75.8935 683.292 75.8935C684.391 75.8935 685.273 75.6676 685.938 75.2159C686.611 74.7642 686.948 74.206 686.948 73.5412C686.948 72.9787 686.73 72.5142 686.296 72.1477C685.87 71.7812 685.205 71.5 684.301 71.304L680.952 70.6009C679.069 70.2088 677.675 69.5483 676.772 68.6193C675.868 67.6818 675.421 66.4972 675.429 65.0653C675.421 63.8551 675.749 62.8068 676.414 61.9205C677.087 61.0256 678.02 60.3352 679.213 59.8494C680.415 59.3551 681.8 59.108 683.368 59.108C685.669 59.108 687.48 59.598 688.801 60.5781C690.131 61.5582 690.953 62.8835 691.269 64.554Z" fill="black"/>
<path d="M466.229 197.016C466.11 195.899 465.607 195.03 464.721 194.408C463.843 193.786 462.701 193.474 461.294 193.474C460.306 193.474 459.458 193.624 458.75 193.922C458.043 194.22 457.502 194.625 457.127 195.136C456.752 195.648 456.56 196.232 456.551 196.888C456.551 197.433 456.675 197.906 456.922 198.307C457.178 198.707 457.523 199.048 457.958 199.33C458.392 199.602 458.874 199.832 459.402 200.02C459.931 200.207 460.463 200.365 461 200.493L463.455 201.107C464.444 201.337 465.394 201.648 466.306 202.04C467.226 202.432 468.049 202.926 468.773 203.523C469.506 204.119 470.086 204.839 470.512 205.683C470.938 206.527 471.151 207.516 471.151 208.649C471.151 210.183 470.759 211.534 469.975 212.702C469.191 213.861 468.057 214.768 466.574 215.425C465.1 216.072 463.314 216.396 461.218 216.396C459.181 216.396 457.412 216.081 455.912 215.45C454.421 214.82 453.253 213.899 452.409 212.689C451.574 211.479 451.123 210.004 451.054 208.266H455.721C455.789 209.178 456.07 209.936 456.564 210.541C457.059 211.146 457.702 211.598 458.495 211.896C459.296 212.195 460.191 212.344 461.179 212.344C462.211 212.344 463.114 212.19 463.89 211.884C464.674 211.568 465.287 211.134 465.73 210.58C466.174 210.017 466.4 209.361 466.408 208.611C466.4 207.929 466.199 207.366 465.807 206.923C465.415 206.472 464.865 206.097 464.158 205.798C463.459 205.491 462.641 205.219 461.703 204.98L458.725 204.213C456.569 203.659 454.864 202.82 453.611 201.695C452.367 200.561 451.745 199.057 451.745 197.182C451.745 195.639 452.162 194.288 452.998 193.129C453.841 191.97 454.988 191.071 456.436 190.432C457.885 189.784 459.526 189.46 461.358 189.46C463.216 189.46 464.844 189.784 466.242 190.432C467.648 191.071 468.752 191.962 469.553 193.104C470.354 194.237 470.767 195.541 470.793 197.016H466.229ZM483.868 216.384C481.899 216.384 480.199 215.974 478.767 215.156C477.344 214.33 476.249 213.162 475.482 211.653C474.714 210.136 474.331 208.351 474.331 206.297C474.331 204.277 474.714 202.504 475.482 200.979C476.257 199.445 477.339 198.251 478.729 197.399C480.118 196.538 481.75 196.108 483.625 196.108C484.835 196.108 485.977 196.304 487.051 196.696C488.134 197.08 489.088 197.676 489.915 198.486C490.75 199.295 491.406 200.327 491.884 201.58C492.361 202.824 492.599 204.307 492.599 206.028V207.447H476.504V204.328H488.163C488.155 203.442 487.963 202.653 487.588 201.963C487.213 201.264 486.689 200.714 486.016 200.314C485.351 199.913 484.575 199.713 483.689 199.713C482.743 199.713 481.912 199.943 481.196 200.403C480.48 200.855 479.922 201.452 479.521 202.193C479.129 202.926 478.929 203.732 478.92 204.609V207.332C478.92 208.474 479.129 209.455 479.547 210.273C479.964 211.082 480.548 211.705 481.298 212.139C482.048 212.565 482.926 212.778 483.932 212.778C484.605 212.778 485.214 212.685 485.76 212.497C486.305 212.301 486.778 212.016 487.179 211.641C487.58 211.266 487.882 210.801 488.087 210.247L492.408 210.733C492.135 211.875 491.615 212.872 490.848 213.724C490.089 214.568 489.118 215.224 487.933 215.693C486.749 216.153 485.393 216.384 483.868 216.384ZM496.515 216V196.364H501.002V199.636H501.206C501.564 198.503 502.178 197.629 503.047 197.016C503.925 196.393 504.926 196.082 506.051 196.082C506.307 196.082 506.593 196.095 506.908 196.121C507.232 196.138 507.5 196.168 507.713 196.21V200.467C507.517 200.399 507.206 200.339 506.78 200.288C506.363 200.229 505.958 200.199 505.566 200.199C504.722 200.199 503.963 200.382 503.29 200.749C502.625 201.107 502.101 201.605 501.718 202.244C501.334 202.884 501.142 203.621 501.142 204.456V216H496.515ZM528.925 196.364L521.933 216H516.819L509.826 196.364H514.761L519.273 210.95H519.478L524.004 196.364H528.925ZM540.153 216.384C538.184 216.384 536.484 215.974 535.052 215.156C533.629 214.33 532.534 213.162 531.767 211.653C531 210.136 530.616 208.351 530.616 206.297C530.616 204.277 531 202.504 531.767 200.979C532.542 199.445 533.625 198.251 535.014 197.399C536.403 196.538 538.035 196.108 539.91 196.108C541.12 196.108 542.262 196.304 543.336 196.696C544.419 197.08 545.373 197.676 546.2 198.486C547.035 199.295 547.691 200.327 548.169 201.58C548.646 202.824 548.885 204.307 548.885 206.028V207.447H532.789V204.328H544.449C544.44 203.442 544.248 202.653 543.873 201.963C543.498 201.264 542.974 200.714 542.301 200.314C541.636 199.913 540.86 199.713 539.974 199.713C539.028 199.713 538.197 199.943 537.481 200.403C536.765 200.855 536.207 201.452 535.806 202.193C535.414 202.926 535.214 203.732 535.206 204.609V207.332C535.206 208.474 535.414 209.455 535.832 210.273C536.25 211.082 536.833 211.705 537.583 212.139C538.333 212.565 539.211 212.778 540.217 212.778C540.89 212.778 541.5 212.685 542.045 212.497C542.591 212.301 543.064 212.016 543.464 211.641C543.865 211.266 544.167 210.801 544.372 210.247L548.693 210.733C548.42 211.875 547.9 212.872 547.133 213.724C546.375 214.568 545.403 215.224 544.218 215.693C543.034 216.153 541.679 216.384 540.153 216.384ZM552.8 216V196.364H557.287V199.636H557.491C557.849 198.503 558.463 197.629 559.332 197.016C560.21 196.393 561.212 196.082 562.337 196.082C562.592 196.082 562.878 196.095 563.193 196.121C563.517 196.138 563.786 196.168 563.999 196.21V200.467C563.803 200.399 563.491 200.339 563.065 200.288C562.648 200.229 562.243 200.199 561.851 200.199C561.007 200.199 560.249 200.382 559.575 200.749C558.911 201.107 558.386 201.605 558.003 202.244C557.619 202.884 557.428 203.621 557.428 204.456V216H552.8ZM576.003 216V196.364H580.49V199.636H580.695C581.053 198.503 581.666 197.629 582.536 197.016C583.413 196.393 584.415 196.082 585.54 196.082C585.795 196.082 586.081 196.095 586.396 196.121C586.72 196.138 586.989 196.168 587.202 196.21V200.467C587.006 200.399 586.695 200.339 586.268 200.288C585.851 200.229 585.446 200.199 585.054 200.199C584.21 200.199 583.452 200.382 582.778 200.749C582.114 201.107 581.589 201.605 581.206 202.244C580.822 202.884 580.631 203.621 580.631 204.456V216H576.003ZM598.161 216.384C596.192 216.384 594.492 215.974 593.06 215.156C591.637 214.33 590.542 213.162 589.775 211.653C589.007 210.136 588.624 208.351 588.624 206.297C588.624 204.277 589.007 202.504 589.775 200.979C590.55 199.445 591.632 198.251 593.022 197.399C594.411 196.538 596.043 196.108 597.918 196.108C599.128 196.108 600.27 196.304 601.344 196.696C602.426 197.08 603.381 197.676 604.208 198.486C605.043 199.295 605.699 200.327 606.176 201.58C606.654 202.824 606.892 204.307 606.892 206.028V207.447H590.797V204.328H602.456C602.448 203.442 602.256 202.653 601.881 201.963C601.506 201.264 600.982 200.714 600.309 200.314C599.644 199.913 598.868 199.713 597.982 199.713C597.036 199.713 596.205 199.943 595.489 200.403C594.773 200.855 594.215 201.452 593.814 202.193C593.422 202.926 593.222 203.732 593.213 204.609V207.332C593.213 208.474 593.422 209.455 593.84 210.273C594.257 211.082 594.841 211.705 595.591 212.139C596.341 212.565 597.219 212.778 598.225 212.778C598.898 212.778 599.507 212.685 600.053 212.497C600.598 212.301 601.071 212.016 601.472 211.641C601.873 211.266 602.175 210.801 602.38 210.247L606.701 210.733C606.428 211.875 605.908 212.872 605.141 213.724C604.382 214.568 603.411 215.224 602.226 215.693C601.042 216.153 599.686 216.384 598.161 216.384ZM626.327 201.554L622.109 202.014C621.989 201.588 621.781 201.188 621.482 200.812C621.192 200.438 620.8 200.135 620.306 199.905C619.812 199.675 619.207 199.56 618.491 199.56C617.528 199.56 616.718 199.768 616.062 200.186C615.414 200.604 615.094 201.145 615.103 201.81C615.094 202.381 615.303 202.845 615.729 203.203C616.164 203.561 616.88 203.855 617.877 204.085L621.227 204.801C623.085 205.202 624.465 205.837 625.369 206.706C626.281 207.575 626.741 208.713 626.749 210.119C626.741 211.355 626.379 212.446 625.663 213.392C624.955 214.33 623.971 215.062 622.71 215.591C621.448 216.119 619.999 216.384 618.363 216.384C615.96 216.384 614.025 215.881 612.559 214.875C611.093 213.861 610.219 212.45 609.938 210.643L614.451 210.209C614.656 211.095 615.09 211.764 615.755 212.216C616.42 212.668 617.285 212.893 618.35 212.893C619.45 212.893 620.332 212.668 620.996 212.216C621.67 211.764 622.006 211.206 622.006 210.541C622.006 209.979 621.789 209.514 621.354 209.148C620.928 208.781 620.263 208.5 619.36 208.304L616.011 207.601C614.127 207.209 612.734 206.548 611.83 205.619C610.927 204.682 610.479 203.497 610.488 202.065C610.479 200.855 610.808 199.807 611.472 198.92C612.146 198.026 613.079 197.335 614.272 196.849C615.474 196.355 616.859 196.108 618.427 196.108C620.728 196.108 622.539 196.598 623.86 197.578C625.19 198.558 626.012 199.884 626.327 201.554ZM630.565 223.364V196.364H635.116V199.611H635.385C635.624 199.134 635.96 198.626 636.395 198.089C636.83 197.544 637.418 197.08 638.159 196.696C638.901 196.304 639.847 196.108 640.997 196.108C642.514 196.108 643.882 196.496 645.101 197.271C646.328 198.038 647.3 199.176 648.016 200.685C648.74 202.185 649.102 204.026 649.102 206.207C649.102 208.364 648.749 210.196 648.041 211.705C647.334 213.213 646.371 214.364 645.152 215.156C643.933 215.949 642.553 216.345 641.01 216.345C639.885 216.345 638.952 216.158 638.21 215.783C637.469 215.408 636.872 214.956 636.42 214.428C635.977 213.891 635.632 213.384 635.385 212.906H635.193V223.364H630.565ZM635.104 206.182C635.104 207.452 635.283 208.564 635.641 209.518C636.007 210.473 636.531 211.219 637.213 211.756C637.903 212.284 638.739 212.548 639.719 212.548C640.741 212.548 641.598 212.276 642.288 211.73C642.979 211.176 643.499 210.422 643.848 209.467C644.206 208.504 644.385 207.409 644.385 206.182C644.385 204.963 644.21 203.881 643.861 202.935C643.511 201.989 642.991 201.247 642.301 200.71C641.611 200.173 640.75 199.905 639.719 199.905C638.73 199.905 637.891 200.165 637.2 200.685C636.51 201.205 635.986 201.933 635.628 202.871C635.278 203.808 635.104 204.912 635.104 206.182ZM661.631 216.384C659.713 216.384 658.051 215.962 656.645 215.118C655.239 214.274 654.148 213.094 653.372 211.577C652.605 210.06 652.222 208.287 652.222 206.259C652.222 204.23 652.605 202.453 653.372 200.928C654.148 199.402 655.239 198.217 656.645 197.374C658.051 196.53 659.713 196.108 661.631 196.108C663.548 196.108 665.21 196.53 666.616 197.374C668.023 198.217 669.109 199.402 669.876 200.928C670.652 202.453 671.04 204.23 671.04 206.259C671.04 208.287 670.652 210.06 669.876 211.577C669.109 213.094 668.023 214.274 666.616 215.118C665.21 215.962 663.548 216.384 661.631 216.384ZM661.656 212.676C662.696 212.676 663.565 212.391 664.264 211.82C664.963 211.24 665.483 210.464 665.824 209.493C666.173 208.521 666.348 207.439 666.348 206.246C666.348 205.044 666.173 203.957 665.824 202.986C665.483 202.006 664.963 201.226 664.264 200.646C663.565 200.067 662.696 199.777 661.656 199.777C660.591 199.777 659.705 200.067 658.997 200.646C658.298 201.226 657.774 202.006 657.425 202.986C657.084 203.957 656.913 205.044 656.913 206.246C656.913 207.439 657.084 208.521 657.425 209.493C657.774 210.464 658.298 211.24 658.997 211.82C659.705 212.391 660.591 212.676 661.656 212.676ZM679.596 204.494V216H674.968V196.364H679.391V199.7H679.621C680.073 198.601 680.793 197.727 681.782 197.08C682.779 196.432 684.01 196.108 685.476 196.108C686.831 196.108 688.012 196.398 689.017 196.977C690.032 197.557 690.816 198.396 691.37 199.496C691.932 200.595 692.209 201.929 692.201 203.497V216H687.573V204.213C687.573 202.901 687.232 201.874 686.55 201.132C685.877 200.391 684.944 200.02 683.75 200.02C682.941 200.02 682.221 200.199 681.59 200.557C680.968 200.906 680.478 201.413 680.12 202.078C679.77 202.743 679.596 203.548 679.596 204.494ZM704.192 216.345C702.65 216.345 701.269 215.949 700.05 215.156C698.831 214.364 697.868 213.213 697.161 211.705C696.453 210.196 696.1 208.364 696.1 206.207C696.1 204.026 696.458 202.185 697.174 200.685C697.898 199.176 698.874 198.038 700.101 197.271C701.328 196.496 702.696 196.108 704.205 196.108C705.355 196.108 706.301 196.304 707.043 196.696C707.784 197.08 708.373 197.544 708.807 198.089C709.242 198.626 709.578 199.134 709.817 199.611H710.009V189.818H714.65V216H710.098V212.906H709.817C709.578 213.384 709.233 213.891 708.782 214.428C708.33 214.956 707.733 215.408 706.992 215.783C706.25 216.158 705.317 216.345 704.192 216.345ZM705.483 212.548C706.463 212.548 707.299 212.284 707.989 211.756C708.679 211.219 709.203 210.473 709.561 209.518C709.919 208.564 710.098 207.452 710.098 206.182C710.098 204.912 709.919 203.808 709.561 202.871C709.212 201.933 708.692 201.205 708.002 200.685C707.32 200.165 706.48 199.905 705.483 199.905C704.452 199.905 703.591 200.173 702.901 200.71C702.211 201.247 701.691 201.989 701.341 202.935C700.992 203.881 700.817 204.963 700.817 206.182C700.817 207.409 700.992 208.504 701.341 209.467C701.699 210.422 702.223 211.176 702.914 211.73C703.613 212.276 704.469 212.548 705.483 212.548ZM735.101 201.554L730.882 202.014C730.763 201.588 730.554 201.188 730.256 200.812C729.966 200.438 729.574 200.135 729.08 199.905C728.585 199.675 727.98 199.56 727.264 199.56C726.301 199.56 725.491 199.768 724.835 200.186C724.188 200.604 723.868 201.145 723.876 201.81C723.868 202.381 724.077 202.845 724.503 203.203C724.938 203.561 725.653 203.855 726.651 204.085L730 204.801C731.858 205.202 733.239 205.837 734.142 206.706C735.054 207.575 735.514 208.713 735.523 210.119C735.514 211.355 735.152 212.446 734.436 213.392C733.729 214.33 732.744 215.062 731.483 215.591C730.222 216.119 728.773 216.384 727.136 216.384C724.733 216.384 722.798 215.881 721.332 214.875C719.866 213.861 718.993 212.45 718.712 210.643L723.224 210.209C723.429 211.095 723.864 211.764 724.528 212.216C725.193 212.668 726.058 212.893 727.124 212.893C728.223 212.893 729.105 212.668 729.77 212.216C730.443 211.764 730.78 211.206 730.78 210.541C730.78 209.979 730.563 209.514 730.128 209.148C729.702 208.781 729.037 208.5 728.134 208.304L724.784 207.601C722.901 207.209 721.507 206.548 720.604 205.619C719.7 204.682 719.253 203.497 719.261 202.065C719.253 200.855 719.581 199.807 720.246 198.92C720.919 198.026 721.852 197.335 723.045 196.849C724.247 196.355 725.632 196.108 727.2 196.108C729.501 196.108 731.313 196.598 732.634 197.578C733.963 198.558 734.786 199.884 735.101 201.554ZM752.321 216L746.773 196.364H751.49L754.942 210.17H755.121L758.649 196.364H763.315L766.844 210.094H767.036L770.436 196.364H775.166L769.605 216H764.786L761.104 202.73H760.835L757.153 216H752.321ZM778.397 216V196.364H783.025V216H778.397ZM780.724 193.577C779.991 193.577 779.36 193.334 778.832 192.848C778.304 192.354 778.039 191.761 778.039 191.071C778.039 190.372 778.304 189.78 778.832 189.294C779.36 188.8 779.991 188.553 780.724 188.553C781.466 188.553 782.096 188.8 782.616 189.294C783.145 189.78 783.409 190.372 783.409 191.071C783.409 191.761 783.145 192.354 782.616 192.848C782.096 193.334 781.466 193.577 780.724 193.577ZM797.589 196.364V199.943H786.301V196.364H797.589ZM789.088 191.659H793.716V210.094C793.716 210.716 793.81 211.193 793.997 211.526C794.193 211.849 794.449 212.071 794.764 212.19C795.08 212.31 795.429 212.369 795.812 212.369C796.102 212.369 796.366 212.348 796.605 212.305C796.852 212.263 797.04 212.224 797.168 212.19L797.947 215.808C797.7 215.893 797.347 215.987 796.886 216.089C796.435 216.192 795.881 216.251 795.224 216.268C794.065 216.303 793.021 216.128 792.092 215.744C791.163 215.352 790.426 214.747 789.881 213.929C789.344 213.111 789.08 212.088 789.088 210.861V191.659ZM806.51 204.494V216H801.882V189.818H806.407V199.7H806.637C807.098 198.592 807.809 197.719 808.772 197.08C809.744 196.432 810.98 196.108 812.48 196.108C813.843 196.108 815.032 196.393 816.047 196.964C817.061 197.536 817.845 198.371 818.399 199.47C818.961 200.57 819.243 201.912 819.243 203.497V216H814.615V204.213C814.615 202.892 814.274 201.865 813.592 201.132C812.919 200.391 811.973 200.02 810.754 200.02C809.936 200.02 809.203 200.199 808.555 200.557C807.916 200.906 807.413 201.413 807.047 202.078C806.689 202.743 806.51 203.548 806.51 204.494ZM588.114 260V240.364H592.601V243.636H592.806C593.164 242.503 593.778 241.629 594.647 241.016C595.525 240.393 596.526 240.082 597.651 240.082C597.907 240.082 598.192 240.095 598.508 240.121C598.831 240.138 599.1 240.168 599.313 240.21V244.467C599.117 244.399 598.806 244.339 598.38 244.288C597.962 244.229 597.557 244.199 597.165 244.199C596.322 244.199 595.563 244.382 594.89 244.749C594.225 245.107 593.701 245.605 593.317 246.244C592.934 246.884 592.742 247.621 592.742 248.456V260H588.114ZM610.272 260.384C608.303 260.384 606.603 259.974 605.171 259.156C603.748 258.33 602.653 257.162 601.886 255.653C601.119 254.136 600.735 252.351 600.735 250.297C600.735 248.277 601.119 246.504 601.886 244.979C602.661 243.445 603.744 242.251 605.133 241.399C606.522 240.538 608.154 240.108 610.029 240.108C611.24 240.108 612.382 240.304 613.455 240.696C614.538 241.08 615.492 241.676 616.319 242.486C617.154 243.295 617.811 244.327 618.288 245.58C618.765 246.824 619.004 248.307 619.004 250.028V251.447H602.909V248.328H614.568C614.559 247.442 614.367 246.653 613.992 245.963C613.617 245.264 613.093 244.714 612.42 244.314C611.755 243.913 610.98 243.713 610.093 243.713C609.147 243.713 608.316 243.943 607.6 244.403C606.884 244.855 606.326 245.452 605.926 246.193C605.534 246.926 605.333 247.732 605.325 248.609V251.332C605.325 252.474 605.534 253.455 605.951 254.273C606.369 255.082 606.953 255.705 607.703 256.139C608.453 256.565 609.33 256.778 610.336 256.778C611.009 256.778 611.619 256.685 612.164 256.497C612.71 256.301 613.183 256.016 613.583 255.641C613.984 255.266 614.286 254.801 614.491 254.247L618.812 254.733C618.539 255.875 618.019 256.872 617.252 257.724C616.494 258.568 615.522 259.224 614.338 259.693C613.153 260.153 611.798 260.384 610.272 260.384ZM638.439 245.554L634.22 246.014C634.101 245.588 633.892 245.188 633.594 244.812C633.304 244.438 632.912 244.135 632.417 243.905C631.923 243.675 631.318 243.56 630.602 243.56C629.639 243.56 628.829 243.768 628.173 244.186C627.525 244.604 627.206 245.145 627.214 245.81C627.206 246.381 627.415 246.845 627.841 247.203C628.275 247.561 628.991 247.855 629.988 248.085L633.338 248.801C635.196 249.202 636.577 249.837 637.48 250.706C638.392 251.575 638.852 252.713 638.861 254.119C638.852 255.355 638.49 256.446 637.774 257.392C637.067 258.33 636.082 259.062 634.821 259.591C633.559 260.119 632.111 260.384 630.474 260.384C628.071 260.384 626.136 259.881 624.67 258.875C623.204 257.861 622.331 256.45 622.05 254.643L626.562 254.209C626.767 255.095 627.202 255.764 627.866 256.216C628.531 256.668 629.396 256.893 630.461 256.893C631.561 256.893 632.443 256.668 633.108 256.216C633.781 255.764 634.118 255.206 634.118 254.541C634.118 253.979 633.9 253.514 633.466 253.148C633.04 252.781 632.375 252.5 631.471 252.304L628.122 251.601C626.238 251.209 624.845 250.548 623.942 249.619C623.038 248.682 622.591 247.497 622.599 246.065C622.591 244.855 622.919 243.807 623.584 242.92C624.257 242.026 625.19 241.335 626.383 240.849C627.585 240.355 628.97 240.108 630.538 240.108C632.839 240.108 634.65 240.598 635.971 241.578C637.301 242.558 638.123 243.884 638.439 245.554ZM655.192 251.741V240.364H659.82V260H655.333V256.51H655.128C654.685 257.609 653.956 258.509 652.942 259.207C651.937 259.906 650.697 260.256 649.222 260.256C647.935 260.256 646.797 259.97 645.809 259.399C644.829 258.82 644.062 257.98 643.508 256.881C642.954 255.773 642.677 254.435 642.677 252.866V240.364H647.305V252.151C647.305 253.395 647.645 254.384 648.327 255.116C649.009 255.849 649.904 256.216 651.012 256.216C651.694 256.216 652.354 256.05 652.993 255.717C653.633 255.385 654.157 254.891 654.566 254.234C654.983 253.57 655.192 252.739 655.192 251.741ZM669.207 233.818V260H664.579V233.818H669.207ZM683.771 240.364V243.943H672.483V240.364H683.771ZM675.27 235.659H679.898V254.094C679.898 254.716 679.991 255.193 680.179 255.526C680.375 255.849 680.631 256.071 680.946 256.19C681.261 256.31 681.611 256.369 681.994 256.369C682.284 256.369 682.548 256.348 682.787 256.305C683.034 256.263 683.221 256.224 683.349 256.19L684.129 259.808C683.882 259.893 683.528 259.987 683.068 260.089C682.616 260.192 682.062 260.251 681.406 260.268C680.247 260.303 679.203 260.128 678.274 259.744C677.345 259.352 676.608 258.747 676.062 257.929C675.525 257.111 675.261 256.088 675.27 254.861V235.659Z" fill="black"/>
</svg>
